<?xml version="1.0" encoding="utf-8"?>
<!-- Generator: Adobe Illustrator 20.1.0, SVG Export Plug-In . SVG Version: 6.00 Build 0)  -->
<svg version="1.1" id="Layer_1" xmlns="http://www.w3.org/2000/svg" xmlns:xlink="http://www.w3.org/1999/xlink" x="0px" y="0px"
	 viewBox="0 0 50 50" style="enable-background:new 0 0 50 50;" xml:space="preserve">
<style type="text/css">
	.st0{fill:#1D1D1B;}
</style>
<g>
	<path class="st0" d="M25,49.282c-13.389,0-24.282-10.893-24.282-24.282S11.611,0.718,25,0.718s24.282,10.894,24.282,24.283
		S38.389,49.282,25,49.282z M25,5.166c-10.936,0-19.833,8.897-19.833,19.834c0,10.936,8.897,19.833,19.833,19.833
		s19.833-8.897,19.833-19.833C44.833,14.064,35.936,5.166,25,5.166z"/>
</g>
<g>
	<path class="st0" d="M25,10.79c-1.309,0-2.571,0.192-3.774,0.523L25.568,25l-13.72-5.371C11.17,21.287,10.79,23.098,10.79,25
		c0,7.848,6.362,14.21,14.21,14.21c7.848,0,14.21-6.362,14.21-14.21C39.21,17.152,32.848,10.79,25,10.79z"/>
</g>
</svg>
