<?xml version="1.0" encoding="utf-8"?>
<!-- Generator: Adobe Illustrator 20.1.0, SVG Export Plug-In . SVG Version: 6.00 Build 0)  -->
<svg version="1.1" id="Layer_1" xmlns="http://www.w3.org/2000/svg" xmlns:xlink="http://www.w3.org/1999/xlink" x="0px" y="0px"
	 viewBox="0 0 50 49.999" style="enable-background:new 0 0 50 49.999;" xml:space="preserve">
<style type="text/css">
	.st0{fill:#FFFFFF;}
	.st1{fill:#1D1D1B;}
</style>
<g>
	<circle class="st0" cx="24.999" cy="25" r="22.71"/>
	<path class="st1" d="M24.999,49.999C11.214,49.999,0,38.783,0,24.999C0,11.214,11.214,0,24.999,0S50,11.214,50,24.999
		C50,38.783,38.785,49.999,24.999,49.999z M24.999,4.58C13.74,4.58,4.58,13.74,4.58,24.999s9.16,20.419,20.419,20.419
		c11.26,0,20.42-9.16,20.42-20.419S36.26,4.58,24.999,4.58z"/>
</g>
<g>
	<path class="st1" d="M24.999,10.37c-1.348,0-2.646,0.197-3.886,0.538L25.584,25l-14.125-5.53c-0.698,1.707-1.09,3.572-1.09,5.53
		c0,8.08,6.55,14.63,14.63,14.63c8.08,0,14.63-6.55,14.63-14.63C39.629,16.92,33.079,10.37,24.999,10.37z"/>
</g>
</svg>
