<?xml version="1.0" encoding="utf-8"?>
<!-- Generator: Adobe Illustrator 20.0.0, SVG Export Plug-In . SVG Version: 6.00 Build 0)  -->
<svg version="1.1" id="Layer_1" xmlns="http://www.w3.org/2000/svg" xmlns:xlink="http://www.w3.org/1999/xlink" x="0px" y="0px"
	 viewBox="0 0 1920 1349" style="enable-background:new 0 0 1920 1349;" xml:space="preserve">
<style type="text/css">
	.st0{fill:none;}
	.st1{fill:#F2F2F1;}
	.st2{fill:#F9F9F9;}
	.st3{fill:#FDFDFC;}
</style>
<rect x="285.5" y="-285.5" transform="matrix(6.123234e-17 -1 1 6.123234e-17 285.5 1634.5)" class="st0" width="1349" height="1920"/>
<g>
	<polygon class="st1" points="295.46,73.322 295.46,146.642 208.187,109.982 	"/>
	<polygon class="st2" points="295.46,73.318 295.46,73.223 295.46,0 208.187,36.66 	"/>
	<polygon class="st3" points="295.46,73.327 295.46,146.649 382.729,109.987 	"/>
	<polygon class="st1" points="1567.427,30.034 1567.427,103.356 1654.7,66.694 	"/>
	<path class="st2" d="M1654.699,139.987l0.006-0.004l-0.006-0.002V139.987z M1654.699,139.982l87.267-36.656l-87.267-36.658v0.027
		V139.982z"/>
	<path class="st1" d="M1803.084,460.737v-73.293l-87.238,36.645L1803.084,460.737z M1803.084,387.445v-0.027l-0.031,0.015
		L1803.084,387.445z"/>
	<path class="st1" d="M1599.426,811.746v-73.293l-87.238,36.645L1599.426,811.746z M1599.426,738.453v-0.027l-0.031,0.015
		L1599.426,738.453z"/>
	<polygon class="st1" points="240.187,520.737 240.187,447.417 152.916,484.077 	"/>
	<polygon class="st2" points="152.917,484.078 152.917,484.078 240.187,447.416 152.917,410.756 	"/>
	<polygon class="st1" points="271.824,967.911 271.824,894.591 184.553,931.251 	"/>
	<polygon class="st2" points="271.824,894.592 271.824,894.592 359.095,857.93 271.824,821.27 	"/>
	<polygon class="st2" points="1599.426,885.068 1599.426,885.068 1686.697,848.406 1599.426,811.746 	"/>
</g>
</svg>
