<svg id="Layer_1" data-name="Layer 1" xmlns="http://www.w3.org/2000/svg" viewBox="0 0 433.281 364.012"><title>320-header-home</title><polygon points="216.643 136.363 324.813 90.925 216.643 45.486 216.643 136.363" fill="#7bc079" opacity="0.9"/><polygon points="433.28 136.485 433.28 227.489 324.96 181.987 433.28 136.485" fill="#80c41d" opacity="0.9"/><polygon points="216.643 136.485 216.643 227.489 108.321 181.987 216.643 136.485" fill="#4390c1" opacity="0.9"/><polygon points="324.961 364.01 433.281 318.506 324.961 273.006 324.961 364.01" fill="#def2bd" opacity="0.9"/><path d="M324.961,273h0v0Zm0,0,54.161-22.751L433.281,227.5,324.961,182V273" fill="#9ed44b" opacity="0.9"/><polygon points="433.28 318.499 433.28 227.497 379.121 250.249 324.96 273.002 433.28 318.499" fill="#c0e580" opacity="0.9"/><polyline points="324.961 273.002 379.122 250.249 324.961 272.999 324.961 273.002 324.961 272.999" fill="#8ecc34" opacity="0.9"/><polygon points="324.961 364.01 324.961 273.006 216.643 318.508 324.961 364.01" fill="#bde1b5" opacity="0.9"/><polygon points="108.322 364.012 216.64 318.506 108.322 273.004 108.322 364.012" fill="#c0e7f0" opacity="0.9"/><polygon points="108.322 364.01 108.322 273.006 0 318.508 108.322 364.01" fill="#b9c7da" opacity="0.9"/><polygon points="216.643 318.508 216.643 318.508 324.961 273.004 216.643 227.502 216.643 318.508" fill="#7bc079" opacity="0.9"/><polygon points="324.961 273.004 324.961 182.002 216.643 227.502 324.961 273.004" fill="#3c9d4e" opacity="0.9"/><polygon points="0.001 318.508 0.001 318.508 108.323 273.004 0.001 227.502 0.001 318.508" fill="#7996be" opacity="0.9"/><polygon points="108.328 273.001 108.321 272.999 108.321 273.003 108.328 273.001" fill="#4cb3d2" opacity="0.9"/><path d="M216.643,318.5v-91L108.328,273Zm0-91v0l-.009,0Z" fill="#81cfe3" opacity="0.9"/><polygon points="108.328 273.002 216.643 227.502 216.634 227.5 108.323 272.999 108.328 273.002" fill="#48a1ca" opacity="0.9"/><polygon points="324.961 181.985 433.281 136.478 324.961 90.978 324.961 181.985" fill="#9ed44b" opacity="0.9"/><polygon points="433.28 136.365 433.28 45.361 324.96 90.863 433.28 136.365" fill="#c0e580" opacity="0.9"/><polygon points="216.643 136.492 216.799 136.427 216.643 136.363 216.643 136.483 216.643 136.495 216.643 136.492" fill="#7bc079" opacity="0.9"/><polyline points="108.322 181.989 216.644 136.487 108.322 181.987" fill="#4390c1" opacity="0.9"/><path d="M324.961,181.865V90.985L216.8,136.428Zm0-90.879v-.122l-.147.063Z" fill="#3c9d4e" opacity="0.9"/><polygon points="216.8 136.427 324.961 90.984 324.814 90.925 216.643 136.364 216.8 136.427" fill="#2b8b3b" opacity="0.9"/><polygon points="108.322 272.999 216.635 227.5 108.322 182.002 108.322 272.999" fill="#4cb3d2" opacity="0.9"/><polygon points="108.322 273.004 108.322 272.999 108.322 182.002 0 227.502 108.322 273.004" fill="#3d6da6" opacity="0.9"/><polygon points="216.643 136.491 216.643 227.498 324.961 181.993 216.643 136.491" fill="#267b28" opacity="0.9"/><polygon points="324.961 91.011 433.281 45.507 324.961 0.007 324.961 91.011" fill="#def2bd" opacity="0.9"/><polygon points="324.961 91.011 324.961 0.007 216.643 45.509 324.961 91.011" fill="#bde1b5" opacity="0.9"/><polygon points="108.328 0.002 108.321 0 108.321 0.005 108.328 0.002" fill="#4cb3d2" opacity="0.9"/></svg>