<svg id="Layer_1" data-name="Layer 1" xmlns="http://www.w3.org/2000/svg" viewBox="0 0 866.757 455.048"><title>1200-header-home</title><polygon points="866.601 227.521 866.601 318.525 758.279 273.023 866.601 227.521" fill="#4390c1" opacity="0.9"/><polygon points="649.959 227.528 649.959 318.534 758.281 273.029 649.959 227.528" fill="#204893" opacity="0.9"/><polygon points="758.28 273.025 758.28 273.025 758.28 273.023 866.602 227.521 758.28 182.021 758.28 182.055 758.28 273.025" fill="#4cb3d2" opacity="0.9"/><path d="M758.28,273.024v-90.97L650,227.538Zm0-90.97v-.034l-.038.018Z" fill="#3d6da6" opacity="0.9"/><polygon points="649.959 227.516 649.959 136.515 541.637 182.017 649.959 227.516" fill="#d97bbb" opacity="0.9"/><polygon points="541.638 182.05 649.958 136.543 541.638 91.041 541.638 182.05" fill="#ecbddd" opacity="0.9"/><polygon points="216.643 227.399 324.813 181.961 216.643 136.522 216.643 227.399" fill="#7bc079" opacity="0.9"/><polygon points="758.28 455.048 866.597 409.542 758.28 364.04 758.28 455.048" fill="#c0e7f0" opacity="0.9"/><polygon points="758.28 455.046 758.28 364.042 649.958 409.544 758.28 455.046" fill="#b9c7da" opacity="0.9"/><polygon points="649.959 409.544 649.959 409.544 758.281 364.04 649.959 318.538 649.959 409.544" fill="#7996be" opacity="0.9"/><polygon points="758.285 364.037 758.279 364.035 758.279 364.039 758.285 364.037" fill="#4cb3d2" opacity="0.9"/><path d="M866.6,409.535v-91l-108.315,45.5Zm0-91v0l-.009,0Z" fill="#81cfe3" opacity="0.9"/><polygon points="758.285 364.038 866.601 318.538 866.592 318.536 758.281 364.036 758.285 364.038" fill="#48a1ca" opacity="0.9"/><polygon points="433.319 227.528 433.319 318.534 541.638 273.029 433.319 227.528" fill="#681988" opacity="0.9"/><polygon points="541.638 455.048 649.958 409.542 541.638 364.04 541.638 455.048" fill="#ecbddd" opacity="0.9"/><polygon points="541.638 455.046 541.638 364.042 433.318 409.544 541.638 455.046" fill="#d7bcdc" opacity="0.9"/><polygon points="433.319 409.544 433.319 409.544 541.638 364.04 433.319 318.538 433.319 409.544" fill="#ae7ebb" opacity="0.9"/><polygon points="541.643 364.037 541.636 364.035 541.636 364.039 541.643 364.037" fill="#c83e9c" opacity="0.9"/><polygon points="541.638 364.036 649.951 318.536 541.638 273.038 541.638 364.036" fill="#c83e9c" opacity="0.9"/><polygon points="541.638 364.04 541.638 364.036 541.638 273.038 433.318 318.538 541.638 364.04" fill="#8a48a0" opacity="0.9"/><path d="M649.959,409.535v-91l-108.315,45.5Zm0-91v0l-.009,0Z" fill="#d97bbb" opacity="0.9"/><polygon points="541.644 364.038 649.959 318.538 649.95 318.536 541.637 364.036 541.644 364.038" fill="#c0228d" opacity="0.9"/><polygon points="866.6 227.529 866.757 227.463 866.6 227.399 866.6 227.519 866.6 227.531 866.6 227.529" fill="#7bc079" opacity="0.9"/><polygon points="649.958 227.529 649.994 227.542 650.001 227.54 649.958 227.522 649.958 227.56 649.958 227.529" fill="#7996be" opacity="0.9"/><polygon points="649.995 227.543 649.959 227.529 649.959 227.559 649.995 227.543" fill="#204893" opacity="0.9"/><polyline points="649.959 227.523 758.242 182.039 649.959 136.553 649.959 227.521" fill="#7996be" opacity="0.9"/><path d="M758.28,91V.034L650,45.518Zm0-90.97V0l-.038.018Z" fill="#3d6da6" opacity="0.9"/><polygon points="650 227.539 758.279 182.055 758.243 182.039 649.96 227.523 649.96 227.52 650 227.539" fill="#295a9c" opacity="0.9"/><polygon points="433.319 227.523 541.6 182.039 433.319 136.553 433.319 227.523" fill="#ae7ebb" opacity="0.9"/><polygon points="541.638 273.025 541.638 273.025 541.638 273.023 649.96 227.521 541.638 182.021 541.638 182.055 541.638 273.025" fill="#c83e9c" opacity="0.9"/><polyline points="541.638 273.025 649.96 227.523 541.638 273.023" fill="#b7077c" opacity="0.9"/><path d="M541.638,273.024v-90.97L433.359,227.538Zm0-90.97v-.034l-.038.018Z" fill="#8a48a0" opacity="0.9"/><polygon points="433.36 227.539 541.639 182.055 541.6 182.039 433.319 227.523 433.36 227.539" fill="#7b2f93" opacity="0.9"/><polygon points="649.959 227.521 649.959 318.525 541.637 273.023 649.959 227.521" fill="#b7077c" opacity="0.9"/><polygon points="758.28 364.036 866.593 318.536 758.28 273.038 758.28 364.036" fill="#4cb3d2" opacity="0.9"/><polygon points="758.28 182.07 866.593 136.57 758.28 91.073 758.28 182.07" fill="#4cb3d2" opacity="0.9"/><polygon points="758.28 364.04 758.28 364.036 758.28 273.038 649.958 318.538 758.28 364.04" fill="#3d6da6" opacity="0.9"/><polygon points="433.28 227.521 433.28 318.525 324.96 273.023 433.28 227.521" fill="#80c41d" opacity="0.9"/><polygon points="216.643 227.521 216.643 318.525 108.321 273.023 216.643 227.521" fill="#4390c1" opacity="0.9"/><polygon points="324.961 455.046 433.281 409.542 324.961 364.042 324.961 455.046" fill="#def2bd" opacity="0.9"/><path d="M324.961,364.038h0v0Zm0,0,54.161-22.751,54.159-22.753-108.32-45.5v91.006" fill="#9ed44b" opacity="0.9"/><polygon points="433.28 409.535 433.28 318.534 379.121 341.285 324.96 364.038 433.28 409.535" fill="#c0e580" opacity="0.9"/><polyline points="324.961 364.038 379.122 341.285 324.961 364.036 324.961 364.038 324.961 364.036" fill="#8ecc34" opacity="0.9"/><polygon points="324.961 455.046 324.961 364.042 216.643 409.544 324.961 455.046" fill="#bde1b5" opacity="0.9"/><polygon points="108.322 455.048 216.64 409.542 108.322 364.04 108.322 455.048" fill="#c0e7f0" opacity="0.9"/><polygon points="108.322 455.046 108.322 364.042 0 409.544 108.322 455.046" fill="#b9c7da" opacity="0.9"/><polygon points="216.643 409.544 216.643 409.544 324.961 364.04 216.643 318.538 216.643 409.544" fill="#7bc079" opacity="0.9"/><polygon points="324.961 364.04 324.961 273.038 216.643 318.538 324.961 364.04" fill="#3c9d4e" opacity="0.9"/><polygon points="0.001 409.544 0.001 409.544 108.323 364.04 0.001 318.538 0.001 409.544" fill="#7996be" opacity="0.9"/><polygon points="108.328 364.037 108.321 364.035 108.321 364.039 108.328 364.037" fill="#4cb3d2" opacity="0.9"/><path d="M216.643,409.535v-91l-108.315,45.5Zm0-91v0l-.009,0Z" fill="#81cfe3" opacity="0.9"/><polygon points="108.328 364.038 216.643 318.538 216.634 318.536 108.323 364.036 108.328 364.038" fill="#48a1ca" opacity="0.9"/><polygon points="324.961 273.021 433.281 227.514 324.961 182.015 324.961 273.021" fill="#9ed44b" opacity="0.9"/><polygon points="433.28 227.401 433.28 136.397 324.96 181.899 433.28 227.401" fill="#c0e580" opacity="0.9"/><polygon points="216.643 227.529 216.799 227.463 216.643 227.399 216.643 227.519 216.643 227.531 216.643 227.529" fill="#7bc079" opacity="0.9"/><polyline points="108.322 273.025 216.644 227.523 108.322 273.023" fill="#4390c1" opacity="0.9"/><path d="M324.961,272.9V182.021L216.8,227.464Zm0-90.879V181.9l-.147.063Z" fill="#3c9d4e" opacity="0.9"/><polygon points="216.8 227.464 324.961 182.02 324.814 181.961 216.643 227.4 216.8 227.464" fill="#2b8b3b" opacity="0.9"/><polygon points="108.322 364.036 216.635 318.536 108.322 273.038 108.322 364.036" fill="#4cb3d2" opacity="0.9"/><polygon points="108.322 364.04 108.322 364.036 108.322 273.038 0 318.538 108.322 364.04" fill="#3d6da6" opacity="0.9"/><polygon points="216.643 227.528 216.643 318.534 324.961 273.029 216.643 227.528" fill="#267b28" opacity="0.9"/><polygon points="758.285 91.038 758.279 91.036 758.279 91.041 758.285 91.038" fill="#4cb3d2" opacity="0.9"/><polygon points="541.638 182.047 541.638 91.043 433.318 136.545 541.638 182.047" fill="#d7bcdc" opacity="0.9"/><polygon points="541.643 91.038 541.636 91.036 541.636 91.041 541.643 91.038" fill="#c83e9c" opacity="0.9"/><polygon points="324.961 182.047 433.281 136.543 324.961 91.043 324.961 182.047" fill="#def2bd" opacity="0.9"/><polygon points="324.961 182.047 324.961 91.043 216.643 136.545 324.961 182.047" fill="#bde1b5" opacity="0.9"/></svg>