<?xml version="1.0" encoding="utf-8"?>
<!-- Generator: Adobe Illustrator 19.1.0, SVG Export Plug-In . SVG Version: 6.00 Build 0)  -->
<svg version="1.1" id="Layer_1" xmlns="http://www.w3.org/2000/svg" xmlns:xlink="http://www.w3.org/1999/xlink" x="0px" y="0px"
	 viewBox="0 0 866.6 320.3" style="enable-background:new 0 0 866.6 320.3;" xml:space="preserve">
<style type="text/css">
	.st0{fill:#A7D16E;}
	.st1{fill:#C5DF9C;}
	.st2{fill:#9ACB55;}
	.st3{fill:#2DAB6D;}
	.st4{fill:#78A2CD;}
	.st5{fill:#00B7EC;}
	.st6{fill:#00AAE3;}
	.st7{fill:#E8C6DF;}
	.st8{fill:#D3C4E0;}
	.st9{fill:#AF92C4;}
	.st10{fill:#C862A5;}
	.st11{fill:#946AAD;}
	.st12{fill:#D692C0;}
	.st13{fill:#C24699;}
	.st14{fill:#3584BB;}
	.st15{fill:#DEEDCC;}
	.st16{fill:#BDDDC7;}
	.st17{fill:#7FC197;}
	.st18{fill:#6FCFF6;}
	.st19{fill:#BAE4F9;}
	.st20{fill:#B5CAE2;}
</style>
<g>
	<polygon points="541.9,82.9 541.4,83.1 541.9,83.3 541.4,83.5 541.9,83.6 	"/>
	<polygon points="541.9,83.3 541.4,83.1 541,83.3 541.4,83.5 	"/>
	<polygon points="542.3,83.5 541.9,83.3 542.3,83.1 541.9,82.9 541.9,83.3 541.9,83.6 	"/>
	<polygon points="542.7,83.3 542.3,83.1 541.9,83.3 542.3,83.5 	"/>
	<path class="st0" d="M758.3,182.1L758.3,182.1L758.3,182.1L758.3,182.1z M758.3,182.1l54.2-22.8l54.2-22.8L758.3,91.1V182.1"/>
	<polygon class="st1" points="866.6,227.6 866.6,136.6 812.4,159.3 758.3,182.1 	"/>
	<polyline class="st2" points="758.3,182.1 812.4,159.3 758.3,182.1 758.3,182.1 758.3,182.1 	"/>
	<polygon class="st3" points="758.3,182.1 758.3,91.1 650,136.6 	"/>
	<polygon class="st4" points="433.3,227.6 433.3,227.6 541.6,182.1 433.3,136.6 	"/>
	<polygon class="st5" points="541.6,182.1 541.6,182.1 541.6,182.1 	"/>
	<polygon class="st6" points="541.6,182.1 650,136.6 649.9,136.6 541.6,182.1 	"/>
	<polygon class="st7" points="325,273.1 433.3,227.6 325,182.1 	"/>
	<polygon class="st8" points="325,273.1 325,182.1 216.7,227.6 	"/>
	<polygon class="st9" points="216.7,227.6 216.7,227.6 325,182.1 216.7,136.6 	"/>
	<polygon class="st10" points="325,182.1 325,182.1 325,182.1 	"/>
	<polygon class="st10" points="325,182.1 433.3,136.6 325,91.1 	"/>
	<polygon class="st11" points="325,182.1 325,182.1 325,91.1 216.7,136.6 	"/>
	<path class="st12" d="M433.3,227.6v-91L325,182.1L433.3,227.6z M433.3,136.6L433.3,136.6L433.3,136.6L433.3,136.6z"/>
	<polygon class="st13" points="325,182.1 433.3,136.6 433.3,136.6 325,182.1 	"/>
	<polygon class="st5" points="541.6,182.1 649.9,136.6 541.6,91.1 	"/>
	<polygon class="st14" points="541.6,182.1 541.6,182.1 541.6,91.1 433.3,136.6 	"/>
	<polygon class="st15" points="108.3,273.1 216.6,227.6 108.3,182.1 	"/>
	<path class="st0" d="M108.3,182.1L108.3,182.1L108.3,182.1L108.3,182.1z M108.3,182.1l54.2-22.8l54.2-22.8L108.3,91.1V182.1"/>
	<polygon class="st1" points="216.6,227.6 216.6,136.6 162.5,159.3 108.3,182.1 	"/>
	<polyline class="st2" points="108.3,182.1 162.5,159.3 108.3,182.1 108.3,182.1 108.3,182.1 	"/>
	<polygon class="st16" points="108.3,273.1 108.3,182.1 0,227.6 	"/>
	<polygon class="st17" points="0,227.6 0,227.6 108.3,182.1 0,136.6 	"/>
	<polygon class="st3" points="108.3,182.1 108.3,91.1 0,136.6 	"/>
	<polygon class="st9" points="216.7,318.6 216.7,318.6 325,273.1 216.7,227.6 	"/>
	<polygon class="st1" points="216.6,318.5 216.6,227.5 162.5,250.3 108.3,273.1 	"/>
	<polygon class="st10" points="325,364.1 325,364.1 325,364.1 	"/>
	<polygon class="st1" points="866.6,136.5 866.6,45.5 812.4,68.3 758.3,91.1 	"/>
	<polygon class="st17" points="650,136.6 650,136.6 758.3,91.1 650,45.6 	"/>
	<polygon class="st4" points="433.3,136.6 433.3,136.6 541.6,91.1 433.3,45.6 	"/>
	<path class="st18" d="M650,136.5v-91L541.6,91.1L650,136.5z M650,45.6L650,45.6L650,45.6L650,45.6z"/>
	<polygon class="st9" points="216.7,136.6 216.7,136.6 325,91.1 216.7,45.6 	"/>
	<path class="st12" d="M433.3,136.5v-91L325,91.1L433.3,136.5z M433.3,45.6L433.3,45.6L433.3,45.6L433.3,45.6z"/>
	<polygon class="st1" points="216.6,136.5 216.6,45.5 162.5,68.3 108.3,91.1 	"/>
	<polygon class="st17" points="0,136.6 0,136.6 108.3,91.1 0,45.6 	"/>
	<polygon class="st15" points="758.3,91 866.6,45.5 758.3,0 	"/>
	<polygon class="st16" points="758.3,91 758.3,0 650,45.5 	"/>
	<polygon class="st19" points="541.6,91 650,45.5 541.6,0 	"/>
	<polygon class="st20" points="541.6,91 541.6,0 433.3,45.5 	"/>
	<polygon class="st5" points="541.6,0 541.6,0 541.6,0 	"/>
	<polygon class="st7" points="325,91 433.3,45.5 325,0 	"/>
	<polygon class="st8" points="325,91 325,0 216.7,45.5 	"/>
	<polygon class="st10" points="325,0 325,0 325,0 	"/>
	<polygon class="st15" points="108.3,91 216.6,45.5 108.3,0 	"/>
	<polygon class="st16" points="108.3,91 108.3,0 0,45.5 	"/>
</g>
</svg>
