<?xml version="1.0" encoding="utf-8"?>
<!-- Generator: Adobe Illustrator 20.0.0, SVG Export Plug-In . SVG Version: 6.00 Build 0)  -->
<svg version="1.1" xmlns="http://www.w3.org/2000/svg" xmlns:xlink="http://www.w3.org/1999/xlink" x="0px" y="0px"
	 viewBox="0 0 1200 315.054" enable-background="new 0 0 1200 315.054" xml:space="preserve">
<g id="Corner-pattern">
	<g>
		<polygon fill="#FFFFFF" points="149.999,63.015 300,0.001 0,0.001 		"/>
		<polygon fill="#FFFFFF" points="600,0.001 300,0.001 449.999,63.015 		"/>
		<polygon fill="#FFFFFF" points="900,0.001 600,0.001 749.999,63.015 		"/>
		<polygon fill="#FFFFFF" points="1200,0.001 900,0.001 1049.999,63.015 		"/>
	</g>
</g>
<g id="Color-pattern" opacity="0.9">
	<g opacity="0.9">
		<polygon fill="#D2C3E0" points="600.001,62.927 600.001,125.94 450.002,62.948 600.001,-0.086 		"/>
		<polygon fill="#DDECCB" points="300.005,62.972 300.005,-0.041 450.004,62.951 300.005,125.985 		"/>
		<polygon fill="#BDDDC6" points="300.001,62.971 300.001,125.984 150.002,62.991 300.001,-0.042 		"/>
		<polygon fill="#C4DE9A" points="450.004,125.963 450.004,188.976 300.005,125.984 450.004,62.95 		"/>
		<polygon fill="#80C096" points="150.001,126.004 150.001,62.991 300,125.984 150.001,189.017 		"/>
		<polygon fill="#AF91C3" points="450.004,125.963 450.004,62.95 600.003,125.943 450.004,188.976 		"/>
		<polygon fill="#00B6EB" points="0,189.043 0,126.03 149.999,189.022 0,252.056 		"/>
		<polygon fill="#B9E5FA" points="0,63.013 0,0 149.999,62.992 0,126.026 		"/>
		<polygon fill="#6FCFF5" points="149.999,126.007 149.999,189.02 0,126.028 149.999,62.994 		"/>
		<polygon fill="#6FCFF5" points="149.999,252.033 149.999,315.046 0,252.054 149.999,189.02 		"/>
	</g>
</g>
</svg>
