<?xml version="1.0" encoding="utf-8"?>
<!-- Generator: Adobe Illustrator 19.1.0, SVG Export Plug-In . SVG Version: 6.00 Build 0)  -->
<svg version="1.1" id="Layer_1" xmlns="http://www.w3.org/2000/svg" xmlns:xlink="http://www.w3.org/1999/xlink" x="0px" y="0px"
	 viewBox="0 0 1299.9 409.6" style="enable-background:new 0 0 1299.9 409.6;" xml:space="preserve">
<style type="text/css">
	.st0{fill:#A7D16E;}
	.st1{fill:#C5DF9C;}
	.st2{fill:#9ACB55;}
	.st3{fill:#2DAB6D;}
	.st4{fill:#78A2CD;}
	.st5{fill:#00B7EC;}
	.st6{fill:#00AAE3;}
	.st7{fill:#E8C6DF;}
	.st8{fill:#D3C4E0;}
	.st9{fill:#AF92C4;}
	.st10{fill:#C862A5;}
	.st11{fill:#946AAD;}
	.st12{fill:#D692C0;}
	.st13{fill:#C24699;}
	.st14{fill:#3584BB;}
	.st15{fill:#DEEDCC;}
	.st16{fill:#BDDDC7;}
	.st17{fill:#BAE4F9;}
	.st18{fill:#B5CAE2;}
	.st19{fill:#7FC197;}
	.st20{fill:#6FCFF6;}
	.st21{fill:#006BAA;}
	.st22{fill:#70599E;}
</style>
<polygon points="974.7,83.1 975.1,83.3 974.7,83.5 975.1,83.6 975.1,82.9 "/>
<polygon points="974.3,83.3 974.7,83.5 975.1,83.3 974.7,83.1 "/>
<polygon points="975.1,83.3 975.1,83.6 975.6,83.5 975.1,83.3 975.6,83.1 975.1,82.9 "/>
<polygon points="975.1,83.3 975.6,83.5 976,83.3 975.6,83.1 "/>
<polygon class="st0" points="1191.6,182.1 1191.6,182.1 1191.6,182.1 1191.6,182.1 1245.7,159.3 1299.9,136.6 1191.6,91.1 "/>
<polygon class="st1" points="1245.7,159.3 1191.6,182.1 1299.9,227.6 1299.9,136.6 "/>
<polyline class="st2" points="1191.6,182.1 1245.7,159.3 1191.6,182.1 1191.6,182.1 1191.6,182.1 "/>
<polygon class="st3" points="1191.6,182.1 1191.6,91.1 1083.2,136.6 "/>
<polygon class="st4" points="866.6,227.6 866.6,227.6 974.9,182.1 866.6,136.6 "/>
<polygon class="st5" points="974.9,182.1 974.9,182.1 974.9,182.1 "/>
<polygon class="st6" points="974.9,182.1 1083.2,136.6 1083.2,136.6 974.9,182.1 "/>
<polygon class="st7" points="758.3,273.1 866.6,227.6 758.3,182.1 "/>
<polygon class="st8" points="758.3,273.1 758.3,182.1 650,227.6 "/>
<polygon class="st9" points="650,227.6 650,227.6 758.3,182.1 650,136.6 "/>
<polygon class="st10" points="758.3,182.1 758.3,182.1 758.3,182.1 "/>
<polygon class="st10" points="758.3,182.1 866.6,136.6 758.3,91.1 "/>
<polygon class="st11" points="758.3,182.1 758.3,182.1 758.3,91.1 650,136.6 "/>
<path class="st12" d="M866.6,227.6v-91l-108.3,45.5L866.6,227.6z M866.6,136.6L866.6,136.6L866.6,136.6L866.6,136.6z"/>
<polygon class="st13" points="758.3,182.1 866.6,136.6 866.6,136.6 758.3,182.1 "/>
<polygon class="st5" points="974.9,182.1 1083.2,136.6 974.9,91.1 "/>
<polygon class="st14" points="974.9,182.1 974.9,182.1 974.9,91.1 866.6,136.6 "/>
<polygon points="324.7,83.1 325.2,83.3 324.7,83.5 325.2,83.6 325.2,82.9 "/>
<polygon points="324.3,83.3 324.7,83.5 325.2,83.3 324.7,83.1 "/>
<polygon points="162.6,16 163.4,15.7 162.6,15.3 163,15.2 162.6,15 "/>
<polygon points="162.6,15.3 163.4,15.7 163.8,15.5 163,15.2 "/>
<polygon points="325.2,83.3 325.2,83.6 325.6,83.5 325.2,83.3 325.6,83.1 325.2,82.9 "/>
<polygon points="325.2,83.3 325.6,83.5 326,83.3 325.6,83.1 "/>
<polygon class="st15" points="541.6,273.1 649.9,227.6 541.6,182.1 "/>
<path class="st0" d="M541.6,182.1L541.6,182.1L541.6,182.1L541.6,182.1z M541.6,182.1l54.2-22.8l54.2-22.8L541.6,91.1V182.1"/>
<polygon class="st1" points="649.9,227.6 649.9,136.6 595.8,159.3 541.6,182.1 "/>
<polyline class="st2" points="541.6,182.1 595.8,159.3 541.6,182.1 541.6,182.1 541.6,182.1 "/>
<polygon class="st16" points="541.6,273.1 541.6,182.1 433.3,227.6 "/>
<polygon class="st17" points="325,273.1 433.3,227.6 325,182.1 "/>
<polygon class="st18" points="325,273.1 325,182.1 216.6,227.6 "/>
<polygon class="st19" points="433.3,227.6 433.3,227.6 541.6,182.1 433.3,136.6 "/>
<polygon class="st3" points="541.6,182.1 541.6,91.1 433.3,136.6 "/>
<polygon class="st4" points="216.6,227.6 216.6,227.6 325,182.1 216.6,136.6 "/>
<polygon class="st5" points="325,182.1 325,182.1 325,182.1 "/>
<path class="st20" d="M433.3,227.6v-91L325,182.1L433.3,227.6z M433.3,136.6L433.3,136.6L433.3,136.6L433.3,136.6z"/>
<polygon class="st6" points="325,182.1 433.3,136.6 433.3,136.6 325,182.1 "/>
<polygon class="st7" points="108.3,273.1 216.6,227.6 108.3,182.1 "/>
<polygon class="st8" points="0,227.6 108.3,273.1 108.3,182.1 "/>
<polygon class="st9" points="0,227.6 108.3,182.1 0,136.6 "/>
<polygon class="st10" points="108.3,182.1 108.3,182.1 108.3,182.1 "/>
<polygon class="st10" points="108.3,182.1 216.6,136.6 108.3,91.1 "/>
<polygon class="st11" points="0,136.6 108.3,182.1 108.3,182.1 108.3,91.1 "/>
<path class="st12" d="M216.6,227.6v-91l-108.3,45.5L216.6,227.6z M216.6,136.6L216.6,136.6L216.6,136.6L216.6,136.6z"/>
<polygon class="st9" points="650,318.6 650,318.6 758.3,273.1 650,227.6 "/>
<polygon class="st1" points="649.9,318.5 649.9,227.5 595.8,250.3 541.6,273.1 "/>
<polygon class="st4" points="216.6,318.6 216.6,318.6 325,273.1 216.6,227.6 "/>
<polygon class="st9" points="0,318.6 108.3,273.1 0,227.6 "/>
<path class="st12" d="M216.6,318.5v-91l-108.3,45.5L216.6,318.5z M216.6,227.6L216.6,227.6L216.6,227.6L216.6,227.6z"/>
<polygon class="st13" points="108.3,182.1 216.6,136.6 216.6,136.6 108.3,182.1 "/>
<polygon class="st4" points="216.6,45.6 216.6,45.6 216.6,45.6 216.7,45.6 216.7,45.6 216.6,45.6 "/>
<polygon class="st21" points="216.6,45.6 216.7,45.6 216.6,45.6 "/>
<polygon class="st22" points="216.6,45.6 216.6,45.6 216.6,45.5 "/>
<polygon class="st5" points="325,182.1 433.3,136.6 325,91.1 "/>
<polygon class="st14" points="325,182.1 325,182.1 325,91.1 216.6,136.6 "/>
<polygon class="st10" points="758.3,364.1 758.3,364.1 758.3,364.1 "/>
<polygon class="st5" points="325,364.1 325,364.1 325,364.1 "/>
<polygon class="st9" points="0,409.6 108.3,364.1 0,318.6 "/>
<polygon class="st10" points="108.3,364.1 108.3,364.1 108.3,364.1 "/>
<polygon class="st10" points="108.3,364.1 216.6,318.6 108.3,273.1 "/>
<polygon class="st11" points="0,318.6 108.3,364.1 108.3,364.1 108.3,273.1 "/>
<polygon class="st13" points="108.3,364.1 216.6,318.6 216.6,318.6 108.3,364.1 "/>
<polygon class="st1" points="1245.7,68.3 1191.6,91.1 1299.9,136.5 1299.9,45.5 "/>
<polygon class="st19" points="1083.2,136.6 1083.2,136.6 1191.6,91.1 1083.2,45.6 "/>
<polygon class="st4" points="866.6,136.6 866.6,136.6 974.9,91.1 866.6,45.6 "/>
<path class="st20" d="M1083.2,136.5v-91L974.9,91.1L1083.2,136.5z M1083.2,45.6L1083.2,45.6L1083.2,45.6L1083.2,45.6z"/>
<polygon class="st9" points="650,136.6 650,136.6 758.3,91.1 650,45.6 "/>
<path class="st12" d="M866.6,136.5v-91L758.3,91.1L866.6,136.5z M866.6,45.6L866.6,45.6L866.6,45.6L866.6,45.6z"/>
<polygon class="st1" points="649.9,136.5 649.9,45.5 595.8,68.3 541.6,91.1 "/>
<polygon class="st19" points="433.3,136.6 433.3,136.6 541.6,91.1 433.3,45.6 "/>
<polygon class="st4" points="216.6,136.6 216.6,136.6 325,91.1 216.6,45.6 "/>
<path class="st20" d="M433.3,136.5v-91L325,91.1L433.3,136.5z M433.3,45.6L433.3,45.6L433.3,45.6L433.3,45.6z"/>
<polygon class="st9" points="0,136.6 108.3,91.1 0,45.6 "/>
<path class="st12" d="M216.6,136.5v-91L108.3,91.1L216.6,136.5z M216.6,45.6L216.6,45.6L216.6,45.6L216.6,45.6z"/>
<polygon class="st15" points="1191.6,91 1299.9,45.5 1191.6,0 "/>
<polygon class="st16" points="1083.2,45.5 1191.6,91 1191.6,0 "/>
<polygon class="st17" points="974.9,91 1083.2,45.5 974.9,0 "/>
<polygon class="st18" points="866.6,45.5 974.9,91 974.9,0 "/>
<polygon class="st5" points="974.9,0 974.9,0 974.9,0 "/>
<polygon class="st7" points="758.3,91 866.6,45.5 758.3,0 "/>
<polygon class="st8" points="650,45.5 758.3,91 758.3,0 "/>
<polygon class="st10" points="758.3,0 758.3,0 758.3,0 "/>
<polygon class="st15" points="541.6,91 649.9,45.5 541.6,0 "/>
<polygon class="st16" points="433.3,45.5 541.6,91 541.6,0 "/>
<polygon class="st17" points="325,91 433.3,45.5 325,0 "/>
<polygon class="st18" points="216.6,45.5 325,91 325,0 "/>
<polygon class="st5" points="325,0 325,0 325,0 "/>
<polygon class="st7" points="108.3,91 216.6,45.5 108.3,0 "/>
<polygon class="st8" points="0,45.5 108.3,91 108.3,0 "/>
<polygon class="st10" points="108.3,0 108.3,0 108.3,0 "/>
</svg>
