<?xml version="1.0" encoding="utf-8"?>
<!-- Generator: Adobe Illustrator 19.1.0, SVG Export Plug-In . SVG Version: 6.00 Build 0)  -->
<svg version="1.1" id="Layer_1" xmlns="http://www.w3.org/2000/svg" xmlns:xlink="http://www.w3.org/1999/xlink" x="0px" y="0px"
	 viewBox="654 59 1920 675" style="enable-background:new 654 59 1920 675;" xml:space="preserve"  preserveAspectRatio="xMaxYMax">
<style type="text/css">
	.st0{fill:#FFFFFF;}
	.st1{opacity:0.9;}
	.st2{fill:#A6D06E;}
	.st3{fill:#2BAA6D;}
	.st4{fill:#C4DE9A;}
	.st5{fill:#8CC63F;}
	.st6{fill:#DDECCB;}
	.st7{fill:#BDDDC6;}
	.st8{fill:#80C096;}
	.st9{fill:#6FCFF5;}
	.st10{fill:#069DD8;}
	.st11{fill:#B9E5FA;}
	.st12{fill:#006BA9;}
</style>
<g>
	<g id="Corner-pattern">
		<polyline class="st0" points="2254,735 2574,735 2414,667.8 		"/>
		<polyline class="st0" points="1934.1,735 2254,735 2094.1,667.8 		"/>
		<polyline class="st0" points="1614.1,735 1934.1,735 1774.1,667.8 		"/>
		<polyline class="st0" points="1294.1,735 1614.1,735 1454.1,667.8 		"/>
		<polyline class="st0" points="974.2,735 1294.1,735 1134.1,667.8 		"/>
		<polyline class="st0" points="654,735 974,735 814,667.8 		"/>
	</g>
	<g id="Color-pattern">
		<g class="st1">
			<polygon class="st2" points="2414,600.6 2414,533.4 2574,600.6 2414,667.8 			"/>
			<polygon class="st3" points="2414,600.6 2414,667.8 2254,600.6 2414,533.4 			"/>
			<polygon class="st4" points="2574,667.8 2574,735 2414,667.8 2574,600.6 			"/>
			<polygon class="st5" points="2574,533.4 2574,600.6 2414,533.4 2574,466.2 			"/>
			<polygon class="st6" points="2414,331.8 2414,264.6 2574,331.8 2414,399 			"/>
			<polygon class="st7" points="2414,331.8 2414,399 2254,331.8 2414,264.6 			"/>
			<polygon class="st4" points="2574,399 2574,466.2 2414,399 2574,331.8 			"/>
			<polygon class="st4" points="2574,264.5 2574,331.8 2414,264.6 2574,197.3 			"/>
			<polygon class="st3" points="2414,197.4 2414,264.6 2254,197.4 2414,130.2 			"/>
			<polygon class="st8" points="2254,264.6 2254,197.4 2414,264.6 2254,331.8 			"/>
			<polygon class="st9" points="2254,264.6 2254,331.8 2094,264.6 2254,197.4 			"/>
			<polygon class="st10" points="2254,130.2 2254,197.4 2094,130.2 2254,63 			"/>
			<polygon class="st9" points="2254,399 2254,466.2 2094,399 2254,331.8 			"/>
			<polygon class="st11" points="2094,331.8 2094,264.6 2254,331.8 2094,399 			"/>
			<polygon class="st12" points="1934.1,264.6 1934.1,197.4 2094,264.6 1934.1,331.8 			"/>
			<polygon class="st3" points="2414,466.2 2414,533.4 2254,466.2 2414,399 			"/>
			<polygon class="st2" points="2414,466.2 2414,399 2574,466.2 2414,533.4 			"/>
		</g>
	</g>
</g>
</svg>
