<?xml version="1.0" encoding="utf-8"?>
<!-- Generator: Adobe Illustrator 20.0.0, SVG Export Plug-In . SVG Version: 6.00 Build 0)  -->
<svg version="1.1" xmlns="http://www.w3.org/2000/svg" xmlns:xlink="http://www.w3.org/1999/xlink" x="0px" y="0px"
	 viewBox="0 0 320 168.071" enable-background="new 0 0 320 168.071" xml:space="preserve">
<g id="White">
	<g>
		<g>
			<path fill="#FFFFFF" d="M79.999,33.655L160,0.047H0L79.999,33.655z M160,0.047l79.999,33.608L320,0.047H160z"/>
		</g>
	</g>
</g>
<g id="Color">
	<polygon fill="#6FCFF5" points="80,67.25 80,100.857 0,67.261 80,33.642 	"/>
	<polygon fill="#6FCFF5" points="80,134.464 80,168.071 0,134.475 80,100.857 	"/>
	<polygon fill="#00B6EB" points="0,100.867 0,67.26 80,100.856 0,134.474 	"/>
	<polygon fill="#80C096" points="80,67.25 80,33.642 160,67.239 80,100.857 	"/>
	<polygon fill="#BDDDC6" points="160,33.63 160,67.237 80,33.641 160,0.023 	"/>
	<polygon fill="#D2C3E0" points="320,33.607 320,67.214 240,33.618 320,0 	"/>
	<polygon fill="#DDECCB" points="160,33.63 160,0.023 240,33.619 160,67.237 	"/>
	<polygon fill="#C4DE9A" points="240,67.224 240,100.831 160,67.235 240,33.617 	"/>
	<polygon fill="#AF91C3" points="240,67.226 240,33.619 320,67.215 240,100.833 	"/>
	<polygon fill="#B9E5FA" points="0,33.653 0,0.046 80,33.642 0,67.26 	"/>
</g>
</svg>
