<?xml version="1.0" encoding="utf-8"?>
<!-- Generator: Adobe Illustrator 20.0.0, SVG Export Plug-In . SVG Version: 6.00 Build 0)  -->
<svg version="1.1" xmlns="http://www.w3.org/2000/svg" xmlns:xlink="http://www.w3.org/1999/xlink" x="0px" y="0px"
	 viewBox="0 0 768 282.342" enable-background="new 0 0 768 282.342" xml:space="preserve">
<g id="Corner-pattern">
	<g>
		<polygon fill="#FFFFFF" points="672.001,242.013 576,282.342 768,282.342 		"/>
		<polygon fill="#FFFFFF" points="384,282.342 576,282.342 480.001,242.013 		"/>
		<polygon fill="#FFFFFF" points="192,282.342 384,282.342 288.001,242.013 		"/>
		<polygon fill="#FFFFFF" points="0,282.342 192,282.342 96.001,242.013 		"/>
	</g>
</g>
<g id="Color-pattern" opacity="0.9">
	<g opacity="0.9">
		<polygon fill="#89C193" points="672,201.643 672,161.314 768,201.63 672,241.971 		"/>
		<polygon fill="#84CFF4" points="672,201.643 672,241.971 576,201.656 672,161.314 		"/>
		<polygon fill="#C8E8FA" points="576,241.987 576,201.658 672,241.973 576,282.315 		"/>
		<polygon fill="#ECCFE4" points="384,242.014 384,201.685 480,242.001 384,282.342 		"/>
		<polygon fill="#C2D1E8" points="576,241.987 576,282.315 480,242 576,201.658 		"/>
		<polygon fill="#10B4E9" points="576,161.328 576,120.999 672,161.314 576,201.656 		"/>
		<polygon fill="#82A7D2" points="480,201.672 480,161.343 576,201.659 480,242 		"/>
		<polygon fill="#DB98C2" points="480,201.672 480,242 384,201.685 480,161.343 		"/>
		<polygon fill="#DCCDE6" points="384,242.014 384,282.342 288,242.027 384,201.685 		"/>
		<polygon fill="#C9E1CB" points="768,241.959 768,282.287 672,241.972 768,201.63 		"/>
		<polygon fill="#2AA261" points="768,161.302 768,201.63 672,161.315 768,120.973 		"/>
		<polygon fill="#2AA261" points="768,80.645 768,120.973 672,80.658 768,40.316 		"/>
		<polygon fill="#89C193" points="672,40.329 672,0 768,40.315 672,80.657 		"/>
		<polygon fill="#008D3C" points="672,120.986 672,80.657 768,120.973 672,161.314 		"/>
	</g>
</g>
</svg>
