<svg id="Layer_1" data-name="Layer 1" xmlns="http://www.w3.org/2000/svg" viewBox="0 0 866.595 318.558"><title>1200-footer-home</title><polygon points="541.637 91.013 649.954 45.507 541.637 0.005 541.637 91.013" fill="#c0e7f0" opacity="0.9"/><polygon points="541.637 91.011 541.637 0.007 433.315 45.509 541.637 91.011" fill="#b9c7da" opacity="0.9"/><path d="M758.275,182.067h0v0Zm0,0,54.161-22.751L866.6,136.561l-108.32-45.5v91.006" fill="#9ed44b" opacity="0.9"/><polygon points="866.594 227.565 866.594 136.563 812.435 159.314 758.274 182.067 866.594 227.565" fill="#c0e580" opacity="0.9"/><polyline points="758.275 182.067 812.436 159.314 758.275 182.065 758.275 182.067 758.275 182.065" fill="#8ecc34" opacity="0.9"/><polygon points="758.275 182.069 758.275 91.068 649.958 136.567 758.275 182.069" fill="#3c9d4e" opacity="0.9"/><polygon points="433.316 227.573 433.316 227.573 541.638 182.069 433.316 136.567 433.316 227.573" fill="#7996be" opacity="0.9"/><polygon points="541.642 182.067 541.635 182.064 541.635 182.069 541.642 182.067" fill="#4cb3d2" opacity="0.9"/><polygon points="541.642 182.067 649.958 136.567 649.948 136.565 541.638 182.065 541.642 182.067" fill="#48a1ca" opacity="0.9"/><polygon points="324.995 273.078 433.315 227.571 324.995 182.069 324.995 273.078" fill="#ecbddd" opacity="0.9"/><polygon points="324.995 273.076 324.995 182.072 216.675 227.573 324.995 273.076" fill="#d7bcdc" opacity="0.9"/><polygon points="216.675 227.573 216.675 227.573 324.995 182.069 216.675 136.567 216.675 227.573" fill="#ae7ebb" opacity="0.9"/><polygon points="325 182.067 324.993 182.064 324.993 182.069 325 182.067" fill="#c83e9c" opacity="0.9"/><polygon points="324.995 182.065 433.308 136.565 324.995 91.068 324.995 182.065" fill="#c83e9c" opacity="0.9"/><polygon points="324.995 182.069 324.995 182.065 324.995 91.068 216.675 136.567 324.995 182.069" fill="#8a48a0" opacity="0.9"/><path d="M433.316,227.565v-91L325,182.067Zm0-91v0l-.009,0Z" fill="#d97bbb" opacity="0.9"/><polygon points="325.001 182.067 433.316 136.567 433.307 136.565 324.994 182.065 325.001 182.067" fill="#c0228d" opacity="0.9"/><polygon points="541.637 182.065 649.95 136.565 541.637 91.068 541.637 182.065" fill="#4cb3d2" opacity="0.9"/><polygon points="541.637 182.069 541.637 182.065 541.637 91.068 433.315 136.567 541.637 182.069" fill="#3d6da6" opacity="0.9"/><polygon points="108.317 273.076 216.637 227.571 108.317 182.072 108.317 273.076" fill="#def2bd" opacity="0.9"/><path d="M108.317,182.067h0v0Zm0,0,54.161-22.751,54.159-22.753-108.32-45.5v91.006" fill="#9ed44b" opacity="0.9"/><polygon points="216.636 227.565 216.636 136.563 162.478 159.314 108.317 182.067 216.636 227.565" fill="#c0e580" opacity="0.9"/><polyline points="108.317 182.067 162.479 159.314 108.317 182.065 108.317 182.067 108.317 182.065" fill="#8ecc34" opacity="0.9"/><polygon points="108.317 273.076 108.317 182.072 0 227.573 108.317 273.076" fill="#bde1b5" opacity="0.9"/><polygon points="0 227.573 0 227.573 108.317 182.069 0 136.567 0 227.573" fill="#7bc079" opacity="0.9"/><polygon points="108.317 182.069 108.317 91.068 0 136.567 108.317 182.069" fill="#3c9d4e" opacity="0.9"/><polygon points="216.675 318.558 216.675 318.558 324.995 273.054 216.675 227.552 216.675 318.558" fill="#ae7ebb" opacity="0.9"/><polygon points="216.636 318.549 216.636 227.548 162.478 250.299 108.317 273.052 216.636 318.549" fill="#c0e580" opacity="0.9"/><polygon points="866.594 136.55 866.594 45.548 812.435 68.299 758.274 91.052 866.594 136.55" fill="#c0e580" opacity="0.9"/><polygon points="649.958 136.559 649.958 136.559 758.275 91.054 649.958 45.553 649.958 136.559" fill="#7bc079" opacity="0.9"/><polygon points="433.316 136.559 433.316 136.559 541.638 91.054 433.316 45.553 433.316 136.559" fill="#7996be" opacity="0.9"/><path d="M649.958,136.55v-91l-108.315,45.5Zm0-91v0l-.009,0Z" fill="#81cfe3" opacity="0.9"/><polygon points="216.675 136.559 216.675 136.559 324.995 91.054 216.675 45.553 216.675 136.559" fill="#ae7ebb" opacity="0.9"/><path d="M433.316,136.55v-91L325,91.052Zm0-91v0l-.009,0Z" fill="#d97bbb" opacity="0.9"/><polygon points="216.636 136.55 216.636 45.548 162.478 68.299 108.317 91.052 216.636 136.55" fill="#c0e580" opacity="0.9"/><polygon points="0 136.559 0 136.559 108.317 91.054 0 45.553 0 136.559" fill="#7bc079" opacity="0.9"/><polygon points="758.275 91.011 866.595 45.507 758.275 0.007 758.275 91.011" fill="#def2bd" opacity="0.9"/><polygon points="758.275 91.011 758.275 0.007 649.958 45.509 758.275 91.011" fill="#bde1b5" opacity="0.9"/><polygon points="324.995 91.013 433.315 45.507 324.995 0.005 324.995 91.013" fill="#ecbddd" opacity="0.9"/><polygon points="324.995 91.011 324.995 0.007 216.675 45.509 324.995 91.011" fill="#d7bcdc" opacity="0.9"/><polygon points="325 0.002 324.993 0 324.993 0.005 325 0.002" fill="#c83e9c" opacity="0.9"/><polygon points="108.317 91.011 216.637 45.507 108.317 0.007 108.317 91.011" fill="#def2bd" opacity="0.9"/><polygon points="108.317 91.011 108.317 0.007 0 45.509 108.317 91.011" fill="#bde1b5" opacity="0.9"/></svg>