<?xml version="1.0" encoding="utf-8"?>
<!-- Generator: Adobe Illustrator 20.0.0, SVG Export Plug-In . SVG Version: 6.00 Build 0)  -->
<svg version="1.1" xmlns="http://www.w3.org/2000/svg" xmlns:xlink="http://www.w3.org/1999/xlink" x="0px" y="0px"
	 viewBox="0 0 1920 470.559" enable-background="new 0 0 1920 470.559" xml:space="preserve">
<g id="Corner-pattern">
	<polyline fill="#FFFFFF" points="319.968,0.133 0,0.133 159.982,67.341 	"/>
	<polyline fill="#FFFFFF" points="639.936,0.133 319.968,0.133 479.95,67.341 	"/>
	<polyline fill="#FFFFFF" points="959.904,0.133 639.936,0.133 799.918,67.341 	"/>
	<polyline fill="#FFFFFF" points="1279.871,0.133 959.904,0.133 1119.886,67.341 	"/>
	<polyline fill="#FFFFFF" points="1599.839,0.133 1279.871,0.133 1439.854,67.341 	"/>
	<polyline fill="#FFFFFF" points="1920,0.133 1600.032,0.133 1760.014,67.341 	"/>
</g>
<g id="Color-pattern">
	<g opacity="0.9">
		<polygon fill="#DDECCB" points="639.933,67.25 639.933,0.044 799.914,67.228 639.933,134.457 		"/>
		<polygon fill="#C4DE9A" points="799.914,134.436 799.914,201.642 639.933,134.458 799.914,67.229 		"/>
		<polygon fill="#DDECCB" points="639.936,201.664 639.936,134.458 799.917,201.642 639.936,268.871 		"/>
		<polygon fill="#D2C3E0" points="959.901,67.206 959.901,134.413 799.92,67.228 959.901,0 		"/>
		<polygon fill="#AF91C3" points="799.923,134.435 799.923,67.228 959.904,134.413 799.923,201.641 		"/>
		<polygon fill="#BDDDC6" points="639.933,67.255 639.933,134.461 479.951,67.277 639.933,0.048 		"/>
		<polygon fill="#80C096" points="479.954,134.483 479.954,67.277 639.936,134.461 479.954,201.69 		"/>
		<polygon fill="#BDDDC6" points="639.936,201.669 639.936,268.875 479.954,201.691 639.936,134.462 		"/>
		<polygon fill="#B9E5FA" points="319.969,67.297 319.969,0.09 479.951,67.275 319.969,134.503 		"/>
		<polygon fill="#6FCFF5" points="479.951,134.482 479.951,201.689 319.969,134.504 479.951,67.276 		"/>
		<polygon fill="#00B6EB" points="319.972,201.711 319.972,134.504 479.953,201.689 319.972,268.917 		"/>
		<polygon fill="#E7C6DE" points="0,67.341 0,0.134 159.981,67.319 0,134.547 		"/>
		<polygon fill="#D592BF" points="159.981,134.526 159.981,201.733 0,134.548 159.981,67.32 		"/>
		<polygon fill="#C761A4" points="0.003,201.755 0.003,134.548 159.984,201.733 0.003,268.961 		"/>
		<polygon fill="#D592BF" points="159.984,268.94 159.984,336.147 0.003,268.962 159.984,201.734 		"/>
		<polygon fill="#E7C6DE" points="0.003,336.167 0.003,268.961 159.984,336.145 0.003,403.374 		"/>
		<polygon fill="#78A2CD" points="159.987,403.351 159.987,336.144 319.968,403.329 159.987,470.557 		"/>
		<polygon fill="#D592BF" points="159.984,403.353 159.984,470.559 0.003,403.375 159.984,336.147 		"/>
		<polygon fill="#B4C9E1" points="319.968,67.297 319.968,134.503 159.987,67.319 319.968,0.09 		"/>
		<polygon fill="#78A2CD" points="159.99,134.525 159.99,67.319 319.971,134.503 159.99,201.731 		"/>
		<polygon fill="#3484BB" points="319.971,201.711 319.971,268.917 159.99,201.733 319.971,134.504 		"/>
		<polygon fill="#78A2CD" points="159.99,268.938 159.99,201.731 319.971,268.916 159.99,336.144 		"/>
		<polygon fill="#B4C9E1" points="319.971,336.123 319.971,403.33 159.99,336.145 319.971,268.917 		"/>
	</g>
</g>
</svg>
