<svg id="Layer_1" data-name="Layer 1" xmlns="http://www.w3.org/2000/svg" viewBox="0 0 1299.92 455.048"><title>1920-header-home</title><polygon points="974.919 273.025 974.919 273.025 974.919 273.023 1083.241 227.521 974.919 182.021 974.919 182.055 974.919 273.025" fill="#4cb3d2" opacity="0.9"/><path d="M974.919,273.024v-90.97L866.64,227.538Zm0-90.97v-.034l-.038.018Z" fill="#3d6da6" opacity="0.9"/><polygon points="866.599 227.516 866.599 136.515 758.276 182.017 866.599 227.516" fill="#d97bbb" opacity="0.9"/><polygon points="1083.241 227.521 1083.241 318.525 974.919 273.023 1083.241 227.521" fill="#4390c1" opacity="0.9"/><polygon points="1191.558 455.046 1299.878 409.542 1191.558 364.042 1191.558 455.046" fill="#def2bd" opacity="0.9"/><path d="M1191.558,364.038h0v0Zm0,0,54.161-22.751,54.159-22.753-108.32-45.5v91.006" fill="#9ed44b" opacity="0.9"/><polygon points="1299.877 409.535 1299.877 318.534 1245.718 341.285 1191.557 364.038 1299.877 409.535" fill="#c0e580" opacity="0.9"/><polyline points="1191.558 364.038 1245.719 341.285 1191.558 364.036 1191.558 364.038 1191.558 364.036" fill="#8ecc34" opacity="0.9"/><polygon points="1191.558 455.046 1191.558 364.042 1083.241 409.544 1191.558 455.046" fill="#bde1b5" opacity="0.9"/><polygon points="974.919 455.048 1083.237 409.542 974.919 364.04 974.919 455.048" fill="#c0e7f0" opacity="0.9"/><polygon points="974.919 455.046 974.919 364.042 866.597 409.544 974.919 455.046" fill="#b9c7da" opacity="0.9"/><polygon points="1083.241 409.544 1083.241 409.544 1191.558 364.04 1083.241 318.538 1083.241 409.544" fill="#7bc079" opacity="0.9"/><polygon points="1191.558 364.04 1191.558 273.038 1083.241 318.538 1191.558 364.04" fill="#3c9d4e" opacity="0.9"/><polygon points="1191.558 273.121 1191.558 182.119 1083.241 227.619 1191.558 273.121" fill="#3c9d4e" opacity="0.9"/><polygon points="866.599 409.544 866.599 409.544 974.921 364.04 866.599 318.538 866.599 409.544" fill="#7996be" opacity="0.9"/><polygon points="974.925 364.037 974.918 364.035 974.918 364.039 974.925 364.037" fill="#4cb3d2" opacity="0.9"/><path d="M1083.241,409.535v-91l-108.315,45.5Zm0-91v0l-.009,0Z" fill="#81cfe3" opacity="0.9"/><polygon points="974.925 364.038 1083.24 318.538 1083.231 318.536 974.921 364.036 974.925 364.038" fill="#48a1ca" opacity="0.9"/><polygon points="649.958 227.528 649.958 318.534 758.278 273.029 649.958 227.528" fill="#681988" opacity="0.9"/><polygon points="758.278 455.048 866.597 409.542 758.278 364.04 758.278 455.048" fill="#ecbddd" opacity="0.9"/><polygon points="758.278 455.046 758.278 364.042 649.958 409.544 758.278 455.046" fill="#d7bcdc" opacity="0.9"/><polygon points="649.958 409.544 649.958 409.544 758.278 364.04 649.958 318.538 649.958 409.544" fill="#ae7ebb" opacity="0.9"/><polygon points="758.283 364.037 758.276 364.035 758.276 364.039 758.283 364.037" fill="#c83e9c" opacity="0.9"/><polygon points="758.278 364.036 866.591 318.536 758.278 273.038 758.278 364.036" fill="#c83e9c" opacity="0.9"/><polygon points="758.278 364.04 758.278 364.036 758.278 273.038 649.958 318.538 758.278 364.04" fill="#8a48a0" opacity="0.9"/><path d="M866.6,409.535v-91l-108.315,45.5Zm0-91v0l-.009,0Z" fill="#d97bbb" opacity="0.9"/><polygon points="758.284 364.038 866.599 318.538 866.59 318.536 758.277 364.036 758.284 364.038" fill="#c0228d" opacity="0.9"/><polygon points="1083.24 227.529 1083.396 227.463 1083.24 227.399 1083.24 227.519 1083.24 227.531 1083.24 227.529" fill="#7bc079" opacity="0.9"/><polygon points="866.598 227.529 866.634 227.542 866.641 227.54 866.598 227.522 866.598 227.56 866.598 227.529" fill="#7996be" opacity="0.9"/><polygon points="866.634 227.543 866.598 227.529 866.598 227.559 866.634 227.543" fill="#204893" opacity="0.9"/><polyline points="866.599 227.523 974.882 182.039 866.599 136.553 866.599 227.521" fill="#7996be" opacity="0.9"/><polyline points="974.919 273.025 1083.241 227.523 974.919 273.023" fill="#4390c1" opacity="0.9"/><path d="M974.919,91V.034L866.64,45.518Zm0-90.97V0l-.038.018Z" fill="#3d6da6" opacity="0.9"/><polygon points="866.64 227.539 974.919 182.055 974.883 182.039 866.599 227.523 866.599 227.52 866.64 227.539" fill="#295a9c" opacity="0.9"/><polygon points="649.958 227.523 758.24 182.039 649.958 136.553 649.958 227.523" fill="#ae7ebb" opacity="0.9"/><polygon points="758.278 273.025 758.278 273.025 758.278 273.023 866.6 227.521 758.278 182.021 758.278 182.055 758.278 273.025" fill="#c83e9c" opacity="0.9"/><polyline points="758.278 273.025 866.6 227.523 758.278 273.023" fill="#b7077c" opacity="0.9"/><path d="M758.278,273.024v-90.97L650,227.538Zm0-90.97v-.034l-.038.018Z" fill="#8a48a0" opacity="0.9"/><polygon points="649.999 227.539 758.278 182.055 758.24 182.039 649.958 227.523 649.999 227.539" fill="#7b2f93" opacity="0.9"/><polygon points="866.599 227.521 866.599 318.525 758.276 273.023 866.599 227.521" fill="#b7077c" opacity="0.9"/><polygon points="974.919 364.036 1083.232 318.536 974.919 273.038 974.919 364.036" fill="#4cb3d2" opacity="0.9"/><polygon points="974.919 182.07 1083.232 136.57 974.919 91.073 974.919 182.07" fill="#4cb3d2" opacity="0.9"/><polygon points="974.919 364.04 974.919 364.036 974.919 273.038 866.597 318.538 974.919 364.04" fill="#3d6da6" opacity="0.9"/><polygon points="866.599 227.528 866.599 318.534 974.921 273.029 866.599 227.528" fill="#204893" opacity="0.9"/><polygon points="1083.241 227.528 1083.241 318.534 1191.558 273.029 1083.241 227.528" fill="#267b28" opacity="0.9"/><polygon points="649.919 227.521 649.919 318.525 541.599 273.023 649.919 227.521" fill="#80c41d" opacity="0.9"/><polygon points="433.283 227.521 433.283 318.525 324.961 273.023 433.283 227.521" fill="#4390c1" opacity="0.9"/><polygon points="541.6 455.046 649.92 409.542 541.6 364.042 541.6 455.046" fill="#def2bd" opacity="0.9"/><path d="M541.6,364.038h0v0Zm0,0,54.161-22.751,54.159-22.753-108.32-45.5v91.006" fill="#9ed44b" opacity="0.9"/><polygon points="649.919 409.535 649.919 318.534 595.76 341.285 541.599 364.038 649.919 409.535" fill="#c0e580" opacity="0.9"/><polyline points="541.6 364.038 595.761 341.285 541.6 364.036 541.6 364.038 541.6 364.036" fill="#8ecc34" opacity="0.9"/><polygon points="541.6 455.046 541.6 364.042 433.283 409.544 541.6 455.046" fill="#bde1b5" opacity="0.9"/><polygon points="324.962 455.048 433.279 409.542 324.962 364.04 324.962 455.048" fill="#c0e7f0" opacity="0.9"/><polygon points="324.962 455.046 324.962 364.042 216.64 409.544 324.962 455.046" fill="#b9c7da" opacity="0.9"/><polygon points="433.283 409.544 433.283 409.544 541.6 364.04 433.283 318.538 433.283 409.544" fill="#7bc079" opacity="0.9"/><polygon points="541.6 364.04 541.6 273.038 433.283 318.538 541.6 364.04" fill="#3c9d4e" opacity="0.9"/><polygon points="216.641 409.544 216.641 409.544 324.963 364.04 216.641 318.538 216.641 409.544" fill="#7996be" opacity="0.9"/><polygon points="324.967 364.037 324.96 364.035 324.96 364.039 324.967 364.037" fill="#4cb3d2" opacity="0.9"/><path d="M433.283,409.535v-91l-108.315,45.5Zm0-91v0l-.009,0Z" fill="#81cfe3" opacity="0.9"/><polygon points="324.967 364.038 433.283 318.538 433.273 318.536 324.963 364.036 324.967 364.038" fill="#48a1ca" opacity="0.9"/><polygon points="108.32 455.048 216.64 409.542 108.32 364.04 108.32 455.048" fill="#ecbddd" opacity="0.9"/><polygon points="108.32 455.046 108.32 364.042 0 409.544 108.32 455.046" fill="#d7bcdc" opacity="0.9"/><polygon points="0 409.544 0 409.544 108.32 364.04 0 318.538 0 409.544" fill="#ae7ebb" opacity="0.9"/><polygon points="108.325 364.037 108.318 364.035 108.318 364.039 108.325 364.037" fill="#c83e9c" opacity="0.9"/><polygon points="108.32 364.036 216.633 318.536 108.32 273.038 108.32 364.036" fill="#c83e9c" opacity="0.9"/><polygon points="108.32 364.04 108.32 364.036 108.32 273.038 0 318.538 108.32 364.04" fill="#8a48a0" opacity="0.9"/><path d="M216.641,409.535v-91l-108.315,45.5Zm0-91v0l-.009,0Z" fill="#d97bbb" opacity="0.9"/><polygon points="108.326 364.038 216.641 318.538 216.632 318.536 108.319 364.036 108.326 364.038" fill="#c0228d" opacity="0.9"/><polygon points="541.6 273.021 649.92 227.514 541.6 182.015 541.6 273.021" fill="#9ed44b" opacity="0.9"/><polygon points="649.919 227.401 649.919 136.397 541.599 181.899 649.919 227.401" fill="#c0e580" opacity="0.9"/><polygon points="1299.919 227.62 1299.919 318.624 1191.599 273.122 1299.919 227.62" fill="#80c41d" opacity="0.9"/><polygon points="1191.6 273.12 1299.92 227.613 1191.6 182.114 1191.6 273.12" fill="#9ed44b" opacity="0.9"/><polygon points="1299.919 227.5 1299.919 136.496 1191.599 181.998 1299.919 227.5" fill="#c0e580" opacity="0.9"/><polygon points="433.282 227.529 433.439 227.463 433.282 227.399 433.282 227.519 433.282 227.531 433.282 227.529" fill="#7bc079" opacity="0.9"/><polyline points="324.962 273.025 433.284 227.523 324.962 273.023" fill="#4390c1" opacity="0.9"/><path d="M541.6,272.9V182.021L433.439,227.464Zm0-90.879V181.9l-.147.063Z" fill="#3c9d4e" opacity="0.9"/><polygon points="433.439 227.464 541.601 182.02 541.453 181.961 433.283 227.4 433.439 227.464" fill="#2b8b3b" opacity="0.9"/><polygon points="324.962 364.036 433.275 318.536 324.962 273.038 324.962 364.036" fill="#4cb3d2" opacity="0.9"/><polygon points="324.962 364.04 324.962 364.036 324.962 273.038 216.64 318.538 324.962 364.04" fill="#3d6da6" opacity="0.9"/><polygon points="433.283 227.528 433.283 318.534 541.6 273.029 433.283 227.528" fill="#267b28" opacity="0.9"/><polygon points="433.283 227.399 541.453 181.961 433.283 136.522 433.283 227.399" fill="#7bc079" opacity="0.9"/><polygon points="974.925 91.038 974.918 91.036 974.918 91.041 974.925 91.038" fill="#4cb3d2" opacity="0.9"/><polygon points="758.278 182.05 866.597 136.543 758.278 91.041 758.278 182.05" fill="#ecbddd" opacity="0.9"/><polygon points="758.278 182.047 758.278 91.043 649.958 136.545 758.278 182.047" fill="#d7bcdc" opacity="0.9"/><polygon points="758.283 91.038 758.276 91.036 758.276 91.041 758.283 91.038" fill="#c83e9c" opacity="0.9"/><polygon points="541.6 182.047 649.92 136.543 541.6 91.043 541.6 182.047" fill="#def2bd" opacity="0.9"/><polygon points="541.6 182.047 541.6 91.043 433.283 136.545 541.6 182.047" fill="#bde1b5" opacity="0.9"/></svg>