<?xml version="1.0" encoding="utf-8"?>
<!-- Generator: Adobe Illustrator 20.0.0, SVG Export Plug-In . SVG Version: 6.00 Build 0)  -->
<svg version="1.1" xmlns="http://www.w3.org/2000/svg" xmlns:xlink="http://www.w3.org/1999/xlink" x="0px" y="0px"
	 viewBox="0 0 1920 604.889" enable-background="new 0 0 1920 604.889" xml:space="preserve">
<g id="Corner-pattern">
	<g>
		<polyline fill="#FFFFFF" points="1600.032,604.889 1920,604.889 1760.018,537.68 		"/>
		<polyline fill="#FFFFFF" points="1280.064,604.889 1600.032,604.889 1440.05,537.68 		"/>
		<polyline fill="#FFFFFF" points="960.096,604.889 1280.064,604.889 1120.082,537.68 		"/>
		<polyline fill="#FFFFFF" points="640.129,604.889 960.096,604.889 800.114,537.68 		"/>
		<polyline fill="#FFFFFF" points="320.161,604.889 640.129,604.889 480.146,537.68 		"/>
		<polyline fill="#FFFFFF" points="0,604.889 319.968,604.889 159.986,537.68 		"/>
	</g>
</g>
<g id="Color-pattern">
	<g opacity="0.9">
		<polygon fill="#80C096" points="1760.016,470.453 1760.016,403.245 1920,470.431 1760.016,537.66 		"/>
		<polygon fill="#B9E5FA" points="1600.032,537.681 1600.032,470.474 1760.016,537.659 1600.032,604.889 		"/>
		<polygon fill="#00B6EB" points="1600.032,403.271 1600.032,336.063 1760.016,403.249 1600.032,470.478 		"/>
		<polygon fill="#6FCFF5" points="1760.016,470.453 1760.016,537.66 1600.032,470.475 1760.016,403.245 		"/>
		<polygon fill="#BDDDC6" points="1920,537.64 1920,604.847 1760.016,537.662 1920,470.432 		"/>
		<polygon fill="#2BAA6D" points="1920,403.225 1920,470.432 1760.016,403.247 1920,336.017 		"/>
		<polygon fill="#80C096" points="1760.016,201.623 1760.016,134.415 1920,201.601 1760.016,268.83 		"/>
		<polygon fill="#6FCFF5" points="1760.016,201.623 1760.016,268.83 1600.032,201.645 1760.016,134.415 		"/>
		<polygon fill="#2BAA6D" points="1920,268.809 1920,336.017 1760.016,268.831 1920,201.602 		"/>
		<polygon fill="#BDDDC6" points="1920,134.394 1920,201.602 1760.016,134.416 1920,67.187 		"/>
		<polygon fill="#6FCFF5" points="1760.016,67.208 1760.016,134.415 1600.032,67.23 1760.016,0 		"/>
		<polygon fill="#00B6EB" points="1600.032,268.854 1600.032,201.647 1760.016,268.832 1600.032,336.062 		"/>
		<polygon fill="#B4C9E1" points="1600.032,537.681 1600.032,604.889 1440.048,537.703 1600.032,470.474 		"/>
		<polygon fill="#069DD8" points="1760.016,336.038 1760.016,403.245 1600.032,336.06 1760.016,268.83 		"/>
		<polygon fill="#0B9349" points="1760.016,336.038 1760.016,268.83 1920,336.016 1760.016,403.245 		"/>
	</g>
</g>
</svg>
