<?xml version="1.0" encoding="utf-8"?>
<!-- Generator: Adobe Illustrator 20.0.0, SVG Export Plug-In . SVG Version: 6.00 Build 0)  -->
<svg version="1.1" xmlns="http://www.w3.org/2000/svg" xmlns:xlink="http://www.w3.org/1999/xlink" x="0px" y="0px"
	 viewBox="0 0 1920 470.524" enable-background="new 0 0 1920 470.524" xml:space="preserve" preserveAspectRatio="xMaxYMax">
<g id="Corner-pattern">
	<polyline fill="#FFFFFF" points="1600.032,470.455 1920,470.455 1760.018,403.247 	"/>
	<polyline fill="#FFFFFF" points="1280.064,470.455 1600.032,470.455 1440.05,403.247 	"/>
	<polyline fill="#FFFFFF" points="960.096,470.455 1280.064,470.455 1120.082,403.247 	"/>
	<polyline fill="#FFFFFF" points="640.129,470.455 960.096,470.455 800.114,403.247 	"/>
	<polyline fill="#FFFFFF" points="320.161,470.455 640.129,470.455 480.146,403.247 	"/>
	<polyline fill="#FFFFFF" points="0,470.455 319.968,470.455 159.986,403.247 	"/>
</g>
<g id="Color-pattern" opacity="0.9">
	<g>
		<polygon fill="#89C193" points="1760.013,336.038 1760.013,268.83 1919.997,336.016 1760.013,403.245 		"/>
		<polygon fill="#84CFF4" points="1760.013,336.038 1760.013,403.245 1600.029,336.06 1760.013,268.83 		"/>
		<polygon fill="#C8E8FA" points="1600.029,403.271 1600.029,336.063 1760.013,403.249 1600.029,470.478 		"/>
		<polygon fill="#ECCFE4" points="1280.062,403.316 1280.062,336.108 1440.046,403.294 1280.062,470.524 		"/>
		<polygon fill="#C2D1E8" points="1600.029,403.271 1600.029,470.478 1440.045,403.293 1600.029,336.063 		"/>
		<polygon fill="#10B4E9" points="1600.029,268.852 1600.029,201.645 1760.013,268.83 1600.029,336.06 		"/>
		<polygon fill="#10B4E9" points="1600.029,134.441 1600.029,67.233 1760.013,134.419 1600.029,201.648 		"/>
		<polygon fill="#3382BD" points="1600.029,268.858 1600.029,336.066 1440.045,268.88 1600.029,201.651 		"/>
		<polygon fill="#82A7D2" points="1440.045,336.086 1440.045,268.879 1600.029,336.064 1440.045,403.294 		"/>
		<polygon fill="#DB98C2" points="1440.045,336.086 1440.045,403.294 1280.061,336.108 1440.045,268.879 		"/>
		<polygon fill="#DCCDE6" points="1280.061,403.316 1280.061,470.524 1120.078,403.338 1280.061,336.108 		"/>
		<polygon fill="#CB5C9D" points="1280.061,268.901 1280.061,201.693 1440.045,268.879 1280.061,336.108 		"/>
		<polygon fill="#9B67A7" points="1280.061,268.901 1280.061,336.108 1120.078,268.923 1280.061,201.693 		"/>
		<polygon fill="#C9E1CB" points="1919.997,403.225 1919.997,470.432 1760.013,403.247 1919.997,336.017 		"/>
		<polygon fill="#2AA261" points="1919.997,268.809 1919.997,336.017 1760.013,268.831 1919.997,201.602 		"/>
		<polygon fill="#89C193" points="1760.013,67.208 1760.013,0 1919.997,67.186 1760.013,134.415 		"/>
		<polygon fill="#3382BD" points="1600.029,134.423 1600.029,201.631 1440.045,134.445 1600.029,67.216 		"/>
		<polygon fill="#0064A5" points="1440.045,201.671 1440.045,134.464 1600.029,201.649 1440.045,268.879 		"/>
		<polygon fill="#008D3C" points="1760.013,201.623 1760.013,134.415 1919.997,201.601 1760.013,268.83 		"/>
	</g>
</g>
</svg>
