<?xml version="1.0" encoding="utf-8"?>
<!-- Generator: Adobe Illustrator 20.0.0, SVG Export Plug-In . SVG Version: 6.00 Build 0)  -->
<svg version="1.1" xmlns="http://www.w3.org/2000/svg" xmlns:xlink="http://www.w3.org/1999/xlink" x="0px" y="0px"
	 viewBox="0 0 320 134.453" enable-background="new 0 0 320 134.453" xml:space="preserve">
<g id="White">
	<g>
		<g>
			<path fill="#FFFFFF" d="M79.999,33.655L160,0.047H0L79.999,33.655z M160,0.047l79.999,33.608L320,0.047H160z"/>
		</g>
	</g>
</g>
<g id="Color">
	<polygon fill="#6FCFF5" points="80,67.25 80,100.857 0,67.261 80,33.642 	"/>
	<polygon fill="#80C096" points="80,67.25 80,33.642 160,67.239 80,100.857 	"/>
	<polygon fill="#BDDDC6" points="160,33.63 160,67.237 80,33.641 160,0.023 	"/>
	<polygon fill="#D2C3E0" points="320,33.607 320,67.214 240,33.618 320,0 	"/>
	<polygon fill="#DDECCB" points="160,33.63 160,0.023 240,33.619 160,67.237 	"/>
	<polygon fill="#2BAA6D" points="160,100.846 160,134.453 80,100.857 160,67.239 	"/>
	<polygon fill="#B9E5FA" points="0,33.653 0,0.046 80,33.642 0,67.26 	"/>
</g>
</svg>
