<svg id="Layer_1" data-name="Layer 1" xmlns="http://www.w3.org/2000/svg" viewBox="0 0 32.726 54.684"><defs><style>.cls-1{fill:#fff;}</style></defs><title>de-kenmerken</title><path class="cls-1" d="M18.957,28.861l-3.4-.894a.254.254,0,0,0-.305.179.25.25,0,0,0,.178.306l3.4.894a.286.286,0,0,0,.063.008.25.25,0,0,0,.063-.492Z"/><path class="cls-1" d="M19.958,27.185a.251.251,0,0,0,.186.3l2.916.688a.235.235,0,0,0,.058.007.25.25,0,0,0,.058-.493L20.258,27A.247.247,0,0,0,19.958,27.185Z"/><path class="cls-1" d="M32.7,42.908c-.005-.016,0-.033-.006-.049s-.012-.006-.015-.012a.238.238,0,0,0-.1-.079c-.016-.007-.025-.022-.042-.025l-.008,0-8.819-1.8a.253.253,0,0,0-.3.2.251.251,0,0,0,.195.295l8.167,1.671L20.689,49.383l-2.366-3.8a.25.25,0,1,0-.424.264L20.051,49.3.8,43.884l5.1-3.861,3.953,1.209a.269.269,0,0,0,.073.011.246.246,0,0,0,.1-.021l1.34-.576a.25.25,0,1,0-.2-.459l-.991.426v-.463a.25.25,0,0,0-.5,0v.505L6.1,39.561V34.425c0-.021-.017-.034-.022-.054a2.207,2.207,0,0,0,1.437-2.3,2.171,2.171,0,0,0-1.442-2.3c.007-.024.028-.041.028-.067V18.149l6.646-1.814,1.975.11a4.647,4.647,0,0,0,.973,2.572l-4.6,3.011a.25.25,0,0,0-.113.222l.259,5.168-1.707.554L9.4,21.626l2.894-1.492a.25.25,0,0,0-.229-.444L9.029,21.253a.25.25,0,0,0-.135.228l.139,6.653-1.052.341c-.02.007-.031.025-.049.036s-.022,0-.03.007,0,.017-.011.024a.242.242,0,0,0-.082.172v1.209A.249.249,0,0,0,8,30.165l1.258.29v8.529a.25.25,0,0,0,.2.245l3.509.67a.192.192,0,0,0,.047,0h0a.246.246,0,0,0,.117-.03L14,39.407a.234.234,0,0,0,.1.078l.635.173v1.856a.249.249,0,0,0,.121.214,8.444,8.444,0,0,0,4.081,1,9.468,9.468,0,0,0,3.852-.835.251.251,0,0,0,.149-.229V37.829a.242.242,0,0,0-.014-.057.206.206,0,0,0-.008-.033.242.242,0,0,0-.09-.119c-.005,0-.011,0-.017-.006l-.008-.009a10.156,10.156,0,0,0-7.844.045V31.766l6.057,1.395a.221.221,0,0,0,.056.007.251.251,0,0,0,.083-.015l9.47-3.35a.249.249,0,0,0,.167-.235V28.21l0-.008,0-.009a.243.243,0,0,0-.069-.152c-.01-.01-.023-.012-.035-.021a.238.238,0,0,0-.091-.054L21.123,25.9a.239.239,0,0,0-.148.026l.261-1.651a1.626,1.626,0,0,0,.7.157,2.024,2.024,0,0,0,1.34-.555c.007-.006.006-.017.012-.024a.237.237,0,0,0,.062-.125.226.226,0,0,0,.007-.036c0-.008,0-.014,0-.022l-.1-1.49,1.883,1.694a.251.251,0,0,0,.167.064h.007a1.763,1.763,0,0,0,1.8-1.443.247.247,0,0,0-.048-.186l-2.019-2.675a.6.6,0,0,0,.1-.147.688.688,0,0,0-.009-.522l0,0v0a2.7,2.7,0,0,0-1.458-1.345,2.57,2.57,0,0,0,.177-1.125l3.346-.705a.25.25,0,0,0,.2-.265l-.248-3a.249.249,0,0,0-.135-.2L21.221,9.338a.257.257,0,0,0-.166-.022l-3.3.7L10.793.114a.252.252,0,0,0-.178-.1A2.9,2.9,0,0,0,8.545.633a2.487,2.487,0,0,0-.737,1.959.251.251,0,0,0,.044.14l6.577,9.473-2.316,2.6a.249.249,0,0,0-.063.167v1.038l-6.266,1.71a.25.25,0,0,0-.184.241V29.7c0,.026.02.043.028.067a2.171,2.171,0,0,0-1.442,2.3,2.207,2.207,0,0,0,1.436,2.3c0,.019-.022.033-.022.054v5.2L.1,43.788h0L.081,43.8h0A.249.249,0,0,0,0,43.99V47.8a.249.249,0,0,0,.172.237l20.354,6.632a.237.237,0,0,0,.078.013.251.251,0,0,0,.131-.037L32.607,47.3a.251.251,0,0,0,.118-.213V42.983A.232.232,0,0,0,32.7,42.908ZM14.576,39.1l.159-.086v.13Zm7.862,1.159c-2.71,1.33-6.4.3-7.2.054V38.271a10.457,10.457,0,0,0,7.2-.067Zm-7.2,1.11v-.533a14.121,14.121,0,0,0,3.927.6,8.117,8.117,0,0,0,3.276-.64v.7A8.683,8.683,0,0,1,15.236,41.365ZM22,37.829a10.143,10.143,0,0,1-6.267.077A10.135,10.135,0,0,1,22,37.829Zm-7.544.763-1.187.643V36.893a.25.25,0,0,0-.5,0v2.458L9.76,38.776V30.57l4.7,1.081ZM20.82,32.6,8.308,29.723v-.7L20.82,31.834Zm.5-.039v-.755l8.97-3.243v.825Zm-.3-6.175,8.623,1.88-8.586,3.1L9,28.669l9.054-2.938a.25.25,0,0,0-.154-.476l-6.175,2-.245-4.89,4.556-2.98a3.733,3.733,0,0,0,.984.644v1.5a.241.241,0,0,0,.022.078c0,.009,0,.018,0,.027a1.7,1.7,0,0,0,1.279.885v3.792a.249.249,0,0,0,.09.192,1.987,1.987,0,0,0,1.219.428,1.892,1.892,0,0,0,1.178-.423.249.249,0,0,0,.094-.158l.005-.034A.234.234,0,0,0,21.017,26.389Zm3.612-7.056a2.245,2.245,0,0,0-1.812,1.111,2.593,2.593,0,0,0-1.668-.176,2.225,2.225,0,0,0-1.357,1.141.248.248,0,0,0-.01.187,1.292,1.292,0,0,0-1.318.421,1.26,1.26,0,0,1-.837-.423,13.442,13.442,0,0,1,7.032-2.279A.265.265,0,0,1,24.629,19.333Zm-5.8,3.021c.067-.111.361-.451,1.192-.181.217.483.527,1.143.792,1.592l-.38,2.406a1.4,1.4,0,0,1-1.6.013Zm4.015.978a2.268,2.268,0,0,0-1.5.357,18.94,18.94,0,0,1-1.055-2.142,1.692,1.692,0,0,1,.986-.8,2.145,2.145,0,0,1,1.4.175Zm-.388.481a1.339,1.339,0,0,1-.456.111A1.692,1.692,0,0,1,22.454,23.814Zm2.949-.38-2.119-1.905c-.019-.018-.047-.014-.07-.025l-.048-.678a1.9,1.9,0,0,1,1.4-1l2.036,2.7A1.245,1.245,0,0,1,25.4,23.434Zm-.936-4.628h-.006a13.722,13.722,0,0,0-6.937,2.254V20.014c.576-.35,3.341-1.956,5.708-1.956h.1A1.572,1.572,0,0,1,24.467,18.806Zm-1.291-1.247a13.39,13.39,0,0,0-5.924,2.035,3.679,3.679,0,0,1-2.028-3.12l6.862.382H22.1a.271.271,0,0,0,.052-.005l1.22-.257A2.383,2.383,0,0,1,23.176,17.559Zm-2.1-7.734,5.2,2.666-1.948.476a.25.25,0,0,0,.06.493.255.255,0,0,0,.06-.007l2.134-.521a.237.237,0,0,0,.112-.082l.205,2.493L22.32,16.3l-.269-2.6a.249.249,0,0,0-.127-.192l-5.024-2.8ZM8.879,1.006A2.342,2.342,0,0,1,10.454.5l.98,1.394a2.829,2.829,0,0,0-2.24,1.893L8.308,2.512A1.977,1.977,0,0,1,8.879,1.006Zm.7,3.339A2.283,2.283,0,0,1,11.6,2.374a.238.238,0,0,0,.12-.064l5.5,7.819-1.069.227h0l-.009,0c-.01,0-.014.013-.023.016a.24.24,0,0,0-.112.062l-1.236,1.386Zm2.97,10.72,3.7-4.146,5.318,2.965.254,2.456-9.271-.516Zm-7.864,17c0-.994.533-1.834,1.164-1.834s1.165.84,1.165,1.834S6.481,33.9,5.85,33.9,4.686,33.063,4.686,32.069ZM.5,44.318l19.854,5.589v4.182l-.436-.142V51.784a.25.25,0,0,0-.5,0v2l-.759-.247V52.156a.25.25,0,0,0-.5,0v1.218L.5,47.62Zm20.354,9.667V49.864l8.73-4.934,2.641-1.516V46.95Z"/></svg>