<svg id="Layer_1" data-name="Layer 1" xmlns="http://www.w3.org/2000/svg" viewBox="0 0 52.664 44.391"><defs><style>.cls-1{fill:#fff;}</style></defs><title>onderscheuning-bij-het-maken-van-keuzes</title><path class="cls-1" d="M42.284,5.395a7.509,7.509,0,0,0-5.344,2.213L18.864,25.684l1.143-4.569L38.438,2.684A7.591,7.591,0,0,1,43.78.5h.034a6.815,6.815,0,0,1,4.886,2l.081.084a.25.25,0,1,0,.367-.339l-.093-.1A7.311,7.311,0,0,0,43.816,0H43.78a8.093,8.093,0,0,0-5.7,2.331l-18.3,18.3-5.317-5.317A7.77,7.77,0,0,0,4.178,14.6,7.534,7.534,0,0,0,1.6,18.651L.007,24.83a.237.237,0,0,0,.062.216,7.543,7.543,0,0,0,2.144,6.285l7.89,7.89a.25.25,0,0,0,.354-.354l-7.89-7.89A7.057,7.057,0,1,1,12.547,21l5.68,5.679,3.5,3.5a.25.25,0,1,0,.354-.354L18.757,26.5,37.294,7.961a7.057,7.057,0,1,1,9.98,9.98L23.393,41.824a7.059,7.059,0,0,1-9.98,0,.25.25,0,0,0-.354.354,7.559,7.559,0,0,0,10.688,0L47.628,18.3a7.557,7.557,0,0,0-5.344-12.9ZM7.556,18.429a7.507,7.507,0,0,0-6.232,3.291l.759-2.947a7.039,7.039,0,0,1,2.411-3.786,7.262,7.262,0,0,1,9.616.683L19.5,21.064,18.267,26.01,12.9,20.643A7.506,7.506,0,0,0,7.556,18.429Z"/><path class="cls-1" d="M17.466,22.335,13.906,18.6a.25.25,0,1,0-.361.345l3.56,3.732a.251.251,0,0,0,.181.077.246.246,0,0,0,.172-.069A.25.25,0,0,0,17.466,22.335Z"/><path class="cls-1" d="M27.79,14.462l-6.545,6.346a.25.25,0,0,0,.348.359l6.545-6.346a.25.25,0,1,0-.348-.359Z"/><path class="cls-1" d="M39.424,3.295a.25.25,0,0,0,.138.458.245.245,0,0,0,.138-.042c.03-.021,3.127-2.033,5.725-.787a.25.25,0,0,0,.217-.451C42.788,1.11,39.56,3.205,39.424,3.295Z"/><path class="cls-1" d="M36.576,6.193l-3.5,3.33a.25.25,0,0,0,.345.362l3.5-3.33a.25.25,0,1,0-.344-.362Z"/><path class="cls-1" d="M19.974,26.3a.25.25,0,0,0,.007.354l1.494,1.435a.252.252,0,0,0,.173.069.247.247,0,0,0,.18-.077.25.25,0,0,0-.007-.354l-1.494-1.435A.251.251,0,0,0,19.974,26.3Z"/><path class="cls-1" d="M23.72,23.891,30.61,17a.25.25,0,0,0-.354-.354l-6.89,6.89a.25.25,0,1,0,.354.354Z"/><path class="cls-1" d="M42.72,20.636,46,17.5a9.127,9.127,0,0,0,2.221-4.263.25.25,0,1,0-.492-.09,8.721,8.721,0,0,1-2.081,4l-3.272,3.129a.25.25,0,0,0,.346.361Z"/><path class="cls-1" d="M13.317,40.194a.25.25,0,1,0,.356-.35l-3.33-3.388a.25.25,0,1,0-.356.35Z"/><path class="cls-1" d="M17.744,28.959a.25.25,0,0,0,.176-.428l-6.258-6.2a.25.25,0,0,0-.352.355l6.258,6.2A.25.25,0,0,0,17.744,28.959Z"/><path class="cls-1" d="M11.224,16.588A7.414,7.414,0,0,0,3.8,17.631.25.25,0,1,0,4.134,18a7.015,7.015,0,0,1,6.925-.939.25.25,0,1,0,.165-.472Z"/><path class="cls-1" d="M19.911,30.876a.25.25,0,0,0,0,.354l3.356,3.355-.3.683a.25.25,0,0,0,.363.312c.141-.09.288-.182.434-.271a.255.255,0,0,0-.018.086.25.25,0,0,0,.073.185l.883.884a.25.25,0,1,0,.354-.354l-.7-.7a6.282,6.282,0,0,0,.918-.954.285.285,0,0,0-.049-.324c-.135-.125-.205-.188-1.479.594l.042-.1a.25.25,0,0,0-.052-.277l-3.477-3.477A.25.25,0,0,0,19.911,30.876Z"/><path class="cls-1" d="M8.054,31.464,9.6,33.008a.25.25,0,1,0,.354-.354L8.481,31.184v-.647a.25.25,0,0,0-.4-.2l-.4.3.132-.294a.25.25,0,0,0-.4-.279l-.147.147L3.576,26.529a.25.25,0,0,0-.354.354l3.566,3.566-.174.436a.25.25,0,0,0,.094.3.229.229,0,0,0,.157.04l-.041.091a.25.25,0,0,0,.378.3l.778-.584v.251A.25.25,0,0,0,8.054,31.464Z"/><path class="cls-1" d="M33.451,19.4,38.9,13.948a.25.25,0,1,0-.354-.354L33.1,19.045a.25.25,0,1,0,.354.354Z"/><path class="cls-1" d="M52.591,5.68,50.41,3.5a.25.25,0,0,0-.354.354l2.181,2.18a.25.25,0,1,0,.354-.354Z"/><path class="cls-1" d="M47.386,3.636a.25.25,0,0,0,0,.354l1.563,1.562A.25.25,0,1,0,49.3,5.2L47.739,3.636A.25.25,0,0,0,47.386,3.636Z"/></svg>