<svg id="Layer_1" data-name="Layer 1" xmlns="http://www.w3.org/2000/svg" viewBox="0 0 68.656 49.444"><defs><style>.cls-1{fill:#fff;}</style></defs><title>toolbox</title><path class="cls-1" d="M53.43,43.639,50,43.165a.255.255,0,0,0-.282.214.251.251,0,0,0,.214.282l3.427.475a2.909,2.909,0,0,0,.38.025,2.814,2.814,0,0,0,.979-.176l.9-.338a.25.25,0,1,0-.176-.469l-.9.338A2.279,2.279,0,0,1,53.43,43.639Z"/><path class="cls-1" d="M55.443,44.616l-.9.338a2.279,2.279,0,0,1-1.114.123L50,44.6a.25.25,0,1,0-.068.5l3.427.475a2.909,2.909,0,0,0,.38.025,2.814,2.814,0,0,0,.979-.176l.9-.338a.252.252,0,0,0,.146-.322A.249.249,0,0,0,55.443,44.616Z"/><path class="cls-1" d="M55.443,46.085l-.9.338a2.279,2.279,0,0,1-1.114.123L50,46.071a.256.256,0,0,0-.282.214.251.251,0,0,0,.214.282l3.427.475a2.909,2.909,0,0,0,.38.025,2.814,2.814,0,0,0,.979-.176l.9-.338a.25.25,0,1,0-.176-.469Z"/><path class="cls-1" d="M55.443,47.366l-.9.338a2.3,2.3,0,0,1-1.114.123L50,47.352a.258.258,0,0,0-.282.214.251.251,0,0,0,.214.282l3.427.475a2.909,2.909,0,0,0,.38.025,2.814,2.814,0,0,0,.979-.176l.9-.338a.25.25,0,1,0-.176-.469Z"/><path class="cls-1" d="M57,31.586a12.885,12.885,0,0,1-7.68.432.255.255,0,0,0-.312.166.251.251,0,0,0,.166.313,13.178,13.178,0,0,0,7.644-.309l-.445,7.21a.252.252,0,0,0,.234.266h.016a.251.251,0,0,0,.25-.234l.469-7.594A.251.251,0,0,0,57,31.586Z"/><path class="cls-1" d="M64.481,39.773a.251.251,0,0,0,.237.171.248.248,0,0,0,.079-.013l.844-.281a.25.25,0,1,0-.158-.475l-.844.281A.25.25,0,0,0,64.481,39.773Z"/><path class="cls-1" d="M65.468,40.306l-.844.344a.25.25,0,0,0,.189.463l.844-.344a.25.25,0,0,0-.189-.463Z"/><path class="cls-1" d="M23.875,29.256a.249.249,0,0,0,.25-.25V26.913a.25.25,0,0,0-.5,0v1.8l-7.808-1.146a.25.25,0,1,0-.072.494l8.094,1.188A.221.221,0,0,0,23.875,29.256Z"/><path class="cls-1" d="M23.686,23.665l-8.531-1.031a.257.257,0,0,0-.278.218.25.25,0,0,0,.218.278l8.531,1.031.03,0a.25.25,0,0,0,.029-.5Z"/><path class="cls-1" d="M35.033,25.132l-7.281-.968a.25.25,0,1,0-.065.5l7.281.968.033,0a.25.25,0,0,0,.032-.5Z"/><path class="cls-1" d="M43.817,30.322l-3.442-.5V27.069a.25.25,0,1,0-.5,0v2.969a.25.25,0,0,0,.214.247l3.656.531.036,0a.25.25,0,0,0,.036-.5Z"/><path class="cls-1" d="M10.978,26.259,7.75,25.731V23.163a.25.25,0,0,0-.5,0v2.781a.251.251,0,0,0,.209.247l3.438.563.041,0a.25.25,0,0,0,.04-.5Z"/><path class="cls-1" d="M4.188,20.226a.25.25,0,0,0-.25.25v.837L2,21.041a.259.259,0,0,0-.282.213.25.25,0,0,0,.213.282l2.219.313.035,0a.25.25,0,0,0,.25-.25V20.476A.25.25,0,0,0,4.188,20.226Z"/><path class="cls-1" d="M66.01,23.459,56.521,26.83a10.9,10.9,0,0,1-4.965.334l-3.15-.32V25.506a.25.25,0,1,0-.5,0v1.563a.251.251,0,0,0,.225.249l3.347.339a8.965,8.965,0,0,0,1.777.154,11.844,11.844,0,0,0,3.423-.507l9.5-3.375a.249.249,0,0,0,.151-.319A.246.246,0,0,0,66.01,23.459Z"/><path class="cls-1" d="M68.518,22.658l-.549-.274v-5.86a.521.521,0,0,0-.015-.056s0-.009,0-.013l-.006-.007c-.234-1.109-3.969-1.447-5.239-1.529l.109-6.349a3.886,3.886,0,0,0-3.492-3.915L11.488.017A3.866,3.866,0,0,0,7.25,3.865v9.552L6.6,16.279.833,18.049a.25.25,0,0,0-.177.239V20.33l-.569.487a.25.25,0,0,0-.087.19V22.1a.25.25,0,0,0,.219.248l.525.066V25.6a.251.251,0,0,0,.128.219l.667.37L2.407,41.24a.25.25,0,0,0,.211.232L6.056,42a.249.249,0,0,0,.089,0l1.144-.241,41.018,6.181.037,0a.241.241,0,0,0,.118-.044l.486.743a.247.247,0,0,0,.171.11l4.438.688.038,0a.249.249,0,0,0,.106-.023l2.781-1.312a.251.251,0,0,0,.144-.227V47.3l6.168-2.718.472.157a.239.239,0,0,0,.19-.014l.278-.139.4.149a.249.249,0,0,0,.088.016.261.261,0,0,0,.1-.022l1.844-.844a.251.251,0,0,0,.146-.216l.25-5.437a.244.244,0,0,0-.057-.159.238.238,0,0,0,.056-.118l.649-9.7.659-.5a.25.25,0,0,0,.1-.2l.029-3,.524-.274a.251.251,0,0,0,.134-.222V22.882A.25.25,0,0,0,68.518,22.658ZM53.459,8.224a.25.25,0,0,0,.11-.026l0,0,3.019.3c.205.271.888,1.225,1.346,1.87l-.1,4.27L16.026,10.2a.334.334,0,0,0-.085.005l-3.933.952-.132-6.148.483-.89L53.313,8.171A.247.247,0,0,0,53.459,8.224Zm4.3,9.609c-.014,0-.026-.009-.039-.005l-2.18.594a4.624,4.624,0,0,1-1.763.135l-5.9-.674a.241.241,0,0,0-.27.185l-.379,1.43a.58.58,0,0,1-.625.421l-4.751-.594a.571.571,0,0,1-.5-.618l.119-1.367a.25.25,0,0,0-.22-.27l-3.264-.382,1.945-1.029a.25.25,0,0,0-.092-.47L29.041,14.1a.247.247,0,0,0-.093.008L25.13,15.184l-5.507-.645a.254.254,0,0,0-.262.157l-.581,1.475a.568.568,0,0,1-.6.359L14.1,16.061a.572.572,0,0,1-.507-.568V14.335l1.313-.5a.25.25,0,0,0-.029-.476l7.209-2.012L57.82,15.137l-.011.438-5.871,1.959L49.49,17.32a.254.254,0,0,0-.271.227.25.25,0,0,0,.228.271l2.5.219h.021a.253.253,0,0,0,.079-.013L57.8,16.107Zm-31.321-2.5,2.6-.733,9.927,1-1.856.982ZM14.6,3.835a3.28,3.28,0,0,1,.35-2.98L53.5,4.593a3.764,3.764,0,0,0-.428,3.052ZM8.854,1.373A3.377,3.377,0,0,1,11.44.515L14.406.8a3.78,3.78,0,0,0-.351,2.978L12.243,3.6a.278.278,0,0,0-.244.13l-.594,1.094a.251.251,0,0,0-.03.125l.152,7.087L9.151,12.7a.25.25,0,0,0,.135.481l2.562-.719a.25.25,0,0,0,.183-.246l-.012-.57c.014,0,.025.01.04.006l3.958-.958,4.723.5-7.182,2a.25.25,0,0,0,.036.489l.208.027-.491.188c-1.975-.234-4.807-.574-5.561-.677V3.865A3.373,3.373,0,0,1,8.854,1.373ZM6.087,41.5l-3.193-.493L2.876,40.7,5,41l.036,0a.25.25,0,0,0,.035-.5L2.847,40.2,2.813,39.6,5,39.848l.028,0a.25.25,0,0,0,.027-.5L2.784,39.1l-.049-.858L5,38.567l.037,0a.25.25,0,0,0,.036-.5L2.705,37.73l-.052-.9,2.117.3.035,0a.25.25,0,0,0,.034-.5l-2.215-.312L2.6,35.835l3.217.515h.623l.6,4.781a.247.247,0,0,0,.082.154ZM45.1,24.558a.252.252,0,0,0-.1.2v9.354a.749.749,0,0,1-.831.745l-4.344-.471a.748.748,0,0,1-.669-.745v-9.8l.769-.422,5.779.67Zm.4,3.835,1.864.176h.542v4.394l-.245.1L45.605,32.7a.215.215,0,0,0-.105.022Zm10.625,19.33-2.568,1.212L49.3,48.276l-.43-.656V42.73l3.156.433h2.344a.257.257,0,0,0,.1-.022l1.646-.746ZM65.819,43.5l-1.61.737-.4-.151a.252.252,0,0,0-.2.011l-.283.142-.261-.088.855-5.074.479.141a.248.248,0,0,0,.164-.009l1.482-.6Zm2.337-19.581-.522.273a.251.251,0,0,0-.134.219l-.03,3.025-.652.5a.25.25,0,0,0-.1.183l-.656,9.813a.233.233,0,0,0,.038.114l-1.4.568c0-.013.015-.021.015-.035l.25-10.437a.251.251,0,0,0-.34-.239l-6.937,2.688a.25.25,0,0,0-.144.323.253.253,0,0,0,.323.144L64.46,28.5l-.241,10.063c0,.034.023.059.034.089l-.464-.135a.243.243,0,0,0-.2.028.249.249,0,0,0-.113.17l-.915,5.43-5.932,2.614V42.006a.25.25,0,0,0-.354-.228l-1.621.735.287-4.71a.251.251,0,0,0-.234-.266.247.247,0,0,0-.266.234l-.3,4.891-1.861,0-.122-8.818a.25.25,0,0,0-.25-.246h0a.25.25,0,0,0-.246.254l.121,8.771-2.913-.4-.458-9.105v-4.53l3.538.261a13.689,13.689,0,0,0,5.23-.653.25.25,0,0,0-.162-.473,13.451,13.451,0,0,1-5.025.628l-3.812-.281s-.009,0-.013,0l-.006,0h-.769L45.5,27.891V24.879l1-.769a.25.25,0,0,0-.124-.446l-6.468-.75a.259.259,0,0,0-.149.029l-.969.531a.25.25,0,0,0-.13.219V33.64a1.249,1.249,0,0,0,1.115,1.243l4.343.47a1.055,1.055,0,0,0,.136.008,1.249,1.249,0,0,0,1.25-1.25v-.933c.008,0,.011.011.02.012l2.125.375a.207.207,0,0,0,.043,0,.252.252,0,0,0,.093-.018l.144-.057.451,8.963v4.989L37.156,45.755,36.969,31.41a.25.25,0,0,0-.25-.247h0a.25.25,0,0,0-.247.253l.186,14.264L16.243,42.6c0-.007.007-.012.007-.02L15.375,28.3a.254.254,0,0,0-.265-.234.251.251,0,0,0-.234.266l.87,14.195L7.437,41.277a.235.235,0,0,0,.092-.208l-.625-5a.244.244,0,0,0-.217-.207V31.788a.25.25,0,0,0-.5,0v4.064H5.852l-3.286-.53-.536-9.3a.251.251,0,0,0-.128-.2l-.659-.366V22.478l2.74.345.329,4.607a.25.25,0,0,0,.249.232H4.58a.249.249,0,0,0,.232-.267L4.49,22.887l1.7.215v5.834a1.252,1.252,0,0,0,1.095,1.24l4,.5a1.2,1.2,0,0,0,.156.01,1.25,1.25,0,0,0,1.25-1.25v-5.4l1.649.144,8.588,1.084.1.216a.248.248,0,0,0,.192.144l3.531.5a.247.247,0,0,0,.166-.034l.333-.205,7.513.861,1.429.315v3.217l-7.844-1.087V27.413a.25.25,0,0,0-.5,0v2a.251.251,0,0,0,.216.248L36.4,30.817l.034,0a.25.25,0,0,0,.25-.25V27.147l1.439.17.03,0a.25.25,0,0,0,.029-.5l-1.5-.176V23.9l.633-.55a.25.25,0,0,0-.328-.377l-.719.625a.249.249,0,0,0-.086.188v2.767l-1.347-.3-7.625-.875a.254.254,0,0,0-.159.035l-.33.2-3.306-.47-.1-.218a.25.25,0,0,0-.2-.145l-8.731-1.1h0l-.171-.022c-.007,0-.012.005-.019.005l-1.512-.132V20.759l1.044-.495a.25.25,0,0,0-.072-.474l-6.125-.875a.278.278,0,0,0-.11.009l-1.062.333a.25.25,0,0,0-.175.239v3.1L4.25,22.353.5,21.88v-.758l.569-.487a.25.25,0,0,0,.087-.19V18.473l5.729-1.758a.248.248,0,0,0,.17-.184l.637-2.807c.525.082,1.861.243,5.4.662v1.107a1.072,1.072,0,0,0,.95,1.065l4.081.469a1.078,1.078,0,0,0,1.12-.672l.511-1.3L40.949,17.54l-.1,1.125a1.069,1.069,0,0,0,.935,1.157l4.75.594a1.072,1.072,0,0,0,1.17-.79L48.03,18.4l5.687.649a5.12,5.12,0,0,0,1.95-.149l2.076-.566-.023.959a2.672,2.672,0,0,0,.323,2.78l-3.033.781a7.417,7.417,0,0,1-2.717.183L6.654,17.634a.25.25,0,0,0-.059.5l45.639,5.408a7.86,7.86,0,0,0,2.9-.194l3.475-.895,3.17.431.033,0a.262.262,0,0,0,.075-.011c.073-.023,1.792-.6,1.3-3.839a.25.25,0,1,0-.494.075c.388,2.532-.672,3.161-.909,3.269l-3.088-.42c-1.213-.761-.525-2.435-.495-2.507a.251.251,0,0,0,.021-.092l.219-9.062a.251.251,0,0,0-.046-.15c-.519-.73-1.4-1.969-1.5-2.063a.251.251,0,0,0-.152-.072L53.617,7.7a3.255,3.255,0,0,1,.431-3.053l5.228.507A3.382,3.382,0,0,1,62.317,8.56l-.161,9.411a.25.25,0,0,0,.246.254h0a.25.25,0,0,0,.25-.246l.044-2.56c2.252.148,4.248.581,4.674.976L63.1,17.928a.25.25,0,1,0,.168.471l4.2-1.505v5.645a.25.25,0,0,0,.139.224l.549.274ZM12.331,20.375a.25.25,0,0,0-.143.226v8.835a.75.75,0,0,1-.843.744l-4-.5a.751.751,0,0,1-.657-.744V19.68l.833-.261,5.246.75Z"/><path class="cls-1" d="M23.685,22.383l-5.935-.673L17.188,20.7a.25.25,0,0,0-.437.243l.625,1.125a.252.252,0,0,0,.19.127l6.063.688h.029a.25.25,0,0,0,.028-.5Z"/><path class="cls-1" d="M28,23.394a.271.271,0,0,0,.065.017l5.969.75.031,0a.249.249,0,0,0,.2-.1l.75-1.031a.25.25,0,1,0-.4-.294l-.663.912-5.789-.727-.344-.144a.264.264,0,0,0-.064-.017l-2.906-.375a.247.247,0,0,0-.28.216.25.25,0,0,0,.216.28l2.873.371Z"/><path class="cls-1" d="M19.6,21.134a.251.251,0,0,0,.2.152l8.016.906h.029a.25.25,0,0,0,.028-.5L20,20.806l-.178-.427a.25.25,0,1,0-.462.192Z"/><path class="cls-1" d="M46.528,17.571l-2.219-.25a.26.26,0,0,0-.2.062.251.251,0,0,0-.083.187v1.5a.25.25,0,0,0,.5,0v-1.22l1.719.194v1.214a.25.25,0,1,0,.5,0V17.819A.25.25,0,0,0,46.528,17.571Z"/><path class="cls-1" d="M18.831,14.257,16.737,14.1a.251.251,0,0,0-.269.25v1.406a.25.25,0,0,0,.5,0V14.62l1.825.136a.256.256,0,0,0,.268-.231A.25.25,0,0,0,18.831,14.257Z"/><path class="cls-1" d="M48.124,24.661l3.775.486c.017,0,.085,0,.2,0A20.062,20.062,0,0,0,57.73,24.3a.25.25,0,0,0-.148-.478,19.944,19.944,0,0,1-5.529.83h-.114l-3.75-.484a.25.25,0,1,0-.064.5Z"/><path class="cls-1" d="M29.854,43.167,17.808,41.12a.25.25,0,1,0-.084.492l12.047,2.047a.208.208,0,0,0,.042,0,.25.25,0,0,0,.042-.5Z"/><path class="cls-1" d="M17.751,38.57h.014a.25.25,0,0,0,.25-.236l.125-2.22a.249.249,0,0,0-.067-.185l-.574-.614,1.335-.122a.25.25,0,0,0-.022-.5h-.8l-.056-2.911a.233.233,0,0,0-.255-.245.251.251,0,0,0-.245.255l.058,3.019-.567.052a.25.25,0,0,0-.16.42l.849.91-.119,2.113A.25.25,0,0,0,17.751,38.57Z"/></svg>