<svg id="Layer_1" data-name="Layer 1" xmlns="http://www.w3.org/2000/svg" viewBox="0 0 59.44 47.211"><defs><style>.cls-1{fill:#fff;}</style></defs><title>waarom-philpaper</title><path class="cls-1" d="M59.44.249a.235.235,0,0,0-.031-.121c-.005-.01,0-.021-.008-.03L59.392.092,59.386.078A.249.249,0,0,0,59.254,0a.221.221,0,0,0-.039,0,.241.241,0,0,0-.092,0L.175,18.624a.242.242,0,0,0-.086.057c-.008.007-.017.008-.024.016A.247.247,0,0,0,0,18.833c0,.008,0,.015,0,.023S0,18.864,0,18.87s.011.018.013.029a.234.234,0,0,0,.052.115.213.213,0,0,0,.034.038c.008.007.012.017.021.023l14.986,9.114,1.579,10.18a.237.237,0,0,0,.031.061c.005.012,0,.026.007.038s.016.012.022.02a.225.225,0,0,0,.035.032.236.236,0,0,0,.087.045c.009,0,.015.011.024.013s.011,0,.017,0,.016.006.025.006a.265.265,0,0,0,.053-.016.218.218,0,0,0,.071-.021l.012,0,6.077-3.966L37.732,47.15a.25.25,0,0,0,.217.055.248.248,0,0,0,.174-.141L59.426.347A.237.237,0,0,0,59.432.3.217.217,0,0,0,59.44.249ZM15.331,27.741,2.668,20.04l16-.216a.25.25,0,0,0,0-.5h0l-16.486.222a.245.245,0,0,0-.179.084l-.9-.545,29.044-.93ZM30.957,17.629l-28.9.925L57.4,1.073ZM20.471,32.268l.464.4-2.46,4.359-.859.561Zm-1.087,4.165L21.321,33l1.431,1.234ZM37.807,46.554,20.789,31.882,34.806,20.669,37.171,43.25a.251.251,0,0,0,.249.224h0a.249.249,0,0,0,.244-.233l.257-3.893a.249.249,0,0,0-.232-.266.232.232,0,0,0-.266.232l-.064.969L35.257,20.162c0-.026-.025-.041-.034-.063s0-.047-.019-.067-.017-.006-.024-.013a.433.433,0,0,0-.17-.071c-.01,0-.017-.009-.028-.008-.026,0-.04.024-.063.034s-.047,0-.067.019L20.242,31.68c-.016.013-.016.035-.028.051s-.029.012-.036.026l-3.113,5.8-1.458-9.4L30.854,18.29l.646,3.472a.251.251,0,0,0,.246.2h.013A.249.249,0,0,0,32,21.736l.183-2.286.35,1.44a.261.261,0,0,0,.265.19.25.25,0,0,0,.228-.233l.164-2.518.118.215a.241.241,0,0,0,.262.126.251.251,0,0,0,.2-.207l.25-1.562a.25.25,0,0,0-.494-.079l-.135.842-.181-.329a.249.249,0,0,0-.468.1l-.113,1.743-.332-1.365a.25.25,0,0,0-.492.039l-.156,1.958L31.309,18,56.042,2.514,35.523,19.381a.25.25,0,0,0-.089.221l.369,3.381a.249.249,0,0,0,.248.223.134.134,0,0,0,.027,0,.249.249,0,0,0,.221-.275l-.354-3.247L58.522,1.124Z"/><path class="cls-1" d="M16.331,28.4a.25.25,0,0,0-.214.282l.969,7.094a.25.25,0,0,0,.247.216l.034,0a.25.25,0,0,0,.214-.282l-.969-7.094A.257.257,0,0,0,16.331,28.4Z"/><path class="cls-1" d="M17.146,27.788a.25.25,0,0,0-.216.279l.531,4.154a.25.25,0,0,0,.248.219l.032,0a.25.25,0,0,0,.216-.279L17.425,28A.257.257,0,0,0,17.146,27.788Z"/><path class="cls-1" d="M17.862,27.333a.251.251,0,0,0-.214.282l.406,2.969a.25.25,0,0,0,.247.216l.034,0a.251.251,0,0,0,.214-.282l-.406-2.969A.258.258,0,0,0,17.862,27.333Z"/><path class="cls-1" d="M36.555,19.939a.25.25,0,0,0-.22.277l.406,3.55a.249.249,0,0,0,.248.222l.028,0a.249.249,0,0,0,.22-.276l-.406-3.55A.244.244,0,0,0,36.555,19.939Z"/><path class="cls-1" d="M40.816,6.657,32.348,9.5a.25.25,0,0,0,.079.487.236.236,0,0,0,.079-.013L40.975,7.13a.25.25,0,1,0-.158-.474Z"/><path class="cls-1" d="M30.262,19.043a.249.249,0,0,0-.207.286l.177,1.1-.59.382-.092-.661a.25.25,0,1,0-.5.069l.125.891-.878.568-.094-.867a.25.25,0,0,0-.5.054l.121,1.117-.789.511a.25.25,0,0,0,.136.46.247.247,0,0,0,.136-.04l.578-.374.163,1.5a.249.249,0,0,0,.248.223h.027a.251.251,0,0,0,.222-.276l-.19-1.753.894-.579.221,1.581a.25.25,0,0,0,.247.216l.035,0a.25.25,0,0,0,.213-.282l-.253-1.812.6-.389.235,1.462a.251.251,0,0,0,.247.21.229.229,0,0,0,.04,0,.25.25,0,0,0,.207-.286l-.5-3.1A.245.245,0,0,0,30.262,19.043Z"/></svg>