<svg id="Layer_1" data-name="Layer 1" xmlns="http://www.w3.org/2000/svg" viewBox="0 0 54.063 58.501"><defs><style>.cls-1{fill:#fff;}</style></defs><title>wie-gebruiken-philpaper</title><path class="cls-1" d="M29.313,58.5a.265.265,0,0,1-.048,0l-1.125-.219a.245.245,0,0,1-.129-.068l-1.29-1.29-3.444-2.048a.252.252,0,0,1-.085-.086l-.845-1.419-1.544-1a.262.262,0,0,1-.054-.047L19.26,50.584c-2.275-1.794-7.559-1.369-7.614-1.365a.236.236,0,0,1-.2-.076L8.915,46.49,4.834,44.634a.257.257,0,0,1-.057-.036L2.058,42.317a.253.253,0,0,1-.066-.086L.023,38.012A.25.25,0,0,1,.2,37.661l2.775-.513,1.128-1.6a.25.25,0,0,1,.173-.1l1.75-.219a.252.252,0,0,1,.162.035l2.315,1.416h2.523l2.605-.372,1.219-1.784a.251.251,0,0,1,.207-.109h5.094a.255.255,0,0,1,.114.027l1.458.743,1.5-1.071a.248.248,0,0,1,.145-.047h2.938l3.2-.6,1.26-1.17a.251.251,0,0,1,.352.013l1.789,1.9,2.448-1.719a.245.245,0,0,1,.114-.044l1.875-.219,1.644,0,3.438-2.21a.233.233,0,0,1,.107-.038l1.688-.187a.25.25,0,0,1,.236.111l1.331,2.04,3.08-.06a.241.241,0,0,1,.214.112l1.311,1.992,2.549-1.387a.243.243,0,0,1,.253.009.25.25,0,0,1,.116.226l-.152,2.577.865,1.4a.249.249,0,0,1-.063.331l-2.437,1.813-.773.9-2.1,2.137-2.458,2.832a.248.248,0,0,1-.09.065l-2.555,1.095a17.636,17.636,0,0,1-1.92,2.736c-.119.1-.9,1.06-1.476,1.761-1.267,1.554-1.267,1.554-1.43,1.554-.111.035-1.634.636-2.6,1.021a8.6,8.6,0,0,1-.96,1.037c-.15.109-1.856,1.725-2.894,2.716l-1.1,1a.241.241,0,0,1-.082.05l-1.687.625A.242.242,0,0,1,29.313,58.5Zm-1-.7.981.19,1.576-.584,1.058-.967c1.042-1,2.821-2.686,2.977-2.78a12.127,12.127,0,0,0,.874-.977.252.252,0,0,1,.1-.072c1.919-.768,2.516-.989,2.723-1.054.146-.15.707-.837,1.162-1.4a14.812,14.812,0,0,1,1.615-1.879c.142-.125,1.026-1.442,1.788-2.637a.252.252,0,0,1,.112-.095l2.572-1.1,2.432-2.8,2.1-2.137.8-.926,2.293-1.712L52.693,35.6a.254.254,0,0,1-.037-.146l.13-2.207-2.354,1.281a.25.25,0,0,1-.328-.082l-1.361-2.068-3.081.06a.289.289,0,0,1-.214-.113L44.125,30.3l-1.477.164L39.2,32.679a.245.245,0,0,1-.135.04H37.375l-1.783.21-2.573,1.807a.246.246,0,0,1-.326-.033l-1.768-1.881-1.13,1.05a.248.248,0,0,1-.124.063l-3.312.621-2.9,0L21.9,35.673a.248.248,0,0,1-.259.02l-1.54-.785h-4.9l-1.207,1.766a.248.248,0,0,1-.171.106l-2.75.391-2.629,0a.246.246,0,0,1-.13-.037l-2.3-1.407-1.554.194-1.124,1.6a.249.249,0,0,1-.159.1l-2.557.473,1.809,3.875,2.65,2.224,4.094,1.861a.279.279,0,0,1,.078.055l2.48,2.6a16.9,16.9,0,0,1,6.591.77l-.567-.661a.25.25,0,0,1,.38-.326l1.482,1.729a3.6,3.6,0,0,1,.286.257.248.248,0,0,1,.073.162L21.1,51.967l1.563,1.012a.245.245,0,0,1,.079.082l.843,1.415L27,56.5a.274.274,0,0,1,.05.039Z"/><path class="cls-1" d="M33.625,46.126a.25.25,0,0,1-.25-.25V44.822l-.869-1.409-1.023-1.456L30.04,39.73A.25.25,0,0,1,30,39.641l-.781-4.125a.25.25,0,1,1,.491-.094l.772,4.077L31.9,41.677l1.026,1.461.915,1.481a.248.248,0,0,1,.037.131v1.125A.25.25,0,0,1,33.625,46.126Z"/><path class="cls-1" d="M36.438,41.626a.25.25,0,0,1-.109-.475l.913-.443c.085-.563.192-1.3.2-1.4,0-.122.156-.876.287-1.487a.209.209,0,0,1,.021-.059l.656-1.312a.25.25,0,0,1,.184-.136.259.259,0,0,1,.217.07l.419.419.234-.585a.267.267,0,0,1,.036-.062l1.094-1.384a.262.262,0,0,1,.051-.048l.854-.61.847-1.755a.25.25,0,1,1,.451.217l-.875,1.813a.251.251,0,0,1-.08.095l-.878.627L39.906,36.44l-.361.9a.25.25,0,0,1-.409.084l-.442-.442-.486.974c-.129.6-.263,1.266-.27,1.361,0,.123-.155,1.155-.222,1.594a.248.248,0,0,1-.138.187l-1.031.5A.243.243,0,0,1,36.438,41.626Z"/><path class="cls-1" d="M46.063,35.179a.247.247,0,0,1-.174-.07s-1.19-1.15-1.284-1.244a.25.25,0,1,1,.354-.354c.073.073.823.8,1.139,1.1l1.147-.7a.247.247,0,0,1,.25-.007l.642.348.793-.356a.25.25,0,1,1,.205.457l-.906.406a.249.249,0,0,1-.222-.009l-.623-.338-1.189.729A.247.247,0,0,1,46.063,35.179Z"/><path class="cls-1" d="M29.906,53.469a.253.253,0,0,1-.146-.047l-1.344-.969a.25.25,0,0,1,.292-.406l1.117.806.707-1.257a.257.257,0,0,1,.043-.057l1.094-1.062,1.766-2.046a.25.25,0,1,1,.379.326L32.033,50.82,30.95,51.874l-.826,1.469a.251.251,0,0,1-.164.121A.248.248,0,0,1,29.906,53.469Z"/><path class="cls-1" d="M12.469,46.438a.261.261,0,0,1-.093-.018.25.25,0,0,1-.139-.325l.68-1.692-.228-2.094a.271.271,0,0,1,0-.074l.469-2.469,0-1.859a.25.25,0,0,1,.5,0v1.906l-.466,2.479.23,2.119a.252.252,0,0,1-.017.12l-.7,1.75A.25.25,0,0,1,12.469,46.438Z"/><path class="cls-1" d="M23.92,43.344h-1.2a.251.251,0,0,1-.225-.141A20.2,20.2,0,0,1,21.031,40a.25.25,0,0,1,.5-.043c.07.216.833,1.82,1.348,2.887h.965l1.8-1.286,1.129-2.746a.25.25,0,1,1,.463.189l-1.156,2.813a.25.25,0,0,1-.086.108L24.066,43.3A.251.251,0,0,1,23.92,43.344ZM21.531,40h0Z"/><path class="cls-1" d="M9.031,43.719a.252.252,0,0,1-.146-.047L7.448,42.641a.267.267,0,0,1-.067-.071c-.5-.815-1.357-2.172-1.506-2.342a.25.25,0,1,1,.376-.33c.215.246,1.309,2.01,1.53,2.366l1.188.853.825-1.21a.25.25,0,1,1,.413.281L9.238,43.61a.25.25,0,0,1-.163.105A.215.215,0,0,1,9.031,43.719Z"/><path class="cls-1" d="M22.375,50a.256.256,0,0,1-.118-.029l-2.969-1.594a.273.273,0,0,1-.067-.053L17.752,46.7a.25.25,0,0,1,.371-.336l1.439,1.593,2.931,1.573a.25.25,0,0,1-.118.471Z"/><path class="cls-1" d="M27,49.063a.253.253,0,0,1-.151-.051l-.656-.5a.271.271,0,0,1-.054-.057l-1.687-2.437a.25.25,0,0,1,.411-.285l1.665,2.405.5.383,1.236-.6a.25.25,0,0,1,.22.449l-1.375.672A.257.257,0,0,1,27,49.063Z"/><path class="cls-1" d="M40.906,45.282a.245.245,0,0,1-.169-.066.249.249,0,0,1-.015-.353l1.78-1.937a.252.252,0,0,1,.073-.055l2.094-1.047a.25.25,0,1,1,.223.447L42.841,43.3,41.09,45.2A.248.248,0,0,1,40.906,45.282Z"/><path class="cls-1" d="M19.234,39.532a.25.25,0,0,1-.245-.2l-.266-1.375-.65-2.163a.251.251,0,0,1,.114-.289l1.719-.99V25.063a.25.25,0,0,1,.073-.177l4.594-4.594a.25.25,0,0,1,.427.177V34.063a.25.25,0,0,1-.5,0V21.073l-4.094,4.094v9.49a.251.251,0,0,1-.125.217l-1.672.964.6,2,.272,1.4a.25.25,0,0,1-.2.293A.2.2,0,0,1,19.234,39.532Z"/><path class="cls-1" d="M33.626,38.594l-.029,0a.25.25,0,0,1-.22-.277l.276-2.365-.976-1.266a.25.25,0,1,1,.4-.3l1.688,2.188a.25.25,0,1,1-.4.3l-.274-.355-.217,1.857A.25.25,0,0,1,33.626,38.594Z"/><path class="cls-1" d="M11.469,37.074a.25.25,0,0,1-.25-.25V11.056L4.563,14.65V35.688a.25.25,0,0,1-.5,0V14.5a.25.25,0,0,1,.131-.22l7.156-3.863a.254.254,0,0,1,.247.005.251.251,0,0,1,.122.215V36.824A.25.25,0,0,1,11.469,37.074Z"/><path class="cls-1" d="M17.938,34.907a.25.25,0,0,1-.25-.245c-.338-16.991-6.343-23.79-6.4-23.856a.25.25,0,0,1,.27-.4l6.469,2.334a.25.25,0,0,1,.165.235V34.657A.235.235,0,0,1,17.938,34.907ZM12.2,11.166a24.34,24.34,0,0,1,2.608,4.906,45.733,45.733,0,0,1,2.882,11.56V13.147Z"/><path class="cls-1" d="M23.031,22.563a.25.25,0,0,1-.25-.25V2.571L16.024,4.259v7.932a.25.25,0,0,1-.5,0V4.063a.25.25,0,0,1,.189-.243l7.257-1.812a.25.25,0,0,1,.311.243V22.313A.25.25,0,0,1,23.031,22.563Z"/><path class="cls-1" d="M28.375,22.563a.25.25,0,0,1-.25-.25C28.095,5.542,22.963,2.5,22.911,2.47a.25.25,0,0,1,.2-.458L28.45,3.7a.25.25,0,0,1,.175.238V22.313a.25.25,0,0,1-.25.25ZM24.106,2.852c1.173,1.284,3.11,4.367,4.019,11.218V4.121Z"/><path class="cls-1" d="M29,24.969a.252.252,0,0,1-.057-.006l-4.25-.989a.25.25,0,0,1-.193-.243.256.256,0,0,1,.006-.057.251.251,0,0,1,.3-.187l4.25.989a.25.25,0,0,1,.193.243.256.256,0,0,1-.006.057A.251.251,0,0,1,29,24.969Z"/><path class="cls-1" d="M29,33.688a.25.25,0,0,1-.25-.242c-.194-6.536-3.465-9.051-4.04-9.443l-4.484,1.3a.25.25,0,1,1-.14-.48L24.68,23.49a.254.254,0,0,1,.195.024c.137.079,2.749,1.645,3.875,6.134V24.823l-4.177-4.177a.25.25,0,1,1,.354-.354l4.25,4.25a.25.25,0,0,1,.073.177v8.719a.25.25,0,0,1-.246.25Z"/><path class="cls-1" d="M31.547,33a.25.25,0,0,1-.25-.25V11.718l-2.871.6a.25.25,0,0,1-.1-.489l3.172-.658a.257.257,0,0,1,.208.051.249.249,0,0,1,.092.194v21.34A.25.25,0,0,1,31.547,33Z"/><path class="cls-1" d="M37.219,32.719a.25.25,0,0,1-.25-.25c0-16.041-5.526-20.82-5.582-20.867a.25.25,0,0,1,.226-.434l5.672,1.561a.251.251,0,0,1,.184.241v19.5A.25.25,0,0,1,37.219,32.719ZM32.356,11.892c1.165,1.381,3.571,5.051,4.613,12.674v-11.4Z"/><path class="cls-1" d="M49.781,33.753a.25.25,0,0,1-.25-.25V6.329L46.379,1.81,41.594.573V31a.25.25,0,0,1-.5,0V.6L36.688,2.116v10.64a.25.25,0,0,1-.5,0V1.938a.249.249,0,0,1,.169-.236L41.262.014l.006,0h.009A.546.546,0,0,1,41.344,0a.249.249,0,0,1,.063.008l5.188,1.34a.253.253,0,0,1,.143.1l3.25,4.66a.25.25,0,0,1,.045.143V33.5A.25.25,0,0,1,49.781,33.753Z"/><path class="cls-1" d="M5.891,18.662a.25.25,0,0,1-.25-.25V16.037a.25.25,0,1,1,.5,0v2.375A.25.25,0,0,1,5.891,18.662Z"/><path class="cls-1" d="M5.891,22.662a.25.25,0,0,1-.25-.25V20.037a.25.25,0,0,1,.5,0v2.375A.25.25,0,0,1,5.891,22.662Z"/><path class="cls-1" d="M5.891,26.662a.25.25,0,0,1-.25-.25V24.037a.25.25,0,0,1,.5,0v2.375A.25.25,0,0,1,5.891,26.662Z"/><path class="cls-1" d="M5.891,30.663a.25.25,0,0,1-.25-.25V28.038a.25.25,0,0,1,.5,0v2.375A.25.25,0,0,1,5.891,30.663Z"/><path class="cls-1" d="M5.891,34.663a.25.25,0,0,1-.25-.25V32.038a.25.25,0,0,1,.5,0v2.375A.25.25,0,0,1,5.891,34.663Z"/><path class="cls-1" d="M7.891,17.662a.25.25,0,0,1-.25-.25V15.037a.25.25,0,0,1,.5,0v2.375A.25.25,0,0,1,7.891,17.662Z"/><path class="cls-1" d="M7.891,21.662a.25.25,0,0,1-.25-.25V19.037a.25.25,0,0,1,.5,0v2.375A.25.25,0,0,1,7.891,21.662Z"/><path class="cls-1" d="M7.891,25.662a.25.25,0,0,1-.25-.25V23.037a.25.25,0,0,1,.5,0v2.375A.25.25,0,0,1,7.891,25.662Z"/><path class="cls-1" d="M7.891,29.663a.25.25,0,0,1-.25-.25V27.037a.25.25,0,0,1,.5,0v2.375A.25.25,0,0,1,7.891,29.663Z"/><path class="cls-1" d="M7.891,33.663a.25.25,0,0,1-.25-.25V31.038a.25.25,0,0,1,.5,0v2.375A.25.25,0,0,1,7.891,33.663Z"/><path class="cls-1" d="M9.891,16.662a.25.25,0,0,1-.25-.25V14.037a.25.25,0,1,1,.5,0v2.375A.25.25,0,0,1,9.891,16.662Z"/><path class="cls-1" d="M9.891,20.662a.25.25,0,0,1-.25-.25V18.037a.25.25,0,1,1,.5,0v2.375A.25.25,0,0,1,9.891,20.662Z"/><path class="cls-1" d="M9.891,24.662a.25.25,0,0,1-.25-.25V22.037a.25.25,0,1,1,.5,0v2.375A.25.25,0,0,1,9.891,24.662Z"/><path class="cls-1" d="M9.891,28.663a.25.25,0,0,1-.25-.25V26.037a.25.25,0,1,1,.5,0v2.375A.25.25,0,0,1,9.891,28.663Z"/><path class="cls-1" d="M9.891,32.663a.25.25,0,0,1-.25-.25V30.038a.25.25,0,1,1,.5,0v2.375A.25.25,0,0,1,9.891,32.663Z"/><path class="cls-1" d="M49.781,30.663h-.006a.25.25,0,0,1-.244-.256C49.788,18.493,47.5,10.98,45.543,6.775,43.422,2.225,41.212.465,41.19.448A.25.25,0,1,1,41.5.053c.094.072,2.307,1.827,4.479,6.467,1.993,4.257,4.313,11.858,4.055,23.9A.25.25,0,0,1,49.781,30.663Z"/><path class="cls-1" d="M38.719,6.313a.25.25,0,0,1-.25-.25V3.751a.25.25,0,1,1,.5,0V6.063A.25.25,0,0,1,38.719,6.313Z"/><path class="cls-1" d="M38.719,10.313a.25.25,0,0,1-.25-.25V7.751a.25.25,0,1,1,.5,0v2.312A.25.25,0,0,1,38.719,10.313Z"/><path class="cls-1" d="M38.719,14.313a.25.25,0,0,1-.25-.25V11.751a.25.25,0,0,1,.5,0v2.313A.25.25,0,0,1,38.719,14.313Z"/><path class="cls-1" d="M38.719,18.313a.25.25,0,0,1-.25-.25V15.751a.25.25,0,0,1,.5,0v2.313A.25.25,0,0,1,38.719,18.313Z"/><path class="cls-1" d="M38.719,22.313a.25.25,0,0,1-.25-.25V19.751a.25.25,0,0,1,.5,0v2.313A.25.25,0,0,1,38.719,22.313Z"/><path class="cls-1" d="M38.719,26.313a.25.25,0,0,1-.25-.25V23.751a.25.25,0,0,1,.5,0v2.313A.25.25,0,0,1,38.719,26.313Z"/><path class="cls-1" d="M38.719,30.313a.25.25,0,0,1-.25-.25V27.751a.25.25,0,0,1,.5,0v2.313A.25.25,0,0,1,38.719,30.313Z"/><path class="cls-1" d="M20.719,21.662a.25.25,0,0,1-.25-.25V5.5a.25.25,0,0,1,.5,0V21.412A.25.25,0,0,1,20.719,21.662Z"/><path class="cls-1" d="M36.781,14.313a.243.243,0,0,1-.069-.01l-3.986-1.156a.25.25,0,0,1-.17-.31.248.248,0,0,1,.31-.17l3.985,1.156a.25.25,0,0,1-.069.49Z"/><path class="cls-1" d="M36.781,16a.257.257,0,0,1-.071-.01l-2.4-.713a.25.25,0,0,1,.143-.479l2.4.713a.25.25,0,0,1-.071.49Z"/><path class="cls-1" d="M36.781,17.751l-.037,0-1.83-.276a.25.25,0,0,1-.21-.284.243.243,0,0,1,.284-.21l1.83.276a.25.25,0,0,1-.037.5Z"/><path class="cls-1" d="M47.774,3.624a.273.273,0,0,1-.048,0l-4.413-.857a.25.25,0,0,1-.2-.293.246.246,0,0,1,.293-.2l4.413.857a.25.25,0,0,1-.048.5Z"/><path class="cls-1" d="M49.031,5.751a.267.267,0,0,1-.044,0l-4.25-.761a.25.25,0,1,1,.088-.492l4.25.761a.25.25,0,0,1-.044.5Z"/><path class="cls-1" d="M49.8,8l-.036,0-3.79-.55a.25.25,0,0,1,.072-.5l3.79.55A.25.25,0,0,1,49.8,8Z"/><path class="cls-1" d="M28.375,5.37a.261.261,0,0,1-.066-.009l-3.625-1a.25.25,0,0,1,.133-.482l3.625,1a.25.25,0,0,1-.066.491Z"/><path class="cls-1" d="M28.375,6.876a.259.259,0,0,1-.06-.007l-2.281-.562a.25.25,0,1,1,.12-.485l2.281.563a.25.25,0,0,1-.06.493Z"/></svg>