<svg id="Layer_1" data-name="Layer 1" xmlns="http://www.w3.org/2000/svg" viewBox="0 0 1299.878 409.595"><title>1920-footer-home</title><polygon points="974.919 91.013 1083.237 45.507 974.919 0.005 974.919 91.013" fill="#c0e7f0" opacity="0.9"/><polygon points="974.919 91.011 974.919 0.007 866.597 45.509 974.919 91.011" fill="#b9c7da" opacity="0.9"/><polygon points="974.925 0.002 974.918 0 974.918 0.005 974.925 0.002" fill="#4cb3d2" opacity="0.9"/><polygon points="324.962 91.013 433.279 45.507 324.962 0.005 324.962 91.013" fill="#c0e7f0" opacity="0.9"/><polygon points="324.962 91.011 324.962 0.007 216.64 45.509 324.962 91.011" fill="#b9c7da" opacity="0.9"/><path d="M1191.558,182.067h0v0Zm0,0,54.161-22.751,54.159-22.753-108.32-45.5v91.006" fill="#9ed44b" opacity="0.9"/><polygon points="1299.877 227.565 1299.877 136.563 1245.718 159.314 1191.557 182.067 1299.877 227.565" fill="#c0e580" opacity="0.9"/><polyline points="1191.558 182.067 1245.719 159.314 1191.558 182.065 1191.558 182.067 1191.558 182.065" fill="#8ecc34" opacity="0.9"/><polygon points="1191.558 182.069 1191.558 91.068 1083.241 136.567 1191.558 182.069" fill="#3c9d4e" opacity="0.9"/><polygon points="866.599 227.573 866.599 227.573 974.921 182.069 866.599 136.567 866.599 227.573" fill="#7996be" opacity="0.9"/><polygon points="974.925 182.067 974.918 182.064 974.918 182.069 974.925 182.067" fill="#4cb3d2" opacity="0.9"/><polygon points="974.925 182.067 1083.24 136.567 1083.231 136.565 974.921 182.065 974.925 182.067" fill="#48a1ca" opacity="0.9"/><polygon points="758.278 273.078 866.597 227.571 758.278 182.069 758.278 273.078" fill="#ecbddd" opacity="0.9"/><polygon points="758.278 273.076 758.278 182.072 649.958 227.573 758.278 273.076" fill="#d7bcdc" opacity="0.9"/><polygon points="649.958 227.573 649.958 227.573 758.278 182.069 649.958 136.567 649.958 227.573" fill="#ae7ebb" opacity="0.9"/><polygon points="758.283 182.067 758.276 182.064 758.276 182.069 758.283 182.067" fill="#c83e9c" opacity="0.9"/><polygon points="758.278 182.065 866.591 136.565 758.278 91.068 758.278 182.065" fill="#c83e9c" opacity="0.9"/><polygon points="758.278 182.069 758.278 182.065 758.278 91.068 649.958 136.567 758.278 182.069" fill="#8a48a0" opacity="0.9"/><path d="M866.6,227.565v-91l-108.315,45.5Zm0-91v0l-.009,0Z" fill="#d97bbb" opacity="0.9"/><polygon points="758.284 182.067 866.599 136.567 866.59 136.565 758.277 182.065 758.284 182.067" fill="#c0228d" opacity="0.9"/><polygon points="974.919 182.065 1083.232 136.565 974.919 91.068 974.919 182.065" fill="#4cb3d2" opacity="0.9"/><polygon points="974.919 182.069 974.919 182.065 974.919 91.068 866.597 136.567 974.919 182.069" fill="#3d6da6" opacity="0.9"/><polygon points="541.6 273.076 649.92 227.571 541.6 182.072 541.6 273.076" fill="#def2bd" opacity="0.9"/><path d="M541.6,182.067h0v0Zm0,0,54.161-22.751,54.159-22.753L541.6,91.061v91.006" fill="#9ed44b" opacity="0.9"/><polygon points="649.919 227.565 649.919 136.563 595.76 159.314 541.599 182.067 649.919 227.565" fill="#c0e580" opacity="0.9"/><polyline points="541.6 182.067 595.761 159.314 541.6 182.065 541.6 182.067 541.6 182.065" fill="#8ecc34" opacity="0.9"/><polygon points="541.6 273.076 541.6 182.072 433.283 227.573 541.6 273.076" fill="#bde1b5" opacity="0.9"/><polygon points="324.962 273.078 433.279 227.571 324.962 182.069 324.962 273.078" fill="#c0e7f0" opacity="0.9"/><polygon points="324.962 273.076 324.962 182.072 216.64 227.573 324.962 273.076" fill="#b9c7da" opacity="0.9"/><polygon points="433.283 227.573 433.283 227.573 541.6 182.069 433.283 136.567 433.283 227.573" fill="#7bc079" opacity="0.9"/><polygon points="541.6 182.069 541.6 91.068 433.283 136.567 541.6 182.069" fill="#3c9d4e" opacity="0.9"/><polygon points="216.641 227.573 216.641 227.573 324.963 182.069 216.641 136.567 216.641 227.573" fill="#7996be" opacity="0.9"/><polygon points="324.967 182.067 324.96 182.064 324.96 182.069 324.967 182.067" fill="#4cb3d2" opacity="0.9"/><path d="M433.283,227.565v-91l-108.315,45.5Zm0-91v0l-.009,0Z" fill="#81cfe3" opacity="0.9"/><polygon points="324.967 182.067 433.283 136.567 433.273 136.565 324.963 182.065 324.967 182.067" fill="#48a1ca" opacity="0.9"/><polygon points="108.32 273.078 216.64 227.571 108.32 182.069 108.32 273.078" fill="#ecbddd" opacity="0.9"/><polygon points="108.32 273.076 108.32 182.072 0 227.573 108.32 273.076" fill="#d7bcdc" opacity="0.9"/><polygon points="0 227.573 0 227.573 108.32 182.069 0 136.567 0 227.573" fill="#ae7ebb" opacity="0.9"/><polygon points="108.325 182.067 108.318 182.064 108.318 182.069 108.325 182.067" fill="#c83e9c" opacity="0.9"/><polygon points="108.32 182.065 216.633 136.565 108.32 91.068 108.32 182.065" fill="#c83e9c" opacity="0.9"/><polygon points="108.32 182.069 108.32 182.065 108.32 91.068 0 136.567 108.32 182.069" fill="#8a48a0" opacity="0.9"/><path d="M216.641,227.565v-91l-108.315,45.5Zm0-91v0l-.009,0Z" fill="#d97bbb" opacity="0.9"/><polygon points="649.958 318.558 649.958 318.558 758.278 273.054 649.958 227.552 649.958 318.558" fill="#ae7ebb" opacity="0.9"/><polygon points="649.919 318.549 649.919 227.548 595.76 250.299 541.599 273.052 649.919 318.549" fill="#c0e580" opacity="0.9"/><polygon points="216.641 318.558 216.641 318.558 324.963 273.054 216.641 227.552 216.641 318.558" fill="#7996be" opacity="0.9"/><polygon points="0 318.558 0 318.558 108.32 273.054 0 227.552 0 318.558" fill="#ae7ebb" opacity="0.9"/><path d="M216.641,318.549v-91l-108.315,45.5Zm0-91v0l-.009,0Z" fill="#d97bbb" opacity="0.9"/><polygon points="108.326 182.067 216.641 136.567 216.632 136.565 108.319 182.065 108.326 182.067" fill="#c0228d" opacity="0.9"/><polygon points="216.64 45.558 216.676 45.571 216.683 45.569 216.64 45.551 216.64 45.59 216.64 45.558" fill="#7996be" opacity="0.9"/><polygon points="216.677 45.572 216.64 45.559 216.64 45.588 216.677 45.572" fill="#204893" opacity="0.9"/><polygon points="324.962 182.065 433.275 136.565 324.962 91.068 324.962 182.065" fill="#4cb3d2" opacity="0.9"/><polygon points="324.962 182.069 324.962 182.065 324.962 91.068 216.64 136.567 324.962 182.069" fill="#3d6da6" opacity="0.9"/><polygon points="0 409.595 0 409.595 108.32 364.09 0 318.588 0 409.595" fill="#ae7ebb" opacity="0.9"/><polygon points="108.325 364.088 108.318 364.085 108.318 364.09 108.325 364.088" fill="#c83e9c" opacity="0.9"/><polygon points="108.32 364.086 216.633 318.586 108.32 273.089 108.32 364.086" fill="#c83e9c" opacity="0.9"/><polygon points="108.32 364.09 108.32 364.086 108.32 273.089 0 318.589 108.32 364.09" fill="#8a48a0" opacity="0.9"/><polygon points="108.326 364.088 216.641 318.589 216.632 318.586 108.319 364.086 108.326 364.088" fill="#c0228d" opacity="0.9"/><polygon points="1299.877 136.55 1299.877 45.548 1245.718 68.299 1191.557 91.052 1299.877 136.55" fill="#c0e580" opacity="0.9"/><polygon points="1083.241 136.559 1083.241 136.559 1191.558 91.054 1083.241 45.553 1083.241 136.559" fill="#7bc079" opacity="0.9"/><polygon points="866.599 136.559 866.599 136.559 974.921 91.054 866.599 45.553 866.599 136.559" fill="#7996be" opacity="0.9"/><path d="M1083.241,136.55v-91l-108.315,45.5Zm0-91v0l-.009,0Z" fill="#81cfe3" opacity="0.9"/><polygon points="649.958 136.559 649.958 136.559 758.278 91.054 649.958 45.553 649.958 136.559" fill="#ae7ebb" opacity="0.9"/><path d="M866.6,136.55v-91l-108.315,45.5Zm0-91v0l-.009,0Z" fill="#d97bbb" opacity="0.9"/><polygon points="649.919 136.55 649.919 45.548 595.76 68.299 541.599 91.052 649.919 136.55" fill="#c0e580" opacity="0.9"/><polygon points="433.283 136.559 433.283 136.559 541.6 91.054 433.283 45.553 433.283 136.559" fill="#7bc079" opacity="0.9"/><polygon points="216.641 136.559 216.641 136.559 324.963 91.054 216.641 45.553 216.641 136.559" fill="#7996be" opacity="0.9"/><path d="M433.283,136.55v-91l-108.315,45.5Zm0-91v0l-.009,0Z" fill="#81cfe3" opacity="0.9"/><polygon points="0 136.559 0 136.559 108.32 91.054 0 45.553 0 136.559" fill="#ae7ebb" opacity="0.9"/><path d="M216.641,136.55v-91l-108.315,45.5Zm0-91v0l-.009,0Z" fill="#d97bbb" opacity="0.9"/><polygon points="1191.558 91.011 1299.878 45.507 1191.558 0.007 1191.558 91.011" fill="#def2bd" opacity="0.9"/><polygon points="1191.558 91.011 1191.558 0.007 1083.241 45.509 1191.558 91.011" fill="#bde1b5" opacity="0.9"/><polygon points="758.278 91.013 866.597 45.507 758.278 0.005 758.278 91.013" fill="#ecbddd" opacity="0.9"/><polygon points="758.278 91.011 758.278 0.007 649.958 45.509 758.278 91.011" fill="#d7bcdc" opacity="0.9"/><polygon points="758.283 0.002 758.276 0 758.276 0.005 758.283 0.002" fill="#c83e9c" opacity="0.9"/><polygon points="541.6 91.011 649.92 45.507 541.6 0.007 541.6 91.011" fill="#def2bd" opacity="0.9"/><polygon points="541.6 91.011 541.6 0.007 433.283 45.509 541.6 91.011" fill="#bde1b5" opacity="0.9"/><polygon points="324.967 0.002 324.96 0 324.96 0.005 324.967 0.002" fill="#4cb3d2" opacity="0.9"/><polygon points="108.32 91.013 216.64 45.507 108.32 0.005 108.32 91.013" fill="#ecbddd" opacity="0.9"/><polygon points="108.32 91.011 108.32 0.007 0 45.509 108.32 91.011" fill="#d7bcdc" opacity="0.9"/><polygon points="108.325 0.002 108.318 0 108.318 0.005 108.325 0.002" fill="#c83e9c" opacity="0.9"/></svg>