<svg id="Layer_1" data-name="Layer 1" xmlns="http://www.w3.org/2000/svg" viewBox="0 0 433.289 227.573"><title>320-footer-home</title><polygon points="108.33 91.013 216.648 45.507 108.33 0.005 108.33 91.013" fill="#c0e7f0" opacity="0.9"/><polygon points="108.33 91.011 108.33 0.007 0.008 45.509 108.33 91.011" fill="#b9c7da" opacity="0.9"/><path d="M324.969,182.067h0v0Zm0,0,54.161-22.751,54.159-22.753-108.32-45.5v91.006" fill="#9ed44b" opacity="0.9"/><polyline points="324.969 182.067 379.13 159.314 324.969 182.065 324.969 182.067 324.969 182.065" fill="#8ecc34" opacity="0.9"/><polygon points="324.969 182.069 324.969 91.068 216.651 136.567 324.969 182.069" fill="#3c9d4e" opacity="0.9"/><polygon points="0.009 227.573 0.009 227.573 108.331 182.069 0.009 136.567 0.009 227.573" fill="#7996be" opacity="0.9"/><polygon points="108.336 182.067 108.329 182.064 108.329 182.069 108.336 182.067" fill="#4cb3d2" opacity="0.9"/><polygon points="108.336 182.067 216.651 136.567 216.642 136.565 108.331 182.065 108.336 182.067" fill="#48a1ca" opacity="0.9"/><path d="M.009,227.565v-91m0,0v0l-.009,0Z" fill="#d97bbb" opacity="0.9"/><line x1="0.01" y1="136.567" y2="136.565" fill="#c0228d" opacity="0.9"/><polygon points="108.33 182.065 216.643 136.565 108.33 91.068 108.33 182.065" fill="#4cb3d2" opacity="0.9"/><polygon points="108.33 182.069 108.33 182.065 108.33 91.068 0.008 136.567 108.33 182.069" fill="#3d6da6" opacity="0.9"/><polygon points="433.288 136.55 433.288 45.548 379.129 68.299 324.968 91.052 433.288 136.55" fill="#c0e580" opacity="0.9"/><polygon points="216.651 136.559 216.651 136.559 324.969 91.054 216.651 45.553 216.651 136.559" fill="#7bc079" opacity="0.9"/><polygon points="0.009 136.559 0.009 136.559 108.331 91.054 0.009 45.553 0.009 136.559" fill="#7996be" opacity="0.9"/><path d="M216.651,136.55v-91l-108.315,45.5Zm0-91v0l-.009,0Z" fill="#81cfe3" opacity="0.9"/><path d="M.009,136.55v-91m0,0v0L0,45.55Z" fill="#d97bbb" opacity="0.9"/><polygon points="324.969 91.011 433.289 45.507 324.969 0.007 324.969 91.011" fill="#def2bd" opacity="0.9"/><polygon points="324.969 91.011 324.969 0.007 216.651 45.509 324.969 91.011" fill="#bde1b5" opacity="0.9"/></svg>