<svg id="Layer_1" data-name="Layer 1" xmlns="http://www.w3.org/2000/svg" viewBox="0 0 59.199 43.303"><defs><style>.cls-1{fill:#fff;}</style></defs><title>waarom-maatwerk</title><path class="cls-1" d="M7.213,7.665c5.877-2.016,10.668,2.4,10.716,2.446a.25.25,0,0,0,.343-.364C18.223,9.7,13.217,5.074,7.051,7.192c-6.208,2.133-5.705,8.477-5.7,8.54a.25.25,0,0,0,.249.228h.023a.25.25,0,0,0,.227-.271A7.842,7.842,0,0,1,7.213,7.665Z"/><path class="cls-1" d="M14.889,28.47a7.88,7.88,0,0,0,5.676-2.216,8.1,8.1,0,0,0,2.156-6.813,12.652,12.652,0,0,0-3.733-7.411C14.632,7.673,8.251,6.965,4.764,10.453S1.984,20.322,6.34,24.678A12.358,12.358,0,0,0,14.889,28.47ZM5.117,10.807a7.385,7.385,0,0,1,5.324-2.072,11.867,11.867,0,0,1,8.194,3.649A12.151,12.151,0,0,1,22.225,19.5a7.614,7.614,0,0,1-2.013,6.4c-3.04,3.041-8.441,2.664-12.528-.689a.249.249,0,0,0,.073-.176v-4.68a.25.25,0,0,0-.5,0v4.489c-.19-.169-.38-.337-.563-.52-.27-.27-.523-.548-.764-.833a.247.247,0,0,0,.077-.178V17.939a.25.25,0,0,0-.5,0v5.014C2.437,18.917,2.171,13.753,5.117,10.807Z"/><path class="cls-1" d="M29.256,31.584a.25.25,0,0,0,.208-.111l1.063-1.594a.25.25,0,0,0-.416-.277L29.048,31.2a.25.25,0,0,0,.208.389Z"/><path class="cls-1" d="M31.35,31.147a.247.247,0,0,0,.222-.136l.5-.969a.248.248,0,0,0-.107-.336.245.245,0,0,0-.336.107l-.5.969a.248.248,0,0,0,.107.336A.239.239,0,0,0,31.35,31.147Z"/><path class="cls-1" d="M32.538,32.428a.249.249,0,0,0,.219-.13l.969-1.766a.25.25,0,1,0-.437-.24l-.969,1.766a.249.249,0,0,0,.1.339A.242.242,0,0,0,32.538,32.428Z"/><path class="cls-1" d="M34.569,31.834a.252.252,0,0,0,.221-.132l.563-1.047a.25.25,0,1,0-.441-.236l-.562,1.047a.251.251,0,0,0,.1.339A.255.255,0,0,0,34.569,31.834Z"/><path class="cls-1" d="M35.881,32.959a.251.251,0,0,0,.218-.126l1.031-1.812a.251.251,0,1,0-.436-.248l-1.031,1.813a.253.253,0,0,0,.094.342A.258.258,0,0,0,35.881,32.959Z"/><path class="cls-1" d="M38.069,32.616a.251.251,0,0,0,.219-.129l.594-1.07a.25.25,0,0,0-.437-.242l-.594,1.07a.25.25,0,0,0,.1.34A.246.246,0,0,0,38.069,32.616Z"/><path class="cls-1" d="M39.35,33.8a.251.251,0,0,0,.216-.123L40.6,31.93a.25.25,0,0,0-.432-.254l-1.031,1.75a.25.25,0,0,0,.216.377Z"/><path class="cls-1" d="M41.6,33.4a.25.25,0,0,0,.23-.153l.406-.969a.25.25,0,1,0-.461-.193l-.406.969a.25.25,0,0,0,.134.327A.241.241,0,0,0,41.6,33.4Z"/><path class="cls-1" d="M42.85,34.491a.248.248,0,0,0,.225-.142l.906-1.875a.249.249,0,1,0-.449-.217l-.906,1.875a.248.248,0,0,0,.116.333A.236.236,0,0,0,42.85,34.491Z"/><path class="cls-1" d="M45.006,34.053a.249.249,0,0,0,.229-.151l.469-1.094a.25.25,0,1,0-.459-.2L44.777,33.7a.25.25,0,0,0,.229.349Z"/><path class="cls-1" d="M58.929,32.947a.53.53,0,0,0-.53-.031.864.864,0,0,0-.456.465s0-.01,0-.015a.25.25,0,0,0-.166-.12L33.165,28.1l.125-2.649A10.718,10.718,0,0,0,33.1,22.89l-.058-.291a10.217,10.217,0,0,1,.112-4.428l.53-2.12c.023-.1,2.236-9.6-8.639-14.569C18.117-1.682,11.595.865,7.765,3.138L7.624,3.2c-.018.009-.023.03-.038.043A22.609,22.609,0,0,0,4.278,5.633,8.015,8.015,0,0,0,1.6,8.232C-1.2,12.644.5,18.94.663,19.527v6.708a3.542,3.542,0,0,0,2.549,3.484l21.477,6.237a3.546,3.546,0,0,0,3.131-.583l2.4-1.832L54.359,38.9a.251.251,0,0,0,.054.006.245.245,0,0,0,.125-.044v4.193a.248.248,0,0,0,.149.229.242.242,0,0,0,.1.021.246.246,0,0,0,.169-.066L56.519,41.8a.241.241,0,0,0,.064-.094l.275-.712.192.1a.251.251,0,0,0,.317-.082l1.1-1.6a2.065,2.065,0,0,0,.356-1.01l.374-4.761A.856.856,0,0,0,58.929,32.947Zm-.6,5.414a1.571,1.571,0,0,1-.271.766l-.977,1.418-.243-.121a.253.253,0,0,0-.2-.01.248.248,0,0,0-.144.144l-.354.914-1.1,1.013V38.178a.25.25,0,0,0-.5,0v.281c-.025-.016-.041-.043-.071-.05l-24.25-5.382a.255.255,0,0,0-.205.045l-2.494,1.9a3.05,3.05,0,0,1-2.688.5L3.352,29.239a3.042,3.042,0,0,1-2.188-3v-6.75a.248.248,0,0,0-.01-.071c-.019-.065-1.892-6.577.87-10.919a8.57,8.57,0,0,1,6.3-3.731c10.3-1.572,15.512,8.1,16.14,9.351l-.36.482a.25.25,0,0,0-.016.276.253.253,0,0,0,.249.122l.167-.022-.166.131a.25.25,0,0,0,.247.429l.405-.16-.027.025a.249.249,0,0,0-.072.251l.15.542a.25.25,0,1,0,.481-.134l-.109-.394.918-.837a.25.25,0,0,0-.26-.417l-.446.176a.252.252,0,0,0-.019-.076.247.247,0,0,0-.263-.151l-.483.064.1-.129a.251.251,0,0,0,.027-.253c-.053-.115-5.387-11.5-16.734-9.768a12.434,12.434,0,0,0-2.081.5c.492-.354,1.09-.754,1.781-1.168a11.612,11.612,0,0,1,8.913.052.25.25,0,0,0,.2-.457,11.687,11.687,0,0,0-6.923-.764c3.784-1.775,9.109-3.05,14.7-.5,5.484,2.5,7.465,6.17,8.16,8.805a11.622,11.622,0,0,1,.2,5.188l-.529,2.12c-.047.186-.072.377-.109.566l-5.7,3.587a4.267,4.267,0,0,1-1.25.533l-1.217.306a3.5,3.5,0,0,0-1.689,1.521A16.835,16.835,0,0,1,20.7,27.385a.25.25,0,0,0,.371.336A17,17,0,0,0,23.149,24.8a2.99,2.99,0,0,1,1.409-1.286l1.177-.293a4.77,4.77,0,0,0,1.4-.594l5.314-3.346a10.7,10.7,0,0,0,.109,3.415l.058.291a10.306,10.306,0,0,1,.14,1.046l-6.375,3.9a.25.25,0,0,0,.13.463.244.244,0,0,0,.13-.037L32.78,24.6c.009.276.024.552.011.828L32.669,28l-.257-.054v-.8a.249.249,0,0,0-.405-.2L26.82,31.077a.248.248,0,0,0-.093.217l.188,2.219a.25.25,0,0,0,.143.205.252.252,0,0,0,.25-.022l.844-.594a.25.25,0,1,0-.288-.408l-.487.343-.14-1.651,4.677-3.719v.481a.251.251,0,0,0,.2.245L57.4,33.678l-.46,1.381-2.575.578.277-.623a.25.25,0,1,0-.457-.2l-.312.7a.237.237,0,0,0,.029.227l-.112.025-1.244-.284a.242.242,0,0,0,.075-.1l.25-.781a.25.25,0,0,0-.477-.152l-.25.781a.244.244,0,0,0,.014.166l-1.474-.337a.237.237,0,0,0,.059-.077l.375-1.062a.25.25,0,0,0-.471-.166l-.375,1.063a.24.24,0,0,0,.008.151l-.407-.093c-.375-.081-.713-.141-1.031-.19a.231.231,0,0,0,.05-.057l.438-.969a.249.249,0,0,0-.125-.33.245.245,0,0,0-.33.125l-.437.969a.235.235,0,0,0,.013.211,8.635,8.635,0,0,0-1.373-.072l.567-1.313a.25.25,0,1,0-.459-.2l-.594,1.375a.244.244,0,0,0,0,.177,2.392,2.392,0,0,0-1.007.336.885.885,0,0,0-.411.532L27.9,31.933a.25.25,0,0,0-.1.49l26.562,5.438a.287.287,0,0,0,.05,0,.25.25,0,0,0,.05-.5l-.806-.165a.432.432,0,0,1,.138-.341c.123-.1.459-.2,1.326.135,0,.016-.02.026-.021.044,0,.147-.034,1.446.632,1.782a.735.735,0,0,0,.332.078,1.534,1.534,0,0,0,.911-.405,3.923,3.923,0,0,0,1.214-3.651.254.254,0,0,0-.295-.2.25.25,0,0,0-.2.295,3.464,3.464,0,0,1-1.036,3.161c-.31.247-.563.344-.705.271-.274-.139-.374-.854-.357-1.317a.235.235,0,0,0-.129-.208.247.247,0,0,0-.14-.311c-.872-.346-1.477-.367-1.852-.067a.879.879,0,0,0-.314.629l-7.5-1.536c.091-.293.99-.883,4.1-.209l3.969.906a.27.27,0,0,0,.056.006.254.254,0,0,0,.055-.006l3.344-.75a.252.252,0,0,0,.183-.165l.435-1.306c0,.042,0,.075,0,.081a.234.234,0,0,0,.262.236A.25.25,0,0,0,58.3,34.1c-.007-.154.03-.618.284-.723.034-.014.054-.017.057-.019a.517.517,0,0,1,.055.251Z"/><path class="cls-1" d="M24.937,9.693,21.866,6.5A8.044,8.044,0,0,1,26.134,4.14l2.748,3.11a.25.25,0,0,0,.375-.331L26.413,3.7a.248.248,0,0,0-.231-.081c-.134.023-3.306.6-4.847,2.757a.25.25,0,0,0,.023.319l3.219,3.344a.25.25,0,0,0,.36-.347Z"/><path class="cls-1" d="M27.6,16.846c0,.007.007.011.008.018a.243.243,0,0,0,.062.145l0,0a.247.247,0,0,0,.175.074h.013a.236.236,0,0,0,.048-.006c.15-.038,3.681-.958,4.845-3.091a.254.254,0,0,0,.03-.12v-.781a.249.249,0,0,0-.243-.247,5.324,5.324,0,0,0,.449-.7.251.251,0,0,0-.021-.262L29.8,7.592a.25.25,0,0,0-.171-.1c-1.915-.236-4.566,2.49-4.678,2.605a.25.25,0,0,0-.026.315l1.937,2.813A11.039,11.039,0,0,1,27.6,16.846Zm.227-2.219.281.409-.134.466C27.937,15.226,27.889,14.93,27.828,14.627Zm4.46-.826c-.858,1.495-3.121,2.358-4.07,2.664l.359-1.246a5.636,5.636,0,0,0,3.711-2.056ZM29.466,7.98l3.008,4.061A5.5,5.5,0,0,1,28.5,14.729l-.972-1.412a.2.2,0,0,0,.2-.022l3.593-2.281a.25.25,0,0,0-.268-.422l-3.593,2.281a.235.235,0,0,0-.1.2l-.057-.082a2.738,2.738,0,0,0-.255-.426.214.214,0,0,0,.215-.02l3.5-2.25a.25.25,0,0,0-.27-.421L27,12.124a.239.239,0,0,0-.087.28c-.008-.009-.016-.019-.024-.027L25.456,10.3C26.01,9.765,28.047,7.908,29.466,7.98Z"/><path class="cls-1" d="M32.093,15.553a4.807,4.807,0,0,1-4.208,1.816.255.255,0,0,0-.282.212.25.25,0,0,0,.211.283,3.594,3.594,0,0,0,.479.027,5.34,5.34,0,0,0,4.188-2.024.25.25,0,1,0-.389-.314Z"/><path class="cls-1" d="M29.687,8.609a.25.25,0,0,0-.344-.08l-3.312,2.063a.25.25,0,0,0,.265.425l3.312-2.062A.25.25,0,0,0,29.687,8.609Z"/><path class="cls-1" d="M30.208,9.574a.25.25,0,0,0-.277-.416l-3.384,2.25a.25.25,0,1,0,.276.416Z"/><path class="cls-1" d="M27.954,13.753a.25.25,0,0,0,.346.072l3.437-2.256a.25.25,0,1,0-.273-.418l-3.437,2.256A.25.25,0,0,0,27.954,13.753Z"/><path class="cls-1" d="M23.3,26.572a.25.25,0,0,0-.424-.266A8.347,8.347,0,0,1,20.3,28.8a.25.25,0,1,0,.245.436A8.711,8.711,0,0,0,23.3,26.572Z"/><path class="cls-1" d="M22.136,6.374a.25.25,0,0,0,.325.38c.648-.554,2.5-1.976,3.356-1.9a.265.265,0,0,0,.271-.227.25.25,0,0,0-.227-.271C24.66,4.246,22.391,6.156,22.136,6.374Z"/><path class="cls-1" d="M16.2,31.055,13.576,30.3a.251.251,0,0,0-.278.1.25.25,0,0,0-.162-.108.256.256,0,0,0-.222.067v-.618a.25.25,0,0,0-.2-.244.253.253,0,0,0-.28.138l-.224.477L3.58,27.492a.254.254,0,0,0-.312.167.25.25,0,0,0,.167.312l8.842,2.682a.238.238,0,0,0,.138,0v.407a.25.25,0,0,0,.444.157l.134-.164.026.083a.25.25,0,0,0,.221.173.237.237,0,0,0,.243-.142l.159-.332,2.421.7a.243.243,0,0,0,.069.01.25.25,0,0,0,.069-.49Z"/><path class="cls-1" d="M23.673,30.811a.25.25,0,0,0-.25.25v1.7c-1.3-.455-1.434-.368-1.53-.293a.25.25,0,0,0,.23.435,8.751,8.751,0,0,1,1.3.388v.265a.25.25,0,0,0,.5,0V31.061A.25.25,0,0,0,23.673,30.811Z"/><path class="cls-1" d="M24.423,30.811a.25.25,0,0,0-.25.25v2.977a.25.25,0,0,0,.5,0V31.061A.25.25,0,0,0,24.423,30.811Z"/><path class="cls-1" d="M27.851,26.106a.254.254,0,0,0,.128-.035l3.343-2a.25.25,0,0,0-.256-.43l-3.344,2a.25.25,0,0,0,.128.465Z"/></svg>