<svg id="Layer_1" data-name="Layer 1" xmlns="http://www.w3.org/2000/svg" viewBox="0 0 41.034 49.915"><defs><style>.cls-1{fill:#fff;}</style></defs><title>werkwijze</title><path class="cls-1" d="M41,34.256A2.943,2.943,0,0,0,39.321,32l-8.905-4.125-2.1-8.123h0L23.646,1.734l-.006-.008C23.564.738,21.969,0,19.856,0c-2.165,0-3.8.772-3.8,1.8a.96.96,0,0,0,.059.293c-.018.027-.047.046-.054.08L9.9,32.961a.25.25,0,0,0,.2.294.287.287,0,0,0,.05,0,.25.25,0,0,0,.245-.2l1.673-8.352a17.856,17.856,0,0,0,8.472,2.311,14.063,14.063,0,0,0,3.956-.558c.2-.06.388-.13.581-.2h.016c.009,0,.014-.01.022-.012a12.938,12.938,0,0,0,3.84-2.058l1.015,3.92a.25.25,0,0,0,.137.164l9.012,4.175a2.456,2.456,0,0,1,.594,4.069L27.256,47.506a7.592,7.592,0,0,1-8.511,1.077L2.019,40.057A2.783,2.783,0,0,1,1.7,35.287l8.662-5.967a.25.25,0,1,0-.283-.412L1.421,34.875A3.282,3.282,0,0,0,1.792,40.5l16.726,8.526a8.086,8.086,0,0,0,9.068-1.147L40.034,36.9A2.945,2.945,0,0,0,41,34.256ZM17.968.746v.784a.25.25,0,1,0,.5,0v-.9A7.262,7.262,0,0,1,19.606.511V2.676a.25.25,0,0,0,.5,0V.511c1.8.057,3.048.7,3.048,1.285,0,.613-1.354,1.3-3.3,1.3s-3.3-.684-3.3-1.3C16.558,1.412,17.091,1,17.968.746ZM16.481,2.629a5.14,5.14,0,0,0,3.375.964,4.915,4.915,0,0,0,3.481-1.059L26.124,13.3c-2.2,2.846-6.825,2.386-6.889,2.377a9.537,9.537,0,0,1-2.288-.407l.984-10.4a.251.251,0,0,0-.226-.272.262.262,0,0,0-.272.226l-.975,10.3a12.619,12.619,0,0,1-2.273-1.037ZM12.959,20.212a8.411,8.411,0,0,0,4.926.945,9.614,9.614,0,0,0,1.252,2.352,11.132,11.132,0,0,1-6.521-1.586Zm-.8,3.986.351-1.752a11.482,11.482,0,0,0,5.782,1.606,10.468,10.468,0,0,0,1.124-.061c.028,0,.044-.026.068-.037a6.257,6.257,0,0,0,3.891,2.268C20.706,26.788,16.83,26.742,12.161,24.2Zm12.816,1.57c-5.03.471-6.614-4.73-6.679-4.952a.241.241,0,0,0-.274-.179,8.089,8.089,0,0,1-4.962-.942l1.02-5.095a12.843,12.843,0,0,0,2.328,1.033l-.144,1.519a.251.251,0,0,0,.226.272h.024a.25.25,0,0,0,.249-.227l.134-1.418a9.966,9.966,0,0,0,2.3.393,8.962,8.962,0,0,0,.907.041c1.471,0,4.368-.3,6.169-2.342l.422,1.628c-2.191,2.474-6.051,1.873-6.091,1.866a.25.25,0,1,0-.082.493,8.061,8.061,0,0,0,1.229.085,7.168,7.168,0,0,0,5.089-1.884l.4,1.526a3.155,3.155,0,0,1-2.35,1.338l-.21-.812a.25.25,0,1,0-.484.125l.2.769a9.391,9.391,0,0,1-.989.086.25.25,0,0,0,0,.5h0a9.434,9.434,0,0,0,1.109-.1l.925,3.576a.25.25,0,0,0,.484-.125l-.914-3.536A4.288,4.288,0,0,0,27.4,18.243l.395,1.525a2.082,2.082,0,0,1-1.721.7.258.258,0,0,0-.27.229.25.25,0,0,0,.229.269c.012,0,.071.005.166.005a2.638,2.638,0,0,0,1.75-.613l.854,3.3A12.321,12.321,0,0,1,24.977,25.768Z"/><path class="cls-1" d="M14.984,45.608a.249.249,0,0,0,.171.309,21.991,21.991,0,0,0,5.409.629,20.491,20.491,0,0,0,9.021-1.978.25.25,0,0,0-.221-.449c-6.789,3.333-14,1.336-14.071,1.317A.245.245,0,0,0,14.984,45.608Z"/><path class="cls-1" d="M17.808,40.169a.25.25,0,0,0,.243.257q.566.016,1.109.017c4.924,0,8.479-1,10.577-2.989a5.079,5.079,0,0,0,1.738-3.271.25.25,0,0,0-.243-.257h-.007a.25.25,0,0,0-.25.243,4.63,4.63,0,0,1-1.582,2.921c-1.479,1.4-4.641,3.039-11.328,2.836A.256.256,0,0,0,17.808,40.169Z"/><path class="cls-1" d="M15.26,28.138a.245.245,0,0,0-.283.211l-.5,3.458a.25.25,0,0,0,.212.283l.036,0a.25.25,0,0,0,.247-.214l.5-3.458A.25.25,0,0,0,15.26,28.138Z"/><path class="cls-1" d="M36.167,38.906a.249.249,0,0,0,.328-.131,6.756,6.756,0,0,0-1.4-7.789.253.253,0,0,0-.353.028.25.25,0,0,0,.028.353,6.24,6.24,0,0,1,1.266,7.211A.249.249,0,0,0,36.167,38.906Z"/><path class="cls-1" d="M8.474,29.468a.251.251,0,0,0,.132-.038l1.667-1.042a.25.25,0,1,0-.265-.424L8.342,29.006a.25.25,0,0,0,.132.462Z"/><path class="cls-1" d="M28.639,35.558a.242.242,0,0,0,.127.035.249.249,0,0,0,.215-.123c1.538-2.605-.112-8.29-.183-8.53a.25.25,0,0,0-.48.141c.018.058,1.66,5.717.233,8.136A.249.249,0,0,0,28.639,35.558Z"/><path class="cls-1" d="M19.81,32.964a.246.246,0,0,0,.046,0,.25.25,0,0,0,.233-.16l.152-.392.078.355a.246.246,0,0,0,.254.2.25.25,0,0,0,.238-.217l.1-.746a.252.252,0,0,0,.18.088c4.828.216,6.8-1.449,6.883-1.52a.25.25,0,0,0-.327-.378c-.019.017-1.887,1.56-6.388,1.4l-.268-.534a.243.243,0,0,0-.265-.135.249.249,0,0,0-.207.213l-.031.234a.248.248,0,0,0-.16-.075.226.226,0,0,0-.246.143.249.249,0,0,0-.226-.144H18.808a.25.25,0,0,0,0,.5h.8v.917A.251.251,0,0,0,19.81,32.964Z"/><path class="cls-1" d="M9.342,35.164a.25.25,0,0,0,.174.43c.2,0,.353,0,.5-1.56a.25.25,0,0,0-.226-.272.248.248,0,0,0-.272.226A8.292,8.292,0,0,1,9.342,35.164Z"/><path class="cls-1" d="M5.169,34.7a.252.252,0,0,0-.335.112c-.045.09-1.1,2.239.024,3.722a.25.25,0,0,0,.4-.3c-.935-1.232.015-3.177.024-3.2A.25.25,0,0,0,5.169,34.7Z"/><path class="cls-1" d="M12.783,34.635a.25.25,0,0,0,.247-.213l.942-6.209a.25.25,0,0,0-.209-.284.254.254,0,0,0-.285.21l-.942,6.209a.25.25,0,0,0,.209.284Z"/></svg>