<svg id="Layer_1" data-name="Layer 1" xmlns="http://www.w3.org/2000/svg" viewBox="0 0 47.447 47.447"><defs><style>.cls-1{fill:#3d3d3d;}</style></defs><title>coin</title><path class="cls-1" d="M46.206,6.045l-4.8-4.8C39.45-.711,35.507-.351,30.3,2.256A65.357,65.357,0,0,0,14.344,14.344,65.358,65.358,0,0,0,2.256,30.3C-.351,35.507-.711,39.45,1.242,41.4l4.8,4.8a4.774,4.774,0,0,0,3.51,1.242,17.946,17.946,0,0,0,7.591-2.256A65.36,65.36,0,0,0,33.1,33.1,65.359,65.359,0,0,0,45.191,17.146C47.8,11.94,48.159,8,46.206,6.045Zm-.9.9c.853.853,1.079,2.343.7,4.306L42.523,7.77a.633.633,0,0,0-.286-.164,10.764,10.764,0,0,0,.391-3.336ZM3.395,30.872A64.073,64.073,0,0,1,15.244,15.244,64.073,64.073,0,0,1,30.872,3.395a16.891,16.891,0,0,1,7.016-2.13,3.575,3.575,0,0,1,2.615.878c1.512,1.512,1.056,5.022-1.252,9.63A64.072,64.072,0,0,1,27.4,27.4,64.072,64.072,0,0,1,11.773,39.25c-4.608,2.308-8.118,2.765-9.63,1.252S1.087,35.48,3.395,30.872ZM40.943,21.8,37.055,17.91c.951-1.381,1.8-2.742,2.539-4.065l3.865,3.865C42.736,19.037,41.893,20.406,40.943,21.8Zm-3.618,4.787-3.9-3.9c1.031-1.244,2-2.488,2.884-3.72l3.83,3.83a.64.64,0,0,0,.065.056C39.321,24.087,38.358,25.336,37.325,26.585ZM17.748,43.028l-3.6-3.6c1.318-.747,2.671-1.6,4.042-2.561l3.883,3.883,0,0c-1.414.978-2.806,1.847-4.156,2.593A.633.633,0,0,0,17.748,43.028Zm5.223-3.182-3.732-3.732c1.228-.895,2.466-1.865,3.7-2.9l3.9,3.9c-1.252,1.045-2.5,2.02-3.744,2.916A.634.634,0,0,0,22.971,39.846Zm4.8-3.6-3.859-3.859c1.362-1.178,2.718-2.434,4.052-3.753l3.889,3.889.014.012c-1.336,1.321-2.694,2.577-4.056,3.753C27.8,36.273,27.787,36.258,27.773,36.244ZM6.945,45.3,4.269,42.629c.157.01.318.016.483.016a11.874,11.874,0,0,0,3.127-.48l3.759,3.759C9.483,46.41,7.853,46.213,6.945,45.3Zm5.943.278a.634.634,0,0,0-.184-.393l-3.46-3.46a28.135,28.135,0,0,0,3.1-1.341c.211-.106.423-.216.636-.327l3.858,3.858-.262.134A25.451,25.451,0,0,1,12.889,45.583ZM32.767,31.634l-.011-.012-3.891-3.891c1.315-1.34,2.565-2.7,3.737-4.067l3.9,3.9C35.333,28.929,34.084,30.292,32.767,31.634Zm11.31-15.107L40.3,12.753a.639.639,0,0,0-.086-.071c.058-.113.116-.226.172-.338A27.338,27.338,0,0,0,41.85,8.9l3.793,3.793A24.874,24.874,0,0,1,44.077,16.527Z"/><path class="cls-1" d="M6.1,38.446c4.336,0,12.671-6.027,19.494-12.849C33.754,17.439,40.774,7.118,37.714,4.059s-13.38,3.96-21.538,12.117S1,34.655,4.059,37.714A2.772,2.772,0,0,0,6.1,38.446Zm.74-8.668a67.449,67.449,0,0,1,10.234-12.7,67.451,67.451,0,0,1,12.7-10.234c2.047-1.2,4.41-2.254,5.9-2.254a1.561,1.561,0,0,1,1.139.371C37.858,6,36.526,9.279,34.93,12A67.445,67.445,0,0,1,24.7,24.7,67.449,67.449,0,0,1,12,34.93C9.279,36.526,6,37.858,4.96,36.814S5.248,32.494,6.843,29.777Z"/></svg>