<svg id="Layer_1" data-name="Layer 1" xmlns="http://www.w3.org/2000/svg" viewBox="0 0 56.05 48.525"><defs><style>.cls-1{fill:#fff;}</style></defs><title>horn</title><path class="cls-1" d="M55.632,26.856l0-.009a3.857,3.857,0,0,0-.215-.395,1.254,1.254,0,0,0-.678-.512l-.342-.109a6.266,6.266,0,0,0-.793-1.957,1.843,1.843,0,0,0-1-.752L38.153,18.531c-13.138-4.191-14.09-7.369-14.106-7.432a.245.245,0,0,0-.1-.147c-.169-3.826-1.432-6.663-3.664-7.423-3.965-1.349-9.51,4.352-12.36,12.713l-.013.042-.014.037A32.147,32.147,0,0,0,6.734,20.7c-.034.179-.059.355-.089.533-.045.266-.094.534-.131.8A22.526,22.526,0,0,0,6.349,27.6c.364,3.37,1.64,5.592,3.6,6.258a3.838,3.838,0,0,0,1.249.2c1.675,0,3.555-1.018,5.42-2.963.227-.237.45-.494.671-.753.269-.14,5.428-2.721,13.423-.274l5.242,1.456.136.706L33.6,34.58l0,.005a.245.245,0,0,0-.076.179v.006h0l.024,2.046-1.478,1.192a1.439,1.439,0,0,1-.539.273l-.26.069a1.957,1.957,0,0,0-1.208.942,1.453,1.453,0,0,1-.919.707l-.127.032a1.959,1.959,0,0,0-1.229.937l-.174.311a1.455,1.455,0,0,1-.921.7l-.31.075a1.946,1.946,0,0,0-1.3,1.053l-.45.938a.251.251,0,0,0,.053.289L29,48.455a.25.25,0,0,0,.35,0l.962-.961h0l.927-.926h0v0l.849-.848,0,0,0,0,4.476-4.472,3.064-2.092c.033-.022.043-.06.061-.093a1.832,1.832,0,0,0,1.426.671A2.31,2.31,0,0,0,43.2,38.229a2.439,2.439,0,0,0,.062-1.724v0l1.651-1.3.962.263a.25.25,0,0,0,.286-.123l.454-.849,2.521.7a2.641,2.641,0,0,0,.7.1,2.4,2.4,0,0,0,1.114-.269,4.827,4.827,0,0,0,1.506-1.294c.012.005.016.019.029.022a1.752,1.752,0,0,0,.467.064,1.609,1.609,0,0,0,.748-.182,4.559,4.559,0,0,0,2-2.839A5.155,5.155,0,0,0,55.632,26.856Zm-.4,3.778c-.014.044-.03.079-.045.122L54.1,30.43c.052-.169.089-.327.132-.49l1.1.33C55.3,30.391,55.273,30.507,55.231,30.634Zm-.43,1.05-1.036-.31c.059-.15.117-.309.174-.47l1.073.321C54.944,31.39,54.874,31.544,54.8,31.684Zm-.564.86-.874-.261c.07-.14.138-.293.207-.446l.975.292A3.888,3.888,0,0,1,54.238,32.544Zm.323-4.637.947.284a4.477,4.477,0,0,1,.037.563l-1.025-.307C54.541,28.261,54.552,28.083,54.561,27.907Zm.667-.733a3.556,3.556,0,0,1,.167.461l-.818-.245c0-.144-.009-.281-.018-.417Zm-.869,2.284c.039-.178.06-.342.087-.512l1.08.323c-.016.163-.045.337-.078.514Zm.226-3.041a.769.769,0,0,1,.2.1l-.231-.069c-.016-.005-.03.006-.046,0,0-.02,0-.044-.006-.064ZM39.868,19.6c0,.01-.006.02,0,.03.024.071,2.3,7.094-3.756,11.421L33.5,30.327c5.445-4.1,4.113-10.306,3.771-11.558.244.08.483.159.735.24Zm-19.794.872c-.361,1.059-.772,2.075-1.216,3.047-.574-.945-2.892-1.934-4.286-2.459a2.453,2.453,0,0,0,.39-.354,5.612,5.612,0,0,0,1.025-1.87,4.4,4.4,0,0,0,.192-2.75,20.835,20.835,0,0,0,3.8.478,4.514,4.514,0,0,0,1.192-.135A32.537,32.537,0,0,1,20.074,20.472Zm-6.388.27a1.209,1.209,0,0,1-.25-.76,5.1,5.1,0,0,1,.3-1.911c.479-1.406,1.232-2.156,1.634-2.156a.266.266,0,0,1,.087.014c.371.126.57,1.233.054,2.748a5.1,5.1,0,0,1-.926,1.7,1.194,1.194,0,0,1-.666.449Zm7.588-4.879c-.821.48-3.879.01-5.675-.415,0,0-.008,0-.012,0-.77-.22-1.761.82-2.32,2.46a5.6,5.6,0,0,0-.33,2.106c.047.686.294,1.139.7,1.276a.772.772,0,0,0,.21.034c2.307.817,4.662,2,4.655,2.606a.244.244,0,0,0,.082.182,23.012,23.012,0,0,1-3.588,5.492c-1.974,2.155-3.9,3.054-5.429,2.536-1.772-.6-2.727-3-2.808-6.281,0-.211-.006-.421,0-.636q0-.181.007-.366a29.656,29.656,0,0,1,1.624-8.417c2.341-6.841,6.45-11.777,9.6-11.777a2.771,2.771,0,0,1,.9.146C21.431,5.682,22.292,10.261,21.275,15.863ZM16.252,30.751c-2.2,2.3-4.387,3.229-6.147,2.633a3.756,3.756,0,0,1-1.831-1.453,3.12,3.12,0,0,0,2.171.856c1.5,0,3.209-.979,4.916-2.843a26.9,26.9,0,0,0,5.187-9.31,31.991,31.991,0,0,0,1.191-4.563.214.214,0,0,0,.008-.048c1.064-5.883.078-10.735-2.706-11.684A3.432,3.432,0,0,0,17,4.323a4.8,4.8,0,0,1,2.017-.5,3.38,3.38,0,0,1,1.1.179c3.7,1.263,4.471,8.88,1.71,16.98A26.877,26.877,0,0,1,16.252,30.751Zm1.7-1.24A29.515,29.515,0,0,0,22.3,21.144a29.389,29.389,0,0,0,1.654-9.212c.889,1.174,3.733,3.643,12.772,6.661,0,.032-.017.062-.006.094.024.071,2.323,7.151-3.823,11.474l-2.053-.57C24.4,27.622,19.825,28.807,17.957,29.511Zm24.782,8.528a1.58,1.58,0,1,1-2.9-1.182,1.936,1.936,0,0,1,.921-1.016,1.553,1.553,0,0,1,.688-.167,1.371,1.371,0,0,1,.521.1,1.454,1.454,0,0,1,.819.893A1.936,1.936,0,0,1,42.738,38.039Zm.293-1.993a1.889,1.889,0,0,0-.87-.732,1.948,1.948,0,0,0-1.621.08,2.435,2.435,0,0,0-1.161,1.273,2.392,2.392,0,0,0,.086,2.038.225.225,0,0,0-.109.023l-3.1,2.121L31.909,45.19l-.752-.711a.25.25,0,1,0-.344.363l.742.7-.491.49L29.8,44.77a.25.25,0,1,0-.353.354l1.268,1.263-.577.576-1.792-1.774a.25.25,0,1,0-.352.355l1.79,1.771-.61.609-2.5-2.388,6.322-5.331a.25.25,0,1,0-.322-.383l-6.363,5.366-.38-.363L28.148,42.9a.25.25,0,1,0-.328-.377l-2.254,1.958-.4-.382.372-.774a1.443,1.443,0,0,1,.965-.783l.309-.075a1.958,1.958,0,0,0,1.239-.939l.174-.311a1.457,1.457,0,0,1,.913-.7l.127-.032a1.953,1.953,0,0,0,1.236-.951,1.456,1.456,0,0,1,.9-.7l.26-.069a1.914,1.914,0,0,0,.726-.368L33.8,37.254l1.8,1.4a.251.251,0,0,0,.153.053.25.25,0,0,0,.153-.447l-1.865-1.448,0-.36,1.3.934a.256.256,0,0,0,.146.047.25.25,0,0,0,.146-.453l-1.6-1.15-.006-.534.775.635a.25.25,0,0,0,.33-.012l1.812-1.711a.25.25,0,0,0-.344-.363L34.952,35.4l-.8-.655L36.528,32.5a.249.249,0,0,0,.073-.229l-.062-.323,1.688,1.364.421,2.065a.251.251,0,0,0,.245.2.287.287,0,0,0,.05,0,.25.25,0,0,0,.2-.295l-.357-1.755,5.532,1.509Zm2.783-1.121L38.57,32.95l-1.31-1.059,8.861,2.461Zm.755-1.409-.205.383-7.5-2.084.689-.365Zm4.153,1.058a1.981,1.981,0,0,1-1.452.133l-2.413-.67.3-.556a.251.251,0,0,0-.15-.358l-3.974-1.169L43.9,29.83a.25.25,0,0,0-.137-.326.247.247,0,0,0-.326.137l-.886,2.171-.948-.279.255-.624a.251.251,0,0,0-.137-.326.248.248,0,0,0-.326.137l-.274.672-1.526-.449a.246.246,0,0,0-.187.02l-1.246.659-1.441-.4c5.263-4.028,4.078-10.04,3.71-11.443l2.363.751a11.533,11.533,0,0,1,.03,6.054.249.249,0,0,0,.172.309.236.236,0,0,0,.068.01.249.249,0,0,0,.24-.182,11.888,11.888,0,0,0,.059-6.01l2.466.783a11.366,11.366,0,0,1,.438,3.727.251.251,0,0,0,.239.261h.011a.25.25,0,0,0,.25-.239,12.185,12.185,0,0,0-.367-3.567L52.454,23.6a1.337,1.337,0,0,1,.725.545c.609.95,1.471,3.033.395,6.311C52.711,33.078,51.547,34.144,50.723,34.574Zm2.75-1.389a1.128,1.128,0,0,1-.69.093c.114-.168.226-.352.338-.548l.714.214A2.27,2.27,0,0,1,53.473,33.186Z"/><path class="cls-1" d="M37.585,33.9a.249.249,0,0,0-.191.3l.459,2.145a.25.25,0,0,0,.488-.105l-.459-2.145A.245.245,0,0,0,37.585,33.9Z"/><path class="cls-1" d="M11.179,29.458c-2.421-.825-2.908-5.846-1.085-11.192A.25.25,0,1,0,9.62,18.1c-1.943,5.7-1.33,10.9,1.4,11.826a.233.233,0,0,0,.081.014.25.25,0,0,0,.081-.486Z"/><path class="cls-1" d="M11.959,20.776a.25.25,0,0,0-.21-.284.246.246,0,0,0-.284.21,12.451,12.451,0,0,0,.283,5.742.25.25,0,0,0,.236.167.274.274,0,0,0,.083-.014.251.251,0,0,0,.153-.319A11.957,11.957,0,0,1,11.959,20.776Z"/><path class="cls-1" d="M20.169,17.481a9.309,9.309,0,0,1-2.961-.51.25.25,0,1,0-.144.479,13.176,13.176,0,0,0,2.841.556,1.586,1.586,0,0,0,.394-.041.251.251,0,0,0,.177-.307A.253.253,0,0,0,20.169,17.481Z"/><path class="cls-1" d="M25.352,27.327a9.219,9.219,0,0,0-4.567.112,37.947,37.947,0,0,0,2.428-5.935.25.25,0,0,0-.476-.153c-.017.052-1.663,5.148-2.765,6.373a.25.25,0,0,0,.186.417.243.243,0,0,0,.086-.016,9.374,9.374,0,0,1,4.974-.316.25.25,0,0,0,.134-.482Z"/><path class="cls-1" d="M12.469,3.532a.25.25,0,0,0,.407-.29L10.646.1a.25.25,0,1,0-.407.29Z"/><path class="cls-1" d="M4.878,7.767,8.524,9.255a.246.246,0,0,0,.094.019.25.25,0,0,0,.094-.481L5.067,7.3a.25.25,0,0,0-.188.463Z"/><path class="cls-1" d="M6.353,15.233a.25.25,0,0,0-.177-.306L2.342,13.9a.25.25,0,1,0-.129.483L6.047,15.41a.268.268,0,0,0,.064.008A.251.251,0,0,0,6.353,15.233Z"/><path class="cls-1" d="M4.5,23.2a.25.25,0,0,0-.25-.248h0L.248,23a.25.25,0,0,0,0,.5h0l4-.042A.25.25,0,0,0,4.5,23.2Z"/><path class="cls-1" d="M4.23,29.918.8,31.218a.25.25,0,0,0,.088.483.234.234,0,0,0,.088-.017l3.433-1.3a.25.25,0,0,0,.146-.322A.247.247,0,0,0,4.23,29.918Z"/><path class="cls-1" d="M33.551,19.9a.239.239,0,0,0,.088.016.25.25,0,0,0,.088-.484c-6.75-2.544-8.6-4.517-8.623-4.537a.25.25,0,0,0-.371.335C24.808,15.317,26.655,17.3,33.551,19.9Z"/></svg>