<svg id="Layer_1" data-name="Layer 1" xmlns="http://www.w3.org/2000/svg" viewBox="0 0 28.218 42.363"><defs><style>.cls-1{fill:#3d3d3d;}</style></defs><title>marker</title><path class="cls-1" d="M8.789,17.314a25.591,25.591,0,0,1,2.777,4.551,21.718,21.718,0,0,1,1.348,3.921l.021.129a.228.228,0,0,0,.022.069c.043.2.076.381.1.539l.575,3.792a.25.25,0,0,0,.245.212h0a.25.25,0,0,0,.246-.208l.641-3.754A23.871,23.871,0,0,1,16.845,20.7a26.009,26.009,0,0,1,2.178-3.382,18.325,18.325,0,0,0,3.238-6.2,7.968,7.968,0,0,0,.326-2.47A8.672,8.672,0,0,0,7.779,2.543a8.59,8.59,0,0,0-2.544,6.08,7.573,7.573,0,0,0,.325,2.5A18.378,18.378,0,0,0,8.789,17.314ZM5.734,8.645a8.176,8.176,0,0,1,16.353.013v.016a7.429,7.429,0,0,1-.31,2.315,17.832,17.832,0,0,1-3.154,6.023A26.325,26.325,0,0,0,16.4,20.465a24.363,24.363,0,0,0-2.138,6.061l-.371,2.179-.343-2.256c-.027-.181-.065-.392-.117-.627a.244.244,0,0,0-.015-.046l-.015-.086a22.3,22.3,0,0,0-1.383-4.032,26.233,26.233,0,0,0-2.834-4.645A17.88,17.88,0,0,1,6.043,10.99,7.173,7.173,0,0,1,5.734,8.645Z"/><path class="cls-1" d="M13.91,11.543a2.991,2.991,0,1,0-2.991-2.991A2.994,2.994,0,0,0,13.91,11.543Zm0-5.482a2.491,2.491,0,1,1-2.491,2.491A2.493,2.493,0,0,1,13.91,6.061Z"/><path class="cls-1" d="M28.218,39.177c0-.637-.693-1.183-1.846-1.635-.006-.007,0-.016-.01-.023a.236.236,0,0,0-.214-.058c-2.645-.963-7.435-1.471-12.04-1.471C7.269,35.991,0,37.107,0,39.177c0,.434.335.823.9,1.172l0,.01c.012.012.031.009.045.019a18.111,18.111,0,0,0,6.3,1.6c.006,0,.01.007.016.007l.009,0c.706.084,1.438.154,2.189.211.006,0,.01.006.016.006l.011,0c.886.066,1.793.113,2.708.141l.011,0,.01,0c.629.019,1.259.031,1.886.031a55.926,55.926,0,0,0,8.234-.576h0l0,0C25.752,41.259,28.218,40.381,28.218,39.177Zm-9.3,2.5,4.341-4.341a.233.233,0,0,0,.041-.1,19.721,19.721,0,0,1,2.4.591L22.228,41.3C21.235,41.455,20.127,41.583,18.923,41.678Zm1.656-4.845q1.17.132,2.177.3l-4.417,4.417a.248.248,0,0,0-.072.174q-1.271.085-2.668.118l4.956-4.955C20.571,36.875,20.568,36.852,20.579,36.833Zm-10.531,4.9,5.071-5.071a.245.245,0,0,0,.066-.16q1.13.018,2.184.073L12.115,41.83C11.4,41.808,10.71,41.777,10.048,41.734ZM14.579,36.5,9.39,41.685q-.817-.063-1.574-.146l5.013-5.012c.006-.006,0-.016.01-.023.417-.008.839-.014,1.271-.014C14.268,36.491,14.421,36.495,14.579,36.5ZM6,41.3l4.722-4.721q.686-.037,1.405-.058L7.181,41.467C6.77,41.417,6.377,41.362,6,41.3Zm-1.465-.26,4.332-4.332c.361-.031.727-.061,1.105-.086L5.389,41.2C5.091,41.153,4.808,41.1,4.533,41.043Zm-1.278-.3L7.1,36.9c.317-.04.645-.076.981-.111l-4.13,4.13C3.709,40.86,3.475,40.8,3.255,40.744Zm-.917-.279,3.2-3.2a.242.242,0,0,0,.062-.15c.226-.038.449-.076.687-.111L2.7,40.589C2.572,40.548,2.459,40.506,2.338,40.465Zm-.847-.336L3.96,37.661a.234.234,0,0,0,.049-.236c.266-.06.545-.118.837-.174L1.825,40.271C1.711,40.224,1.591,40.177,1.491,40.129ZM.5,39.177c0-.543,1.027-1.112,2.822-1.586L1.039,39.874C.689,39.643.5,39.408.5,39.177Zm12.3,2.672,5.16-5.161c.021-.021.02-.052.032-.078q1.031.064,1.974.158l-5,5c-.024.024-.023.057-.035.086-.275,0-.545.009-.826.009C13.665,41.863,13.232,41.857,12.8,41.849Zm10.271-.687,3.15-3.15c.962.372,1.494.776,1.494,1.166C27.718,39.884,25.986,40.634,23.074,41.162Z"/><path class="cls-1" d="M15.146,18.555a.25.25,0,0,0-.25.25v2.546a.25.25,0,0,0,.5,0V18.8A.25.25,0,0,0,15.146,18.555Z"/><path class="cls-1" d="M16.813,15.564v2.392a.25.25,0,0,0,.5,0V15.564a.25.25,0,0,0-.5,0Z"/><path class="cls-1" d="M19.214,15.161a.25.25,0,0,0,.25-.25V12.424a.25.25,0,0,0-.5,0v2.486A.25.25,0,0,0,19.214,15.161Z"/></svg>