<?xml version="1.0" encoding="utf-8"?>
<!-- Generator: Adobe Illustrator 20.0.0, SVG Export Plug-In . SVG Version: 6.00 Build 0)  -->
<svg version="1.1" id="Layer_1" xmlns="http://www.w3.org/2000/svg" xmlns:xlink="http://www.w3.org/1999/xlink" x="0px" y="0px"
	 viewBox="0 0 431.637 162.31" style="enable-background:new 0 0 431.637 162.31;" xml:space="preserve">
<style type="text/css">
	.st0{fill:#3D3D3D;}
</style>
<title>splintt-sketch</title>
<path class="st0" d="M44.663,106.289L44.663,106.289c0-13.267-7.511-19.751-14.773-26.022c-0.749-0.648-1.5-1.294-2.174-1.886
	c-2.445-2.68-4.731-6.011-5.051-7.653c3.929,1.905,7.397,4.642,10.162,8.021c-0.253,0.415-0.388,0.892-0.391,1.378
	c0.029,1.495,1.264,2.684,2.76,2.655c1.455-0.028,2.628-1.201,2.655-2.655c-0.001-0.346-0.069-0.689-0.2-1.01l2.671-2.671
	c0.402,0.233,0.858,0.357,1.323,0.36c1.491-0.001,2.699-1.211,2.698-2.702c-0.001-1.176-0.763-2.217-1.885-2.572v-8.485
	c1.415-0.47,2.182-1.998,1.712-3.413c-0.432-1.301-1.77-2.072-3.112-1.793c-2.216-2.79-7.239-8.17-14.419-10.275
	C19.7,45.524,9.656,50.593,5.59,58.2l0,0c-2.547,3.282-3.926,8.062-3.926,13.848c0,9.425,3.832,15.344,8.589,20.251
	c-0.416-0.257-0.895-0.395-1.384-0.399c-1.496,0.002-2.707,1.214-2.708,2.71c0.002,0.33,0.065,0.658,0.186,0.965L3.722,98.2
	c-1.379-0.568-2.957,0.089-3.525,1.467c-0.551,1.338,0.05,2.872,1.363,3.48v9c-1.351,0.63-1.936,2.237-1.306,3.588
	c0.443,0.951,1.397,1.558,2.446,1.559c0.073,0,0.141-0.016,0.212-0.021c2.32,3.688,7.827,10.88,16.765,13.5
	c1.318,0.391,2.681,0.615,4.055,0.666c0.007,0,0.013,0,0.021,0h0.03c0.155,0,0.312,0.018,0.466,0.018
	c2.311,0.023,4.583-0.593,6.566-1.78c9.214-3.733,12.326-11.821,13.357-17.437c0.051-0.116,0.074-0.243,0.067-0.37
	C44.571,110.029,44.714,108.159,44.663,106.289z M42.733,111.461L38,116.084c0.095-0.951,0.148-1.934,0.159-2.951l4.891-4.891
	c-0.043,1.078-0.149,2.153-0.316,3.219H42.733z M43.027,105.961l-4.932,4.939c-0.472-8.281-4.006-13.787-8.428-18.359l-0.009-0.013
	l-0.012-0.008c-0.788-0.814-1.599-1.603-2.432-2.368c-0.01-0.012-0.014-0.027-0.025-0.038s-0.042-0.025-0.062-0.041
	c-1.228-1.128-2.485-2.218-3.738-3.3c-0.533-0.46-1.059-0.92-1.584-1.379l5.35-5.35c0.556,0.487,1.113,0.972,1.675,1.458
	c6.911,5.964,14.047,12.144,14.197,24.461L43.027,105.961z M22.587,103.623l0.008,0.012l0.009,0.006
	c1.324,1.303,2.205,2.989,2.518,4.82c-7.34-2.6-12.015-8.739-14.151-12.171c0.715-0.868,0.802-2.094,0.216-3.054
	c1.454,1.43,2.97,2.788,4.479,4.131c0.968,0.865,1.94,1.728,2.9,2.619c0.413,0.371,0.851,0.748,1.3,1.132
	c0.953,0.785,1.861,1.622,2.721,2.507L22.587,103.623z M5.412,100.703c-0.001-0.519-0.152-1.026-0.436-1.461l2.387-2.387
	C8.017,97.306,8.841,97.433,9.6,97.2c2.305,3.735,7.378,10.33,15.587,12.983c-0.1,2.15-0.752,3.783-1.875,4.623
	c-0.926,0.652-2.112,0.812-3.178,0.429c-8.036-2.357-13.289-8.955-15.631-12.528c0.574-0.507,0.905-1.236,0.909-2.002L5.412,100.703
	z M20.922,99.881c-0.438-0.375-0.867-0.738-1.26-1.094l0,0l6.962-6.964c0.443,0.418,0.88,0.843,1.31,1.276l-6.887,6.888
	L20.922,99.881z M26,78.894l-5.425,5.425c-0.229-0.2-0.45-0.4-0.687-0.6c-2.6-2.232-5.279-4.538-5.279-8.49
	c0-2.468,0.663-4.323,1.867-5.225c0.937-0.648,2.131-0.8,3.2-0.406c0.468,0.137,0.919,0.3,1.368,0.464
	C20.836,72.639,24.2,76.851,26,78.894z M22.574,68.9c0.041-0.098,0.063-0.204,0.063-0.31v-3.561
	c0.016-0.449-0.335-0.825-0.784-0.841c-0.449-0.016-0.825,0.335-0.841,0.784c-0.001,0.019-0.001,0.038,0,0.057v3.293
	c-0.289-0.1-0.576-0.2-0.873-0.284c-0.275-0.079-0.555-0.141-0.838-0.185v-5.48c-0.016-0.449-0.392-0.8-0.841-0.784
	c-0.427,0.015-0.769,0.357-0.784,0.784v5.443c-0.789,0.103-1.539,0.407-2.176,0.884c-0.442,0.338-0.825,0.746-1.136,1.207
	c-0.752-2.943-2.8-5.428-5.273-6.113c-1.321-0.4-2.754-0.144-3.854,0.689c-0.581,0.453-1.055,1.029-1.388,1.687
	c0.838-4.04,2.59-7.179,5.137-9.087c2.885-2.159,6.577-2.665,10.691-1.459c6.209,1.821,10.806,6.4,13.114,9.149
	c-0.232,0.401-0.356,0.856-0.359,1.32c0.005,1.179,0.774,2.219,1.9,2.568v8.9c-0.095,0.028-0.189,0.062-0.281,0.1
	C30.974,73.872,27.04,70.869,22.574,68.9z M11.533,76.1c-0.698,0.525-1.606,0.68-2.438,0.416C6.714,75.863,4.7,72.672,4.7,69.558
	c-0.102-1.428,0.461-2.823,1.524-3.781c0.455-0.351,1.015-0.54,1.59-0.536c0.287,0.002,0.572,0.042,0.848,0.119
	c2.381,0.66,4.393,3.85,4.393,6.965c0.102,1.428-0.46,2.823-1.523,3.782L11.533,76.1z M40.1,62.7
	c0.224,0.151,0.469,0.268,0.727,0.347v8.486c-1.126,0.349-1.895,1.389-1.9,2.568c0.002,0.403,0.095,0.799,0.272,1.161l-2.6,2.6
	c-0.204-0.129-0.424-0.23-0.655-0.3v-8.9c1.409-0.426,2.207-1.914,1.781-3.323c-0.021-0.068-0.044-0.136-0.07-0.202L40.1,62.7z
	 M26.182,49.125c6.538,1.917,11.279,6.887,13.451,9.56c-0.676,0.731-0.879,1.782-0.525,2.713l-2.453,2.453
	c-0.787-0.537-1.801-0.614-2.66-0.2c-2.443-2.913-7.234-7.644-13.857-9.587c-3.082-0.999-6.412-0.923-9.446,0.215
	C15.149,50.12,21.547,47.767,26.182,49.125z M3.3,71.589c0.665,3.111,2.783,5.784,5.366,6.5c0.416,0.118,0.847,0.178,1.279,0.179
	c0.93,0.004,1.836-0.301,2.574-0.867c0.218-0.17,0.42-0.359,0.605-0.565c0.635,3.749,3.417,6.144,5.708,8.114
	c0.062,0.053,0.119,0.1,0.18,0.157c-4.321,1.239-6.195-0.37-6.3-0.464c-0.129-0.115-0.292-0.185-0.465-0.2
	c0.171-0.458,0.375-0.903,0.611-1.331c0.213-0.395,0.066-0.888-0.329-1.102c-0.38-0.205-0.853-0.078-1.079,0.29
	c-0.248,0.432-2.378,4.281-0.556,6.355c0.153,0.176,0.376,0.277,0.609,0.276c0.448,0,0.812-0.364,0.812-0.812
	c0-0.198-0.072-0.389-0.203-0.537c-0.313-0.46-0.418-1.031-0.289-1.573c1.229,0.836,2.696,1.252,4.181,1.186
	c1.512-0.034,3.009-0.32,4.427-0.846c0.628,0.552,1.261,1.102,1.9,1.65c1.037,0.9,2.076,1.8,3.1,2.723L18.452,97.7
	c-0.569-0.514-1.135-1.032-1.708-1.541C9.825,89.992,3.289,84.17,3.289,72.047C3.289,71.892,3.3,71.742,3.3,71.589z M4.462,116.632
	c1.133-0.96,1.273-2.657,0.313-3.79c-0.406-0.479-0.967-0.801-1.586-0.91v-8.237c2.476,3.793,7.936,10.594,16.5,13.1
	c1.557,0.529,3.274,0.273,4.609-0.686c1.641-1.23,2.546-3.538,2.546-6.5c-0.023-2.411-0.932-4.728-2.554-6.512l2.2-2.2
	c0.306-0.329,0.287-0.843-0.042-1.149c-0.312-0.29-0.795-0.29-1.107,0l-2.157,2.156c-0.297-0.293-0.597-0.576-0.9-0.849l6.786-6.787
	c4.236,4.573,7.479,10.134,7.479,18.517l0,0c0,6.871-2.032,12.177-5.723,14.94c-0.267,0.2-0.55,0.371-0.833,0.542
	c-1.994,0.761-4.074,1.276-6.193,1.533c-1.24-0.041-2.469-0.239-3.659-0.588c-8.16-2.39-13.387-9.036-15.682-12.58L4.462,116.632z
	 M35.068,125.424c1.268-2.094,2.138-4.404,2.564-6.815c0.108-0.038,0.207-0.099,0.289-0.178l4.216-4.114
	c-1.073,4.379-3.558,8.282-7.072,11.107L35.068,125.424z"/>
<path class="st0" d="M8.878,67.2c-0.1-0.029-0.2-0.035-0.3-0.054v3.038L6.515,67.56c-0.604,0.484-0.943,1.226-0.913,2
	c0.106,1.943,1.415,3.613,3.276,4.18c1.233,0.486,2.627-0.12,3.113-1.354c0.126-0.321,0.182-0.664,0.163-1.008
	C12.047,69.436,10.739,67.767,8.878,67.2z"/>
<path class="st0" d="M104.734,83.6c0.002-0.033,0.002-0.067,0-0.1c-0.736-6.568-3.247-11.647-7.066-14.3
	c-2.687-1.872-6.058-2.475-9.228-1.652l-4.882,1.217c-4.974,1.416-9.022,7.1-9.022,12.677v25.9c-2.551-2.765-4.362-6.13-5.265-9.782
	c0.429,0.03,0.85,0.131,1.246,0.3c0.416,0.168,0.89-0.033,1.059-0.45s-0.033-0.89-0.45-1.059c-2.035-1.039-4.527-0.273-5.626,1.73
	c-0.202,0.4-0.041,0.888,0.359,1.089c0.113,0.057,0.238,0.087,0.365,0.087c0.303-0.001,0.58-0.168,0.721-0.436
	c0.189-0.333,0.451-0.619,0.766-0.837c2.692,11.27,13.083,16.451,13.528,16.668c0.401,0.2,0.889,0.037,1.089-0.364
	c0.2-0.401,0.037-0.889-0.364-1.089c-0.005-0.002-0.01-0.005-0.014-0.007c-2.072-1.117-3.988-2.501-5.7-4.116l3.512-2.22
	c0.235-0.149,0.378-0.408,0.378-0.687V97.6l6.095-3.024V114.4c-0.001,0.448,0.362,0.812,0.811,0.813
	c0.173,0,0.342-0.055,0.481-0.157l2.708-1.981c0.209-0.153,0.333-0.396,0.333-0.655V83.2l5.317-2.3v25.395
	c0.001,0.449,0.367,0.812,0.816,0.81c0.143,0,0.283-0.039,0.406-0.11l3.251-1.9c0.248-0.146,0.401-0.412,0.4-0.7V85.963l3.514-1.635
	c0.01,0,0.017-0.013,0.026-0.017c0.049-0.026,0.095-0.057,0.137-0.092c0.02-0.016,0.042-0.029,0.06-0.047
	c0.043-0.043,0.081-0.091,0.113-0.143c0.01-0.015,0.024-0.028,0.032-0.044l0,0c0-0.008,0-0.018,0.008-0.026
	c0.039-0.078,0.064-0.162,0.076-0.248C104.73,83.674,104.733,83.637,104.734,83.6z M96.745,70.534
	c3.123,2.17,5.262,6.252,6.139,11.563l-5.831-3.173l-1.789-0.869c0-0.022,0.008-0.043,0.005-0.065
	c-0.642-3.579-2.566-6.802-5.411-9.066C92.276,68.543,94.747,69.121,96.745,70.534z M83.981,70.334L87.75,69.4
	c0.027,0.03,0.057,0.058,0.088,0.083c2.73,1.817,4.723,4.547,5.622,7.7L86.5,73.8c-0.231-0.114-0.503-0.11-0.73,0.011l-6.815,3.555
	c-0.013,0.007-0.021,0.02-0.034,0.027s-0.025,0.005-0.036,0.013s-0.036,0.045-0.059,0.064c-0.066,0.052-0.123,0.115-0.169,0.185
	c-0.021,0.032-0.041,0.065-0.057,0.1c-0.036,0.081-0.058,0.167-0.065,0.255c0,0.025-0.018,0.047-0.018,0.073v10.359l-2.349,1.047
	v-8.047C76.166,76.129,80.219,71.406,83.981,70.334z M79.311,96.2l-3.145-1.428v-3.5l2.813-1.253l6.27,3.237L79.311,96.2z
	 M76.166,107.209V96.554l2.349,1.067v8.1L76.166,107.209z M87.86,112.798v-19.53c0-0.026-0.017-0.048-0.019-0.074
	c-0.008-0.09-0.031-0.178-0.068-0.26c-0.017-0.037-0.036-0.072-0.058-0.106c-0.05-0.074-0.112-0.139-0.183-0.192
	c-0.022-0.017-0.033-0.044-0.057-0.059s-0.026-0.01-0.039-0.017s-0.011-0.011-0.018-0.015l-7.278-3.758v-9.46l8.8,3.869V112
	L87.86,112.798z M89.76,81.781L81.2,78.02l4.951-2.583l8.6,4.176L89.76,81.781z M97.513,104.875v-19.74l1.625,0.813v17.97
	L97.513,104.875z M99.965,84.547l-2.455-1.231v-2.293l4.618,2.512L99.965,84.547z"/>
<path class="st0" d="M92.33,88.493c0.449,0,0.813-0.364,0.813-0.813v0v-3.047c-0.016-0.449-0.392-0.8-0.841-0.784
	c-0.427,0.015-0.769,0.357-0.784,0.784v3.047C91.518,88.129,91.881,88.492,92.33,88.493z"/>
<path class="st0" d="M94.463,87.459c0.449,0,0.813-0.364,0.813-0.813v0V83.6c0.016-0.449-0.335-0.825-0.784-0.841
	c-0.449-0.016-0.825,0.335-0.841,0.784c-0.001,0.019-0.001,0.038,0,0.057v3.047C93.652,87.095,94.015,87.458,94.463,87.459z"/>
<path class="st0" d="M93.65,93.147c0.016,0.449,0.392,0.8,0.841,0.784c0.427-0.015,0.769-0.357,0.784-0.784V90.1
	c0.016-0.449-0.335-0.825-0.784-0.841c-0.449-0.016-0.825,0.335-0.841,0.784c-0.001,0.019-0.001,0.038,0,0.057V93.147z"/>
<path class="st0" d="M91.517,94.182c0.016,0.449,0.392,0.8,0.841,0.784c0.427-0.015,0.769-0.357,0.784-0.784v-3.048
	c-0.016-0.449-0.392-0.8-0.841-0.784c-0.427,0.015-0.769,0.357-0.784,0.784V94.182z"/>
<path class="st0" d="M91.517,100.683c-0.016,0.449,0.335,0.825,0.784,0.841c0.449,0.016,0.825-0.335,0.841-0.784
	c0.001-0.019,0.001-0.038,0-0.057v-3.047c0.016-0.449-0.335-0.825-0.784-0.841c-0.449-0.016-0.825,0.335-0.841,0.784
	c-0.001,0.019-0.001,0.038,0,0.057V100.683z"/>
<path class="st0" d="M102.284,86.778c-0.449,0-0.813,0.364-0.813,0.813v0v3.047c0.016,0.449,0.392,0.8,0.841,0.784
	c0.427-0.015,0.769-0.357,0.784-0.784V87.59C103.095,87.142,102.732,86.779,102.284,86.778z"/>
<path class="st0" d="M102.284,93.279c-0.449,0-0.813,0.364-0.813,0.813v0v3.047c0.016,0.449,0.392,0.8,0.841,0.784
	c0.427-0.015,0.769-0.357,0.784-0.784v-3.048C103.095,93.643,102.732,93.28,102.284,93.279z"/>
<path class="st0" d="M82.222,98.662c-0.449,0-0.813,0.364-0.813,0.813v0v3.047c0.016,0.449,0.392,0.8,0.841,0.784
	c0.427-0.015,0.769-0.357,0.784-0.784v-3.047C83.034,99.026,82.671,98.663,82.222,98.662z"/>
<path class="st0" d="M82.222,105.164c-0.449,0-0.813,0.364-0.813,0.813v0v3.047c0.016,0.449,0.392,0.8,0.841,0.784
	c0.427-0.015,0.769-0.357,0.784-0.784v-3.047C83.034,105.528,82.671,105.165,82.222,105.164z"/>
<path class="st0" d="M84.54,97.636c-0.449,0-0.813,0.364-0.813,0.813v0v3.051c0.016,0.449,0.392,0.8,0.841,0.784
	c0.427-0.015,0.769-0.357,0.784-0.784v-3.052C85.351,98,84.988,97.637,84.54,97.636z"/>
<path class="st0" d="M82.527,83.221c-0.449,0-0.813,0.364-0.813,0.813v0v3.047c0.016,0.449,0.392,0.8,0.841,0.784
	c0.427-0.015,0.769-0.357,0.784-0.784v-3.048C83.338,83.585,82.975,83.222,82.527,83.221z"/>
<path class="st0" d="M85.676,84.421c-0.449,0-0.813,0.364-0.813,0.813v0v3.047c-0.016,0.449,0.335,0.825,0.784,0.841
	c0.449,0.016,0.825-0.335,0.841-0.784c0.001-0.019,0.001-0.038,0-0.057v-3.048C86.487,84.785,86.124,84.422,85.676,84.421z"/>
<path class="st0" d="M54.847,141.823c-0.449,0-0.813,0.364-0.813,0.813l0,0v8.431c0.016,0.449,0.392,0.8,0.841,0.784
	c0.427-0.015,0.769-0.357,0.784-0.784v-8.431C55.659,142.187,55.296,141.824,54.847,141.823z"/>
<path class="st0" d="M54.847,120.389c-0.449,0-0.813,0.364-0.813,0.813l0,0v9.448c-0.016,0.449,0.335,0.825,0.784,0.841
	c0.449,0.016,0.825-0.335,0.841-0.784c0.001-0.019,0.001-0.038,0-0.057v-9.45C55.658,120.752,55.295,120.39,54.847,120.389z"/>
<path class="st0" d="M54.847,100.683c-0.449,0-0.813,0.364-0.813,0.813l0,0v7.528c0.016,0.449,0.392,0.8,0.841,0.784
	c0.427-0.015,0.769-0.357,0.784-0.784V101.5c0.002-0.449-0.36-0.815-0.809-0.817C54.849,100.683,54.848,100.683,54.847,100.683z"/>
<path class="st0" d="M54.847,81.891c-0.449,0-0.813,0.364-0.813,0.813l0,0v6.411c0.016,0.449,0.392,0.8,0.841,0.784
	c0.427-0.015,0.769-0.357,0.784-0.784V82.7C55.657,82.253,55.294,81.892,54.847,81.891z"/>
<path class="st0" d="M62.91,62.975c0.318-0.316,0.32-0.83,0.004-1.148c-0.297-0.299-0.773-0.322-1.096-0.052
	c-2.252,2.033-3.858,4.683-4.618,7.62c-0.089,0.439,0.194,0.867,0.632,0.959c0.054,0.011,0.11,0.017,0.165,0.017
	c0.386,0,0.72-0.27,0.8-0.648C59.497,67.128,60.924,64.786,62.91,62.975z"/>
<path class="st0" d="M71.3,55.785c0.14,0.003,0.278-0.032,0.4-0.1c0.048-0.027,4.777-2.67,7.733-3.051
	c0.445-0.058,0.759-0.466,0.701-0.911s-0.466-0.759-0.911-0.701l0,0c-3.266,0.422-8.114,3.131-8.32,3.247
	c-0.391,0.221-0.529,0.717-0.308,1.108c0.144,0.256,0.415,0.414,0.708,0.413L71.3,55.785z"/>
<path class="st0" d="M109.563,82.833c0.12,0.001,0.238-0.025,0.346-0.076c0.53-0.249,1.673-0.552,2.06-0.163
	c0.274,0.272,0.701,0.314,1.022,0.1c0.013-0.006,1.111-0.692,1.7-0.241c0.359,0.272,0.87,0.201,1.142-0.158
	c0.272-0.359,0.201-0.87-0.158-1.142c-0.929-0.599-2.113-0.638-3.079-0.1c-1.34-0.7-3.149,0.117-3.381,0.222
	c-0.406,0.191-0.581,0.675-0.391,1.081c0.134,0.286,0.421,0.468,0.737,0.468L109.563,82.833z"/>
<path class="st0" d="M96.79,114.265c-0.705,0.112-1.352,0.459-1.835,0.984c-1.531-0.513-3.22-0.029-4.247,1.217
	c-0.272,0.358-0.202,0.868,0.156,1.139c0.347,0.263,0.839,0.207,1.118-0.128c0.71-0.836,1.911-1.054,2.87-0.521
	c0.372,0.175,0.816,0.05,1.041-0.294c0.259-0.397,0.66-0.68,1.121-0.789c0.496-0.002,0.969,0.207,1.3,0.576
	c0.321,0.304,0.827,0.291,1.131-0.03c0.005-0.005,0.01-0.011,0.015-0.016c0.304-0.33,0.283-0.845-0.048-1.149c0,0,0,0,0,0
	C98.737,114.537,97.769,114.172,96.79,114.265z"/>
<path class="st0" d="M67.7,88.627c3.438-1.136,6.13-5.081,6.13-8.979c0.094-1.835-0.701-3.602-2.137-4.748
	c-1.319-0.912-3.001-1.117-4.5-0.549c-3.438,1.136-6.133,5.081-6.133,8.979c-0.094,1.832,0.7,3.598,2.133,4.744
	c0.786,0.565,1.732,0.864,2.7,0.854C66.508,88.925,67.118,88.823,67.7,88.627z M64.141,86.76c-1.006-0.844-1.548-2.117-1.46-3.427
	c0-3.185,2.251-6.522,5.016-7.436c0.419-0.143,0.858-0.217,1.3-0.221c0.626-0.009,1.239,0.181,1.749,0.544
	c1.006,0.844,1.548,2.117,1.46,3.427c0,3.185-2.251,6.522-5.012,7.436C66.185,87.484,65.044,87.363,64.141,86.76z"/>
<path class="st0" d="M71.1,79.809c0-1.806-1.638-2.728-3.659-2.06c-0.116,0.039-0.226,0.1-0.34,0.143v3.038l-2.3-1.295
	c-0.617,0.728-0.975,1.639-1.019,2.592c0,1.806,1.638,2.728,3.659,2.06C69.439,83.65,70.874,81.894,71.1,79.809z"/>
<path class="st0" d="M108.8,67.2c-0.116,0.038-0.226,0.1-0.34,0.143v3.038l-2.3-1.295c-0.617,0.728-0.975,1.639-1.019,2.592
	c0,1.806,1.638,2.728,3.659,2.06c1.999-0.637,3.433-2.393,3.659-4.479C112.457,67.455,110.819,66.533,108.8,67.2z"/>
<path class="st0" d="M141.355,42.3c-1.296,0.006-2.537,0.525-3.451,1.443c-1.437,1.518-2.213,3.545-2.155,5.635
	c0,3.947,2.5,7.211,5.574,7.276h0.1c1.266-0.015,2.474-0.535,3.355-1.444c1.437-1.518,2.212-3.544,2.155-5.634
	C146.929,45.624,144.427,42.36,141.355,42.3z M143.637,54.048c-0.58,0.61-1.38,0.962-2.222,0.979h-0.06
	c-2.193-0.046-3.981-2.581-3.981-5.65c-0.051-1.653,0.547-3.26,1.666-4.477c0.581-0.61,1.38-0.963,2.222-0.981h0.06
	c2.193,0.046,3.981,2.581,3.981,5.65c0.05,1.652-0.548,3.258-1.666,4.475V54.048z"/>
<path class="st0" d="M141.047,45.755v3.038l-1.972-2.1c-1.242,1.356-1.149,3.462,0.206,4.703c0.565,0.518,1.292,0.824,2.057,0.869
	c1.726,0.007,3.131-1.388,3.138-3.114c0-0.029,0-0.057-0.001-0.086c0.028-1.777-1.362-3.254-3.137-3.335
	C141.239,45.728,141.145,45.747,141.047,45.755z"/>
<path class="st0" d="M5,43.816c0.038-0.027,4.206-2.3,6.609-0.11c0.331,0.304,0.846,0.281,1.15-0.05s0.281-0.846-0.05-1.15
	c-3.26-2.974-8.288-0.229-8.5-0.109c-0.383,0.235-0.503,0.735-0.268,1.118C4.162,43.875,4.623,44.006,5,43.816z"/>
<path class="st0" d="M61.868,45.525c0.238,0,0.464-0.104,0.619-0.284c0.051-0.065,5.479-6.327,10.015-2.668
	c0.36,0.268,0.869,0.194,1.138-0.166c0.253-0.34,0.203-0.817-0.116-1.097c-4.593-3.714-10.041,0.255-12.275,2.874
	c-0.29,0.342-0.249,0.855,0.092,1.146C61.487,45.457,61.675,45.526,61.868,45.525z"/>
<path class="st0" d="M103.224,41.411c0.235,0,0.459-0.102,0.613-0.279c0.2-0.222,4.8-5.376,10.006-0.882
	c0.349,0.282,0.861,0.228,1.143-0.121c0.27-0.334,0.234-0.821-0.083-1.111c-6.438-5.552-12.234,0.981-12.291,1.048
	c-0.294,0.339-0.258,0.853,0.081,1.147c0.148,0.128,0.337,0.199,0.532,0.199L103.224,41.411z"/>
<path class="st0" d="M166.251,64.008c-1.301,0.002-2.589,0.261-3.79,0.762c-0.667-4.294-4.689-7.234-8.983-6.567
	c-1.188,0.185-2.317,0.639-3.302,1.328V39.724L170,59.551c0.329,0.306,0.843,0.287,1.149-0.042c0.29-0.312,0.29-0.795,0-1.107
	l-20.973-20.976v-5.581h20.6c0.449,0.016,0.825-0.335,0.841-0.784s-0.335-0.825-0.784-0.841c-0.019-0.001-0.038-0.001-0.057,0h-20.6
	v-7.466l21.367-21.367c0.306-0.329,0.287-0.843-0.042-1.149c-0.312-0.29-0.795-0.29-1.107,0L150,20.636
	c-0.791-3.807-3.973-6.652-7.844-7.015V7.534c0.016-0.449-0.335-0.825-0.784-0.841s-0.825,0.335-0.841,0.784
	c-0.001,0.019-0.001,0.038,0,0.057v6.087c-3.871,0.363-7.053,3.208-7.844,7.015l-19.07-19.068c-0.329-0.306-0.843-0.287-1.149,0.042
	c-0.29,0.312-0.29,0.795,0,1.107L132.5,22.754v7.466h-19.458c-0.449-0.016-0.825,0.335-0.841,0.784
	c-0.016,0.449,0.335,0.825,0.784,0.841c0.019,0.001,0.038,0.001,0.057,0H132.5v5.581l-17.836,17.838
	c-0.329,0.306-0.347,0.82-0.042,1.149c0.306,0.329,0.82,0.347,1.149,0.042c0.014-0.013,0.028-0.027,0.042-0.042L132.5,39.724v43.068
	c-1.047,0.158-2.061,0.487-3,0.975c-2.461-2.425-6.048-3.318-9.359-2.329c-0.512-9.491-3.692-17.353-9.07-22.527
	c-2.838-3.672-6.459-6.666-10.6-8.762c-0.089-0.081-0.196-0.142-0.312-0.176c-0.028-0.008-0.063-0.014-0.091-0.022
	c-6.709-3.133-14.208-4.167-21.514-2.967l-4.857,1.209C60.024,51.6,49.406,65.024,49.533,78.74V155
	c0.001,0.272,0.136,0.525,0.362,0.676l9.752,6.5c0.01,0.007,0.021,0.009,0.031,0.015s0.026,0.022,0.042,0.03s0.031,0,0.046,0.011
	c0.208,0.108,0.456,0.108,0.664,0c0.025-0.01,0.049-0.022,0.072-0.035c0.019-0.011,0.041-0.016,0.059-0.029l15.256-10.617
	c0.219-0.151,0.35-0.401,0.349-0.667v-17.421l12.672-3.155c11.274-2.808,21.243-12,26.833-24.659
	c2.675,2.16,6.591,1.761,8.777-0.893c1.19,1.634,3.09,2.601,5.111,2.6c1.016,0.001,2.016-0.247,2.914-0.722
	c-0.136,6.524-1.39,12.976-3.707,19.076l-2.711,7.13c-0.086,0.22-0.07,0.468,0.044,0.675c0.112,0.207,0.307,0.355,0.536,0.408
	c9.684,2.152,19.723,2.152,29.407,0c0.229-0.053,0.424-0.201,0.536-0.408c0.114-0.207,0.13-0.455,0.044-0.675l-2.711-7.13
	c-2.474-6.503-3.74-13.404-3.736-20.362V82.681c2.31,3.642,7.135,4.721,10.777,2.411c0.559-0.355,1.071-0.779,1.523-1.263
	c1.2,0.489,2.483,0.741,3.778,0.744c5.679-0.056,10.237-4.705,10.181-10.384c-0.055-5.6-4.581-10.126-10.181-10.181H166.251z
	 M146.922,67.286c-4.35-0.098-7.956,3.35-8.054,7.7c-0.098,4.35,3.35,7.956,7.7,8.054c0.064,0.001,0.128,0.002,0.192,0.002
	c0.603-0.002,1.204-0.076,1.79-0.221v22.529c0,0.834,0.021,1.666,0.056,2.5c-4.671,1.849-9.872,1.84-14.536-0.025
	c0.034-0.819,0.055-1.639,0.055-2.462c0.609-0.646,1.077-1.412,1.375-2.249c2.046,2.824,5.994,3.454,8.818,1.407
	c2.824-2.046,3.454-5.994,1.407-8.818c-0.615-0.848-1.431-1.53-2.375-1.984c0.081-0.482,0.122-0.971,0.124-1.46
	c-0.008-5.197-4.154-9.441-9.349-9.57V38.934c4.672,1.619,9.752,1.619,14.424,0v21.542c0.004,0.147,0.049,0.291,0.13,0.414
	c-1.216,1.421-1.883,3.23-1.882,5.1C146.798,66.425,146.84,66.858,146.922,67.286L146.922,67.286z M148.55,23.563v6.888
	c-2.06,0.719-4.219,1.111-6.4,1.163v-6.85C144.331,24.682,146.488,24.277,148.55,23.563L148.55,23.563z M148.55,37.187
	c-2.05,0.773-4.211,1.212-6.4,1.3v-5.23c2.174-0.051,4.329-0.413,6.4-1.077V37.187z M140.526,31.6
	c-2.175-0.089-4.328-0.472-6.4-1.139v-6.9c2.062,0.714,4.219,1.118,6.4,1.2V31.6z M134.126,32.176
	c2.079,0.631,4.229,0.992,6.4,1.074v5.235c-2.189-0.088-4.35-0.527-6.4-1.3V32.176z M141.338,15.207
	c3.769,0.005,6.901,2.907,7.193,6.665c-2.287,0.857-4.709,1.299-7.151,1.305c-0.015,0-0.027-0.008-0.042-0.008
	s-0.027,0.008-0.042,0.008c-2.442-0.006-4.864-0.448-7.151-1.305c0.291-3.759,3.424-6.663,7.194-6.667L141.338,15.207z
	 M51.158,78.732C51.037,65.727,61.113,53.006,74.1,49.771l4.831-1.2c4.794-0.786,9.699-0.57,14.406,0.634
	c-1.955-0.1-3.545-0.12-3.687-0.122c-0.41-0.043-0.778,0.255-0.82,0.666c-0.005,0.045-0.005,0.089-0.002,0.134
	c-0.006,0.448,0.352,0.817,0.8,0.824c0.071,0,7.133,0.1,9.895,0.783c1.592,0.788,3.109,1.719,4.532,2.781
	c-5.019-1.987-10.552-2.263-15.744-0.786l-4.857,1.209C69.776,58.1,59.158,71.525,59.284,85.241v74.738l-8.126-5.418V78.732z
	 M88.444,128.732l-12.278,3.058v-6.962c-0.016-0.449-0.392-0.8-0.841-0.784c-0.427,0.015-0.769,0.357-0.784,0.784v25.631
	l-13.631,9.483V85.233c-0.121-13.005,9.955-25.727,22.941-28.961l4.863-1.211c7.19-1.854,13.8-0.74,19.11,3.211
	c2.585,1.954,4.74,4.418,6.333,7.239c-0.297-0.446-0.67-0.837-1.1-1.156c-1.321-0.912-3.006-1.118-4.508-0.549
	c-3.438,1.136-6.133,5.079-6.133,8.977c-0.094,1.832,0.7,3.598,2.133,4.744c0.786,0.566,1.732,0.865,2.7,0.854
	c0.617-0.002,1.229-0.103,1.813-0.3c3.438-1.136,6.133-5.079,6.133-8.977c0.009-0.923-0.171-1.839-0.529-2.69
	c2.444,4.868,3.776,10.218,3.9,15.663c-3.234,1.625-5.276,4.932-5.281,8.551c0,0.281,0.013,0.563,0.041,0.849
	c-3.478-0.314-6.552,2.251-6.866,5.729c-0.314,3.478,2.251,6.552,5.729,6.866c0.666,0.06,1.337,0.014,1.988-0.136
	c0.091,0.153,0.2,0.294,0.3,0.437c-5.343,12.521-15.06,21.627-26.033,24.357V128.732z M113.56,69.1c0,3.185-2.251,6.52-5.016,7.434
	c-1.008,0.4-2.149,0.279-3.051-0.324c-1.005-0.844-1.546-2.118-1.457-3.427c0-3.185,2.251-6.52,5.016-7.434
	c0.419-0.143,0.858-0.217,1.3-0.221c0.627-0.01,1.241,0.181,1.752,0.544C113.109,66.517,113.649,67.79,113.56,69.1z
	 M125.242,102.891c-0.125-0.289-0.406-0.48-0.721-0.49H124.5c-0.305,0-0.584,0.17-0.724,0.441c-1.164,2.307-3.978,3.234-6.285,2.07
	c-0.966-0.487-1.733-1.294-2.171-2.283c-0.171-0.387-0.611-0.575-1.009-0.433c-0.496,0.183-1.02,0.279-1.549,0.286
	c-2.6,0-4.707-2.107-4.707-4.707s2.107-4.707,4.707-4.707c0.446,0.007,0.889,0.079,1.314,0.213c0.429,0.126,0.879-0.12,1.005-0.549
	c0.038-0.131,0.043-0.27,0.014-0.403c-0.123-0.558-0.187-1.128-0.19-1.7c0.004-4.392,3.563-7.951,7.955-7.957
	c2.257-0.002,4.407,0.967,5.9,2.66c0.259,0.295,0.692,0.359,1.025,0.151c1.236-0.768,2.662-1.176,4.117-1.179
	c4.363-0.03,7.924,3.483,7.954,7.846c0.004,0.635-0.068,1.268-0.215,1.885c-0.09,0.402,0.135,0.809,0.524,0.946
	c2.447,0.854,3.738,3.53,2.884,5.977c-0.854,2.447-3.53,3.738-5.978,2.884c-1.453-0.507-2.564-1.694-2.976-3.177
	c-0.112-0.403-0.513-0.654-0.924-0.579l0.121,0.8l-0.33-0.783c-0.433,0.084-0.731,0.483-0.689,0.922
	c0.015,2.596-2.077,4.712-4.672,4.727c-1.895,0.011-3.611-1.117-4.353-2.86L125.242,102.891z M154.77,132.535
	c-8.86,1.837-18.002,1.837-26.862,0l2.374-6.246c2.043-5.376,3.284-11.023,3.682-16.76c0.259,0.1,0.563,0.2,0.911,0.316v14.608
	c0.016,0.449,0.392,0.8,0.841,0.784c0.427-0.015,0.769-0.357,0.784-0.784V110.3c0.785,0.188,1.58,0.333,2.381,0.435v6.11
	c0.016,0.449,0.392,0.8,0.841,0.784c0.427-0.015,0.769-0.357,0.784-0.784v-5.966c0.356,0.018,0.717,0.031,1.089,0.031
	c2.436,0.01,4.852-0.442,7.12-1.331c0.403,5.72,1.643,11.351,3.679,16.712L154.77,132.535z M166.252,82.948
	c-1.264-0.005-2.511-0.29-3.651-0.836c-0.339-0.159-0.742-0.067-0.978,0.224c-2.136,2.685-6.045,3.13-8.73,0.994
	c-0.803-0.639-1.436-1.467-1.841-2.411c-0.095-0.214-0.277-0.378-0.5-0.449c-0.081-0.027-0.166-0.04-0.251-0.04
	c-0.144,0-0.285,0.038-0.409,0.111c-0.948,0.568-2.031,0.871-3.136,0.876c-3.454,0-6.253-2.8-6.253-6.254
	c0-3.454,2.8-6.253,6.253-6.253c0.372,0.005,0.743,0.043,1.108,0.113c0.443,0.077,0.864-0.22,0.941-0.663
	c0.023-0.133,0.013-0.269-0.03-0.397c-0.228-0.633-0.348-1.3-0.356-1.973c-0.08-3.452,2.653-6.315,6.105-6.395
	c3.452-0.08,6.315,2.653,6.395,6.105c0.002,0.105,0.002,0.21-0.001,0.315c0.001,0.288,0.153,0.554,0.4,0.7
	c0.247,0.15,0.554,0.155,0.806,0.014c1.259-0.708,2.676-1.084,4.12-1.094c4.781,0,8.658,3.876,8.658,8.658s-3.876,8.658-8.658,8.658
	L166.252,82.948z"/>
<path class="st0" d="M159.623,71.079c0.155-0.42-0.059-0.887-0.479-1.043c-0.412-0.16-0.875,0.044-1.035,0.456
	c-0.003,0.008-0.006,0.015-0.009,0.023c-0.079,0.211-1.889,5.216,0.813,8.517c0.285,0.347,0.797,0.397,1.144,0.112
	c0.347-0.285,0.397-0.797,0.112-1.144l0,0C158.061,75.426,159.607,71.123,159.623,71.079z"/>
<path class="st0" d="M151.373,71.568c-0.338-0.296-0.852-0.261-1.147,0.077s-0.261,0.852,0.077,1.147
	c0.023,0.02,0.046,0.038,0.071,0.055c0.771,0.838,1.065,2.009,0.781,3.112c-0.068,0.443,0.235,0.858,0.678,0.927
	c0.443,0.068,0.858-0.235,0.926-0.678c0-0.002,0.001-0.005,0.001-0.007C153.151,74.519,152.624,72.757,151.373,71.568z"/>
<path class="st0" d="M126.845,86.529c-2.533,2.728-5.946,9.174-0.717,14.039c0.327,0.305,0.84,0.287,1.145-0.04
	c0,0,0.001-0.001,0.001-0.001c0.306-0.326,0.29-0.839-0.037-1.145c-0.001-0.001-0.003-0.003-0.004-0.004
	c-5.339-4.971,0.552-11.469,0.806-11.744c0.285-0.347,0.236-0.859-0.111-1.144c-0.32-0.263-0.786-0.244-1.083,0.044V86.529z"/>
<path class="st0" d="M116.074,93.4c-0.435,0.11-0.699,0.553-0.588,0.988c0.095,0.375,0.442,0.632,0.829,0.612
	c0.136-0.01,3.111-0.327,4.514,5.169c0.093,0.359,0.416,0.61,0.787,0.611c0.067,0,0.135-0.008,0.2-0.025
	c0.435-0.111,0.698-0.554,0.587-0.989C120.616,92.766,116.268,93.36,116.074,93.4z"/>
<path class="st0" d="M144.637,61.786c-2.15,1.129-4.714,1.147-6.879,0.046c-0.388-0.225-0.886-0.093-1.111,0.295
	c-0.215,0.371-0.105,0.846,0.251,1.084c1.269,0.702,2.699,1.06,4.149,1.038c1.481-0.01,2.941-0.348,4.276-0.99
	c0.407-0.189,0.583-0.673,0.393-1.08S145.044,61.597,144.637,61.786L144.637,61.786z"/>
<path class="st0" d="M206.549,62.1c-0.015-0.049-0.034-0.096-0.058-0.141c-0.012-0.021-0.013-0.045-0.027-0.066
	c-0.024-0.028-0.05-0.053-0.078-0.077c-0.017-0.027-0.036-0.053-0.056-0.077c-0.014-0.012-0.033-0.016-0.048-0.027
	c-0.057-0.042-0.12-0.075-0.187-0.1c-0.03-0.015-0.061-0.027-0.093-0.038c-0.069-0.017-0.141-0.025-0.212-0.023
	c-0.03-0.005-0.061-0.008-0.092-0.01l-9.029,1c0.021-0.063,0.034-0.128,0.039-0.194v-5.8l8.126-5.418v4.854
	c0.016,0.449,0.392,0.8,0.841,0.784c0.427-0.015,0.769-0.357,0.784-0.784V41.786c-0.002-0.034-0.007-0.067-0.013-0.1
	c-0.002-0.03-0.006-0.06-0.012-0.089c-0.018-0.09-0.052-0.176-0.1-0.254l-0.006-0.015l-11.707-17.8
	c-0.009-0.014-0.022-0.024-0.032-0.038c-0.017-0.023-0.036-0.045-0.056-0.066c-0.041-0.045-0.086-0.086-0.136-0.121l-0.019-0.013
	c-0.13-0.087-0.284-0.13-0.44-0.124H193.9c-0.022,0-0.043,0-0.066,0c-0.042,0.008-0.083,0.02-0.123,0.035
	c-0.016,0-0.032,0.008-0.048,0.014c-0.06,0.023-0.117,0.053-0.17,0.089c-0.013,0.009-0.028,0.016-0.041,0.025
	c-0.055,0.042-0.104,0.091-0.146,0.146c-0.006,0.008-0.015,0.013-0.021,0.021l-0.007,0.01l-0.009,0.013l-13.92,19.227
	c-0.015,0.021-0.02,0.046-0.033,0.068c-0.018,0.032-0.034,0.066-0.048,0.1c-0.033,0.079-0.053,0.162-0.059,0.247
	c0,0.021-0.015,0.04-0.015,0.061v20.894c-0.016,0.449,0.335,0.825,0.784,0.841c0.449,0.016,0.825-0.335,0.841-0.784
	c0.001-0.019,0.001-0.038,0-0.057v-5.527l14.266-1.579v5.328c0.002,0.125,0.034,0.248,0.093,0.359l-5.509,0.61
	c-0.024,0-0.042,0.019-0.066,0.024c-0.094,0.017-0.183,0.051-0.265,0.1c-0.01,0.006-0.022,0.005-0.031,0.011l-9.752,6.5
	c-0.025,0.017-0.039,0.042-0.061,0.061c-0.047,0.038-0.09,0.081-0.127,0.128c-0.058,0.081-0.103,0.17-0.132,0.265
	c-0.013,0.045-0.021,0.091-0.026,0.138c-0.007,0.027-0.012,0.055-0.016,0.083v67.973c0,0.01,0,0.019,0,0.029
	c0.013,0.098,0.035,0.195,0.068,0.288c0.007,0.016,0.005,0.033,0.013,0.048c0.033,0.048,0.067,0.096,0.1,0.144
	c0.084,0.108,0.197,0.191,0.326,0.239c0.019,0.008,0.034,0.021,0.053,0.027l16.031,5.1c0.08,0.025,0.164,0.038,0.248,0.038
	c0.158-0.014,0.312-0.06,0.451-0.136l9.752-6.5c0.011-0.008,0.016-0.022,0.027-0.03c0.084-0.062,0.156-0.141,0.21-0.231
	c0.019-0.036,0.036-0.073,0.049-0.111c0.023-0.042,0.042-0.086,0.057-0.131c0.002-0.033,0.002-0.067,0-0.1
	c0-0.024,0.017-0.045,0.017-0.069V62.34c0-0.024-0.013-0.046-0.015-0.07C206.576,62.212,206.566,62.155,206.549,62.1z
	 M193.454,28.072l0.741,9.208l-3.41-1.085L193.454,28.072z M196.595,46.835l-0.584-7.271l7.78,2.474L196.595,46.835z
	 M195.871,37.813l-0.866-10.737l8.7,13.23L195.871,37.813z M189.884,37.613l4.454,1.416l0.652,8.105l-13.126-4.174L189.884,37.613z
	 M196.709,48.713l8.126-5.417v5.871l-8.126,5.418V48.713z M191.546,28.672l-2.472,7.528l-5.76,3.84L191.546,28.672z M180.818,44.333
	l14.266,4.538v6.5l-14.266,1.578V44.333z M196.849,136.075l6.9,1.5l-6.9,4.6V136.075z M196.849,134.413V98.549
	c1.838-1.174,5.883-1.811,8.126-2.044v39.677L196.849,134.413z M182.891,133.213c1.137,0.337,2.232,0.799,3.266,1.379l-5.339,2.682
	v-36.8c1.365,0.226,2.747,0.327,4.13,0.3c1.261,0,2.632-0.059,3.984-0.173v6.793c-0.121-0.058-0.226-0.142-0.308-0.248
	c-1.244-1.836-4.99-0.94-5.727-0.743c-0.433,0.12-0.686,0.568-0.566,1.001c0.118,0.426,0.556,0.68,0.985,0.57
	c1.349-0.363,3.539-0.54,3.962,0.083c0.408,0.54,0.994,0.919,1.654,1.069v14.63c-1.137-0.271-2.245-0.653-3.308-1.141
	c-0.405-0.193-0.89-0.022-1.083,0.383c-0.193,0.405-0.022,0.89,0.383,1.084c1.28,0.601,2.624,1.053,4.006,1.349v7.769l-1.081,0.543
	c-1.397-0.92-2.923-1.625-4.529-2.093c-0.429-0.13-0.882,0.113-1.012,0.543c-0.13,0.429,0.113,0.882,0.543,1.012
	c0.012,0.004,0.025,0.007,0.038,0.01L182.891,133.213z M195.75,68.055l-5.193,0.575v-3.785l12-1.329L195.75,68.055z M196.85,95.555
	c1.364-0.102,2.733-0.13,4.1-0.085c-1.408,0.261-2.784,0.677-4.1,1.242V95.555z M195.225,97.679
	c-1.488,0.607-3.063,0.974-4.666,1.086V96.3c0.9-0.149,2.646-0.414,4.666-0.609V97.679z M180.82,91.061
	c0.08-0.091,0.166-0.177,0.257-0.256c0.43,1.556,1.387,2.915,2.707,3.845c0.819,0.515,1.769,0.782,2.736,0.771
	c0.574-0.004,1.145-0.08,1.7-0.224c0.435-0.11,0.698-0.553,0.588-0.987c-0.11-0.435-0.553-0.698-0.988-0.588l0,0
	c-1.056,0.333-2.202,0.209-3.162-0.343c-1.025-0.749-1.754-1.834-2.062-3.065c0.323-0.01,0.645,0.039,0.951,0.144
	c0.422,0.15,0.887-0.07,1.037-0.493c0.15-0.422-0.07-0.887-0.493-1.037c-0.006-0.002-0.012-0.004-0.018-0.006
	c-1.067-0.396-2.253-0.315-3.257,0.222v-17.7l8.114-0.9v5.649c-0.876-0.141-1.774-0.001-2.565,0.4
	c-1.677,0.975-2.805,2.675-3.051,4.6c-0.711,3.849,1.022,7.98,3.946,9.4c0.523,0.257,1.089,0.413,1.67,0.461v4.106
	c-3.354,1.326-6.525,2.429-8.114,2.967L180.82,91.061z M190.448,89.066c-0.781,0.391-1.703,0.379-2.473-0.032
	c-2.222-1.082-3.622-4.585-3.057-7.647c0.158-1.423,0.964-2.694,2.184-3.443c0.363-0.186,0.766-0.283,1.174-0.284
	c0.452,0.005,0.896,0.114,1.3,0.317c2.222,1.082,3.622,4.584,3.057,7.647c-0.158,1.424-0.965,2.695-2.187,3.444L190.448,89.066z
	 M188.932,96.8v2.135c-2.051,0.178-4.111,0.228-6.168,0.148C184.382,98.516,186.614,97.712,188.932,96.8z M190.557,94.664v-3.895
	c0.214-0.067,0.422-0.15,0.622-0.25c1.678-0.975,2.806-2.675,3.051-4.6c0.688-3.727-0.917-7.711-3.673-9.25v-6.403l4.666-0.517
	v24.309c-1.923,0.18-3.612,0.429-4.666,0.604V94.664z M188.932,68.81l-5.7,0.631l5.7-3.8V68.81z M190.557,125.627
	c0.106,0,0.212,0.01,0.317,0.01c0.857,0.031,1.706-0.176,2.451-0.6c0.374-0.248,0.477-0.752,0.229-1.127
	c-0.238-0.359-0.714-0.47-1.086-0.254c-0.589,0.302-1.254,0.42-1.911,0.339v-14.637c0.14,0.006,0.28,0.01,0.416,0.01
	c0.664-0.002,1.328-0.055,1.984-0.16c0.443-0.072,0.745-0.489,0.673-0.932c0,0,0-0.001,0-0.001c-0.06-0.433-0.459-0.736-0.893-0.677
	c-0.014,0.002-0.027,0.004-0.04,0.007c-0.708,0.111-1.425,0.151-2.14,0.118v-7.294c1.586-0.161,3.151-0.492,4.666-0.988v34.618
	l-4.666-1.016L190.557,125.627z M204.975,94.44c-2.663-0.608-5.408-0.78-8.126-0.51V69.276l0.886-0.59V77.3
	c0.016,0.449,0.392,0.8,0.841,0.784c0.427-0.015,0.769-0.357,0.784-0.784v-9.7l1.628-1.086v14.515
	c-0.016,0.449,0.335,0.825,0.784,0.841c0.449,0.016,0.825-0.335,0.841-0.784c0.001-0.019,0.001-0.038,0-0.057v-15.6l2.362-1.574
	V94.44z M182.153,138.422l5.493-2.76c0.286,0.252,0.531,0.547,0.727,0.874c0.216,0.393,0.709,0.536,1.102,0.32
	s0.536-0.709,0.32-1.102l0,0c-0.174-0.309-0.382-0.598-0.621-0.861l0.678-0.341l5.371,1.169v6.859L182.153,138.422z"/>
<path class="st0" d="M184.383,117.237c0.457-0.2,2.3-0.8,3-0.086c0.152,0.158,0.362,0.246,0.581,0.246
	c0.448,0.001,0.812-0.361,0.813-0.809c0.001-0.213-0.083-0.418-0.232-0.57c-1.575-1.624-4.489-0.413-4.819-0.27
	c-0.411,0.181-0.598,0.66-0.417,1.072s0.66,0.598,1.072,0.417l0,0L184.383,117.237z"/>
<path class="st0" d="M203.934,103.5c-1.393-1.1-3.787-0.224-4.057-0.119c-0.424,0.148-0.648,0.611-0.501,1.035
	c0.148,0.424,0.611,0.648,1.035,0.501c0.019-0.007,0.037-0.014,0.056-0.022c0.543-0.214,1.924-0.54,2.463-0.119
	c0.336,0.297,0.849,0.265,1.146-0.071s0.265-0.849-0.071-1.146c-0.024-0.021-0.049-0.041-0.075-0.059L203.934,103.5z"/>
<path class="st0" d="M202.09,114.4c-0.679,0.933-2.838,1.124-3.52,1.075c-0.418-0.042-0.79,0.263-0.832,0.68
	c-0.004,0.036-0.005,0.073-0.003,0.11c-0.012,0.448,0.342,0.822,0.79,0.835h0.162c0.765,0,3.536-0.116,4.717-1.749
	c0.263-0.363,0.182-0.87-0.181-1.133c-0.363-0.263-0.87-0.182-1.133,0.181L202.09,114.4z"/>
<path class="st0" d="M198.252,129.689c-0.416,0.163-0.622,0.632-0.46,1.048c0.164,0.415,0.63,0.623,1.048,0.468
	c0.808-0.312,1.721-0.182,2.409,0.344c0.309,0.325,0.823,0.339,1.148,0.03c0.325-0.309,0.339-0.823,0.03-1.148
	c-0.024-0.026-0.05-0.05-0.078-0.072C201.203,129.416,199.639,129.16,198.252,129.689z"/>
<path class="st0" d="M189.452,79.829c-0.1-0.047-0.193-0.071-0.29-0.108l-0.552,2.988l-1.548-2.956
	c-0.682,0.366-1.15,1.034-1.261,1.8c-0.246,1.928,0.737,3.805,2.463,4.7c1.125,0.701,2.605,0.358,3.306-0.766
	c0.182-0.292,0.299-0.619,0.344-0.961C192.159,82.599,191.176,80.724,189.452,79.829z"/>
<path class="st0" d="M167.857,38.805c-1.34-0.7-3.149,0.116-3.381,0.222c-0.402,0.202-0.564,0.691-0.362,1.093
	c0.194,0.387,0.658,0.554,1.054,0.38c0.527-0.249,1.673-0.548,2.06-0.163c0.274,0.271,0.701,0.313,1.022,0.1
	c0.013,0,1.111-0.69,1.7-0.241c0.359,0.272,0.87,0.201,1.142-0.158c0.272-0.359,0.201-0.87-0.158-1.142l0,0
	C170.004,38.3,168.821,38.265,167.857,38.805z"/>
<path class="st0" d="M212.962,58.046c-0.921-1.174-2.838-1.154-3.171-1.189c-0.449,0.019-0.797,0.398-0.778,0.847
	c0.018,0.427,0.364,0.767,0.791,0.778c0.016-0.002,0.032-0.002,0.048,0c0.594,0,1.717,0.2,1.9,0.7
	c0.131,0.367,0.508,0.587,0.892,0.519c0.01-0.006,1.3-0.168,1.651,0.476c0.141,0.263,0.415,0.428,0.714,0.427
	c0.448,0,0.812-0.363,0.813-0.811c0-0.136-0.034-0.269-0.099-0.389C215.112,58.49,214.059,57.972,212.962,58.046z"/>
<path class="st0" d="M286.839,39.68L286.839,39.68c-0.896-0.603-1.846-1.119-2.839-1.543c-0.493-0.416-2.4-1.556-13.141-5.868
	c-5.017-2.08-10.579-2.456-15.83-1.069l-11.247,3.171c-14.643,4.129-25.687,17.59-25.687,31.319v51.383
	c0,0.308,0.175,0.59,0.451,0.727l13,6.5c0.012,0.006,0.026,0,0.038,0.009c0.102,0.048,0.212,0.074,0.324,0.077
	c0.074,0,0.148-0.01,0.219-0.03l0,0l16.287-4.592c0.351-0.098,0.594-0.418,0.594-0.782l0.01-51.452
	c0.006-0.03,0.025-0.251,0.029-0.281c0.175-4.682,3.917-9.652,8.174-10.852l6.019-1.7v49.644c0,0.308,0.175,0.59,0.451,0.727
	l6.245,3.123c0.146,0.183,0.366,0.293,0.6,0.3l6.16,3.08c0.035,0.011,0.071,0.02,0.108,0.026c0.058,0.021,0.119,0.036,0.181,0.043
	c0.025,0,0.048,0.017,0.072,0.017c0.074,0,0.148-0.01,0.22-0.03l16.328-4.6c0.351-0.098,0.594-0.418,0.594-0.783V54.861
	C294.2,48.274,291.585,42.883,286.839,39.68z M244.22,35.934l11.358-3.2c4.875-1.258,10.028-0.891,14.675,1.046
	c2.888,1.159,5.107,2.078,6.834,2.814c-3.059-0.125-6.117,0.25-9.056,1.108l-11.247,3.168C242.141,45,231.1,58.462,231.1,72.191
	v20.723l-5-1.07c-0.122-0.078-0.262-0.121-0.407-0.125c-0.031,0.004-0.062,0.011-0.092,0.019l-1.968-0.422v-4.337l1.892,0.4
	c0.055,0.011,0.112,0.017,0.168,0.017c0.449-0.001,0.812-0.366,0.811-0.815c-0.001-0.383-0.269-0.713-0.643-0.793l-6.142-1.309
	V65.69C219.72,52.663,230.253,39.87,244.22,35.934z M231.1,94.578v4.314l-4.59-1.23v-4.067L231.1,94.578z M229.389,105.135v-5.018
	l1.711,0.458v5.125L229.389,105.135z M223.637,103.235v-4.659l4.127,1.106v4.918L223.637,103.235z M224.885,97.235l-5.162-1.383
	v-3.7l5.162,1.106V97.235z M219.723,90.485v-4.34l2.289,0.488v4.334L219.723,90.485z M219.723,97.535l2.289,0.613v4.553
	l-2.289-0.757V97.535z M221.843,104.357l0.565,0.187v13.379l-0.581-0.291c0.007-0.026,0.012-0.052,0.016-0.079L221.843,104.357z
	 M224.033,105.082l0.851,0.282v13.8l-0.851-0.425V105.082z M226.509,105.901l0.632,0.209v14.18l-0.632-0.316V105.901z
	 M228.766,106.701c0.031-0.004,0.062-0.01,0.092-0.018l0.553,0.183v14.563l-0.644-0.322L228.766,106.701z M231.036,107.401
	l0.063,0.021v14.849l-0.063-0.032V107.401z M219.723,103.657l0.5,0.164v12.999l-0.5-0.248V103.657z M232.723,107.48l0.768-0.18
	v14.995l-0.768,0.217V107.48z M240.637,120.28l-2.311,0.652v-14.773l2.311-0.541V120.28z M242.25,105.251l1.952-0.457v14.48
	l-1.94,0.547V105.3c-0.001-0.02-0.011-0.038-0.013-0.059L242.25,105.251z M236.7,121.38l-1.584,0.447V106.91l1.584-0.371V121.38z
	 M245.826,118.806V104.4l1.559-0.365v14.328L245.826,118.806z M266.791,53.7l2.951,0.35v4.15l-4.876-0.889v-3.067L266.791,53.7z
	 M292.572,82.01v3.919l-6.733,1.442v-4.084L292.572,82.01z M264.866,62.255v-3.3l2.3,0.419v3.436L264.866,62.255z M264.866,63.928
	l5.089,1.23c0.062,0.014,0.126,0.022,0.19,0.022c0.449-0.007,0.807-0.377,0.799-0.826c-0.006-0.366-0.255-0.682-0.609-0.774
	l-1.549-0.375v-3.531l7.457,1.36v34.454l-3.054-1.312h-0.008l-2.308-0.992l0,0l-4.541-1.951l-0.013-0.005l-1.449-0.622
	L264.866,63.928z M267.494,93.5v11.662l-0.676-0.338V93.206L267.494,93.5z M269.119,94.2l0.622,0.267v11.82l-0.622-0.311V94.2z
	 M271.366,95.166l0.689,0.3v11.974l-0.689-0.344V95.166z M273.68,96.16l0.663,0.285v12.144l-0.663-0.332V96.16z M275.969,97.143
	l0.273,0.117v12.277l-0.273-0.137V97.143z M277.869,90.743l2.755-0.59v4.98l-2.755,0.586V90.743z M281.958,96.512v12.037
	c0,0.025,0.012,0.046,0.014,0.07l-1.665,0.469V96.861L281.958,96.512z M283.583,96.167l1.749-0.372v11.875l-1.749,0.493V96.167z
	 M286.957,95.45l1.92-0.408v11.628l-1.92,0.541V95.45z M282.249,94.788V89.8l6.628-1.419v4.993L282.249,94.788z M290.502,88.038
	l2.07-0.443v5l-2.07,0.44V88.038z M284.214,87.721l-2.444,0.523c-0.321-0.153-0.704-0.071-0.934,0.2l-2.968,0.636V84.8l6.346-1.2
	L284.214,87.721z M271.367,58.492v-4.248l3.041,0.361c1.219,1.287,1.877,3.004,1.831,4.776L271.367,58.492z M264.867,92.368
	l0.327,0.141v11.5l-0.327-0.163V92.368z M277.867,97.38l0.813-0.173v12.338l-0.813,0.229V97.38z M290.501,106.213V94.694l2.07-0.44
	v11.375L290.501,106.213z M292.571,80.357l-3.685,0.7v-4.72c-0.016-0.449-0.392-0.8-0.841-0.784
	c-0.427,0.015-0.769,0.357-0.784,0.784v5.026l-9.393,1.781v-23.68c0.083-2.365-0.856-4.651-2.578-6.274
	c-1.641-1.423-3.818-2.063-5.968-1.755c-0.436,0.042-0.868,0.119-1.292,0.229l-1.5,0.424l-0.06,0.017l-9.684,2.73
	c-4.962,1.4-9.158,6.942-9.371,12.455c-0.006,0.04-0.029,0.27-0.029,0.311v34.77l-14.664,3.429V94.137
	c0-0.014,0.013-0.025,0.016-0.04c0.025-0.124,0.019-0.252-0.016-0.373V72.191c0-13.028,10.533-25.82,24.5-29.757l11.247-3.171
	c2.401-0.697,4.887-1.061,7.387-1.081c3.567-0.082,7.077,0.908,10.075,2.843c4.282,2.892,6.641,7.806,6.641,13.835L292.571,80.357z"
	/>
<path class="st0" d="M241.88,81.551c-0.297-0.185-0.678-0.161-0.949,0.06l-2.241,1.854l1.121-6.476
	c0.077-0.441-0.219-0.861-0.66-0.938c0,0,0,0,0,0c-0.426-0.089-0.842,0.184-0.931,0.61c-0.004,0.017-0.007,0.035-0.009,0.052
	l-1.5,8.641c-0.077,0.442,0.219,0.862,0.661,0.939c0.233,0.041,0.473-0.023,0.656-0.174l2.035-1.682l-1.371,5.533
	c-0.11,0.433,0.152,0.873,0.586,0.983c0.001,0,0.003,0.001,0.004,0.001c0.065,0.016,0.133,0.024,0.2,0.024
	c0.373,0,0.698-0.255,0.787-0.617l1.968-7.926C242.323,82.094,242.179,81.736,241.88,81.551z"/>
<path class="st0" d="M287.693,60.653l-5.3,2.8c-0.398,0.206-0.552,0.696-0.346,1.093c0.119,0.229,0.339,0.388,0.594,0.428
	l1.749,0.287l-2.82,1.639c-0.381,0.239-0.496,0.741-0.257,1.122c0.228,0.364,0.699,0.488,1.076,0.284l4.774-2.774
	c0.386-0.23,0.512-0.729,0.283-1.114c-0.122-0.205-0.327-0.345-0.562-0.386l-1.6-0.262l3.168-1.671
	c0.391-0.221,0.53-0.718,0.309-1.109c-0.213-0.377-0.683-0.521-1.07-0.329L287.693,60.653z"/>
<path class="st0" d="M268.888,76.218c0.057,0.328,0.309,0.589,0.635,0.657c0.326,0.064,0.658-0.073,0.844-0.348l1.251-1.9
	l0.441,5.158c0.035,0.42,0.387,0.743,0.809,0.743c0.022,0,0.044,0,0.07,0c0.447-0.038,0.778-0.431,0.74-0.878c0,0,0-0.001,0-0.001
	l-0.641-7.487c-0.038-0.447-0.432-0.779-0.879-0.741c-0.248,0.021-0.473,0.155-0.61,0.363l-1.409,2.135l-0.565-3.262
	c-0.068-0.437-0.477-0.735-0.913-0.668c-0.009,0.001-0.018,0.003-0.027,0.005c-0.441,0.078-0.736,0.498-0.66,0.94L268.888,76.218z"
	/>
<path class="st0" d="M264.139,43.524l-3.768,3.709l-0.235-2.3c-0.032-0.308-0.236-0.572-0.527-0.679
	c-0.29-0.105-0.615-0.039-0.841,0.171l-5.384,5.079c-0.319,0.316-0.321,0.831-0.005,1.15c0.306,0.309,0.8,0.322,1.122,0.031
	l4.184-3.947l0.238,2.343c0.044,0.447,0.443,0.774,0.89,0.73c0.185-0.018,0.358-0.099,0.491-0.23l4.977-4.9
	c0.315-0.321,0.311-0.836-0.01-1.151c-0.314-0.308-0.815-0.312-1.133-0.008L264.139,43.524z"/>
<path class="st0" d="M232.713,51.353c0.449,0,0.813-0.364,0.813-0.813v0v-3.571l2.013,0.876c0.251,0.105,0.538,0.08,0.768-0.067
	c0.231-0.148,0.37-0.405,0.368-0.679v-3.993c0.016-0.449-0.335-0.825-0.784-0.841c-0.449-0.016-0.825,0.335-0.841,0.784
	c-0.001,0.019-0.001,0.038,0,0.057v2.754l-2.013-0.876c-0.413-0.178-0.892,0.013-1.07,0.426c-0.044,0.101-0.066,0.21-0.066,0.32
	v4.811C231.902,50.989,232.265,51.352,232.713,51.353z"/>
<path class="st0" d="M245.966,57.113c-1.322-0.911-3.006-1.117-4.508-0.549c-3.438,1.136-6.13,5.079-6.13,8.977
	c-0.095,1.833,0.699,3.6,2.133,4.746c0.784,0.563,1.727,0.861,2.692,0.852c0.617-0.002,1.229-0.103,1.813-0.3
	c3.441-1.136,6.133-5.079,6.133-8.977C248.195,60.028,247.401,58.26,245.966,57.113z M241.458,69.291
	c-1.006,0.399-2.144,0.279-3.044-0.322c-1.005-0.845-1.548-2.118-1.46-3.428c0-3.185,2.251-6.52,5.012-7.434
	c0.419-0.143,0.858-0.217,1.3-0.221c0.628-0.009,1.242,0.181,1.755,0.544c1.005,0.844,1.546,2.118,1.457,3.427
	C246.474,65.043,244.223,68.377,241.458,69.291L241.458,69.291z"/>
<path class="st0" d="M241.713,59.958c-0.116,0.038-0.226,0.1-0.34,0.143v3.038l-2.3-1.295c-0.617,0.728-0.975,1.639-1.019,2.592
	c0,1.806,1.638,2.728,3.659,2.06c1.999-0.637,3.433-2.393,3.659-4.479C245.372,60.212,243.734,59.29,241.713,59.958z"/>
<path class="st0" d="M282.516,43.189c-3.438,1.136-6.133,5.079-6.133,8.977c-0.094,1.832,0.7,3.598,2.133,4.744
	c0.786,0.566,1.732,0.865,2.7,0.854c0.617-0.002,1.229-0.103,1.813-0.3c3.438-1.136,6.133-5.079,6.133-8.977
	c0.094-1.832-0.7-3.598-2.133-4.744C285.707,42.827,284.02,42.62,282.516,43.189z M287.532,48.482c0,3.185-2.251,6.52-5.016,7.434
	c-1.009,0.399-2.149,0.278-3.051-0.324c-1.005-0.844-1.546-2.118-1.457-3.427c0-3.185,2.251-6.52,5.016-7.434
	c0.419-0.143,0.858-0.217,1.3-0.221c0.627-0.01,1.241,0.181,1.752,0.544C287.08,45.899,287.621,47.173,287.532,48.482
	L287.532,48.482z"/>
<path class="st0" d="M282.77,46.583c-0.116,0.038-0.226,0.1-0.34,0.143v3.038l-2.3-1.295c-0.617,0.728-0.975,1.639-1.019,2.592
	c0,1.806,1.638,2.728,3.659,2.06c1.999-0.637,3.433-2.393,3.659-4.479C286.428,46.837,284.79,45.915,282.77,46.583z"/>
<path class="st0" d="M260.07,71.711c-1.54,2-3.149,3.065-4.784,3.17c-1.283,0.017-2.525-0.45-3.479-1.308
	c-0.321-0.314-0.836-0.308-1.15,0.013c-0.305,0.312-0.309,0.81-0.009,1.127c1.184,1.122,2.743,1.763,4.374,1.8
	c0.111,0,0.226-0.003,0.343-0.01c2.13-0.127,4.146-1.4,5.993-3.8c0.268-0.361,0.193-0.871-0.168-1.139
	c-0.352-0.262-0.848-0.198-1.121,0.145L260.07,71.711z"/>
<path class="st0" d="M235.862,27.111c0.238,0,0.464-0.104,0.619-0.284c0.054-0.063,5.476-6.323,10.015-2.668
	c0.36,0.268,0.869,0.194,1.138-0.166c0.253-0.34,0.203-0.817-0.116-1.097c-4.593-3.714-10.041,0.257-12.275,2.874
	c-0.29,0.342-0.249,0.855,0.092,1.146C235.481,27.043,235.669,27.112,235.862,27.111z"/>
<path class="st0" d="M277.217,23c0.235,0,0.459-0.102,0.613-0.279c0.2-0.221,4.793-5.371,10-0.881
	c0.349,0.282,0.861,0.228,1.143-0.121c0.27-0.334,0.234-0.821-0.083-1.111c-6.431-5.549-12.231,0.981-12.288,1.046
	c-0.294,0.339-0.258,0.853,0.081,1.147C276.831,22.93,277.021,23,277.217,23z"/>
<path class="st0" d="M312.044,37.091c-1.227-0.634-2.683-0.643-3.917-0.024c-1.677,0.975-2.805,2.675-3.051,4.6
	c-0.711,3.849,1.022,7.98,3.946,9.4c0.624,0.311,1.311,0.476,2.009,0.481c0.663,0,1.317-0.157,1.908-0.459
	c1.676-0.976,2.802-2.676,3.047-4.6C316.7,42.641,314.964,38.511,312.044,37.091z M314.387,46.197
	c-0.158,1.422-0.963,2.692-2.181,3.443c-0.78,0.393-1.703,0.381-2.473-0.032c-2.222-1.082-3.622-4.585-3.057-7.647
	c0.158-1.423,0.964-2.693,2.184-3.443c0.364-0.186,0.766-0.284,1.175-0.284c0.452,0.005,0.896,0.114,1.3,0.317
	c2.22,1.081,3.616,4.582,3.051,7.649L314.387,46.197z"/>
<path class="st0" d="M310.921,40.292l-0.552,2.988l-1.548-2.956c-0.682,0.366-1.15,1.034-1.261,1.8
	c-0.246,1.928,0.737,3.805,2.463,4.7c1.125,0.701,2.605,0.358,3.306-0.767c0.182-0.292,0.299-0.62,0.344-0.961
	c0.247-1.928-0.737-3.805-2.463-4.7C311.114,40.352,311.018,40.328,310.921,40.292z"/>
<path class="st0" d="M431.254,88.287l-12.866-7.95c-0.384-0.236-0.887-0.115-1.122,0.269c-0.027,0.044-0.05,0.09-0.068,0.139
	l-7.418,19.937l-12.2-6.1c-0.14-0.066-0.296-0.088-0.449-0.065c9.996-10.542,15.049-24.831,13.9-39.313v-14.1
	c0-0.013-0.008-0.024-0.009-0.036c-0.004-0.111-0.03-0.221-0.078-0.321c-0.01-0.021-0.027-0.037-0.039-0.057
	c-0.047-0.078-0.108-0.148-0.179-0.206c-0.015-0.012-0.022-0.032-0.038-0.043s-0.031-0.009-0.046-0.018s-0.039-0.034-0.062-0.046
	l-11.263-5.631c-3.023-3.456-5.437-7.4-7.139-11.664c0-0.013-0.016-0.021-0.021-0.033c-0.033-0.078-0.079-0.151-0.135-0.215
	c-0.021-0.022-0.043-0.042-0.066-0.061c-0.074-0.069-0.16-0.123-0.255-0.158c-0.029-0.015-0.058-0.028-0.088-0.039
	c-0.035-0.005-0.071-0.008-0.106-0.008c-0.033-0.005-0.067-0.007-0.1-0.008c-0.062,0.002-0.123,0.012-0.183,0.029
	c-0.03,0.003-0.06,0.007-0.089,0.014c-0.01,0-0.015,0.011-0.025,0.015c-0.079,0.033-0.153,0.079-0.218,0.134
	c-0.031,0.029-0.059,0.06-0.085,0.094c-0.04,0.041-0.076,0.086-0.107,0.134c-1.101,2.01-2.629,3.754-4.476,5.111
	c-2.951-3.095-5.339-6.682-7.054-10.6c-0.013-0.022-0.028-0.043-0.043-0.064c-0.031-0.063-0.071-0.121-0.117-0.174
	c-0.024-0.025-0.05-0.048-0.078-0.07c-0.049-0.042-0.102-0.077-0.159-0.106c-0.032-0.016-0.066-0.03-0.1-0.042
	c-0.024-0.013-0.048-0.025-0.073-0.035c-0.033-0.004-0.067-0.006-0.1-0.005c-0.039-0.005-0.078-0.007-0.117-0.006
	c-0.054,0.005-0.107,0.015-0.159,0.03c-0.036,0.004-0.071,0.011-0.106,0.02c-0.012,0-0.02,0.015-0.031,0.02
	c-0.047,0.025-0.091,0.054-0.132,0.087c-0.059,0.041-0.112,0.09-0.158,0.146c-0.043,0.046-0.08,0.096-0.11,0.151
	C372.264,28.842,362.4,28.158,362,28.13c-0.226-0.016-0.45,0.06-0.619,0.211c-0.168,0.154-0.264,0.372-0.263,0.6V41.1
	c-2.732,0.845-5.686,0.584-8.228-0.727c-0.605-0.285-1.189-0.613-1.746-0.983v-9.878c0-0.241-0.107-0.469-0.292-0.624
	c-0.186-0.152-0.43-0.217-0.667-0.176c-6.527,1.137-13.184-1.124-17.669-6v-9.827c0-0.306-0.172-0.585-0.444-0.724
	c-0.271-0.141-0.599-0.115-0.844,0.067c-4.471,3.389-10.131,4.809-15.672,3.93c-0.438-0.102-0.877,0.17-0.979,0.609
	c-0.014,0.059-0.021,0.12-0.021,0.181v3.5c-3.698,1.889-7.914,2.511-12,1.768c-0.242-0.061-0.499-0.004-0.692,0.154
	c-0.194,0.154-0.307,0.388-0.308,0.636V88.9c0,14.259,11.856,28.347,25.836,30.752l9.748,2.371c0.064,0.016,0.129,0.024,0.194,0.024
	c0.113-0.003,0.223-0.029,0.325-0.077c0.012-0.005,0.025,0,0.037-0.009l13-6.5c0.276-0.137,0.451-0.419,0.451-0.727v-14.216
	c0-0.01,0-0.018,0-0.028c-0.003-0.034-0.008-0.067-0.016-0.1c-0.009-0.069-0.027-0.136-0.053-0.2c-0.006-0.014,0-0.029-0.012-0.043
	s-0.028-0.032-0.04-0.05c-0.035-0.057-0.076-0.11-0.124-0.157c-0.022-0.023-0.046-0.045-0.071-0.065
	c-0.058-0.044-0.121-0.079-0.189-0.106c-0.023-0.009-0.044-0.022-0.068-0.029s-0.026-0.014-0.041-0.018l-3.238-0.788v-4.327
	c0-0.011,0-0.021-0.005-0.032c-0.013-0.099-0.036-0.196-0.07-0.29c-0.007-0.016-0.006-0.033-0.014-0.049s-0.026-0.028-0.036-0.045
	c-0.037-0.06-0.081-0.115-0.132-0.163c-0.02-0.021-0.041-0.041-0.063-0.059c-0.061-0.045-0.129-0.082-0.2-0.108
	c-0.022-0.009-0.041-0.022-0.064-0.029l-0.017-0.008l-4.2-1.141v-4.159c0-0.016-0.007-0.03-0.008-0.045
	c-0.004-0.034-0.009-0.067-0.017-0.1c-0.011-0.067-0.031-0.131-0.059-0.193c-0.007-0.016-0.007-0.034-0.015-0.05
	s-0.025-0.026-0.035-0.042c-0.036-0.055-0.078-0.106-0.126-0.151c-0.068-0.075-0.154-0.13-0.25-0.161
	c-0.029-0.015-0.059-0.028-0.089-0.039c-0.006,0-0.011-0.006-0.018-0.008l-3.362-0.84V82.3c0-0.011-0.005-0.02-0.006-0.03
	c-0.015-0.102-0.039-0.202-0.072-0.3c-0.006-0.013,0-0.028-0.012-0.041c-0.017-0.024-0.035-0.046-0.054-0.068
	c-0.033-0.051-0.071-0.098-0.114-0.141c-0.031-0.029-0.065-0.055-0.1-0.078c-0.083-0.058-0.177-0.1-0.276-0.123
	c-0.025-0.01-0.05-0.018-0.076-0.025l-5.285-0.68v-20.73l4.619,1.124c0.007,0,0.015,0,0.022,0c0.056,0.014,0.114,0.022,0.172,0.024
	c0.031-0.006,0.061-0.013,0.091-0.022c0.058-0.007,0.115-0.021,0.17-0.04c0.034-0.006,0.067-0.014,0.1-0.024l13-6.5
	c0.276-0.137,0.451-0.419,0.451-0.727V51.49c2.697,0.47,5.43,0.711,8.168,0.72c0.6,0,1.2-0.015,1.806-0.04V78.2h-2.749
	c-0.215,0-0.422,0.086-0.574,0.238l-4.654,4.652l-3.387-0.227c-0.417-0.056-0.8,0.236-0.856,0.652
	c-0.005,0.035-0.007,0.07-0.007,0.105c-0.031,0.447,0.306,0.834,0.753,0.865c0.001,0,0.001,0,0.002,0l2.3,0.154l-1.143,1.6
	c-0.261,0.365-0.177,0.872,0.188,1.134c0.365,0.261,0.872,0.177,1.134-0.188l1.086-1.514l1.028,2.936
	c0.115,0.325,0.423,0.543,0.768,0.543c0.092,0,0.183-0.015,0.27-0.046c0.325-0.115,0.543-0.422,0.543-0.767
	c-0.001-0.092-0.016-0.183-0.044-0.27l-1.381-3.928l4.314-4.312h2.413v18.217c0,5.866,2.047,10.861,5.733,14.034
	c0.438,0.424,10.85,10.331,23.646,10.331c0.042-0.003,0.083-0.01,0.124-0.019c0.046,0,0.091,0,0.137,0
	c3.41-0.05,6.776-0.78,9.9-2.147l9.84-3.455c0.325-0.115,0.542-0.422,0.543-0.767v-14.06l3.854-10.355
	c0.141,0.074,0.302,0.101,0.46,0.078l15.573-1.9c0.446-0.053,0.764-0.457,0.712-0.903c-0.029-0.247-0.17-0.467-0.382-0.597
	L431.254,88.287z M408.145,101.682l-8.168,2.868c-1.768,0.707-3.769,0.507-5.362-0.536c-1.518-1.168-2.394-2.985-2.364-4.9
	l1.526-1.334c0.233-0.2,0.449-0.422,0.677-0.629l2.71-0.952L408.145,101.682z M392.235,94.911v-26.7
	C393.711,75.037,395.261,86.23,392.235,94.911L392.235,94.911z M393.717,95.642c4.25-11.828,0.321-27.728-1.083-32.618
	c3.139,0.746,10.574,1.49,16.907-5.671C410.098,71.812,404.32,85.795,393.717,95.642L393.717,95.642z M394.183,61.708l13.493-4.739
	C404.279,60.743,399.194,62.529,394.183,61.708L394.183,61.708z M406.735,41.47l-14.5,5.093v-9.345l4.93-1.731l1.069,0.535
	C400.503,38.597,403.448,40.484,406.735,41.47z M363.785,50.329l-1.818-7.714l11.011,5.5
	C370.023,49.249,366.933,49.994,363.785,50.329L363.785,50.329z M363.449,41.538l10.685-8.26c-0.01,0.052-0.015,0.106-0.016,0.159
	v13.436L363.449,41.538z M378.511,29.894l2.314,1.155c-1.878,0.735-3.831,1.258-5.825,1.56L378.511,29.894z M375.743,34.144
	c2.426-0.403,4.789-1.115,7.034-2.119l7.122,3.562l-14.156,10.944L375.743,34.144z M386.043,30.233
	c1.376,1.27,2.909,2.359,4.561,3.241v0.651l-6.016-3.008c0.492-0.268,0.978-0.567,1.46-0.883L386.043,30.233z M392.229,35.439
	v-1.212c0.598,0.243,1.21,0.451,1.832,0.625l-1.832,0.643V35.439z M392.229,32.439V27.18c1.135,2.283,2.48,4.457,4.016,6.492
	c-1.388-0.222-2.737-0.636-4.011-1.23L392.229,32.439z M390.609,26.1v5.487c-1.131-0.681-2.196-1.467-3.18-2.348
	C388.615,28.329,389.683,27.274,390.609,26.1z M382.765,30.2l-3.533-1.767v-7.11c1.518,2.811,3.401,5.409,5.6,7.726
	C384.164,29.469,383.474,29.853,382.765,30.2z M377.607,20.928v7.607L362.741,40.03V29.758c6.117-0.281,11.691-3.59,14.866-8.826
	L377.607,20.928z M345.369,48.488l7.319-6.432c0.365,0.159,0.75,0.31,1.16,0.451l-3.572,7.172c-1.742-0.334-3.387-0.744-4.907-1.187
	L345.369,48.488z M330.89,24.325v10.453l-0.6,0.3c-3.704-1.103-7.152-2.933-10.142-5.382L330.89,24.325z M319.513,28.2v-2.14
	l6.73-1.227L319.513,28.2z M347.984,40.079L338.14,45v-7.318L347.984,40.079z M319.513,31.279c2.608,2.078,5.538,3.716,8.675,4.849
	l-8.675,4.338V31.279z M330.442,36.817c1.736,0.44,3.52,0.665,5.311,0.671c0.254,0,0.508-0.005,0.762-0.014v7.8l-15.469-3.763
	L330.442,36.817z M350.259,40.753c0.212,0.142,0.5,0.323,0.854,0.524l-7.562,6.646c-1.853-0.609-3.339-1.2-4.349-1.641
	L350.259,40.753z M355.438,42.959c0.42,0.091,0.845,0.161,1.272,0.209l-0.435,7.3c-1.488-0.1-2.938-0.267-4.333-0.49L355.438,42.959
	z M349.517,30.464v8.312L337.678,35.9c-0.109-0.053-0.229-0.082-0.351-0.085l-4.812-1.171v-9.62
	c4.555,4.288,10.804,6.288,17.002,5.442L349.517,30.464z M330.89,14.42v7.914l-11.377,2.074v-5.971
	c0.001-0.13-0.031-0.258-0.092-0.373C323.501,17.898,327.462,16.639,330.89,14.42z M316.177,17.92
	c0.448,0.06,1.035,0.121,1.736,0.146c-0.547,0.503-1.127,0.968-1.736,1.394V17.92z M316.177,21.412
	c0.592-0.365,1.164-0.763,1.711-1.192v4.48l-1.711,0.311V21.412z M315.625,26.774l2.263-0.413v2.477l-10.064,1.835L315.625,26.774z
	 M303.175,70.924l14.713,2.363v6.8l-14.713-2.2V70.924z M317.888,71.639l-14.713-2.363v-6.828l14.713,2.443V71.639z M303.174,23.982
	c3.876,0.544,7.826-0.043,11.377-1.689v3.2l-11.377,5.688V23.982z M327.715,118.058c-13.3-2.29-24.541-15.645-24.541-29.161v-9.37
	l14.713,2.2v22.408c0.016,0.449,0.392,0.8,0.841,0.784c0.427-0.015,0.769-0.357,0.784-0.784V89.081l4.723,0.441v20.124
	c0.016,0.449,0.392,0.8,0.841,0.784c0.427-0.015,0.769-0.357,0.784-0.784v-14.6l2.844,0.69v4.158c0,0.016,0.007,0.03,0.008,0.046
	c0.012,0.1,0.038,0.197,0.075,0.29c0.008,0.017,0.007,0.035,0.016,0.052s0.03,0.039,0.044,0.06c0.016,0.025,0.034,0.049,0.053,0.072
	c0.036,0.043,0.077,0.082,0.122,0.116c0.02,0.015,0.037,0.032,0.058,0.045c0.062,0.04,0.129,0.072,0.2,0.094
	c0.007,0,0.013,0.007,0.02,0.009l3.758,1.036v4.465c0,0.018,0.012,0.033,0.013,0.05c0.007,0.104,0.034,0.206,0.08,0.3
	c0.009,0.018,0.01,0.037,0.02,0.054c0.064,0.106,0.151,0.197,0.255,0.264c0.009,0.006,0.013,0.018,0.023,0.024
	c0.069,0.04,0.143,0.071,0.22,0.09l0.011,0.005l2.832,0.688V120.2L327.715,118.058z M331.848,82.365l3.145,0.4l-10.106,5.181
	l-3.334-0.311L331.848,82.365z M336.883,87.032l-11.021,5.649v-3.4l11.021-5.65V87.032z M340.861,92.82l-10.529,5.709V95.58
	l10.529-5.694V92.82z M347.984,100.783l-10.754,5.376l-1.067-0.26l10.418-5.457L347.984,100.783z M345.661,99.083l-10.974,5.749
	v-3.246l10.974-5.651V99.083z M338.141,119.912v-12.4l11.377-5.688v12.4L338.141,119.912z M344.241,94.839l-10.455,5.384
	l-2.106-0.581l10.1-5.473L344.241,94.839z M339.441,88.8l-10.037,5.428l-2.041-0.495l10.437-5.34L339.441,88.8z M330.89,81.03
	l-11.377,5.829V56.921l11.377,2.768V81.03L330.89,81.03z M336.515,59.387l-17-4.136v-5.459c0.016-0.449-0.335-0.825-0.784-0.841
	c-0.449-0.016-0.825,0.335-0.841,0.784c-0.001,0.019-0.001,0.038,0,0.057v8.855l-1.762-0.173c-3.599-0.355-6.726-2.626-8.177-5.939
	l-0.3-0.7c-0.185-0.41-0.668-0.591-1.077-0.406c-0.402,0.182-0.585,0.65-0.415,1.057l0.3,0.7c1.689,3.852,5.325,6.492,9.51,6.907
	l1.921,0.188v2.962L303.174,60.8V33.169l14.713-2.682v11.294c0,0.01,0,0.018,0,0.028c0.014,0.099,0.037,0.197,0.069,0.292
	c0.006,0.014,0,0.029,0.012,0.043c0.037,0.053,0.073,0.106,0.11,0.159c0.04,0.046,0.084,0.086,0.133,0.122
	c0.018,0.013,0.032,0.03,0.052,0.042c0.071,0.045,0.148,0.079,0.229,0.1h0.01l18.008,4.381L336.515,59.387z M349.515,53.418
	l-11.375,5.687v-11.51c1.744,0.773,3.53,1.449,5.349,2.024c1.98,0.63,3.992,1.152,6.028,1.565L349.515,53.418z M357.899,50.553
	l0.436-7.317c0.69-0.011,1.378-0.088,2.054-0.229l1.76,7.47C360.735,50.573,359.317,50.598,357.899,50.553L357.899,50.553z
	 M362.739,98.045V52.066c0.391-0.031,0.784-0.072,1.178-0.115v11.68c0.016,0.449,0.392,0.8,0.841,0.784
	c0.427-0.015,0.769-0.357,0.784-0.784V51.744c1.037-0.156,2.081-0.358,3.13-0.606v20.139c-0.016,0.449,0.335,0.825,0.784,0.841
	c0.449,0.016,0.825-0.335,0.841-0.784c0.001-0.019,0.001-0.038,0-0.057V50.712c1.296-0.368,2.571-0.806,3.819-1.313V93.5
	l-4.181,0.267l-2.335-4.012c-0.227-0.387-0.726-0.517-1.113-0.289c-0.248,0.146-0.4,0.411-0.401,0.698
	c0,0.144,0.038,0.285,0.111,0.409l1.876,3.22h-3.343c-0.449-0.016-0.825,0.335-0.841,0.784s0.335,0.825,0.784,0.841
	c0.019,0.001,0.038,0.001,0.057,0h2.793l-2.251,2.251c-0.329,0.306-0.348,0.82-0.042,1.149s0.82,0.348,1.149,0.042
	c0.014-0.013,0.028-0.027,0.042-0.042l3.422-3.42l4.273-0.273v9.419c0,5.81,1.946,10.641,5.52,13.846
	c-4.279-1.856-8.228-4.393-11.694-7.513c-3.353-2.89-5.201-7.448-5.201-12.833L362.739,98.045z M409.409,115.45l-9.342,3.282
	c-1.593,0.678-3.245,1.206-4.936,1.576v-11.761c-0.016-0.449-0.392-0.8-0.841-0.784c-0.427,0.015-0.769,0.357-0.784,0.784v12.043
	c-0.961,0.137-1.93,0.204-2.9,0.2c-0.013,0-0.024-0.007-0.037-0.007h-0.07c-0.217,0-0.431-0.01-0.646-0.016
	c-0.482-0.023-0.957-0.064-1.423-0.126c0.018-0.056,0.03-0.115,0.035-0.174v-6.122c0.016-0.449-0.335-0.825-0.784-0.841
	c-0.449-0.016-0.825,0.335-0.841,0.784c-0.001,0.019-0.001,0.038,0,0.057v6c-1.625-0.381-3.171-1.045-4.565-1.963
	c-4.209-2.8-6.53-7.709-6.53-13.839v-9.521l5.6-0.358c0.35-0.022,0.647-0.266,0.736-0.606l2.7-10.345
	c0.111-0.434-0.148-0.875-0.581-0.99c-0.425-0.12-0.867,0.128-0.987,0.553c-0.003,0.009-0.005,0.018-0.007,0.028l-2.552,9.777
	l-4.908,0.313V73.926c5.508-0.374,10.367-3.741,12.65-8.768c0.184-0.41,0.001-0.892-0.409-1.076c-0.41-0.184-0.892-0.001-1.077,0.41
	l0,0c-1.981,4.477-6.28,7.486-11.164,7.816V48.585L390.609,37.1v10.609c-0.001,0.448,0.362,0.813,0.811,0.813
	c0.092,0,0.184-0.015,0.271-0.046l17.719-6.223v12.384l-18.259,6.412c-0.015,0.005-0.027,0.016-0.042,0.023
	c-0.041,0.018-0.081,0.039-0.118,0.064c-0.031,0.019-0.061,0.039-0.089,0.062c-0.01,0.009-0.023,0.014-0.033,0.023
	c-0.02,0.022-0.039,0.046-0.057,0.07c-0.024,0.026-0.047,0.055-0.068,0.084c-0.023,0.038-0.043,0.078-0.06,0.119
	c-0.016,0.032-0.03,0.066-0.041,0.1c-0.011,0.045-0.019,0.091-0.022,0.137c-0.006,0.029-0.011,0.058-0.014,0.088v36.934
	c-0.115,2.565,1.03,5.024,3.067,6.587c2.021,1.352,4.576,1.63,6.841,0.743l8.895-3.124L409.409,115.45z M415.475,90.033l2.9-7.79
	l10.053,6.211L415.475,90.033z"/>
<path class="st0" d="M388.244,49.814c-1.321-0.914-3.007-1.119-4.508-0.549c-3.438,1.136-6.13,5.081-6.13,8.977
	c-0.094,1.832,0.7,3.598,2.133,4.744c0.786,0.566,1.732,0.865,2.7,0.854c0.615-0.002,1.226-0.104,1.809-0.3
	c3.438-1.136,6.133-5.079,6.133-8.977C390.476,52.728,389.68,50.96,388.244,49.814z M383.736,61.992
	c-1.007,0.396-2.143,0.275-3.044-0.324c-1.006-0.844-1.548-2.117-1.46-3.427c0-3.185,2.251-6.52,5.012-7.434
	c0.419-0.143,0.858-0.217,1.3-0.221c0.628-0.009,1.242,0.181,1.755,0.544c1.005,0.844,1.546,2.118,1.457,3.427
	c-0.004,3.186-2.256,6.521-5.019,7.435H383.736z"/>
<path class="st0" d="M383.992,52.658c-0.116,0.038-0.226,0.1-0.34,0.143v3.039l-2.3-1.295c-0.617,0.728-0.975,1.639-1.019,2.592
	c0,1.806,1.638,2.728,3.659,2.06c1.999-0.637,3.433-2.393,3.659-4.479C387.651,52.913,386.013,51.99,383.992,52.658z"/>
<path class="st0" d="M404.551,65.9c-0.449,0.001-0.812,0.364-0.812,0.813c0,0.817-1.333,7.539-3.3,8.966
	c-0.363,0.265-0.442,0.774-0.177,1.137c0.265,0.363,0.774,0.442,1.137,0.177c2.7-1.96,3.965-9.423,3.965-10.28
	C405.363,66.264,405,65.901,404.551,65.9z"/>
</svg>
