<?xml version="1.0" encoding="utf-8"?>
<!-- Generator: Adobe Illustrator 20.1.0, SVG Export Plug-In . SVG Version: 6.00 Build 0)  -->
<svg version="1.1" id="Layer_1" xmlns="http://www.w3.org/2000/svg" xmlns:xlink="http://www.w3.org/1999/xlink" x="0px" y="0px"
	 viewBox="0 0 629 629" enable-background="new 0 0 629 629" xml:space="preserve">
<path fill="#FFFFFF" d="M314.5,0C140.806,0,0,140.806,0,314.5S140.806,629,314.5,629S629,488.194,629,314.5S488.194,0,314.5,0z
	 M445.183,247.397l0.226,8.733c0,89.142-67.833,191.929-191.929,191.929c-38.098,0-73.545-11.179-103.403-30.351
	c5.281,0.596,10.645,0.925,16.09,0.925c31.604,0,60.702-10.747,83.779-28.831c-29.509-0.535-54.415-20.036-63.004-46.852
	c4.13,0.822,8.343,1.254,12.699,1.254c6.165,0,12.124-0.843,17.775-2.363c-30.844-6.206-54.106-33.475-54.106-66.148v-0.843
	c9.103,5.055,19.501,8.096,30.557,8.466c-18.083-12.082-30.002-32.734-30.002-56.14c0-12.371,3.308-23.96,9.124-33.906
	c33.269,40.811,82.977,67.669,139.035,70.484c-1.151-4.932-1.747-10.09-1.747-15.371c0-37.235,30.207-67.442,67.463-67.442
	c19.419,0,36.927,8.179,49.236,21.31c15.371-3.041,29.797-8.652,42.866-16.378c-5.055,15.72-15.72,28.954-29.652,37.297
	c13.645-1.624,26.632-5.261,38.735-10.624C469.903,226.066,458.437,237.944,445.183,247.397z"/>
</svg>
