<svg id="Layer_1" data-name="Layer 1" xmlns="http://www.w3.org/2000/svg" viewBox="0 0 61.614 39.524"><defs><style>.cls-1{fill:#fff;}</style></defs><title>leerbeleving</title><path class="cls-1" d="M61.584,32.078,44.126.129A.253.253,0,0,0,43.872,0L5.247,5.365c-.013,0-.022.011-.034.014a.215.215,0,0,0-.04.017.239.239,0,0,0-.105.1c0,.006-.012.007-.015.014l-4.5,9.975a6.251,6.251,0,0,0,4.014,8.59,5.768,5.768,0,0,1,4.2,5.537V29.8H7.951a.25.25,0,0,0,0,.5h.818v.239H7.951a.25.25,0,0,0,0,.5h.818v.333H7.951a.25.25,0,1,0,0,.5h.723l-3.3,4.859a.251.251,0,0,0-.038.2,3.539,3.539,0,0,0,2,2.472,2.508,2.508,0,0,0,.8.125,6.171,6.171,0,0,0,3.736-1.837.25.25,0,0,0,.063-.3l-2.6-5.519h.626a.25.25,0,0,0,0-.5H9.269V31.04h.682a.25.25,0,0,0,0-.5H9.269V30.3h.682a.25.25,0,0,0,0-.5H9.269v-.189A6.271,6.271,0,0,0,4.7,23.591a5.748,5.748,0,0,1-3.693-7.9L5.346,6.076l10.96,12.944a.247.247,0,0,0,.336.034l-.086.137v0l-.006.009c-.941,1.707-.488,4.032,1.275,6.545a20.114,20.114,0,0,0,4,4.117s0,.01.009.013l.011,0a28,28,0,0,0,3.826,2.534,23.48,23.48,0,0,0,9.831,3.071q.335.016.658.017c2.72,0,4.678-.853,5.551-2.431h0l0,0h0L42.8,31.208l18.544,1.239h.017a.25.25,0,0,0,.22-.37ZM5.847,36.918,7.559,34.4,6.106,37.58A4.062,4.062,0,0,1,5.847,36.918Zm.519,1.107a.248.248,0,0,0,.146-.133l1.44-3.15-1.059,3.85A2.633,2.633,0,0,1,6.366,38.026Zm1.127.9c-.055-.018-.1-.046-.153-.069L8.4,35.008l-.4,3.5a.25.25,0,0,0,.22.276l.029,0a.25.25,0,0,0,.248-.222l.464-4.026.2,2.973a.25.25,0,0,0,.5-.035l-.2-2.891.873,3.469a.244.244,0,0,0,.078.108A3.475,3.475,0,0,1,7.493,38.925Zm3.315-1.031-.92-3.654,1.505,3.191Q11.095,37.683,10.808,37.894Zm.443-32.858.717,1.271-2.2.3L8.845,5.37Zm5.736,14.411,0-.008a3.672,3.672,0,0,1,1.661-1.494,11.939,11.939,0,0,0,1.727,5.793l-1.629,2.407c-.179-.227-.357-.454-.518-.682C16.588,23.114,16.145,20.978,16.987,19.447Zm2.166-1.715a8.553,8.553,0,0,1,2.947-.465q.312,0,.639.015a16.274,16.274,0,0,1,1.866.212l-3.914,5.783A11.18,11.18,0,0,1,19.153,17.732Zm-.082,8.805a.232.232,0,0,0,.046-.041L20.67,24.2a13.2,13.2,0,0,0,.98,1.3l-1.5,2.2C19.764,27.322,19.4,26.933,19.071,26.538Zm1.435,1.529,1.486-2.175a14.376,14.376,0,0,0,1.284,1.237l-1.364,2.163C21.419,28.893,20.944,28.486,20.506,28.067Zm1.8,1.54,1.362-2.161c.321.255.658.507,1.022.753L23.42,30.428Q22.844,30.027,22.3,29.608Zm13.225,5.381a23,23,0,0,1-9.613-3.01c-.723-.4-1.415-.826-2.08-1.27l1.273-2.238a19.573,19.573,0,0,0,2.7,1.426.258.258,0,0,0,.1.021.25.25,0,0,0,.1-.479,18.869,18.869,0,0,1-2.815-1.507c-.015-.015-.019-.038-.038-.049s-.032,0-.047-.006c-.42-.278-.81-.564-1.174-.855l1.309-2.076a.25.25,0,1,0-.423-.267L23.547,26.7a13.908,13.908,0,0,1-1.265-1.231l2.958-4.329a.25.25,0,0,0-.413-.282l-2.883,4.22a12.636,12.636,0,0,1-.968-1.326l4.17-6.162a25.318,25.318,0,0,1,7.206,2.705c4.113,2.265,7.2,5.258,8.57,7.977l-2.1,3.409a.249.249,0,0,0,.082.344.25.25,0,0,0,.344-.082l1.923-3.122a4.552,4.552,0,0,1,.11,4.008C40.437,34.357,38.4,35.116,35.529,34.989Zm-1.071-14,1.323-2.2c0-.006,0-.014,0-.021q.347.236.694.5l-1.456,2.1C34.84,21.23,34.646,21.11,34.458,20.987Zm.893-2.461-1.312,2.187c-.161-.1-.325-.2-.49-.3l1.216-2.3c.207.124.415.249.625.386C35.38,18.508,35.361,18.51,35.351,18.525Zm6.09,9.736a.231.231,0,0,0-.065-.126,18.785,18.785,0,0,0-5.95-6.487l1.45-2.087a18.519,18.519,0,0,1,2.749,2.659.247.247,0,0,0,.191.09.25.25,0,0,0,.191-.41,18.988,18.988,0,0,0-2.847-2.748l.485-.7a.25.25,0,1,0-.41-.285l-.473.681A20.549,20.549,0,0,0,35,17.668l.507-.96a.25.25,0,1,0-.441-.233l-.5.939a19.3,19.3,0,0,0-5.237-2.079.25.25,0,1,0-.092.491,18.8,18.8,0,0,1,5.1,2.028l-1.218,2.307c-.176-.1-.345-.208-.525-.307a23.49,23.49,0,0,0-9.83-3.071,8.562,8.562,0,0,0-4.653.872l2.714-4.331a1.767,1.767,0,0,1,1.3-.821c13.3-1.375,19.145,5.558,21.529,10.151a.243.243,0,0,0-.178.08l-1.5,1.646a.249.249,0,0,0,.017.353.248.248,0,0,0,.353-.017l1.5-1.646c.006-.006,0-.016.008-.022.279.567.5,1.09.682,1.548a.249.249,0,0,0-.337.082l-1.5,2.429a.25.25,0,0,0,.426.264l1.5-2.429c.015-.025.007-.052.013-.079.081.219.154.425.213.606A1.882,1.882,0,0,1,44.679,27l-2.511,4.3A6.657,6.657,0,0,0,41.441,28.262Zm1.643,2.465,2.026-3.473a2.382,2.382,0,0,0,.212-1.941c-1.169-3.565-6.308-15.064-23.25-13.306A2.27,2.27,0,0,0,20.4,13.059l-3.682,5.875a.236.236,0,0,0-.03-.237L5.765,5.8,8.28,5.448,9.2,6.68l-.987.133a.25.25,0,0,0,.033.5.2.2,0,0,0,.034,0l1.262-.17L10.709,8.71a.25.25,0,1,0,.4-.3L10.105,7.061l5.369-.723a.25.25,0,1,0-.066-.5l-2.954.4a.234.234,0,0,0-.014-.117l-.656-1.163L43.769.521l5.1,9.334-1.438.2-4.3-7.8a.253.253,0,0,0-.258-.126l-4.687.75a.25.25,0,1,0,.078.494l4.515-.723L46.9,10.129l-1.559.217L42.378,5.058a.25.25,0,1,0-.436.244l2.87,5.118-2.687.374a.25.25,0,0,0,.034.5l.034,0,2.881-.4,2.7,4.815a.25.25,0,1,0,.436-.244l-2.6-4.645,1.555-.217,5.093,9.235a.25.25,0,1,0,.438-.241l-5-9.068,1.436-.2,11.8,21.594Z"/><path class="cls-1" d="M48.369,28.874a.249.249,0,0,0-.238.125l-.168.293-.46-.365a.253.253,0,0,0-.343.031v-1.4a.25.25,0,0,0-.451-.148l-1.562,2.107a.25.25,0,0,0,.4.3l1.111-1.5v1.351a.25.25,0,0,0,.445.156l.281-.351.493.391a.251.251,0,0,0,.372-.072l.233-.406,6.091.531H54.6a.25.25,0,0,0,.021-.5Z"/><path class="cls-1" d="M31.972,9.4h-.5a.25.25,0,0,0-.235.166l-.278-.139a.251.251,0,0,0-.249.015c-.142-.284-.275-.542-.338-.642a.314.314,0,0,0-.305-.156c-.091.01-.3.034-.578.776-2.536-.167-4.521-.2-6-.177l.815-2.1a.25.25,0,1,0-.466-.182l-.89,2.288a26.719,26.719,0,0,0-2.8.181.25.25,0,0,0-.182.124l-1.709,3a.25.25,0,1,0,.435.247l1.647-2.891c.285-.033,1.087-.112,2.409-.152l-.371.954a.25.25,0,1,0,.466.182l.447-1.149c1.532-.029,3.641,0,6.356.182a.239.239,0,0,0,.253-.168,4.182,4.182,0,0,1,.186-.454c.2.384.531,1.063.672,1.355a.25.25,0,0,0,.473-.145l-.063-.433.2.1a.25.25,0,0,0,.362-.224V9.9h.25a.25.25,0,0,0,0-.5Z"/><path class="cls-1" d="M54.187,23.725a.25.25,0,1,0,.445-.229L53.2,20.7a.25.25,0,1,0-.445.229Z"/><path class="cls-1" d="M48.337,17.222a.25.25,0,0,0,.229.15.256.256,0,0,0,.1-.021.25.25,0,0,0,.13-.329l-.312-.719a.25.25,0,1,0-.459.2Z"/><path class="cls-1" d="M36.051,25.89a20.264,20.264,0,0,1-2.663-.7l1.138-2.173a.25.25,0,0,0-.443-.232l-1.173,2.239c-.452-.167-.866-.343-1.248-.524l1.1-2.178a.25.25,0,1,0-.447-.225l-1.1,2.181c-.214-.111-.413-.224-.6-.337a.222.222,0,0,0-.36-.22c-.086-.055-.167-.11-.247-.164l1.536-2.912a.25.25,0,0,0-.442-.233l-1.5,2.853a6.478,6.478,0,0,1-1.952-2.122.252.252,0,0,0-.329-.128.25.25,0,0,0-.129.328,7.276,7.276,0,0,0,2.8,2.823l-1.4,2.967a.25.25,0,0,0,.12.333.259.259,0,0,0,.106.023.249.249,0,0,0,.226-.144l1.374-2.922c.18.1.368.208.567.311l-.391.776a.25.25,0,0,0,.111.336.256.256,0,0,0,.112.026.25.25,0,0,0,.223-.138l.393-.779c.381.18.793.354,1.241.52l-.016.031a.25.25,0,0,0,.443.232l.051-.1a21.06,21.06,0,0,0,2.805.739.191.191,0,0,0,.047,0,.25.25,0,0,0,.047-.5Z"/><path class="cls-1" d="M8.672,25.418a.25.25,0,0,0-.06.349A6.49,6.49,0,0,1,9.7,28.787a.25.25,0,0,0,.25.242h.008a.251.251,0,0,0,.242-.258A6.9,6.9,0,0,0,9.02,25.478.249.249,0,0,0,8.672,25.418Z"/><path class="cls-1" d="M3.4,11.8,1.778,15.234a.25.25,0,0,0,.452.214l1.625-3.437A.25.25,0,1,0,3.4,11.8Z"/><path class="cls-1" d="M4.519,8.81,4.05,10.1a.25.25,0,1,0,.47.171l.469-1.29a.25.25,0,1,0-.47-.171Z"/><path class="cls-1" d="M3.629,6.341a.251.251,0,0,0,.23-.151l.6-1.41,1.807-.35a.25.25,0,0,0-.095-.491l-1.937.375a.251.251,0,0,0-.183.147L3.4,5.993a.25.25,0,0,0,.23.349Z"/><path class="cls-1" d="M45.077,31.948H43.16a.25.25,0,0,0-.214.12L42.134,33.4a.25.25,0,0,0,.428.26l.739-1.211h1.776a.25.25,0,0,0,0-.5Z"/></svg>