<svg id="Layer_1" data-name="Layer 1" xmlns="http://www.w3.org/2000/svg" viewBox="0 0 71.088 37.648"><defs><style>.cls-1{fill:#fff;}</style></defs><title>Tooling</title><path class="cls-1" d="M70.9,33.91c-.18-.047-18.11-4.759-25.848-6.745A8.67,8.67,0,0,0,34.4,32.135c-.006.016.006.033,0,.05a.218.218,0,0,0,.008.107c0,.016,0,.033,0,.048l.822,1.52a.274.274,0,0,1,.022.212l-.6,2.029a.276.276,0,0,1-.11.15l-1.251.848a.278.278,0,0,1-.217.041l-2.087-.469a.287.287,0,0,1-.173-.129c-1.655-2.514-5.77-2.053-5.907-2.035-8.382-.181-15.055-5.158-16.422-6.252l3.688-2.44c.263.2.9.668,1.814,1.263a.232.232,0,0,0,.049.033c.622.4,1.379.856,2.226,1.321a.235.235,0,0,0,.115.063,24.009,24.009,0,0,0,10.99,3.241,12.884,12.884,0,0,0,4.311-.708.245.245,0,0,0,.152-.151.25.25,0,0,0-.022-.214L21.249,13.357c-3.26-4.99-5.365-5.255-6.334-4.967l-.159.048c-.287.087-.573.173-.865.235L5.959,10.341c.049-.246.13-.611.244-1.049L14.365,7.54a.25.25,0,0,0,.192-.3.253.253,0,0,0-.3-.192L6.35,8.748c.108-.38.244-.8.4-1.242l5.119-1.117a.25.25,0,0,0,.191-.3.253.253,0,0,0-.3-.191L6.95,6.95C8.1,3.948,10.322.275,14.319.51,14.359.5,18.4.188,23.152,6.945a35.458,35.458,0,0,0,12.8,10.547l13.758,4.154L56.762,23.4a.243.243,0,0,0,.3-.182.249.249,0,0,0-.182-.3l-7.042-1.756-13.716-4.14A34.94,34.94,0,0,1,23.561,6.656C18.641-.336,14.445-.006,14.31.012A6.035,6.035,0,0,0,11.184.65c-.009,0-.018,0-.027,0C10.919.76,5.315,3.349,3.141,6.2A21.358,21.358,0,0,0,0,13.662a.239.239,0,0,0,0,.057c0,.01-.009.018-.007.028s.01.011.011.019a.243.243,0,0,0,.089.149.249.249,0,0,0,.147.048c.008,0,.014-.005.022-.006s.008,0,.012,0l7.063-.975a2.761,2.761,0,0,1,2.688,1.235l6.024,9.346L12.085,25.28c-.009,0-.015.013-.023.018s-.011,0-.016,0L7.927,28.027a.249.249,0,0,0-.026.4c.073.063,7.438,6.379,17.03,6.583.039,0,3.979-.445,5.464,1.813a.788.788,0,0,0,.482.342l2.086.469a.784.784,0,0,0,.607-.115l1.251-.848a.779.779,0,0,0,.31-.422l.6-2.029a.774.774,0,0,0-.062-.593l-.738-1.365c.6-.662,3.712-3.862,6.7-3.115,3.461.866,25.93,6.382,26.156,6.438a.248.248,0,0,0,.06.007.25.25,0,0,0,.06-.493c-.227-.056-22.693-5.57-26.154-6.436-2.4-.6-4.769,1.023-6.137,2.23,1.2-1.828,3.985-4.6,9.309-3.239,7.736,1.985,25.665,6.7,25.846,6.745a.254.254,0,0,0,.306-.179A.25.25,0,0,0,70.9,33.91ZM22.781,20.859l-.4-.8.78-.128.9,1.83ZM24.8,22.276a.245.245,0,0,0-.011-.172l-1.113-2.262.861-.141,2.558,4.192a.213.213,0,0,0-.039-.033ZM3.538,6.5A19.457,19.457,0,0,1,9.069,2.293,14.666,14.666,0,0,0,6.33,7.159l0,.014A22.085,22.085,0,0,0,5.419,10.5l-4.8,2.712A20.165,20.165,0,0,1,3.538,6.5Zm6.917,7.448A3.26,3.26,0,0,0,7.279,12.49l-5.766.8L5.735,10.9l8.259-1.736c.307-.065.607-.155.907-.246l.157-.047c.521-.159,2.484-.273,5.768,4.754l3.427,5.616-.81.133-.634-1.288a.25.25,0,1,0-.448.221l.567,1.152-.783.128-.612-1.223a.25.25,0,0,0-.447.225l.542,1.083-.644.105-5.12-8.17a4.751,4.751,0,0,0-2.1-1.824l-.125-.056a.247.247,0,0,0-.231.015l-2.729,1.647a.25.25,0,0,0,.041.448,4.238,4.238,0,0,1,2.05,1.635l5.708,8.618a.25.25,0,0,0,.417-.275l-5.708-8.619a4.733,4.733,0,0,0-1.836-1.628l2.2-1.331.006,0a4.248,4.248,0,0,1,1.881,1.632L21.1,20.9a.25.25,0,1,0,.424-.266l-.249-.4.59-.1.381.762-5.717,2.465Zm12.1,7.361,4.21,2.957a.25.25,0,0,0,.379-.288l4.074,6.677c-4.963,1.6-10.428-.391-14.2-2.38l3.938-1.715a.25.25,0,0,0-.2-.459l-4.3,1.873c-.66-.364-1.254-.717-1.777-1.046l5.856-2.565a.249.249,0,1,0-.2-.457l-6.163,2.7c-.669-.437-1.192-.808-1.5-1.036Z"/><path class="cls-1" d="M40.088,20.544c5.252,1.39,17.918,4.737,17.918,4.737l.127-.484s-12.666-3.346-17.917-4.735c-1.6-.426-2.584-.335-3,.272-.727,1.075.85,3.25,1.032,3.494a.247.247,0,0,0,.139.093L63,30.137a.222.222,0,0,0,.062.008.25.25,0,0,0,.062-.492L38.6,23.458c-.6-.828-1.354-2.271-.967-2.844C37.9,20.223,38.771,20.2,40.088,20.544Z"/><path class="cls-1" d="M36.245,24.906l-1.233-1.971h0l-2.259-3.611h0l-1.306-2.088a.248.248,0,0,0-.065-.07,4.577,4.577,0,0,0-3.8-.734l-.528.132L25.471,13.6a.25.25,0,1,0-.441.234L26.7,16.97l.008.009v.007l5.005,8h0l1.276,2.039a.25.25,0,0,0,.212.117.245.245,0,0,0,.137-.041l2.832-1.854A.25.25,0,0,0,36.245,24.906Zm-4.429-.7,2.377-1.638.262.419-2.448,1.524Zm-.659-1.054L33.649,21.7l.278.444L31.55,23.781Zm-.693-1.107,2.552-1.358.368.589-2.493,1.453Zm-.562-.9,2.543-1.373.305.488L30.2,21.62Zm-.627-1L31.837,18.8l.342.546-2.543,1.373ZM27.7,16.916a4.074,4.074,0,0,1,3.35.626l.522.835L29.009,19.72l-1.694-2.707Zm5.58,9.628-1.007-1.61,2.448-1.524.972,1.554Z"/><path class="cls-1" d="M30.342,35.573a.257.257,0,0,0,.081.014.249.249,0,0,0,.2-.1l.892-1.145.176.553a.25.25,0,0,0,.17.164l1.806.515a.25.25,0,0,0,.293-.349L32.5,32.191a.25.25,0,1,0-.45.217l1.221,2.537-1.142-.326-.279-.877a.25.25,0,0,0-.436-.077l-.736.945v-.527a.251.251,0,0,0-.195-.244l-1.173-.265a.253.253,0,0,0-.3.189.249.249,0,0,0,.188.3l.978.221v1.055A.25.25,0,0,0,30.342,35.573Z"/></svg>