<svg id="Layer_1" data-name="Layer 1" xmlns="http://www.w3.org/2000/svg" viewBox="0 0 45.284 68.206"><defs><style>.cls-1{fill:#fff;}</style></defs><title>voor-welke-vraagstukken</title><path class="cls-1" d="M39.484,6.223c-.008-.012-.005-.027-.016-.038s-.021-.006-.031-.013a20,20,0,0,0-8.2-5.158A20.218,20.218,0,0,0,15.2,2.484L9.363,5.966c-.022.013-.026.038-.042.056a20.449,20.449,0,0,0-7.258,7.629c-.005,0-.013,0-.017.007-.024.024-.023.056-.035.085A20.273,20.273,0,0,0,.731,16.628a.241.241,0,0,0-.025.076c-.162.464-.327.927-.455,1.4a7.378,7.378,0,0,0,.9,5.863.225.225,0,0,0,.015.023A7.381,7.381,0,0,0,11.1,26.436c.185-.107.361-.223.534-.344l.007,0,5.181-3.128a7.331,7.331,0,0,0,2.728-4.021A5.618,5.618,0,0,1,20,17.815a5.546,5.546,0,0,1,4.755,8.32c-.005,0-.01,0-.015,0a18.012,18.012,0,0,0-3.519,1.352L16.1,30.545a17.306,17.306,0,0,0-1.69,1.01l-.027.016-.006.008a17.007,17.007,0,0,0-4.647,4.675.25.25,0,0,0,.416.277,16.512,16.512,0,0,1,4.533-4.554l1.661-.993a17.581,17.581,0,0,1,4.742-1.648,6.069,6.069,0,0,0,4.541-3.892h3.918a7.684,7.684,0,0,1-6.206,6.1.25.25,0,0,0,.125.484,8.615,8.615,0,0,0,5.689-4.07,8.793,8.793,0,0,0,.907-2.513h2.4a.25.25,0,0,0,0-.5H30.148c.045-.292.076-.579.1-.863h6.588a.25.25,0,0,0,0-.5H30.277a13.846,13.846,0,0,0-.518-4.227.25.25,0,1,0-.477.149,13.731,13.731,0,0,1,.484,4.078h-2.5a.25.25,0,0,0,0,.5h2.473c-.022.284-.052.572-.1.863H25.766c.029-.108.07-.211.094-.322a6.18,6.18,0,0,0-4.041-7,6.064,6.064,0,0,0-7.749,4.191A6.894,6.894,0,0,1,1.611,23.766,26.247,26.247,0,0,1,2.753,18.85l2.913,2.913a.25.25,0,0,0,.354-.354L2.939,18.328a15.688,15.688,0,0,1,1.082-2.341l.127.127a.25.25,0,1,0,.354-.354l-.21-.21a7.487,7.487,0,0,1,2.3-2.409.25.25,0,0,0-.263-.426,7.945,7.945,0,0,0-2.4,2.468L2.549,13.808a19.934,19.934,0,0,1,7.9-7.89A19.717,19.717,0,0,1,26.085,4.49a20.05,20.05,0,0,1,13.279,23A19.868,19.868,0,0,1,31.941,39.2l-1.526,1.058a19.875,19.875,0,0,1-6.692,2.63,3.035,3.035,0,0,0-2.432,2.069l-.114.424A6.9,6.9,0,1,1,7.842,41.805l.114-.424a.249.249,0,0,0-.176-.306.252.252,0,0,0-.306.177l-.114.424A7.4,7.4,0,0,0,18.211,50c.173-.1.338-.21.5-.322l.011,0L23.545,46.8a7.378,7.378,0,0,0,3.082-4.185A20.324,20.324,0,0,0,30.642,40.7l.011,0,.025-.018c.542-.337,1.061-.7,1.567-1.087l4.535-3.145a19.425,19.425,0,0,0,7.8-10.73q.151-.556.271-1.124A20.511,20.511,0,0,0,39.484,6.223Zm-18.5,22.623a18.524,18.524,0,0,0-1.844.464l2.319-1.386A17.377,17.377,0,0,1,24.307,26.8,5.559,5.559,0,0,1,20.984,28.845Zm-6.431-6.9a5.576,5.576,0,0,1,4.88-4.1,6.183,6.183,0,0,0-.363.976,6.824,6.824,0,0,1-2.523,3.736L13.3,24.51A7.4,7.4,0,0,0,14.553,21.941ZM1.2,23.049a6.845,6.845,0,0,1-.47-4.811c.1-.361.228-.709.344-1.062l1.269,1.269A25.735,25.735,0,0,0,1.2,23.049Zm2.443-7.435a15.507,15.507,0,0,0-1.107,2.316L1.252,16.642a19.774,19.774,0,0,1,1.04-2.383ZM26.24,4.015a20.2,20.2,0,0,0-12.683.032l1.891-1.128A19.725,19.725,0,0,1,31.085,1.49a19.509,19.509,0,0,1,7.851,4.873l-3.689,3.689A20.081,20.081,0,0,0,26.24,4.015Zm-2.958,42.36-2.9,1.729a7.392,7.392,0,0,0,1.276-2.6l.114-.424a2.54,2.54,0,0,1,2.044-1.708,20.444,20.444,0,0,0,2.2-.572A6.859,6.859,0,0,1,23.281,46.374ZM44.365,24.493q-.117.554-.266,1.1a18.927,18.927,0,0,1-7.6,10.452l-1.511,1.048A20.157,20.157,0,0,0,38.2,14.546l1.265-1.266a.25.25,0,0,0-.354-.354l-1.154,1.154q-.44-.851-.956-1.657l2.29-2.289a.25.25,0,0,0-.354-.354l-2.211,2.211q-.542-.8-1.154-1.555l3.706-3.706A20,20,0,0,1,44.365,24.493Z"/><path class="cls-1" d="M20.505,56.751a7.358,7.358,0,0,0-4.644-4.546,6.6,6.6,0,0,0-3.979.022L7.59,53.507l0,0A7.4,7.4,0,0,0,2.825,58.6l-.077.288a7.358,7.358,0,0,0-.228,2.418l0,.009c0,.005.005.008.006.014A7.336,7.336,0,0,0,12.755,67.6l.01,0a.252.252,0,0,0,.1-.019L16.713,66a6.782,6.782,0,0,0,3.463-3.035,7.423,7.423,0,0,0,.429-5.936ZM15.5,55.6l3.19-.941a6.878,6.878,0,0,1,1.237,2.01l-3.206.811A7.46,7.46,0,0,0,15.5,55.6Zm-3.474-2.89A6.11,6.11,0,0,1,15.7,52.68a6.9,6.9,0,0,1,2.6,1.566l-3.195.943a7.309,7.309,0,0,0-4.542-2.048ZM8.112,67.471a6.91,6.91,0,0,1-5.068-5.907H7.661a.25.25,0,1,0,0-.5H3a6.88,6.88,0,0,1,.23-2.048l.077-.288A6.9,6.9,0,1,1,16.643,62.3l-.077.288A6.911,6.911,0,0,1,8.112,67.471Zm11.622-4.734a6.282,6.282,0,0,1-3.211,2.8l-1.584.651a7.328,7.328,0,0,0,2.111-3.474l.077-.288a7.355,7.355,0,0,0-.218-4.487l3.2-.81.024.067A6.925,6.925,0,0,1,19.734,62.737Z"/><path class="cls-1" d="M19.582,45.448c.012-.154.351-3.771,5.863-3.831a.25.25,0,0,0,0-.5h0c-5.312.057-6.2,3.359-6.334,4.134l-1.178.471a.25.25,0,0,0,.031.475l.946.239-.989.454a.25.25,0,0,0,.209.455l1.633-.75a.25.25,0,0,0-.043-.47l-.887-.225.6-.238A.253.253,0,0,0,19.582,45.448Z"/><path class="cls-1" d="M36.333,39.929H33.4a.251.251,0,0,0-.2.1,9.956,9.956,0,0,1-4.32,2.79.25.25,0,0,0,.072.489.259.259,0,0,0,.072-.011,10.378,10.378,0,0,0,4.493-2.864h2.817a.25.25,0,0,0,0-.5Z"/><path class="cls-1" d="M12.373,62.279l-1.187.1A.251.251,0,0,0,11,62.5l-.225.363v-1.55a.25.25,0,0,0-.479-.1l-.518,1.17H5.52a.25.25,0,0,0,0,.5H9.937a.25.25,0,0,0,.229-.148l.1-.237v1.245a.25.25,0,0,0,.182.24.234.234,0,0,0,.068.01.249.249,0,0,0,.212-.118l.622-1,1.063-.094a.25.25,0,0,0,.227-.271A.242.242,0,0,0,12.373,62.279Z"/><path class="cls-1" d="M21.668,1.625a.25.25,0,0,0-.178.305.247.247,0,0,0,.305.178,13.131,13.131,0,0,1,8.55,1.366.25.25,0,1,0,.227-.445A13.388,13.388,0,0,0,21.668,1.625Z"/><path class="cls-1" d="M12.205,35.391A19.546,19.546,0,0,0,8.529,42.38a.25.25,0,0,0,.178.306.286.286,0,0,0,.063.008.25.25,0,0,0,.242-.187,19.418,19.418,0,0,1,3.573-6.79.25.25,0,0,0-.38-.326Z"/><path class="cls-1" d="M12.281,38.089a.251.251,0,0,0,.337-.108,8.776,8.776,0,0,1,3.178-3.27.25.25,0,1,0-.241-.438,9.165,9.165,0,0,0-3.382,3.48A.251.251,0,0,0,12.281,38.089Z"/></svg>