<svg id="Layer_1" data-name="Layer 1" xmlns="http://www.w3.org/2000/svg" viewBox="0 0 47.327 58.407"><defs><style>.cls-1{fill:#fff;}</style></defs><title>wat-op-maat</title><path class="cls-1" d="M46.385,45.134a5.825,5.825,0,0,0-3.329-3.264,6.679,6.679,0,0,0-4.583.277,17.909,17.909,0,0,0-.568-6.853c-.008-.045-.878-4.377-6.511-4.041-4.811.291-6.107,6.656-6.406,8.773l-.6-.867a129.046,129.046,0,0,1-6.111-20.079c-2.257-10.708-4.543-11.7-4.8-11.773a.235.235,0,0,0-.26.106c-.049-.086-.1-.178-.146-.253-.5-.77-2.154-.817-3.378-.38-.963.345-1.478.917-1.414,1.573,0,.062.009.308.045.671a.237.237,0,0,0-.233.131c-.054.124-1.288,3.211,1.817,18.671C13,43.19,13.532,46.1,13.534,46.1l.5,9.8a.25.25,0,0,0,.25.237H14.3a.251.251,0,0,0,.237-.263l-.5-9.829c-.005-.027-.536-2.925-3.626-18.311C7.988,15.7,8.233,11.217,8.444,9.859a8.141,8.141,0,0,0,1.593,3.811,2.238,2.238,0,0,0,2.374.689,2.6,2.6,0,0,0,2.123-2.568,11.61,11.61,0,0,0-1.077-3.927c.5.366,2.432,2.3,4.332,11.32A128.383,128.383,0,0,0,23.953,39.4l1,1.458a.25.25,0,0,0,.455-.12c.008-.087.792-8.667,6.016-8.981s5.96,3.469,6,3.667a19.69,19.69,0,0,1-.007,10.109.251.251,0,0,0,.185.3.24.24,0,0,0,.059.007.25.25,0,0,0,.243-.191,23.773,23.773,0,0,0,.514-2.93h0a6.43,6.43,0,0,1,4.473-.373,5.35,5.35,0,0,1,3.041,3.006,11.47,11.47,0,0,1,.892,4.693.25.25,0,0,0,.246.254h0a.25.25,0,0,0,.25-.246A11.768,11.768,0,0,0,46.385,45.134ZM9.866,7.251A4.42,4.42,0,0,1,11.317,7a1.659,1.659,0,0,1,1.34.433,5.931,5.931,0,0,1,.392.738,3.273,3.273,0,0,0-2.428-.343A3.443,3.443,0,0,0,8.846,9.122c-.055-.471-.062-.778-.062-.787V8.312C8.717,7.71,9.6,7.348,9.866,7.251Zm2.4,6.63a1.736,1.736,0,0,1-1.844-.535A7.676,7.676,0,0,1,8.945,9.8a.243.243,0,0,0,.121-.1,3.143,3.143,0,0,1,1.7-1.384,2.886,2.886,0,0,1,2.251.4.237.237,0,0,0,.253-.025,10.61,10.61,0,0,1,.767,3.121C14.058,12.81,13.462,13.509,12.263,13.881Z"/><path class="cls-1" d="M10.992,19.963a.251.251,0,0,0,.082-.014l2.417-.833a.25.25,0,0,0-.163-.473l-2.417.833a.25.25,0,0,0,.082.486Z"/><path class="cls-1" d="M13.33,19.81a.25.25,0,0,0,.079.487.248.248,0,0,0,.079-.013l2.25-.75a.25.25,0,0,0-.158-.475Z"/><path class="cls-1" d="M9.272,18.625a.25.25,0,0,0,.339.1c.049-.026,4.893-2.626,6.943-.3a.25.25,0,0,0,.375-.331c-2.314-2.618-7.344.08-7.557.2A.249.249,0,0,0,9.272,18.625Z"/><path class="cls-1" d="M11.825,30.838a.25.25,0,0,0,.19-.088,7.318,7.318,0,0,1,6.438-2.081.254.254,0,0,0,.286-.208.25.25,0,0,0-.208-.286,7.686,7.686,0,0,0-6.9,2.25.249.249,0,0,0,.027.352A.247.247,0,0,0,11.825,30.838Z"/><path class="cls-1" d="M12.367,32.3a.233.233,0,0,0,.068-.01l1.917-.543a.25.25,0,1,0-.136-.48l-1.917.543a.25.25,0,0,0,.068.49Z"/><path class="cls-1" d="M17.31,29.983l-1.75.75a.25.25,0,1,0,.2.459l1.75-.75a.25.25,0,1,0-.2-.459Z"/><path class="cls-1" d="M18.325,32.8c-2.212,1.979-4.025,1.539-4.926,1.086A9.035,9.035,0,0,0,16.883,32.5a.25.25,0,0,0-.283-.412,8.025,8.025,0,0,1-3.973,1.331.236.236,0,0,0-.242.155.25.25,0,0,0,.064.28,4.176,4.176,0,0,0,2.593.9,5.409,5.409,0,0,0,3.616-1.586.25.25,0,1,0-.333-.373Z"/><path class="cls-1" d="M15.4,36.6a.25.25,0,0,0-.2-.294l-2.292-.458a.255.255,0,0,0-.294.2.25.25,0,0,0,.2.294l2.292.458a.281.281,0,0,0,.049,0A.25.25,0,0,0,15.4,36.6Z"/><path class="cls-1" d="M14.58,38.134l-1.125-.209a.25.25,0,0,0-.092.492l1.125.209a.25.25,0,0,0,.092-.492Z"/><path class="cls-1" d="M32.808,50.928c-2.316-1.084-5.313.605-5.44.678a.25.25,0,1,0,.248.434c.029-.017,2.9-1.633,4.981-.658a4.16,4.16,0,0,1,2.065,3.333.25.25,0,0,0,.246.207.22.22,0,0,0,.043,0,.25.25,0,0,0,.2-.289C34.828,52.75,34.039,51.505,32.808,50.928Z"/><path class="cls-1" d="M42.948,53.086a5.939,5.939,0,0,0-4.077,1.4.25.25,0,1,0,.326.379,5.572,5.572,0,0,1,3.7-1.277,3.82,3.82,0,0,1,2.646,1.734.251.251,0,0,0,.2.1.256.256,0,0,0,.146-.047.252.252,0,0,0,.057-.35A4.3,4.3,0,0,0,42.948,53.086Z"/><path class="cls-1" d="M23.4,42.711A8.619,8.619,0,0,1,19.647,45.9a.25.25,0,0,0,.189.463,9,9,0,0,0,4-3.4.25.25,0,0,0-.431-.254Z"/><path class="cls-1" d="M15.541,51.58a.25.25,0,0,0-.236.263l.333,6.327a.25.25,0,0,0,.25.237H15.9a.25.25,0,0,0,.236-.263L15.8,51.817A.258.258,0,0,0,15.541,51.58Z"/><path class="cls-1" d="M28.541,49.251a.251.251,0,0,0-.344-.086l-1.875,1.125a.25.25,0,0,0,.129.465.259.259,0,0,0,.129-.035L28.455,49.6A.252.252,0,0,0,28.541,49.251Z"/><path class="cls-1" d="M36.75,42.554a.257.257,0,0,0-.295.2l-.75,3.706a.25.25,0,0,0,.2.295.287.287,0,0,0,.05,0,.25.25,0,0,0,.245-.2l.75-3.706A.25.25,0,0,0,36.75,42.554Z"/><path class="cls-1" d="M22.013,38.421a.243.243,0,0,0,.1-.02.251.251,0,0,0,.133-.328l-.687-1.625a.25.25,0,0,0-.461.2l.688,1.625A.251.251,0,0,0,22.013,38.421Z"/><path class="cls-1" d="M29.807,32.694a.249.249,0,0,0-.23.268.241.241,0,0,0,.268.23c.041,0,4.1-.292,5.386.757a.25.25,0,0,0,.316-.387C34.111,32.388,29.982,32.68,29.807,32.694Z"/><path class="cls-1" d="M43.888,45.24a.25.25,0,0,0,.5,0c0-1.725-3.336-2.045-3.478-2.058a.237.237,0,0,0-.271.227.25.25,0,0,0,.227.271C41.707,43.756,43.888,44.184,43.888,45.24Z"/><path class="cls-1" d="M12.779,14.915c.066-.016,1.619-.4,1.992-1.518a.25.25,0,1,0-.475-.158c-.285.854-1.62,1.187-1.634,1.19a.25.25,0,0,0,.059.493A.239.239,0,0,0,12.779,14.915Z"/><path class="cls-1" d="M11.36,38.947a.25.25,0,0,0-.2.292l.96,5.143a.25.25,0,1,0,.491-.092l-.96-5.143A.249.249,0,0,0,11.36,38.947Z"/><path class="cls-1" d="M26.451,45.838a.25.25,0,0,0,.25-.25V43.431a.289.289,0,0,0,0-.051h.8a.25.25,0,0,0,.131-.463l-.938-.574a19.37,19.37,0,0,1,.942-4.451.25.25,0,0,0-.477-.148c-.047.149-1.142,3.672-.945,4.793a.249.249,0,0,0,.115.17l.284.174h-.746a.25.25,0,0,0-.113.473l.456.231v2A.25.25,0,0,0,26.451,45.838Z"/><path class="cls-1" d="M7.753,21.686A10.909,10.909,0,1,1,19.5,18.715a.25.25,0,1,0,.371.335A11.4,11.4,0,1,0,7.585,22.157a.242.242,0,0,0,.084.015.25.25,0,0,0,.084-.485Z"/><path class="cls-1" d="M17.625,14.224a.249.249,0,0,0,.33-.128A7,7,0,1,0,4.548,11.28,7.028,7.028,0,0,0,7.4,16.92a.245.245,0,0,0,.148.049.25.25,0,0,0,.148-.451A6.5,6.5,0,1,1,18.044,11.28a6.442,6.442,0,0,1-.548,2.615A.25.25,0,0,0,17.625,14.224Z"/></svg>