<svg id="Layer_1" data-name="Layer 1" xmlns="http://www.w3.org/2000/svg" viewBox="0 0 45.598 47.569"><defs><style>.cls-1{fill:#fff;}</style></defs><title>de-investering</title><path class="cls-1" d="M40.04,15.033C34.579,8.561,36.481,2.625,36.5,2.565a.251.251,0,0,0-.081-.275,2.38,2.38,0,0,0-1.157-.372,6.814,6.814,0,0,0-3.465.5A23.714,23.714,0,0,0,29.14,3.727c-.955.548-1.723.7-2.163.438A.842.842,0,0,1,26.6,3.41a3.372,3.372,0,0,1,.056-.444c.181-1.078.09-2.027-2.874-2.724a10.305,10.305,0,0,0-6.749.852c-.269.13-6.6,3.207-9.345,5.535C5.131,8.795,3.735,8.067,3.724,8.061a.237.237,0,0,0-.224,0L3.358,7.7a2.03,2.03,0,1,0-1.317.495c.04,0,.077-.01.117-.012,0,.021-.009.041,0,.062L17.574,47.411a.249.249,0,0,0,.232.158.253.253,0,0,0,.092-.018.25.25,0,0,0,.141-.324L2.636,8.1a2.016,2.016,0,0,0,.3-.114L17.365,45.242a.249.249,0,0,0,.233.16.266.266,0,0,0,.09-.017.249.249,0,0,0,.143-.323l-7.243-18.7c.061,0,.123,0,.184,0a7.181,7.181,0,0,0,1.4-.153l.007,0c.006,0,.01-.007.016-.007a10.026,10.026,0,0,0,3.237-1.3,69.142,69.142,0,0,1,9.721-5.028c.921-.383,1.6-.426,2.031-.126a1.884,1.884,0,0,1,.54,1.55,7.473,7.473,0,0,0,.308,3.265.945.945,0,0,0,.568.559c1.336.529,4.465-1,4.8-1.164l2.219-.917a13.863,13.863,0,0,1,4.31-1.063c3.929-.282,5.2,1.341,5.216,1.355a.25.25,0,0,0,.451-.124C45.611,23.07,45.572,21.59,40.04,15.033ZM.5,6.152A1.542,1.542,0,1,1,2.967,7.377h0l-.005,0a1.526,1.526,0,0,1-.919.312A1.544,1.544,0,0,1,.5,6.152Zm7,1.262A15.721,15.721,0,0,1,9.539,9.468a9.912,9.912,0,0,1-1.512,1.063A16.221,16.221,0,0,0,6.118,8.254,7.689,7.689,0,0,0,7.5,7.414ZM5.61,8.46a15.891,15.891,0,0,1,1.97,2.32,13.994,13.994,0,0,1-1.274.6A25.031,25.031,0,0,0,4.29,8.685,3.7,3.7,0,0,0,5.61,8.46ZM8.66,21.385,3.845,8.956C8.963,14.911,8.82,20.006,8.66,21.385Zm1.825,4.475c-.031,0-.052.021-.08.031l-.3-.766a16.239,16.239,0,0,0,2.64-.734,3.339,3.339,0,0,1-.705,1.344A6.379,6.379,0,0,1,10.485,25.86ZM24.96,19.421a69.622,69.622,0,0,0-9.793,5.065,9.659,9.659,0,0,1-2.375,1.068,4.6,4.6,0,0,0,.529-1.389,9.371,9.371,0,0,0,2.91-1.835.25.25,0,0,0-.351-.357,8.5,8.5,0,0,1-2.456,1.593,11.571,11.571,0,0,0-.187-3.553.246.246,0,0,0-.3-.188.25.25,0,0,0-.188.3,11.053,11.053,0,0,1,.136,3.67,16.054,16.054,0,0,1-2.962.854l-1.01-2.607a.234.234,0,0,0,.177-.168c.049-.213.935-4.436-2.522-10.063a13.944,13.944,0,0,0,1.295-.61,12.081,12.081,0,0,1,1.821,4.314.25.25,0,0,0,.491-.092,12.559,12.559,0,0,0-1.867-4.472A10.313,10.313,0,0,0,9.837,9.877a2.8,2.8,0,0,1,.513,1.093.25.25,0,0,0,.247.216l.035,0a.25.25,0,0,0,.213-.282,3.377,3.377,0,0,0-.636-1.369,4.675,4.675,0,0,0,1.21-1.844.25.25,0,1,0-.476-.153A4.113,4.113,0,0,1,9.9,9.127,16.212,16.212,0,0,0,7.9,7.1c.038-.031.073-.056.112-.088,2.694-2.286,9.174-5.434,9.25-5.471a9.987,9.987,0,0,1,6.406-.81c2.749.647,2.625,1.379,2.495,2.155a4.278,4.278,0,0,0-.058.47h0c-.1.492-2.2,11.449.578,15.739A3.621,3.621,0,0,0,24.96,19.421ZM39.9,21.487a14.362,14.362,0,0,0-4.466,1.1l-2.234.924c-.9.448-3.457,1.53-4.413,1.153A.452.452,0,0,1,28.5,24.4a4.461,4.461,0,0,1-.158-.5c.07.005.148.009.241.009a6.712,6.712,0,0,0,4.088-1.723.25.25,0,1,0-.311-.392c-2.165,1.718-3.736,1.641-4.11,1.592a12.256,12.256,0,0,1-.027-2.051,2.426,2.426,0,0,0-.629-1.875c0-.005,0-.013-.007-.017-2.868-2.9-1.63-12.148-1.151-15.084a1.212,1.212,0,0,0,.284.24c.426.256,1.234.389,2.67-.434a23.079,23.079,0,0,1,2.6-1.283,6.334,6.334,0,0,1,2.843-.485c-.4.885-1.224,3.4-.145,7.654a.249.249,0,0,0,.242.188.242.242,0,0,0,.062-.008.25.25,0,0,0,.181-.3c-1.118-4.4-.1-6.892.193-7.484a2.465,2.465,0,0,1,.605.161c-.288,1.1-1.4,6.724,3.685,12.754,3.415,4.047,4.687,6.1,5.161,7.061A7.967,7.967,0,0,0,39.9,21.487Z"/><path class="cls-1" d="M25.236,3.858a.249.249,0,0,0-.221-.073,6.762,6.762,0,0,0-1.271.329,6.2,6.2,0,0,0-1.926,1.143c-.007.006-.017,0-.023.01s0,.013-.008.019a5.337,5.337,0,0,0-.844.932l-.005,0,0,.01a4.726,4.726,0,0,0-.609,1.218.24.24,0,0,0-.022.073,4.329,4.329,0,0,0-.185,1.662.219.219,0,0,0,.01.105c.014.128.012.256.037.385.449,2.271,2.437,2.371,3.888,2.443h.013a.25.25,0,0,0,.25-.244c.021-.791.075-1.633.162-2.5a.249.249,0,0,0-.229-.274c-.576-.046-.828-.2-.9-.539A1.449,1.449,0,0,1,24.38,6.924c.053-.02.1-.034.154-.048l.127-.037a.251.251,0,0,0,.17-.2c.136-.855.294-1.716.469-2.558A.249.249,0,0,0,25.236,3.858Zm-1.32.725c.092-.034.195-.054.289-.083l.426.427q-.083.437-.159.876L23.461,4.79C23.612,4.72,23.755,4.642,23.916,4.583ZM22.9,7.826,21.448,6.378a4.824,4.824,0,0,1,.52-.583L23.274,7.1A1.883,1.883,0,0,0,22.9,7.826ZM20.78,10.008l1.3,1.3A2.029,2.029,0,0,1,20.78,10.008Zm2.2,1.512c-.006-.007,0-.018-.01-.024L20.611,9.132a3.831,3.831,0,0,1,.065-1.138l3.118,3.118c.016.016.039.013.058.024-.007.152-.025.317-.03.467C23.528,11.585,23.251,11.557,22.985,11.52Zm.969-1.955c-.03.324-.04.625-.061.939L20.845,7.456a4.215,4.215,0,0,1,.317-.656l1.556,1.556a.235.235,0,0,0,.118.049,1.82,1.82,0,0,0,.025.248A1.172,1.172,0,0,0,23.955,9.565Zm.252-3.11a2.306,2.306,0,0,0-.564.307l-1.3-1.3a5.565,5.565,0,0,1,.65-.433L24.364,6.4v0C24.312,6.419,24.26,6.435,24.207,6.455Z"/><path class="cls-1" d="M24.166,14.73a4.45,4.45,0,0,1-2.693-.5.25.25,0,0,0-.383.257l.464,2.344a.251.251,0,0,0,.105.159,4.577,4.577,0,0,0,2.427.608,6.127,6.127,0,0,0,.664-.037.25.25,0,0,0,.208-.335,10.316,10.316,0,0,1-.52-2.279A.255.255,0,0,0,24.166,14.73ZM23.2,17.006l.922-.922c.036.172.079.332.121.494l0,0-.493.493A4.877,4.877,0,0,1,23.2,17.006Zm-1.385-1.424.423-.423c.021-.021.02-.051.032-.077.147.039.306.073.481.1l-.848.848Zm-.048-.659-.069.069-.02-.1C21.7,14.9,21.74,14.912,21.767,14.923Zm.254,1.7L23.4,15.245a5.549,5.549,0,0,0,.576,0c.012.085.03.161.044.244L24,15.5,22.63,16.87a4,4,0,0,1-.608-.244Z"/><path class="cls-1" d="M27.159,8.769a3.63,3.63,0,0,1,.875.1.25.25,0,0,0,.306-.32l-.752-2.229a.253.253,0,0,0-.264-.168.25.25,0,0,0-.222.221c-.08.729-.145,1.447-.191,2.133a.251.251,0,0,0,.248.267Zm.326-1.192.246.728q-.134-.017-.3-.027Q27.454,7.932,27.485,7.577Z"/><path class="cls-1" d="M27.069,11.436h-.013a.232.232,0,0,0-.1.045c-.022.012-.049.009-.068.028l0,0a.249.249,0,0,0-.049.118c0,.02-.022.036-.022.057v0c.011.7.056,1.359.116,1.984a.221.221,0,0,0,0,.045c.021.217.037.443.065.649a.25.25,0,0,0,.173.205.528.528,0,0,1,.372.362,1.322,1.322,0,0,1-.138,1.119.251.251,0,0,0-.026.2,6.166,6.166,0,0,0,1.145,2.315.249.249,0,0,0,.17.087h.02a.249.249,0,0,0,.162-.06,4.8,4.8,0,0,0,1.683-5.184C29.94,11.556,28.446,11.366,27.069,11.436Zm2.947,4.74-2.59-2.59q-.058-.61-.085-1.274l2.9,2.9.009,0A4.09,4.09,0,0,1,30.016,16.176ZM29.472,17.2l-1.418-1.418a1.765,1.765,0,0,0,0-.862L29.8,16.665A4.79,4.79,0,0,1,29.472,17.2Zm.62-3.632a3.718,3.718,0,0,1,.179.964l-2.606-2.606A2.277,2.277,0,0,1,30.092,13.57Zm-1.34,4.471a5.805,5.805,0,0,1-.786-1.638l1.2,1.2A5.483,5.483,0,0,1,28.752,18.042Z"/></svg>