<svg id="Layer_1" data-name="Layer 1" xmlns="http://www.w3.org/2000/svg" viewBox="0 0 60.797 24.042"><defs><style>.cls-1{fill:#fff;}</style></defs><title>distributie</title><path class="cls-1" d="M2.7,9.506,1.427,9.8.35,9.329a.25.25,0,0,0-.2.459l1.153.5a.251.251,0,0,0,.1.021.24.24,0,0,0,.056-.006l1.354-.309A.25.25,0,1,0,2.7,9.506Z"/><path class="cls-1" d="M60.646,17.04l-1.3-.563V8.635a4.92,4.92,0,0,0,.9-2.918c0-2.28-1.382-4.135-3.072-4.135L14.79.144,2.626,0h0C2.6,0,2.592.016,2.574.02A.5.5,0,0,0,2.483,0C1.959,0,1.689.749,1.6,1.505H1.186c-.333,0-.594.35-.594.8A.843.843,0,0,0,.9,2.99L.919,9.409a.251.251,0,0,0,.138.223,1.177,1.177,0,0,0,.485.116.7.7,0,0,0,.438-.142.25.25,0,0,0,.1-.2L2.063,4.027a.606.606,0,0,0,.328.2c.01,0,.015.016.026.019l27.843,7.7v10.14l-1.7.413a.25.25,0,0,0-.041.473l2.426,1.053a.251.251,0,0,0,.1.021.27.27,0,0,0,.056-.006l2.852-.65a.25.25,0,0,0,.043-.474l-1.845-.8v-9.65l.217.06.015,0,.021.006a.259.259,0,0,0,.066.009h0a1.95,1.95,0,0,0,.512.082h0l.028,0L57.163,9.853a2.326,2.326,0,0,0,.67-.1v6.7l-1.189.289a.25.25,0,0,0-.041.473l1.768.767a.249.249,0,0,0,.1.021.27.27,0,0,0,.056-.006l2.077-.474a.25.25,0,0,0,.044-.474ZM33.008,12.122l-.034,0a1.461,1.461,0,0,1-.448-.074l-.013,0a1.785,1.785,0,0,1-.367-.185V8.854h.984a.251.251,0,0,0,.2-.1,1.922,1.922,0,0,0-.185-2.624.249.249,0,0,0-.168-.065h-2.4c-.014,0-.027.005-.041.006.351-1.842,1.346-3.158,2.439-3.158,1.423,0,2.581,2.067,2.581,4.608C35.562,10.043,34.418,12.1,33.008,12.122ZM32.357,7.27a.25.25,0,0,0-.25.25,1.478,1.478,0,0,1-.327.835h-.445a1.889,1.889,0,0,0-.005-1.791h1.546A1.416,1.416,0,0,1,33,8.354H32.37a1.752,1.752,0,0,0,.237-.835A.25.25,0,0,0,32.357,7.27Zm-1.3.194c0,.5-.235.867-.453.891h-.022l-.011,0c-.221-.012-.464-.389-.464-.9s.25-.9.475-.9S31.058,6.948,31.058,7.463Zm-.3,1.391h.887V22.6a1.211,1.211,0,0,1-.887-.03Zm-.769-2.578c0,.021.012.037.014.057a1.641,1.641,0,0,0-.4,1.129,1.676,1.676,0,0,0,.353,1.078c.03.252.1.485.149.726l-5.383.151a5.085,5.085,0,0,0,.959-2.855h2.421a.25.25,0,0,0,0-.5h-2.4c0-.053.007-.1.007-.157a5.267,5.267,0,0,0-1.133-3.67l7.223.571A5.045,5.045,0,0,0,29.991,6.277ZM23.77,2.368c.685,0,1.449,1.454,1.449,3.539s-.763,3.538-1.448,3.539h0c-.685,0-1.449-1.454-1.449-3.539S23.084,2.368,23.77,2.368ZM21.82,5.907a5.768,5.768,0,0,0,.926,3.441L18.923,8.29h2.668a.25.25,0,0,0,0-.5H18.279A4.86,4.86,0,0,0,19.073,5h1.4a.25.25,0,0,0,0-.5h-1.4a4.958,4.958,0,0,0-.763-2.757l4.79.379C22.348,2.675,21.82,4.134,21.82,5.907Zm-4.413-4.2c.557,0,1.177,1.25,1.177,3.042s-.62,3.042-1.177,3.042-1.177-1.25-1.177-3.042S16.851,1.706,17.408,1.706ZM15.731,4.748a5.468,5.468,0,0,0,.662,2.842l-1.719-.475H15.5a.25.25,0,0,0,0-.5h-1.6a4.344,4.344,0,0,0,.638-2.328h.615a.25.25,0,1,0,0-.5h-.615a4.138,4.138,0,0,0-.7-2.4l2.783.22A4.808,4.808,0,0,0,15.731,4.748ZM4.393.775c.118,0,.46.595.46,1.729s-.342,1.729-.46,1.729-.46-.595-.46-1.729S4.275.775,4.393.775ZM5.542,4.233H5.023a3.79,3.79,0,0,0,.322-1.479h.2a.25.25,0,0,0,0-.5h-.2A3.6,3.6,0,0,0,4.979.687l1.307.1A4.329,4.329,0,0,0,5.834,2.9,4.884,4.884,0,0,0,6.16,4.76l-.433-.12a.244.244,0,0,0,.065-.157A.25.25,0,0,0,5.542,4.233ZM9.6,5.538c-.407,0-.862-.937-.862-2.19s.455-2.19.862-2.19.862.937.862,2.19S10,5.538,9.6,5.538ZM8.274,2.711a.242.242,0,0,0-.148-.061H7.969A4.322,4.322,0,0,0,7.583.893L8.926,1A3.069,3.069,0,0,0,8.274,2.711ZM6.906,4.939c-.171,0-.572-.694-.572-2.04s.4-2.04.572-2.04.572.694.572,2.04S7.077,4.939,6.906,4.939Zm1.22,0H7.568a4.261,4.261,0,0,0,.4-1.79h.157a.236.236,0,0,0,.121-.05c0,.083-.012.163-.012.248a3.98,3.98,0,0,0,.52,2.13l-.447-.124a.246.246,0,0,0,.068-.165A.25.25,0,0,0,8.126,4.939Zm4.006,1.472-1.353-.374h.85a.244.244,0,0,0,.237-.218A3.1,3.1,0,0,0,12.132,6.412Zm.949-4.952c.46,0,.976,1.1.976,2.577s-.515,2.578-.976,2.578-.975-1.1-.975-2.578S12.62,1.46,13.081,1.46ZM11.606,4.037a5.945,5.945,0,0,0,.2,1.586.243.243,0,0,0-.182-.085H10.4a3.72,3.72,0,0,0,.545-1.94h.222a.25.25,0,0,0,0-.5h-.222a3.665,3.665,0,0,0-.572-1.984l2.047.162A4.066,4.066,0,0,0,11.606,4.037ZM1.2,2.594H1.19a.377.377,0,0,1-.1-.292A.487.487,0,0,1,1.177,2a.375.375,0,0,1,.1.3A.486.486,0,0,1,1.2,2.594Zm.613,0H1.737a1.021,1.021,0,0,0,0-.588h.478a.523.523,0,0,1,.045.588ZM1.418,9.231,1.4,3.094H1.56l.017,6.151A.481.481,0,0,1,1.418,9.231Zm.751-6.138H2.4a.251.251,0,0,0,.2-.1A1.042,1.042,0,0,0,2.492,1.57a.249.249,0,0,0-.168-.065H2.109C2.2.839,2.4.51,2.483.5c.124.015.424.6.424,1.626s-.3,1.611-.423,1.626C2.434,3.747,2.28,3.555,2.169,3.094Zm1.1.659H3.1a3.9,3.9,0,0,0,.307-1.626A3.985,3.985,0,0,0,3.119.54L3.871.6a3.591,3.591,0,0,0-.439,1.9,4.415,4.415,0,0,0,.259,1.574l-.169-.047V4A.25.25,0,0,0,3.274,3.753ZM24.805,9.917l5.408-.152c0,.012,0,.027.008.039s.027.036.04.056v1.566Zm8.287,13.151-2.026.462L29.4,22.807l.861-.208v.141a.25.25,0,0,0,.138.224,2.235,2.235,0,0,0,.9.213,1.207,1.207,0,0,0,.753-.238.253.253,0,0,0,.1-.2v-.079ZM57.134,9.354l-22.626,2.6a6.023,6.023,0,0,0,1.54-4.2L48.829,6.7a.249.249,0,0,0,.229-.27.256.256,0,0,0-.27-.229L36.046,7.25a5.722,5.722,0,0,0-1.764-4.362L40.6,2.754a.25.25,0,0,0,0-.5h0l-7.455.158L10.068.588l4.71.056L57.163,2.083c1.423,0,2.581,1.63,2.581,3.635S58.586,9.353,57.134,9.354Zm1.709-.179v7.657a.82.82,0,0,1-.511-.026V9.539A2.918,2.918,0,0,0,58.843,9.175Zm-.35,8.306-1.009-.437.348-.084v.017a.25.25,0,0,0,.139.224,1.693,1.693,0,0,0,.686.162.946.946,0,0,0,.589-.187.247.247,0,0,0,.079-.161l.421.181Z"/></svg>