<svg id="Layer_1" data-name="Layer 1" xmlns="http://www.w3.org/2000/svg" viewBox="0 0 74.468 54.745"><defs><style>.cls-1{fill:#fff;}</style></defs><title>leren-met-philpaper</title><path class="cls-1" d="M49.776,41.218l1.75-.187a.253.253,0,0,0,.163-.086l1.188-1.375a.25.25,0,1,0-.379-.326l-1.123,1.3-1.651.177a.25.25,0,0,0,.026.5Z"/><path class="cls-1" d="M61.888,27.149l2.469-3.343a.25.25,0,0,0-.4-.3l-2.469,3.343a.25.25,0,0,0,.4.3Z"/><path class="cls-1" d="M54.216,52.585a.244.244,0,0,0,.064.009.25.25,0,0,0,.064-.491l-2.094-.562a.25.25,0,0,0-.129.482Z"/><path class="cls-1" d="M61.635,42.8l-3,4.5a.25.25,0,1,0,.416.277l3-4.5a.25.25,0,0,0-.416-.277Z"/><path class="cls-1" d="M25.089,43.951a1.048,1.048,0,0,1,.892-.287c.489.083,1.245.578,2.071,2.468a.25.25,0,0,0,.229.149.259.259,0,0,0,.1-.021.251.251,0,0,0,.129-.33c-.735-1.681-1.558-2.608-2.445-2.76a1.563,1.563,0,0,0-1.342.44.25.25,0,1,0,.366.34Z"/><path class="cls-1" d="M3.163,35.979a.25.25,0,0,0-.139.48l6.7,1.938a.243.243,0,0,0,.069.01.25.25,0,0,0,.069-.49Z"/><path class="cls-1" d="M74.446,27.3a.252.252,0,0,0-.188-.144l-1.187-.187a.258.258,0,0,0-.18.044l-.5-1.259h0l0,0a.239.239,0,0,0-.154-.137c-.005,0-.007-.01-.012-.011L69.677,24.9l2.345-3.605a.25.25,0,0,0-.179-.384l-1.952-.244L71.3,18.578a.25.25,0,0,0-.207-.39H69.769l.962-1.288a.249.249,0,0,0,.025-.257l-.969-2.031a.234.234,0,0,0-.058-.061c-.01-.01-.009-.026-.021-.034s-.01,0-.015,0a.252.252,0,0,0-.167-.041l-2.277.327,1.414-1.766a.25.25,0,0,0-.261-.4c-15.377,4.159-19.719,6-20.848,6.583-.419-2.157-4.078-6.291-4.248-6.481L31.527.08a.248.248,0,0,0-.343-.021L6.371,20.778a.25.25,0,0,0-.024.36l1.017,1.113-4.6,4.38a.25.25,0,0,0,.033.388l.007,0c-.014.009-.032.006-.044.018l-.531.531a.25.25,0,0,0,.044.389l3.869,2.419L1.972,34.957a.243.243,0,0,0-.043.081c0,.007-.01.009-.013.016v.007l-.005.01-.375,1.688a.251.251,0,0,0,.181.3l.727.19L1.331,38.269a.25.25,0,0,0,.118.43L20.355,42.62a.3.3,0,0,0,.051,0,.25.25,0,0,0,.05-.5L2.028,38.308l.8-.733a.234.234,0,0,0,.066-.212L24.53,43.024a.286.286,0,0,0,.063.008.25.25,0,0,0,.063-.492L2.077,36.632l.265-1.191L17.366,39.9a.228.228,0,0,0,.071.011.25.25,0,0,0,.071-.489L2.609,35l3.919-4.3c.016-.018.013-.042.023-.063L24.961,42.15a.251.251,0,0,0,.132.038.246.246,0,0,0,.149-.059l.023.016a.24.24,0,0,0,.265.006l.815.893a.251.251,0,0,0,.369,0L38.2,30.477l7.516-8.624,1.793-2.04c.25-.167,2.98-1.791,20.282-6.5-2.434,3.039-6,7.5-6.077,7.69-.052.089-.648.936-1.4,2.008-4.916,6.976-9.5,13.574-10.04,15.045-2.075.35-12.528,2.133-18.689,3.529l1.248-1.223a.25.25,0,0,0-.35-.357l-1.834,1.8c-.586.139-1.114.273-1.58.4L31.9,39.171a.25.25,0,0,0-.365-.342l-3.412,3.656a3.3,3.3,0,0,0-1.051.464.25.25,0,1,0,.354.354,2.7,2.7,0,0,1,.854-.369h0c3.223-1.024,14.485-3.1,22.227-4.4a.249.249,0,0,0,.208-.222c.091-.937,7.552-11.523,10-15,1.318-1.872,1.419-2.018,1.436-2.06.133-.219,2.434-3.117,4.637-5.875l2.221-.319L51.142,39.735,37.219,41.5a.25.25,0,0,0,.031.5l.032,0,14.031-1.781a.251.251,0,0,0,.171-.1L69.517,15.207l.216.453-1.075,1.172a.25.25,0,0,0,.016.353.247.247,0,0,0,.169.066.251.251,0,0,0,.185-.081l.938-1.023.274.575L51.9,41.293,27.508,43.532a.25.25,0,0,0,.022.5h.023l24.5-2.25a.25.25,0,0,0,.178-.1L69.406,18.675c.012,0,.02.013.032.013h1.185L53.274,44.373,28.066,44h0a.25.25,0,0,0,0,.5l25.343.375h0a.248.248,0,0,0,.207-.11L69.577,21.13l1.807.226L54.249,47.7,28.467,44.6a.258.258,0,0,0-.278.218.25.25,0,0,0,.218.278l.276.033a.237.237,0,0,0-.145.159.251.251,0,0,0,.183.3l26.152,6.406.437,1.166L29.285,45.946a.25.25,0,0,0-.134.482l26.5,7.344a.257.257,0,0,0,.032,0l.007,0,.028,0a.245.245,0,0,0,.134-.045.227.227,0,0,0,.032-.029.237.237,0,0,0,.042-.038L73.082,27.794a.246.246,0,0,0,.024-.229l-.034-.086.732.115-16.6,26.517c-1.315.488-4.414-.465-4.45-.476L29.232,47c-4.49-.236-5.4-2.666-5.433-2.77a.252.252,0,0,0-.189-.163c-.188-.036-18.83-3.63-20.863-4.123A3.841,3.841,0,0,1,.624,38.837L1,38.685a.25.25,0,1,0-.187-.463l-.656.266a.249.249,0,0,0-.139.321c.017.045.447,1.1,2.611,1.622,1.954.474,19.069,3.776,20.755,4.1.265.58,1.531,2.74,5.768,2.958l23.462,6.623a14.511,14.511,0,0,0,3.6.632,3.256,3.256,0,0,0,1.256-.2.254.254,0,0,0,.113-.1L74.43,27.539A.248.248,0,0,0,74.446,27.3ZM7.7,22.621,24.512,41.035,3.335,26.779Zm-4.9,5.084.309-.31a.237.237,0,0,0,.053-.127L17.036,36.6Zm35.024,2.438-9.4,10.289L26.792,38.3a.25.25,0,0,0-.4.3l1.687,2.2-.751.822c-.006-.011,0-.025-.01-.036L24.445,38a.25.25,0,0,0-.391.313l2.875,3.594c.026.032.067.034.1.049l-.5.548L6.892,20.994,31.322.594,42.938,13.073c1.15,1.293,4.091,4.924,4.155,6.459ZM54.344,48.217l.03,0a.251.251,0,0,0,.21-.113l14.83-22.8c.027.022.045.053.081.063l2.263.627L54.951,51.5l-25.761-6.31Zm1.437,4.769-.44-1.173L72.1,26.383l.17.427c-.018.013-.043.013-.058.031L70.9,28.435a.25.25,0,0,0,.387.318l1.184-1.438.124.312Z"/><path class="cls-1" d="M32.845,8.118a.25.25,0,0,0-.377.328L42.186,19.6a.249.249,0,0,0,.188.086.246.246,0,0,0,.164-.062.249.249,0,0,0,.024-.353Z"/><path class="cls-1" d="M31.345,7.681a.25.25,0,0,0-.378.327L41.5,20.2a.25.25,0,0,0,.189.086.247.247,0,0,0,.163-.061.25.25,0,0,0,.026-.353Z"/><path class="cls-1" d="M29.968,8.928a.25.25,0,1,0-.373.333l10.687,12a.25.25,0,0,0,.373-.333Z"/><path class="cls-1" d="M28.253,10.557a.25.25,0,1,0-.381.324L38.528,23.413a.25.25,0,1,0,.381-.324Z"/><path class="cls-1" d="M25.6,13.121a.25.25,0,1,0-.383.321l10.75,12.813a.25.25,0,0,0,.383-.321Z"/><path class="cls-1" d="M47.414,21.928l13.219-3.906a.25.25,0,1,0-.143-.479L47.272,21.448a.25.25,0,0,0,.071.49A.262.262,0,0,0,47.414,21.928Z"/><path class="cls-1" d="M44.913,24.061a.249.249,0,0,0,.242.189.263.263,0,0,0,.061-.007l12.531-3.125a.25.25,0,0,0-.121-.485L45.1,23.758A.25.25,0,0,0,44.913,24.061Z"/><path class="cls-1" d="M43.195,26.155a.25.25,0,0,0,.242.189.263.263,0,0,0,.061-.007l9.094-2.281a.25.25,0,0,0,.182-.3.247.247,0,0,0-.3-.182l-9.094,2.281A.25.25,0,0,0,43.195,26.155Z"/></svg>