<svg id="Layer_1" data-name="Layer 1" xmlns="http://www.w3.org/2000/svg" viewBox="0 0 41.791 59.603"><defs><style>.cls-1{fill:#fff;}</style></defs><title>trends-in-de-markt</title><path class="cls-1" d="M41.614,3.011l-9.75-3a.254.254,0,0,0-.151,0L23.88,2.59c-.006,0-.007.009-.013.011l0,0a.213.213,0,0,0-.033.015c-.006,0-.014,0-.02.009s-.01.03-.021.042v0a.225.225,0,0,0-.054.067c0,.007-.012.01-.014.017s.006.028,0,.044-.015.018-.015.03V16.411a.25.25,0,0,0,.5,0V3.166l6.25,1.923V24.958a.25.25,0,0,0,.5,0V5.243l.5.154V27.257a.25.25,0,0,0,.5,0V5.55l.5.154V30.453a.25.25,0,0,0,.5,0V5.858l.5.154V33.728a.242.242,0,0,0,.065.157.214.214,0,0,0,.033.03c.014.012.023.028.04.037H33a.25.25,0,0,0-.232.158.247.247,0,0,0,.062.273l.708.666a.248.248,0,0,0,.353-.011.249.249,0,0,0-.011-.353l-.248-.234h1.035a.25.25,0,0,0,.111-.474l-.819-.406V10.017l2.618-.739c.005.322.011.662.018,1.034a.251.251,0,0,0,.25.246h0a.25.25,0,0,0,.245-.254c-.006-.354-.013-.752-.018-1.166l1.631-.46v3.068a.25.25,0,1,0,.5,0V8.535l.841-.237a.25.25,0,0,0-.137-.481l-.7.2v-.48l.841-.237a.25.25,0,0,0-.137-.481l-.7.2v-.48l.841-.237a.25.25,0,0,0-.137-.481l-.7.2v-.48l.841-.237a.25.25,0,0,0-.137-.481l-.7.2v-.48l.841-.237a.25.25,0,0,0-.137-.481l-6.2,1.751L24.782,2.819,31.794.512l9.5,2.922v45.3l-7.375,2.462V35.906a.25.25,0,0,0-.177-.239l-7.823-2.408V18.5a.25.25,0,0,0-.176-.239l-9.75-3a.252.252,0,0,0-.152,0L8,17.84c-.006,0-.007.008-.012.011a.239.239,0,0,0-.058.025c-.014.01-.01.03-.022.043a.217.217,0,0,0-.058.116c0,.016-.022.026-.022.043v5.584c0,.011.01.018.012.029L.172,26.215c-.006,0-.008.009-.013.011a.243.243,0,0,0-.057.025c-.014.01-.01.03-.022.043a.217.217,0,0,0-.058.116c0,.016-.022.026-.022.043v29.9a.251.251,0,0,0,.176.239l9.75,3A.275.275,0,0,0,10,59.6a.242.242,0,0,0,.078-.013l7.832-2.577h0l7.83-2.614h0l8-2.594a.241.241,0,0,0,.069-.05l7.808-2.607a.25.25,0,0,0,.171-.237V3.25A.249.249,0,0,0,41.614,3.011ZM38.706,8.156l-1.638.462q0-.239-.006-.478l1.643-.464Zm0-1-1.648.465q0-.245,0-.479l1.652-.466Zm-1.634-2c0-.007,0-.014,0-.021l1.631-.461v.48l-1.651.466C37.059,5.4,37.064,5.235,37.072,5.158Zm1.634.518v.48l-1.654.467c0-.169,0-.331,0-.48Zm-4.748.341,2.615-.738c-.01.122-.017.281-.021.486L33.958,6.5Zm0,1,2.587-.73c0,.144,0,.3,0,.48l-2.587.73Zm0,1,2.591-.732c0,.151,0,.308.005.479l-2.6.733Zm0,1,2.6-.735c0,.153,0,.311.007.478l-2.61.737Zm-24.208,50L.5,56.169V26.791l6.055,1.863a.238.238,0,0,0-.055.132V47.017L3.894,45.98a.25.25,0,1,0-.185.465L6.5,47.555v1.132a.25.25,0,0,0,.5,0v-.933l.5.2v3.033a.25.25,0,0,0,.5,0V48.152l.5.2v5.83a.25.25,0,0,0,.5,0V29.406l.75.231ZM7,47.216V28.791l.551.17a.237.237,0,0,0-.051.124v18.33Zm1,.4V29.1l.51.157c0,.009-.01.015-.01.025V47.813ZM17.583,56.6,10.25,59.008V33.641l5.771-1.63v1.264a.25.25,0,0,0,.5,0V31.681a.249.249,0,0,0-.1-.2.241.241,0,0,0-.219-.041L10.25,33.123v-.481l6.088-1.72a.25.25,0,1,0-.136-.48L10.25,32.123v-.481l6.088-1.72a.249.249,0,0,0,.182-.24v-2a.25.25,0,0,0-.318-.241L10,29.192,1.074,26.444l7.012-2.307,9.5,2.922ZM16.021,29.012v.48L10.25,31.123v-.481Zm-5.771,1.11v-.481l5.771-1.629v.48ZM25.417,53.981l-.726.242c0-.016.017-.026.017-.042V49.369a.25.25,0,0,0-.5,0v4.813a.248.248,0,0,0,.076.178l-1.2.4V52.744a.25.25,0,0,0-.5,0v2.125c0,.02.017.032.021.051l-4.521,1.509V26.875a.25.25,0,0,0-.176-.239L8.322,23.687c0-.01.011-.016.011-.026V18.416l9.25,2.846v3.717c0,.021.018.035.023.055a.232.232,0,0,0-.013.112.251.251,0,0,0,.309.173l5.953-1.681v2.815a.25.25,0,0,0,.5,0V19.307a.25.25,0,0,0-.318-.241l-6.2,1.751L8.907,18.069l7.012-2.307,9.5,2.922ZM23.854,20.637v.48l-5.771,1.629v-.48Zm-5.771,1.11v-.48l5.771-1.629v.48Zm5.771-.11v.48l-5.771,1.629v-.48Zm0,1v.48l-5.771,1.629v-.48ZM25.917,38.72l.994-.281v.481l-.994.281Zm0,1,.994-.281v.481l-.994.281Zm0,1,.994-.281v.481l-.994.281Zm0,1,.994-.281v.481l-.994.281Zm7.5,9.666-7.5,2.431V42.72l.994-.281V43.8a.25.25,0,0,0,.5,0V42.3l4.762-1.345a.25.25,0,1,0-.137-.48L27.41,41.779V41.3l4.762-1.345a.25.25,0,0,0-.137-.48L27.41,40.779V40.3l4.762-1.345a.25.25,0,1,0-.137-.48L27.41,39.779V39.3l4.762-1.345a.25.25,0,1,0-.137-.48L27.41,38.779V38.3l4.762-1.345a.249.249,0,0,0,.172-.309.246.246,0,0,0-.309-.172L25.917,38.2V33.783l7.5,2.308Z"/><path class="cls-1" d="M40.416,28.786V18.278a.25.25,0,0,0-.5,0V28.62l-.556.234a.25.25,0,0,0-.018.452l.547.285-.161.976v2a.25.25,0,0,0,.5,0l0-1.959.188-1.114a.248.248,0,0,0-.131-.263l-.236-.123.219-.092A.251.251,0,0,0,40.416,28.786Z"/></svg>