<svg id="Layer_1" data-name="Layer 1" xmlns="http://www.w3.org/2000/svg" viewBox="0 0 38.041 58.89"><defs><style>.cls-1{fill:#fff;}</style></defs><title>wanneer-kies-je-voor-philpaper</title><path class="cls-1" d="M37.919,7.827a.25.25,0,0,0-.343.087L31.088,18.8l-.563-1.5,4.022-6.755a.25.25,0,1,0-.43-.256L28.055,20.47h0L23.31,28.439l-.372-.148a1.946,1.946,0,0,0-1.292-.049,1.422,1.422,0,0,1-1.049-.077l-.1-.049a1.438,1.438,0,0,1-.811-1.207l-.13-2.132a1.934,1.934,0,0,0-.346-.991L18.8,23.2,30.46,4.675a.25.25,0,0,0-.424-.267L18.3,23.054c-.327.143-.934.47-2.113,1.105a2.465,2.465,0,0,1-2.062.392,1.02,1.02,0,0,1-.52-.592L29.456.39a.25.25,0,1,0-.414-.279l-15.9,23.657a.218.218,0,0,0-.017.026l-.022.033L.016,57.492a.248.248,0,0,0,0,.174c0,.013.018.019.024.031a.24.24,0,0,0,.077.1c.007,0,.014,0,.021.006s0,.008.009.01l1.823.822a2.863,2.863,0,0,0,2.5-.063l.974-.5A2.384,2.384,0,0,1,7.3,57.93a2.869,2.869,0,0,0,.927.153H13.2a.25.25,0,0,0,0-.5H8.226a2.393,2.393,0,0,1-.766-.126,2.893,2.893,0,0,0-2.245.165l-.973.5a2.366,2.366,0,0,1-2.066.054L.67,57.5l7.939-8.51,0,0L22.567,34.029c.006,0,.008-.01.014-.015l.05-.053L38.005,8.17A.25.25,0,0,0,37.919,7.827Zm-7.2,11.428a.238.238,0,0,0,.054.069l-1.8,3.022-.439-1.708L30.2,17.85Zm-7.071,9.587.087-.147-.24,2.574a.249.249,0,0,0,.054.177l-.618,1.037Zm.683-1.147.146-.245V29.6a.247.247,0,0,0,.07.168l-.485.814Zm.646-1.085.467-.785.176,1.814a.242.242,0,0,0,.1.167l-.741,1.244Zm.9-1.511.718-1.206.364,1.8c0,.007.008.01.01.017L26.085,27.2Zm1.1-1.846,1.2-2.011.371,1.445a.238.238,0,0,0,.134.151l-1.334,2.238ZM13.906,25a1.675,1.675,0,0,0,.725.153,3.92,3.92,0,0,0,1.794-.554c1.193-.643,1.742-.937,1.994-1.07l.379.542a1.433,1.433,0,0,1,.256.735l.13,2.132a1.937,1.937,0,0,0,1.094,1.627l.1.05a1.916,1.916,0,0,0,1.413.1,1.453,1.453,0,0,1,.958.037l.378.151-.946,4.808L8.79,48.066l.02-.159a.25.25,0,0,0-.248-.281H8.317l.25-.413a.25.25,0,0,0-.214-.379H8.026l.556-1.275a.25.25,0,0,0-.382-.3l-.752.583-.214-.576a.252.252,0,0,0-.177-.156.242.242,0,0,0-.228.061l-.788.733v-.78a.25.25,0,0,0-.425-.179l-.307.3L13.352,24.54A1.445,1.445,0,0,0,13.906,25ZM1.457,55.832c.013.01.015.028.03.036s.011,0,.017,0l-.125.134Zm.74-.782c.006.005.006.015.013.02s.022.005.033.01l-.14.15Zm3.611-5.171a.248.248,0,0,0-.348.063L3.052,53.417,5.7,48.356a.25.25,0,0,0-.443-.232L2.884,52.658l2.291-5.1a.25.25,0,0,0-.456-.205L3.032,51.108l1.836-4.726.673-.661v.759a.25.25,0,0,0,.42.183l.934-.869.2.544a.248.248,0,0,0,.166.153.242.242,0,0,0,.222-.043l.247-.191-.317.728a.25.25,0,0,0,.229.35H7.91l-.25.413a.25.25,0,0,0,.214.379h.4l-.07.564L3.271,53.978l2.6-3.752A.25.25,0,0,0,5.808,49.878Z"/><path class="cls-1" d="M13.418,30.1a.245.245,0,0,0,.144.046.25.25,0,0,0,.2-.106l.688-.979a.25.25,0,0,0-.409-.287l-.687.979A.249.249,0,0,0,13.418,30.1Z"/><path class="cls-1" d="M13.463,32.579a.25.25,0,0,0-.344.081l-.875,1.416a.251.251,0,0,0,.082.345.251.251,0,0,0,.344-.081l.875-1.416A.251.251,0,0,0,13.463,32.579Z"/><path class="cls-1" d="M10.658,35.429l.4-.75a.25.25,0,0,0-.442-.232l-.4.75a.249.249,0,0,0,.1.337.239.239,0,0,0,.117.029A.251.251,0,0,0,10.658,35.429Z"/><path class="cls-1" d="M8.088,40.867,7.359,42.3a.25.25,0,0,0,.446.227l.729-1.437a.25.25,0,0,0-.446-.227Z"/><path class="cls-1" d="M10.421,39.452a.25.25,0,1,0,.426.262l.552-.9a.25.25,0,1,0-.426-.262Z"/><path class="cls-1" d="M14.29,36.169l-.646.583a.25.25,0,1,0,.335.371l.646-.583a.25.25,0,1,0-.335-.371Z"/><path class="cls-1" d="M15.6,31.708a.251.251,0,0,0,.2-.1l.479-.625a.25.25,0,0,0-.4-.3l-.479.625a.25.25,0,0,0,.046.351A.245.245,0,0,0,15.6,31.708Z"/><path class="cls-1" d="M16.812,28.208A.248.248,0,0,0,17,28.122l.708-.812a.25.25,0,0,0-.377-.328l-.708.813a.25.25,0,0,0,.188.414Z"/><path class="cls-1" d="M13.2,27.057a.251.251,0,0,0,.145.323.259.259,0,0,0,.089.016.25.25,0,0,0,.234-.161l.229-.6a.25.25,0,0,0-.468-.178Z"/><path class="cls-1" d="M18.062,33.188a.25.25,0,0,0,.206-.108l2.146-3.125A.25.25,0,0,0,20,29.671L17.856,32.8a.25.25,0,0,0,.064.348A.253.253,0,0,0,18.062,33.188Z"/><path class="cls-1" d="M18.277,35.146a.25.25,0,0,0,.347-.069L21,31.514a.25.25,0,0,0-.416-.277L18.208,34.8A.25.25,0,0,0,18.277,35.146Z"/><path class="cls-1" d="M17.013,36.74l-.625.479a.25.25,0,0,0,.152.448.248.248,0,0,0,.152-.052l.625-.479a.25.25,0,1,0-.3-.4Z"/><path class="cls-1" d="M16.089,35.505a.25.25,0,0,0,.352-.033l.917-1.1a.25.25,0,1,0-.385-.318l-.917,1.1A.249.249,0,0,0,16.089,35.505Z"/><path class="cls-1" d="M12.449,40.8l-.758.752-1.26,1.781a.25.25,0,0,0,.06.349.248.248,0,0,0,.145.046.251.251,0,0,0,.2-.105l1.231-1.748.729-.719a.25.25,0,1,0-.351-.355Z"/><path class="cls-1" d="M25.569,14.511a.251.251,0,0,0-.345.079l-5.458,8.694a.25.25,0,0,0,.079.345.248.248,0,0,0,.133.038.25.25,0,0,0,.212-.117l5.458-8.694A.25.25,0,0,0,25.569,14.511Z"/><path class="cls-1" d="M23.14,21.1a.25.25,0,0,0-.346.074L20,25.51a.25.25,0,0,0,.074.346.247.247,0,0,0,.136.04.25.25,0,0,0,.21-.114l2.8-4.333A.249.249,0,0,0,23.14,21.1Z"/><path class="cls-1" d="M20.9,27.8a.25.25,0,0,0,.209-.112l2.521-3.823a.25.25,0,0,0-.418-.275l-2.521,3.823a.25.25,0,0,0,.071.346A.245.245,0,0,0,20.9,27.8Z"/></svg>