<?xml version="1.0" encoding="iso-8859-1"?>
<!-- Generator: Adobe Illustrator 19.2.1, SVG Export Plug-In . SVG Version: 6.00 Build 0)  -->
<svg version="1.1" id="Layer_1" xmlns="http://www.w3.org/2000/svg" xmlns:xlink="http://www.w3.org/1999/xlink" x="0px" y="0px"
	 viewBox="0 0 24 739.713" style="enable-background:new 0 0 24 739.713;" xml:space="preserve">
<g>
	<g>
		<path style="fill:#FFFFFF;" d="M12,24.003c-0.78,0-1.57-0.08-2.34-0.24c-0.77-0.15-1.52-0.38-2.25-0.68
			c-0.72-0.3-1.42-0.67-2.07-1.11c-0.66-0.43-1.27-0.93-1.82-1.49c-0.56-0.55-1.06-1.16-1.5-1.82c-0.43-0.65-0.8-1.35-1.1-2.07
			c-0.3-0.73-0.53-1.48-0.68-2.25C0.08,13.572,0,12.782,0,12.003c0-0.78,0.08-1.57,0.24-2.35c0.15-0.76,0.38-1.52,0.68-2.24
			c0.3-0.73,0.67-1.42,1.1-2.07c0.44-0.66,0.94-1.28,1.5-1.83c0.55-0.55,1.16-1.05,1.82-1.49c0.65-0.43,1.35-0.8,2.07-1.1
			c0.73-0.3,1.48-0.53,2.25-0.69c1.55-0.31,3.14-0.31,4.69,0c0.76,0.16,1.52,0.39,2.24,0.69c0.73,0.3,1.42,0.67,2.07,1.1
			c0.66,0.44,1.27,0.94,1.83,1.49c0.55,0.55,1.05,1.17,1.49,1.83c0.43,0.65,0.8,1.34,1.1,2.07c0.3,0.72,0.53,1.48,0.69,2.24
			c0.15,0.78,0.23,1.57,0.23,2.35c0,0.78-0.08,1.57-0.23,2.34c-0.16,0.77-0.39,1.52-0.69,2.25c-0.3,0.72-0.67,1.42-1.1,2.07
			c-0.44,0.66-0.94,1.27-1.49,1.82c-0.56,0.56-1.17,1.06-1.83,1.49c-0.65,0.44-1.34,0.81-2.07,1.11c-0.72,0.3-1.48,0.53-2.24,0.68
			C13.57,23.922,12.78,24.003,12,24.003z"/>
	</g>
	<g>
		<path style="fill:#FFFFFF;" d="M0,638.253c0-6.63,5.38-12,12-12l0,0c6.63,0,12,5.37,12,12l0,0c0,6.62-5.37,12-12,12l0,0
			C5.38,650.253,0,644.873,0,638.253z M0,548.783c0-6.63,5.38-12,12-12l0,0c6.63,0,12,5.37,12,12l0,0c0,6.63-5.37,12-12,12l0,0
			C5.38,560.783,0,555.413,0,548.783z M0,459.323c0-6.631,5.38-12,12-12l0,0c6.63,0,12,5.369,12,12l0,0c0,6.619-5.37,12-12,12l0,0
			C5.38,471.323,0,465.942,0,459.323z M0,369.852c0-6.62,5.38-12,12-12l0,0c6.63,0,12,5.38,12,12l0,0c0,6.63-5.37,12-12,12l0,0
			C5.38,381.852,0,376.482,0,369.852z M0,280.393c0-6.63,5.38-12,12-12l0,0c6.63,0,12,5.37,12,12l0,0c0,6.63-5.37,12-12,12l0,0
			C5.38,292.393,0,287.023,0,280.393z M0,190.933c0-6.63,5.38-12,12-12l0,0c6.63,0,12,5.37,12,12l0,0c0,6.62-5.37,12-12,12l0,0
			C5.38,202.933,0,197.552,0,190.933z M0,101.463c0-6.62,5.38-12,12-12l0,0c6.63,0,12,5.38,12,12l0,0c0,6.63-5.37,12-12,12l0,0
			C5.38,113.463,0,108.092,0,101.463z"/>
	</g>
	<g>
		<path style="fill:#FFFFFF;" d="M12,739.713c-0.78,0-1.57-0.08-2.34-0.23c-0.77-0.159-1.52-0.39-2.25-0.689
			c-0.72-0.3-1.42-0.67-2.07-1.101c-0.66-0.439-1.27-0.939-1.82-1.489c-0.56-0.561-1.06-1.17-1.5-1.83
			c-0.43-0.65-0.8-1.351-1.1-2.07c-0.3-0.72-0.53-1.479-0.68-2.24c-0.16-0.779-0.24-1.569-0.24-2.35s0.08-1.57,0.24-2.34
			c0.15-0.771,0.38-1.521,0.68-2.25c0.3-0.72,0.67-1.42,1.1-2.07c0.44-0.66,0.94-1.27,1.5-1.82c2.78-2.79,6.93-4.069,10.83-3.279
			c0.76,0.149,1.52,0.38,2.24,0.68c0.73,0.3,1.42,0.67,2.07,1.1c0.66,0.44,1.28,0.94,1.83,1.5c0.55,0.551,1.05,1.16,1.49,1.82
			c0.43,0.65,0.8,1.351,1.1,2.07c0.3,0.729,0.53,1.479,0.69,2.25c0.15,0.77,0.23,1.56,0.23,2.34s-0.08,1.57-0.23,2.35
			c-0.16,0.761-0.39,1.521-0.69,2.24c-0.3,0.72-0.67,1.42-1.1,2.07c-0.44,0.66-0.94,1.27-1.49,1.83c-0.56,0.55-1.17,1.05-1.83,1.489
			c-0.65,0.431-1.34,0.801-2.07,1.101c-0.72,0.3-1.48,0.53-2.24,0.689C13.57,739.632,12.78,739.713,12,739.713z"/>
	</g>
</g>
</svg>
