<?xml version="1.0" encoding="utf-8"?>
<!-- Generator: Adobe Illustrator 20.0.0, SVG Export Plug-In . SVG Version: 6.00 Build 0)  -->
<svg version="1.1" id="Layer_1" xmlns="http://www.w3.org/2000/svg" xmlns:xlink="http://www.w3.org/1999/xlink" x="0px" y="0px"
	 viewBox="0 0 527.317 107.962" style="enable-background:new 0 0 527.317 107.962;" xml:space="preserve">
<style type="text/css">
	.st0{fill:#3D3D3D;}
</style>
<title>avomvet</title>
<path class="st0" d="M170.421,42.231l0.007-0.014c0.026-0.105,0.029-0.215,0.008-0.321c-0.007-0.025-0.016-0.049-0.026-0.073
	c-0.023-0.082-0.06-0.16-0.11-0.229c-0.01-0.014-0.011-0.032-0.022-0.045s-0.036-0.022-0.051-0.037
	c-0.084-0.078-0.181-0.14-0.287-0.184c-0.018-0.006-0.032-0.02-0.051-0.025l-14.427-3.739c-0.088-0.023-0.18-0.03-0.27-0.02
	l-14.844,1.637h-0.017c-0.018,0-0.034,0.01-0.051,0.014c-0.07,0.014-0.137,0.037-0.2,0.07c-0.023,0.013-0.046,0.027-0.068,0.043
	c-0.052,0.035-0.099,0.076-0.14,0.123c-0.019,0.02-0.037,0.04-0.053,0.062c-0.053,0.072-0.092,0.152-0.116,0.238l0,0l0,0
	l-6.612,25.634l-2.445-8.333l1.761-0.815l1.039,1.04c0.293,0.293,0.768,0.293,1.061,0c0.293-0.293,0.293-0.768,0-1.061l-0.637-0.637
	l0.885-0.355c0.385-0.154,0.571-0.591,0.417-0.976c-0.154-0.385-0.591-0.571-0.976-0.417l0,0l-0.877,0.352v-1.8
	c0-0.414-0.336-0.75-0.75-0.75s-0.75,0.336-0.75,0.75v2.472l-1.6,0.741l-2.653-9.042c-0.013-0.031-0.028-0.06-0.045-0.089
	c-0.032-0.087-0.085-0.165-0.156-0.225c-0.028-0.031-0.058-0.059-0.09-0.084c-0.061-0.043-0.129-0.077-0.2-0.1
	c-0.016-0.005-0.028-0.017-0.044-0.021h-0.011l0,0l-14.416-3.736c-0.088-0.023-0.18-0.03-0.27-0.02l-14.84,1.647
	c-0.412,0.045-0.709,0.416-0.663,0.828c0.005,0.05,0.016,0.099,0.031,0.146l18.778,58.82c0.078,0.247,0.279,0.436,0.53,0.5
	l9.759,2.478c0.398,0.116,0.814-0.113,0.93-0.511s-0.113-0.814-0.511-0.93c-0.016-0.005-0.033-0.009-0.05-0.013l-1.7-0.433
	c0.003-0.067-0.003-0.135-0.019-0.2l-5.09-16.9c-0.12-0.397-0.539-0.621-0.936-0.502c-0.397,0.12-0.621,0.539-0.501,0.936
	l4.895,16.249l-2.292-0.582L108.1,63.5c-0.123-0.396-0.543-0.617-0.939-0.494c-0.396,0.123-0.617,0.543-0.494,0.939l0,0
	l12.276,39.415l-2-0.508L98.569,45.3l13.8-1.521l10.342,2.68l-10.67,1.176l-9.121-1.86c-0.406-0.083-0.802,0.179-0.885,0.585
	s0.179,0.802,0.585,0.885l0,0l8.806,1.8l18.645,58.4c0.1,0.31,0.388,0.521,0.714,0.521c0.028,0.002,0.055,0.002,0.083,0
	l20.089-2.215c0.3-0.032,0.551-0.241,0.637-0.53l18.826-62.977C170.42,42.244,170.42,42.235,170.421,42.231z M155.221,39.051
	l10.342,2.68L154.912,42.9l-10.341-2.68L155.221,39.051z M158.186,60.3c1.491,0.945,3.007,1.972,4.384,2.961l-0.152,0.508
	c-3.257-2.402-6.928-4.186-10.83-5.262l0.381-1.4c2.345,0.308,4.649,0.879,6.867,1.7c0.101,0.038,0.21,0.051,0.318,0.038
	c0.293-0.039,0.545-0.229,0.663-0.5c0.177-0.344,0.041-0.766-0.303-0.943c-0.014-0.007-0.027-0.013-0.041-0.019
	c-2.291-0.855-4.669-1.456-7.091-1.794l0.3-1.109c3.91,1.179,7.591,3.013,10.887,5.424l-0.525,1.756
	c-1.754-1.239-3.372-2.281-3.993-2.675c-0.361-0.199-0.815-0.076-1.027,0.278c-0.243,0.321-0.18,0.778,0.141,1.021
	C158.172,60.29,158.179,60.295,158.186,60.3z M149.427,79c0.484,0.795,3.187,5.21,5.739,9.021l-0.57,1.9
	c-1.954-2.986-3.752-6.071-5.388-9.242c-0.022-0.044-0.049-0.085-0.08-0.123c-0.839-1.02-1.773-1.958-2.79-2.8l0.376-1.38
	c0.64,0.42,1.237,0.902,1.782,1.44c0.286,0.276,0.742,0.268,1.018-0.019c0.006-0.006,0.012-0.013,0.018-0.019
	c0.306-0.277,0.341-0.746,0.079-1.066c-0.736-0.746-1.563-1.396-2.461-1.935l0.277-1.017c1.668,1.217,4.545,4.035,8.865,10.486
	l-0.546,1.825c-1.732-2.629-3.6-5.6-5.048-7.976c-0.211-0.318-0.64-0.404-0.958-0.193c-0.016,0.011-0.033,0.023-0.048,0.035
	C149.341,78.169,149.226,78.631,149.427,79z M151.976,98.686c-3.259-3.041-6.18-8.78-7.294-11.446
	c-0.109-0.266-0.382-0.426-0.667-0.393c0.023-0.1,0.044-0.188,0.067-0.284c0.083-0.014,0.163-0.042,0.237-0.082
	c0.362-0.209,0.51-0.656,0.344-1.04l-0.208-0.417c0.084-0.345,0.167-0.686,0.253-1.035c1.073,1.84,1.875,3.825,2.381,5.894
	c0.009,0.037,0.021,0.073,0.036,0.108c1.264,2.928,2.961,5.65,5.035,8.073L151.976,98.686z M147.031,104.67
	c-0.914-0.6-2.2-1.55-3.31-2.443c-0.37-0.232-0.858-0.12-1.09,0.25c-0.195,0.311-0.151,0.715,0.107,0.976
	c0.74,0.6,1.364,1.076,1.911,1.479l-1.141,0.126c-1.3-0.964-2.954-2.26-4.477-3.511c-0.238-0.183-0.565-0.194-0.815-0.028
	c0.117-0.207,0.13-0.457,0.036-0.676c-1.683-3.856-2.28-8.098-1.727-12.269c-0.005,1.487,0.107,2.972,0.335,4.442
	c0.061,0.358,0.401,0.599,0.759,0.538c0.031-0.005,0.061-0.013,0.091-0.022c0.403-0.12,0.658-0.517,0.6-0.934
	c-0.23-1.529-0.334-3.074-0.309-4.62c0.068,0.266,0.144,0.541,0.211,0.805c0.685,2.7,1.383,5.355,2.075,7.891
	c0.096,0.327,0.397,0.552,0.738,0.553c0.108-0.004,0.213-0.032,0.309-0.082c1.541,3.064,3.918,5.63,6.856,7.4L147.031,104.67z
	 M133.782,100.697c0.48,1.837,1.247,3.586,2.272,5.184l-0.892,0.1c-3.11-5.056-7.836-15.3-2.368-24.53
	c0.703-1.206,1.528-2.338,2.46-3.377l0.075,0.257c-1.131,1.307-2.043,2.789-2.7,4.388c-0.157,0.344-0.005,0.751,0.339,0.908
	c0.02,0.009,0.04,0.017,0.061,0.024c0.405,0.099,0.819-0.124,0.959-0.516c0.476-1.127,1.088-2.192,1.823-3.17l0.18,0.613
	c0.033,0.115,0.063,0.229,0.1,0.344c-0.453,1.048-0.794,2.141-1.018,3.261c-0.012,0.359,0.27,0.66,0.629,0.672
	c0.035,0.001,0.071-0.001,0.106-0.005c0.379-0.053,0.677-0.351,0.729-0.731c0.026-0.108,0.113-0.387,0.234-0.758
	c0.079,0.285,0.162,0.573,0.239,0.856c-0.325,1.424-0.485,2.88-0.478,4.34c0.072-0.356-0.159-0.702-0.514-0.774
	c-0.027-0.005-0.054-0.009-0.081-0.011c-0.418-0.01-0.78,0.288-0.852,0.7c-0.625,4.469,0.012,9.023,1.839,13.149
	c0.121,0.252,0.391,0.398,0.668,0.36c0.108-0.012,0.213-0.046,0.308-0.1l0.012-0.01c-0.176,0.293-0.12,0.67,0.133,0.9
	c0.154,0.127,0.289,0.236,0.437,0.356c-0.081,0.013-0.159,0.039-0.232,0.077c-0.369,0.197-0.534,0.638-0.384,1.029
	c0.213,0.471,0.451,0.931,0.712,1.377l-0.774,0.085c-1.193-1.669-2.072-3.542-2.592-5.527c-0.093-0.353-0.454-0.563-0.806-0.47
	c-0.032,0.008-0.063,0.019-0.094,0.032c-0.39,0.147-0.614,0.555-0.53,0.963V100.697z M130.429,81.57
	c0.148-0.346-0.012-0.746-0.358-0.894c-0.023-0.01-0.047-0.019-0.071-0.026c-0.409-0.084-0.816,0.151-0.946,0.548
	c-1.409,3.893-2.056,8.021-1.906,12.158l-0.662-2.073c-0.068-1.209-0.08-1.98-0.08-2.016c0.008-0.359-0.277-0.657-0.636-0.665
	c-0.033-0.001-0.066,0.001-0.099,0.005h-0.006c-0.01,0-0.019,0.006-0.03,0.008l-0.615-1.925c1.555-5.815,2.889-7.8,3.514-8.459
	c-0.179,0.278-0.282,0.457-0.309,0.5c-0.212,0.331-0.116,0.771,0.215,0.984c0.009,0.006,0.018,0.011,0.027,0.016
	c0.379,0.166,0.822,0.008,1.011-0.36c1.247-1.973,2.817-3.723,4.644-5.177l0.149,0.508c-1.201,1.101-2.281,2.328-3.222,3.659
	c-0.24,0.323-0.173,0.779,0.15,1.019c0.005,0.004,0.01,0.007,0.014,0.01c0.363,0.196,0.816,0.072,1.027-0.283
	c0.731-1.043,1.558-2.016,2.471-2.905l0.09,0.306c-1.254,1.276-2.342,2.705-3.239,4.253c-3.389,5.721-3.649,12.642-0.753,20.014
	c0.737,1.86,1.621,3.659,2.643,5.38l-0.817,0.09c-2.635-4.221-6.328-12.938-2.206-24.679V81.57z M128.681,75.364
	c-0.175-0.331-0.585-0.458-0.916-0.284c-0.022,0.011-0.043,0.024-0.063,0.038c-0.173,0.1-2.311,1.449-4.376,5.7
	c-0.057,0.016-0.112,0.038-0.164,0.066l-0.362-1.135c2.646-3.843,6.142-7.025,10.216-9.3l0.092,0.315
	c-1.528,0.892-2.943,1.963-4.216,3.191c-0.301,0.282-0.326,0.752-0.056,1.064c0.143,0.145,0.346,0.214,0.548,0.188
	c0.187-0.023,0.36-0.111,0.49-0.247c1.113-1.053,2.338-1.981,3.653-2.768l0.163,0.555c-1.554,1.184-2.952,2.56-4.16,4.095
	c-0.098-0.258-0.351-0.424-0.627-0.411c-0.607,0.006-2.482,0.731-4.668,7.818l-0.356-1.115c2.052-5.143,4.4-6.7,4.457-6.732
	c0.364-0.209,0.512-0.658,0.345-1.042V75.364z M140.969,40.845l12.965,3.36l-9.557,35.048c-0.8,3.032-1.536,5.989-2.183,8.79
	c-0.417,1.8-0.829,3.583-1.238,5.349c-0.432-1.629-0.864-3.294-1.291-4.977c-0.679-2.676-1.431-5.452-2.236-8.257l-3.274-11.16
	l7.983-4.915l2.14,1.664c0.327,0.254,0.798,0.195,1.053-0.131c0.254-0.327,0.195-0.798-0.132-1.053L144,63.632l2.165-0.354
	c0.363-0.059,0.629-0.373,0.629-0.74c0-0.041-0.003-0.081-0.01-0.121c-0.067-0.409-0.452-0.686-0.861-0.619l-2.7,0.439l0.756-2.652
	c0.019-0.067,0.029-0.136,0.029-0.205c-0.001-0.414-0.337-0.749-0.752-0.748c-0.334,0.001-0.627,0.222-0.719,0.543l-1,3.507
	l-7.383,4.546L140.969,40.845z M154.714,47.045c3.189,1.038,6.147,2.681,8.714,4.839c-2.916-1.43-5.972-2.553-9.119-3.353
	L154.714,47.045z M139.393,103.865c0.69,0.556,1.29,1.028,1.829,1.444l-0.927,0.1c-0.335-0.495-0.636-1.011-0.902-1.546
	L139.393,103.865z M150.403,103.943c-3.598-1.744-6.463-4.704-8.09-8.356c-0.051-0.126-0.142-0.231-0.259-0.3
	c0.2-0.865,0.4-1.727,0.6-2.6c1.474,3.8,3.945,8.009,8.013,10.362L150.403,103.943z M143.316,89.843L143.6,88.6
	c0.927,2.073,4.02,8.521,7.88,11.731l-0.344,1.149c-4.252-2.68-6.59-7.713-7.819-11.64L143.316,89.843z M148.505,89.31
	c-0.2-0.787-1.346-5.081-3.315-7.226l0.116-0.453c1.164,1.361,2.73,3.881,4.643,8.562c0.08,0.143,1.336,2.37,3.1,4.893l-0.366,1.224
	c-1.683-2.148-3.087-4.501-4.178-7.003L148.505,89.31z M151.28,89.41c-1.907-4.672-3.777-7.907-5.506-9.574
	c0.017-0.066,0.034-0.13,0.051-0.2l0.055-0.2c0.731,0.655,1.413,1.363,2.041,2.117c1.819,3.55,3.856,6.984,6.1,10.282l-0.4,1.326
	c-1.391-2.079-2.337-3.754-2.34-3.753L151.28,89.41z M147.872,72.13l0.174-0.638c2.168,1.349,5.242,4.034,9.284,9.286l-0.46,1.537
	C152.552,76,149.658,73.275,147.872,72.13z M148.478,69.906l0.12-0.438c3.798,1.897,7.123,4.621,9.731,7.971l-0.449,1.5
	c-4.013-5.078-7.121-7.709-9.401-9.032L148.478,69.906z M149.024,67.906l0.209-0.765c3.895,1.615,7.313,4.197,9.933,7.5l-0.3,1.01
	C156.196,72.376,152.835,69.731,149.024,67.906z M149.619,65.725l0.164-0.6c3.927,1.271,7.463,3.528,10.269,6.556l-0.361,1.207
	C156.982,69.699,153.52,67.237,149.619,65.725z M150.183,63.656l0.1-0.356c1.16,0.362,2.296,0.799,3.4,1.308
	c0.427,0.152,0.896-0.071,1.047-0.498c0.053-0.15,0.062-0.312,0.025-0.466c2.292,1.241,4.425,2.755,6.353,4.508l-0.545,1.823
	C157.679,67.042,154.113,64.871,150.183,63.656z M151.096,60.308l0.079-0.29c3.891,1.109,7.537,2.943,10.747,5.407l-0.312,1.043
	c-3.074-2.711-6.643-4.802-10.51-6.16H151.096z M153.096,52.963l0.293-1.074c4.073,0.732,7.876,2.543,11.011,5.245l-0.342,1.145
	c-3.343-2.349-7.043-4.144-10.958-5.316L153.096,52.963z M153.796,50.389l0.093-0.34c3.938,1.018,7.725,2.552,11.262,4.561
	l-0.264,0.882c-3.201-2.617-7.017-4.374-11.087-5.103L153.796,50.389z M155.096,45.618l0.154-0.565
	c3.994,1.335,7.702,3.408,10.93,6.113l-0.26,0.87c-3.061-2.948-6.765-5.145-10.82-6.418L155.096,45.618z M157.364,44.143l2.688-0.3
	c2.568,0.849,5.009,2.044,7.254,3.553l-0.641,2.145c-2.804-2.264-5.939-4.084-9.295-5.398L157.364,44.143z M126.3,47.568l4.6,15.691
	c-1.597,0.546-3.36,0.291-4.737-0.685c0.288-0.224,0.593-0.424,0.913-0.6c0.37-0.186,0.519-0.637,0.332-1.008
	c-0.186-0.37-0.637-0.519-1.007-0.332l0,0c-0.626,0.333-1.204,0.748-1.719,1.235c-0.073,0.031-0.141,0.073-0.2,0.125
	c-0.078,0.075-0.138,0.166-0.177,0.266c-0.798,0.804-1.145,1.951-0.926,3.062c0.078,0.34,0.381,0.582,0.73,0.582
	c0.057,0,0.114-0.007,0.169-0.02c0.403-0.092,0.656-0.493,0.564-0.897c0-0.001,0-0.002-0.001-0.003
	c-0.089-0.46,0.014-0.936,0.284-1.318c1.137,0.9,2.55,1.381,4,1.362c0.746-0.002,1.487-0.114,2.2-0.332l1.265,4.311
	c-0.189,0.1-0.383,0.192-0.567,0.294c0.231-0.168,0.361-0.441,0.347-0.726c-0.02-0.359-0.327-0.634-0.686-0.614
	c-0.035,0.002-0.071,0.007-0.105,0.014c-2.12,0.411-6.072,3.965-6.515,4.368c-0.317,0.267-0.372,0.734-0.126,1.067
	c0.143,0.168,0.361,0.252,0.58,0.223c0.169-0.021,0.327-0.094,0.452-0.21c1.542-1.4,4.46-3.72,5.726-3.965
	c0.05-0.015,0.099-0.034,0.145-0.059c-3.762,2.188-7.026,5.137-9.583,8.659L122.244,78c0.608-0.888,1.193-1.733,1.719-2.483
	c0.251-0.319,0.196-0.781-0.123-1.032c-0.002-0.002-0.005-0.004-0.007-0.006c-0.355-0.21-0.812-0.099-1.032,0.249
	c-0.158,0.225-0.557,0.8-1.1,1.579L113,49.036L126.3,47.568z M167.856,45.568c-0.715-0.836-1.495-1.613-2.333-2.325l0.965-0.106
	c0.082,0.067,0.164,0.13,0.246,0.2c0.14,0.115,0.321,0.167,0.5,0.144c0.293-0.035,0.544-0.226,0.654-0.5l0.768-0.085L167.856,45.568
	z"/>
<path class="st0" d="M335.457,41.056c0-0.007,0-0.013,0-0.02c-0.4-8.611-5.663-14.041-10-17.079
	c-1.772-1.233-3.734-2.166-5.809-2.762c-0.048-0.02-0.097-0.035-0.148-0.045c-2.407-0.684-4.922-0.908-7.412-0.659l-0.405,0.044
	c-0.292,0.033-0.595,0.1-0.891,0.139c-0.112-0.008-0.224,0.009-0.328,0.051c-2.716,0.458-5.364,1.252-7.885,2.362h-0.007h-0.012
	c-3.379,1.527-6.552,3.476-9.442,5.8c-1.269-1.728-2.989-3.075-4.972-3.892c-1.453-0.575-2.993-0.902-4.554-0.966
	c-0.036-0.005-0.072-0.007-0.108-0.007c-1.463-0.074-2.929-0.025-4.383,0.146c-1.368,0.162-2.724,0.416-4.057,0.762h-0.014
	c-0.114,0.002-0.227,0.031-0.328,0.084c-1.906,0.498-3.76,1.176-5.538,2.025c-0.373,0.179-0.53,0.628-0.351,1.001
	c0.18,0.373,0.628,0.53,1.001,0.351c1.624-0.777,3.315-1.404,5.053-1.874c0.493,0.466,1.6,1.608,2.589,2.65
	c0.278,0.307,0.752,0.33,1.059,0.052s0.33-0.752,0.052-1.059c-0.007-0.008-0.014-0.016-0.022-0.023
	c-0.871-0.921-1.495-1.571-1.958-2.039c0.886-0.185,1.779-0.337,2.68-0.438c1.305-0.153,2.621-0.204,3.934-0.152L287.684,30
	c-1.198-0.019-2.395,0.04-3.585,0.177c-3.451,0.389-6.81,1.359-9.937,2.87c-2.613,1.253-5.066,2.814-7.307,4.651v-3.219
	c0-0.023-0.015-0.042-0.018-0.065c0-0.056-0.006-0.112-0.019-0.166l-8.677-26.782V0.75c0-0.414-0.336-0.75-0.75-0.75
	s-0.75,0.336-0.75,0.75v6.707l-9.083,26.131c-0.017,0.061-0.026,0.124-0.026,0.188c0,0.02-0.016,0.037-0.016,0.058v42.857
	l-8.948,22.869c-0.152,0.385,0.038,0.821,0.424,0.972c0.17,0.067,0.359,0.069,0.531,0.007l8.25-3
	c0.389-0.142,0.59-0.572,0.449-0.962s-0.572-0.59-0.962-0.449l0,0l-6.69,2.434l6.947-17.755v13.927c0,0.283,0.159,0.542,0.412,0.67
	c1.879,0.868,3.871,1.468,5.917,1.782c0.04,0.007,0.081,0.01,0.122,0.01c0.414-0.001,0.749-0.338,0.748-0.752
	c-0.001-0.366-0.266-0.678-0.628-0.738c-1.742-0.281-3.444-0.769-5.07-1.453V35.123c3.87,2.059,8.325,2.741,12.633,1.933v14.862
	c0,0.414,0.336,0.75,0.75,0.75s0.75-0.336,0.75-0.75V36.641c0.757-0.242,1.495-0.541,2.207-0.894v9.367
	c0,0.414,0.336,0.75,0.75,0.75s0.75-0.336,0.75-0.75v-5.426c2.395-2.121,5.073-3.9,7.957-5.285c2.974-1.437,6.171-2.36,9.453-2.731
	c2.782-0.455,5.633-0.209,8.295,0.718c1.962,0.807,3.625,2.205,4.756,4c0.222,0.35,0.685,0.453,1.035,0.231
	c0.022-0.014,0.044-0.03,0.065-0.046c2.96-2.455,6.233-4.506,9.733-6.1c2.666-1.19,5.486-1.998,8.378-2.4
	c0.051,0.016,0.104,0.026,0.158,0.031c0.121-0.005,0.239-0.039,0.344-0.1c2.284-0.294,4.598-0.263,6.873,0.091
	c1.692,0.272,3.313,0.877,4.769,1.78c1.21,0.784,2.218,1.842,2.942,3.089c0.75,1.32,1.316,2.735,1.683,4.208
	c0.402,1.623,0.65,3.281,0.739,4.951c0.105,1.772,0.158,3.59,0.158,5.4v11.631l-12.689,12.689V49.332
	c0-1.714-0.045-3.237-0.134-4.524c-0.047-1.235-0.378-2.444-0.966-3.531c-0.597-1.01-1.541-1.77-2.656-2.136
	c-1.515-0.429-3.107-0.52-4.661-0.266h-0.013h-0.023c-0.996,0.119-1.982,0.311-2.95,0.576c-1.108,0.303-2.197,0.671-3.263,1.1
	c-1.122,0.448-2.269,0.976-3.4,1.567s-2.25,1.239-3.319,1.932c-0.247,0.159-0.378,0.448-0.335,0.739
	c0.168,1.128,0.262,2.266,0.281,3.407c0.017,1.156,0.026,2.278,0.026,3.367v11.251L287.4,75.5V53.147
	c0-1.685-0.045-3.216-0.134-4.551c-0.047-1.224-0.343-2.426-0.869-3.533c-0.52-1.012-1.408-1.785-2.481-2.161
	c-1.406-0.423-2.889-0.52-4.338-0.281c-1.198,0.138-2.381,0.389-3.531,0.751c-1.187,0.374-2.352,0.811-3.492,1.309
	c-1.147,0.5-2.272,1.053-3.342,1.638s-2.064,1.161-2.977,1.722c-0.222,0.137-0.357,0.378-0.357,0.639v45.27
	c-2.793,1.472-5.929,2.17-9.083,2.024c-0.408,0.003-0.745,0.318-0.775,0.725c-0.013,0.414,0.31,0.76,0.724,0.775
	c0.249,0.008,0.5,0.013,0.744,0.013c2.901,0.02,5.769-0.616,8.39-1.859v2.2c0,0.281,0.156,0.538,0.406,0.667l7.761,4
	c0.368,0.19,0.82,0.046,1.011-0.322c0.091-0.177,0.109-0.383,0.048-0.572L267.38,77.2V49.1c0.793-0.48,1.651-0.972,2.554-1.466
	c1.032-0.564,2.117-1.1,3.223-1.58c1.091-0.478,2.207-0.896,3.343-1.254c1.059-0.333,2.146-0.565,3.249-0.692
	c0.371-0.041,0.718-0.067,1.049-0.081l0,0c0.071,1.066,0.107,1.6,0.107,3.114v39.932c0,0.175,0.062,0.345,0.174,0.48l5,6
	c0.012,0.015,0.03,0.02,0.043,0.033s0.019,0.032,0.033,0.045c0.109,0.094,0.245,0.153,0.389,0.167
	c0.036,0.011,0.073,0.019,0.111,0.024c0.016,0,0.032-0.007,0.049-0.008s0.023,0,0.034,0l14.188-1.587
	c0.38-0.042,0.667-0.363,0.667-0.745V63.209c0.01-0.07,0.01-0.141,0-0.211V51.56c0-1.095-0.009-2.225-0.026-3.39
	c-0.017-1.044-0.094-2.086-0.229-3.121c0.906-0.571,1.845-1.109,2.795-1.6c1.092-0.569,2.191-1.075,3.268-1.5
	c1.011-0.406,2.044-0.754,3.095-1.041c0.833-0.224,1.681-0.391,2.537-0.5c1.147,0.555,1.904,1.686,1.978,2.958v39.9
	c0,0.175,0.062,0.345,0.174,0.48l5,6c0.012,0.015,0.03,0.02,0.043,0.033s0.019,0.032,0.033,0.045
	c0.109,0.094,0.245,0.153,0.389,0.167c0.036,0.011,0.073,0.019,0.111,0.024c0.016,0,0.032-0.007,0.049-0.008s0.023,0,0.034,0
	l14.189-1.588c0.38-0.042,0.667-0.363,0.667-0.745V47.532c0-1.842-0.054-3.69-0.16-5.491
	C335.517,41.709,335.486,41.382,335.457,41.056z M249.177,33.5l1.058-3.044c2.44,0.937,5.033,1.412,7.647,1.4
	c0.692,0,1.417-0.033,2.167-0.108c0.411-0.053,0.701-0.428,0.649-0.839c-0.051-0.395-0.401-0.681-0.798-0.653
	c-3.11,0.311-6.251-0.107-9.171-1.222l6.637-19.093l7.834,24.185C258.23,37.941,251.092,34.556,249.177,33.5z M273.132,100.343
	l-5.752-2.964V82.168L273.132,100.343z M300.091,85.352c-0.039,0.021-0.076,0.045-0.11,0.073l-6.036,6.036
	c-0.014,0.014-0.019,0.033-0.031,0.047l-0.647,0.072l6.825-6.825L300.091,85.352z M300.091,64.938v0.825
	c-0.103,0.036-0.197,0.094-0.275,0.17l-9.124,9.123c-0.293,0.293-0.293,0.768,0,1.061c0.293,0.293,0.768,0.293,1.061,0l8.339-8.338
	v2.787c-0.085,0.036-0.163,0.088-0.229,0.152l-9.095,9.095c-0.293,0.293-0.293,0.768,0,1.061c0.293,0.293,0.768,0.293,1.061,0l0,0
	l8.264-8.264v0.422c-0.053,0.027-0.102,0.061-0.146,0.1L287.4,85.668v-2.7c0.087-0.037,0.167-0.09,0.234-0.156L296.456,74
	c0.293-0.293,0.293-0.768,0-1.061c-0.293-0.293-0.768-0.293-1.061,0l0,0l-7.995,7.99v-3.305L300.091,64.938z M285.9,80.021l-3.5-3.5
	v-2.4l3.5,3.5V80.021z M282.4,78.643l3.5,3.5v2.921l-3.308-3.308c-0.057-0.053-0.122-0.096-0.192-0.128V78.643z M285.064,45.751
	c0.43,0.925,0.67,1.927,0.706,2.946c0.086,1.3,0.13,2.8,0.13,4.451V75.5l-3.5-3.5V47.147c0-1.488-0.036-2.1-0.1-3.069
	c0.373,0.034,0.74,0.112,1.095,0.231c0.723,0.246,1.322,0.763,1.671,1.442L285.064,45.751z M282.4,83.684l3.486,3.486l0.014,0.009
	V91l-3.5-4.2V83.684z M287.4,87.711c0.087-0.037,0.167-0.09,0.234-0.156L300.091,75.1v7.531l-9.213,9.213l-3.476,0.389L287.4,87.711
	z M298.385,91.005l1.7-1.7v1.513L298.385,91.005z M329.851,87.484l-1.722,0.193l6.065-6.065v3c-0.034-0.11-0.094-0.211-0.174-0.294
	c-0.293-0.293-0.768-0.293-1.061,0c0,0,0,0,0,0l-3,3c-0.043,0.05-0.078,0.106-0.106,0.166L329.851,87.484z M318.251,58.833
	c0.414,0,0.75-0.336,0.75-0.75V45.995l0.951,0.528c0.031,0.864,0.049,1.8,0.049,2.808v22.514l-3.5-3.5V44.606l1,0.556v12.921
	C317.501,58.497,317.837,58.833,318.251,58.833c0.002,0,0.004,0,0.006,0L318.251,58.833z M320.001,75.201l-3.489-3.489l-0.011-0.007
	v-1.239l3.5,3.5V75.201z M316.501,73.822l3.5,3.5v0.716l-3.424-3.424c-0.024-0.019-0.05-0.036-0.076-0.051V73.822z M316.501,76.659
	l3.5,3.5v1.168l-3.5-3.5V76.659z M321.501,80.159L334.2,67.47v1.168l-12.693,12.69L321.501,80.159z M327.606,27.647
	c-0.794-0.334-1.615-0.601-2.453-0.8c-0.022-0.154-0.092-0.297-0.2-0.408l-2.529-2.539c0.753,0.377,1.479,0.806,2.172,1.284
	c1.065,0.745,2.073,1.569,3.016,2.464L327.606,27.647z M308.749,28.62l-1.8-1.8c2.104-0.823,4.311-1.355,6.56-1.579l1.549,1.549
	c-2.157,0.398-4.269,1.011-6.303,1.831L308.749,28.62z M302.364,31.885l-4.523-4.523c1.547-1.014,3.167-1.91,4.848-2.682
	l1.659,1.659c-0.833,0.418-1.626,0.911-2.37,1.472c-0.32,0.263-0.365,0.736-0.102,1.056c0.259,0.315,0.722,0.364,1.043,0.112
	c0.801-0.586,1.658-1.092,2.557-1.512l1.768,1.767c-1.688,0.763-3.317,1.65-4.875,2.652L302.364,31.885z M305.79,25.66l-1.6-1.6
	c2.035-0.829,4.152-1.441,6.315-1.825l1.652,1.652c-2.189,0.312-4.328,0.908-6.362,1.774L305.79,25.66z M298.116,34.9
	c-1.269-1.728-2.989-3.075-4.972-3.892c-1.03-0.418-2.11-0.699-3.213-0.836c-0.023-0.045-0.052-0.087-0.084-0.126l-4.241-4.246
	c0.669,0.13,1.324,0.326,1.954,0.585c1.962,0.807,3.625,2.205,4.756,4c0.222,0.35,0.685,0.453,1.035,0.231
	c0.022-0.014,0.044-0.03,0.065-0.046c1.066-0.855,2.118-1.636,3.157-2.357l4.514,4.513C300.11,33.4,299.119,34.115,298.116,34.9z
	 M316.909,26.517L315.5,25.11c0.774-0.022,1.568-0.024,2.405,0.024c0.414,0.024,0.77-0.292,0.794-0.706s-0.292-0.77-0.706-0.794
	c-1.309-0.076-2.622-0.064-3.929,0.037l-1.7-1.7c2.209-0.208,4.438-0.015,6.578,0.572l3.9,3.9c-1.975-0.184-3.963-0.159-5.933,0.073
	V26.517z M334.2,61.277v0.6c-0.139,0.026-0.267,0.091-0.369,0.188l-3.864,3.864c-0.293,0.293-0.293,0.768,0,1.061
	c0.293,0.293,0.768,0.293,1.061,0l3.173-3.173v1.6c-0.079,0.035-0.152,0.083-0.215,0.143l-12.479,12.479V77.9
	c0.028-0.016,0.055-0.034,0.081-0.054l8.6-8.6c0.293-0.293,0.293-0.768,0-1.061c-0.293-0.293-0.768-0.293-1.061,0l-7.62,7.615
	v-1.834L334.2,61.277z M317.248,40.553c0.781,0.248,1.444,0.774,1.862,1.478c0.446,0.842,0.702,1.771,0.749,2.722l-3.4-1.89
	c-0.14-0.949-0.525-1.845-1.117-2.6C315.988,40.262,316.631,40.36,317.248,40.553z M316.507,79.953l3.5,3.5v3.737l-3.5-4.2V79.953z
	 M321.507,83.453L334.2,70.759v8.732l-8.454,8.453l-4.236,0.474L321.507,83.453z M332.18,87.228l1.843-1.843
	c0.08-0.083,0.14-0.184,0.174-0.294V87L332.18,87.228z"/>
<path class="st0" d="M438.179,59.96l0.22,0.926c0.08,0.338,0.382,0.577,0.729,0.577c0.058,0,0.116-0.007,0.173-0.021l25.589-6.078
	c0.402-0.095,0.651-0.498,0.557-0.9l-0.22-0.926l0,0c-0.419-1.755-0.967-3.477-1.64-5.152c-0.661-1.685-1.682-3.206-2.991-4.456
	c-1.402-1.281-3.116-2.172-4.97-2.583c-2.485-0.469-5.044-0.355-7.477,0.334c-2.437,0.479-4.731,1.517-6.7,3.031
	c-1.491,1.209-2.637,2.788-3.325,4.58c-0.619,1.715-0.871,3.54-0.74,5.358C437.5,56.439,437.766,58.215,438.179,59.96z
	 M451.71,53.373c-0.158,1.422-0.963,2.692-2.181,3.443c-0.78,0.393-1.703,0.381-2.473-0.032c-2.223-1.084-3.622-4.584-3.056-7.647
	c0.158-1.423,0.964-2.693,2.184-3.443c0.364-0.186,0.766-0.284,1.175-0.284c0.452,0.005,0.896,0.114,1.3,0.317
	C450.877,46.808,452.274,50.31,451.71,53.373L451.71,53.373z M444.884,57.55c-0.007-0.113,0-0.222-0.005-0.334
	c0.429,0.409,0.917,0.752,1.447,1.017l-1.354,0.321c-0.033-0.334-0.067-0.667-0.089-1.004L444.884,57.55z M463.769,53.882l0.046,0.2
	l-11.922,2.832c0.732-0.948,1.219-2.061,1.418-3.242c0.424-2.339-0.008-4.753-1.217-6.8c0.785-0.289,1.587-0.531,2.4-0.727
	c1.836-0.486,3.74-0.663,5.634-0.522c0.879,0.979,1.578,2.106,2.064,3.328c0.646,1.603,1.172,3.251,1.575,4.931L463.769,53.882z
	 M439.537,49.805c0.599-1.547,1.594-2.909,2.885-3.95c1.79-1.36,3.869-2.29,6.076-2.718c1.454-0.367,2.946-0.565,4.446-0.59
	c0.783-0.008,1.565,0.077,2.328,0.254c1.08,0.256,2.11,0.688,3.05,1.277c-1.407,0.065-2.804,0.266-4.172,0.6
	c-1.023,0.241-2.027,0.554-3.006,0.936c-0.504-0.554-1.107-1.011-1.777-1.347c-1.227-0.634-2.683-0.643-3.917-0.024
	c-1.677,0.975-2.805,2.676-3.051,4.6c-0.4,2.22-0.032,4.51,1.044,6.493c-0.083,0.768-0.102,1.542-0.056,2.313
	c0.027,0.422,0.066,0.84,0.109,1.257l-3.811,0.905l-0.047-0.2c-0.392-1.664-0.645-3.357-0.755-5.063
	c-0.116-1.609,0.106-3.225,0.652-4.743L439.537,49.805z"/>
<path class="st0" d="M497.041,40.009c0.089,0.326,0.386,0.552,0.724,0.552c0.068,0,0.135-0.008,0.2-0.026l2.97-0.812
	c0.033-0.012,0.064-0.027,0.095-0.044c0.026-0.01,0.051-0.021,0.075-0.034c0.093-0.051,0.174-0.122,0.238-0.207l0.009-0.008
	c0.011-0.016,0.012-0.034,0.022-0.05c0.036-0.059,0.064-0.122,0.082-0.188c0.008-0.033,0.013-0.066,0.016-0.1
	c0.007-0.031,0.013-0.062,0.016-0.093v-3.92c0-0.414-0.336-0.75-0.75-0.75s-0.75,0.336-0.75,0.75v2.531
	c-0.381-0.14-0.803,0.056-0.943,0.437c-0.075,0.205-0.055,0.434,0.055,0.623l-1.529,0.418c-0.4,0.107-0.638,0.518-0.531,0.918
	C497.04,40.007,497.041,40.008,497.041,40.009z"/>
<path class="st0" d="M498.778,51.572l1.206-0.216v3.983c0,0.414,0.336,0.75,0.75,0.75s0.75-0.336,0.75-0.75V50.46
	c0-0.023-0.012-0.043-0.015-0.065c-0.006-0.061-0.019-0.122-0.04-0.18c-0.013-0.039-0.029-0.077-0.048-0.113
	c-0.056-0.072-0.111-0.145-0.167-0.217c-0.011-0.009-0.026-0.011-0.038-0.02s-0.019-0.023-0.033-0.032l-0.345-0.226
	c-0.343-0.228-0.806-0.134-1.034,0.21c-0.001,0.002-0.003,0.004-0.004,0.006c-0.011,0.017-0.012,0.036-0.021,0.053l-1.227,0.219
	c-0.408,0.073-0.679,0.463-0.607,0.871c0.073,0.408,0.463,0.679,0.871,0.606l0,0L498.778,51.572z"/>
<path class="st0" d="M501.484,59.339c0-0.414-0.336-0.75-0.75-0.75s-0.75,0.336-0.75,0.75l0,0v7c0,0.414,0.336,0.75,0.75,0.75
	s0.75-0.336,0.75-0.75V59.339z"/>
<path class="st0" d="M522.726,44.45c-0.109-0.4-0.521-0.635-0.921-0.526l-6.753,1.845c-0.4,0.108-0.636,0.52-0.528,0.92
	c0.089,0.329,0.388,0.556,0.728,0.554c0.068,0,0.135-0.008,0.2-0.026l6.753-1.845C522.603,45.261,522.836,44.848,522.726,44.45z"/>
<path class="st0" d="M526.567,87.622c-0.414,0-0.75,0.336-0.75,0.75v2.915l-1.687-1.181c-0.339-0.238-0.807-0.155-1.045,0.184
	c-0.238,0.339-0.155,0.807,0.184,1.045l1.876,1.314l-0.6,0.322c-0.729,0.391-1.577,0.815-2.522,1.263
	c-0.634,0.3-1.308,0.6-2.022,0.9c-0.385,0.153-0.574,0.588-0.421,0.974c0.153,0.385,0.589,0.574,0.974,0.421
	c0.009-0.004,0.018-0.007,0.027-0.011c0.733-0.307,1.428-0.616,2.084-0.926c0.968-0.457,1.84-0.894,2.59-1.3s1.295-0.7,1.672-0.907
	c0.029-0.016,0.042-0.047,0.068-0.066c0.07-0.042,0.133-0.096,0.185-0.16c0.007-0.01,0.008-0.022,0.014-0.032
	c0.013-0.026,0.025-0.053,0.035-0.08c0.041-0.083,0.065-0.173,0.072-0.265c0-0.019,0.015-0.035,0.015-0.054v-4.355
	C527.316,87.958,526.981,87.623,526.567,87.622z"/>
<path class="st0" d="M513.392,67.825c0.414,0,0.75-0.336,0.75-0.75v-7c0-0.414-0.336-0.75-0.75-0.75s-0.75,0.336-0.75,0.75v7
	C512.642,67.489,512.978,67.825,513.392,67.825z"/>
<path class="st0" d="M514.142,49.075c0-0.414-0.336-0.75-0.75-0.75s-0.75,0.336-0.75,0.75v7c0,0.414,0.336,0.75,0.75,0.75
	s0.75-0.336,0.75-0.75V49.075z"/>
<path class="st0" d="M527.3,31.885c-0.007-0.184-0.09-0.357-0.23-0.478c-0.02-0.019-0.03-0.046-0.052-0.063l-0.014-0.006L527,31.326
	l-0.988-0.692c-0.335-0.238-0.8-0.16-1.039,0.176c-0.168,0.236-0.184,0.549-0.04,0.8l-4.162,1.138c-0.4,0.108-0.636,0.52-0.528,0.92
	c0.089,0.329,0.388,0.556,0.728,0.554c0.068,0,0.135-0.008,0.2-0.026l4.655-1.272v0.21c0,0.414,0.336,0.75,0.75,0.75
	s0.75-0.336,0.75-0.75V31.94C527.317,31.921,527.306,31.9,527.3,31.885z"/>
<path class="st0" d="M516.322,96.48c-0.292,0.088-0.584,0.172-0.876,0.252c-1.88,0.553-3.823,0.863-5.782,0.92
	c-0.414,0-0.75,0.336-0.75,0.75s0.336,0.75,0.75,0.75l0,0c2.091-0.057,4.165-0.384,6.172-0.973c0.3-0.084,0.61-0.172,0.914-0.264
	c0.397-0.12,0.621-0.538,0.501-0.935c-0.12-0.397-0.538-0.621-0.935-0.501L516.322,96.48z"/>
<path class="st0" d="M506.092,96.964c-0.252-0.118-0.495-0.253-0.728-0.405l-0.052-0.037c-0.222-0.147-0.434-0.308-0.634-0.484
	c-1.128-1.085-1.925-2.467-2.3-3.986c-0.017-0.043-0.039-0.083-0.064-0.122c0.7-0.1,1.422-0.234,2.183-0.411
	c0.401-0.103,0.643-0.511,0.54-0.913c-0.099-0.388-0.486-0.629-0.878-0.548c-1.734,0.44-3.521,0.631-5.308,0.569
	c-0.437-0.028-0.872-0.088-1.3-0.179c-0.223-0.046-0.454,0.014-0.626,0.162l-2.306-1.624c-0.028-0.015-0.058-0.028-0.088-0.039
	c-0.027-0.051-0.061-0.099-0.1-0.142c-1.066-1.15-1.807-2.563-2.149-4.093c-0.146-0.552-0.274-1.161-0.381-1.811
	c-0.075-0.407-0.467-0.676-0.874-0.601c-0.395,0.073-0.662,0.445-0.606,0.843c0.114,0.7,0.253,1.354,0.412,1.953
	c0.407,1.789,1.285,3.436,2.542,4.772c0.05,0.044,0.105,0.08,0.165,0.109c0.053,0.093,0.125,0.173,0.212,0.235l4.905,3.455
	c0.126,0.089,0.277,0.137,0.431,0.137c0.085-0.005,0.169-0.025,0.248-0.059c-0.007,0.242,0.105,0.472,0.3,0.615l4.868,3.428
	l0.028,0.02l0.009,0.007c0.007,0,0.015,0.006,0.021,0.01c0.285,0.187,0.583,0.354,0.891,0.5c0.368,0.19,0.822,0.046,1.012-0.322
	s0.046-0.822-0.322-1.012c-0.017-0.009-0.035-0.017-0.052-0.025L506.092,96.964z M499.822,93.054c0.006-0.24-0.106-0.469-0.3-0.611
	l-0.436-0.307c0.178,0.007,0.353,0.016,0.538,0.016c0.419,0,0.861-0.024,1.316-0.061c-0.034,0.125-0.034,0.256,0,0.381
	c0.129,0.436,0.28,0.866,0.453,1.287l-0.886-0.624C500.307,92.995,500.05,92.965,499.822,93.054L499.822,93.054z"/>
<path class="st0" d="M526.567,36.382c-0.414,0-0.75,0.336-0.75,0.75v4.828l-1.447-1.013c-0.333-0.246-0.803-0.176-1.049,0.157
	c-0.246,0.333-0.176,0.803,0.157,1.049c0.011,0.008,0.022,0.016,0.033,0.023l1.66,1.162c-0.059,0.144-0.07,0.302-0.033,0.453
	c0.089,0.326,0.386,0.552,0.724,0.552c0.068,0,0.135-0.008,0.2-0.026l0.706-0.193c0.033-0.012,0.064-0.027,0.095-0.044
	c0.026-0.01,0.051-0.021,0.075-0.034c0.093-0.051,0.174-0.122,0.238-0.207l0.009-0.008c0.011-0.016,0.012-0.034,0.022-0.05
	c0.036-0.059,0.064-0.122,0.082-0.188c0.008-0.033,0.013-0.066,0.016-0.1c0.007-0.031,0.013-0.062,0.016-0.093v-6.268
	c0-0.414-0.336-0.75-0.75-0.75C526.57,36.382,526.568,36.382,526.567,36.382z"/>
<path class="st0" d="M495.447,51.406c-0.076-0.406-0.463-0.675-0.87-0.606l-3.173,0.568v-1.984c0-0.414-0.336-0.75-0.75-0.75
	s-0.75,0.336-0.75,0.75v1.44l-4.555-3.188c-0.333-0.246-0.803-0.176-1.049,0.157s-0.176,0.803,0.157,1.049
	c0.011,0.008,0.022,0.016,0.033,0.023l5.494,3.847v4.334c0,0.414,0.336,0.75,0.75,0.75s0.75-0.336,0.75-0.75v-4.168l3.356-0.6
	c0.408-0.072,0.68-0.462,0.607-0.869C495.447,51.408,495.447,51.407,495.447,51.406z"/>
<path class="st0" d="M500.734,69.589c-0.414,0-0.75,0.336-0.75,0.75v7c0,0.414,0.336,0.75,0.75,0.75s0.75-0.336,0.75-0.75v-7
	C501.484,69.925,501.148,69.589,500.734,69.589z"/>
<path class="st0" d="M500.934,89.083c0.026,0.001,0.051,0.001,0.077,0c0.412-0.042,0.712-0.41,0.67-0.822
	c-0.138-1.416-0.205-2.838-0.2-4.26v-2.662c0-0.414-0.336-0.75-0.75-0.75s-0.75,0.336-0.75,0.75V84
	c-0.005,1.473,0.063,2.946,0.205,4.412C500.226,88.795,500.549,89.085,500.934,89.083z"/>
<path class="st0" d="M89.558,36.975c-0.057-0.168-0.171-0.309-0.323-0.4l0.112-0.028c0.401-0.101,0.645-0.508,0.545-0.91
	c-0.044-0.161-0.142-0.302-0.277-0.4c0.33-0.245,0.398-0.712,0.152-1.041c-0.12-0.161-0.299-0.266-0.497-0.293l-41.643-5.952
	c-0.052-0.014-0.105-0.021-0.159-0.023l-7.99-1.142c-0.083-0.012-0.168-0.009-0.251,0.007l-14.6,2.88
	c-0.403,0.076-0.668,0.464-0.592,0.867c0.036,0.19,0.145,0.359,0.304,0.47c-0.338,0.238-0.42,0.705-0.182,1.044
	c0.114,0.162,0.287,0.272,0.482,0.306c-0.255,0.045-0.469,0.219-0.564,0.46L0.054,92.552c-0.155,0.384,0.031,0.821,0.415,0.976
	c0.031,0.012,0.062,0.023,0.095,0.031L54.039,107.2c0.061,0.015,0.123,0.023,0.186,0.023c0.337,0,0.633-0.226,0.723-0.551
	l0.987-3.581l10.871-0.035c0.29-0.001,0.554-0.17,0.677-0.433c0.835-1.789,1.62-3.604,2.353-5.447l7.555,1.6
	c0.051,0.011,0.104,0.017,0.156,0.017c0.349,0,0.651-0.241,0.73-0.58c0.503-2.35,0.87-4.727,1.1-7.119l14.681,5.263
	c0.081,0.029,0.167,0.044,0.253,0.044l0,0c0.099-0.002,0.197-0.025,0.288-0.066c0.012,0,0.024,0,0.036-0.008l5.525-2.655
	l7.253,0.444c0.414,0.025,0.77-0.291,0.794-0.705c0.006-0.095-0.007-0.19-0.036-0.28L89.558,36.975z M105.386,89.5l-2.8,1.346
	c-2.772-4.369-7.016-17.955-7.06-18.1c-0.123-0.396-0.543-0.617-0.939-0.494c-0.396,0.123-0.617,0.543-0.494,0.939
	c0.181,0.583,4.241,13.574,7.134,18.3L94.6,94.683c-11.788-20.1-12.915-51.475-13-54.948l6.751-1.635L105.386,89.5z M59.486,31.159
	l-10.674,2.626c-0.013,0-0.022,0.012-0.034,0.016l-12.039-2.083l10.669-2.284L59.486,31.159z M76.8,33.635l-11.936,2.95
	l-12.415-2.149l10.673-2.624c0.077-0.021,0.149-0.055,0.215-0.1L76.8,33.635z M72.495,37.9l-3.952-0.684l11.907-2.938
	c0.071-0.021,0.138-0.052,0.2-0.093l4.542,0.649L72.495,37.9z M39.395,28.285l3.719,0.531l-9.66,2.068
	c-0.134,0.032-0.256,0.101-0.352,0.2l-4.21-0.728L39.395,28.285z M3.066,89.083l2.579,0.642l-1.28,3.256l-2.6-0.663L3.066,89.083z
	 M5.83,93.355l1.283-3.264l3.524,0.878l-1.209,3.3L5.83,93.355z M53.7,105.569L10.889,94.646l1.211-3.312L39.276,98.1
	c0.059,0.015,0.121,0.022,0.182,0.022c0.414,0,0.75-0.335,0.751-0.749c0-0.345-0.235-0.646-0.57-0.729l-27.02-6.731l5.648-15.433
	c0.133-0.392-0.077-0.818-0.469-0.951c-0.379-0.129-0.792,0.063-0.939,0.435l-5.7,15.589L7.67,88.684l9.73-24.756
	c0.152-0.387-0.039-0.823-0.425-0.974c-0.387-0.152-0.823,0.039-0.975,0.425l0,0L6.2,88.318l-2.567-0.64l21.606-53.737l46.021,7.894
	L58.721,87.34C49.11,85.562,46.835,77.246,46.372,74.8c0.799-0.041,1.595,0.12,2.316,0.468c0.372,0.181,0.821,0.027,1.003-0.346
	c0.181-0.372,0.027-0.821-0.346-1.003c-0.017-0.008-0.034-0.016-0.051-0.023c-1.366-0.718-2.973-0.816-4.416-0.269
	c-1.154,0.546-2.052,1.516-2.509,2.708c-0.135,0.389,0.07,0.815,0.459,0.951c0.08,0.029,0.164,0.043,0.249,0.043
	c0.318-0.001,0.601-0.201,0.708-0.5c0.25-0.602,0.655-1.127,1.173-1.522c0.647,2.959,3.375,11.559,13.362,13.48L53.7,105.569z
	 M66.326,101.562l-3.506,0.011c3.448-6.28,10.036-29.4,10.327-30.42c0.113-0.398-0.118-0.813-0.516-0.927
	c-0.398-0.113-0.813,0.118-0.927,0.517c-0.073,0.26-7.4,25.985-10.567,30.733c-0.017,0.032-0.031,0.066-0.042,0.1l-4.743,0.015
	l16.456-59.73l6.692-1.619c-0.149,4.972-1.547,36.108-13.176,61.32H66.326z M76.976,97.162l-6.588-1.4
	c4.951-12.858,7.607-26.5,9.022-37.131c-0.224,13.581-0.83,30.744-2.436,38.53L76.976,97.162z M81,52.11
	c1.277,11.635,4.339,29,11.642,42.153l-13.111-4.7C80.578,78.722,80.906,63.031,81,52.11z M102.934,92.344l2.927-1.407l0.536,1.619
	L102.934,92.344z"/>
<path class="st0" d="M85.158,45.227c-0.414,0.023-0.73,0.377-0.707,0.791c0,0,0,0,0,0c0.621,8.088,1.955,16.106,3.986,23.96
	c0.096,0.403,0.501,0.651,0.904,0.555s0.651-0.501,0.555-0.904c-0.002-0.01-0.005-0.02-0.008-0.03
	c-2.006-7.758-3.324-15.677-3.938-23.666c-0.017-0.407-0.36-0.724-0.767-0.707C85.174,45.226,85.166,45.226,85.158,45.227z"/>
<path class="st0" d="M72.6,53.894c-0.402-0.097-0.807,0.148-0.907,0.55L67.851,70.1c-0.099,0.402,0.148,0.808,0.55,0.907
	c0.402,0.099,0.808-0.148,0.907-0.55L73.151,54.8C73.249,54.398,73.002,53.992,72.6,53.894z"/>
<path class="st0" d="M242.153,53.084c0-11.208-2.777-19.964-8.253-26.026c-2.925-3.197-6.497-5.735-10.477-7.447
	c-0.047-0.026-0.096-0.047-0.147-0.063c-4.162-1.761-8.567-2.882-13.064-3.327c-0.276-0.031-0.54-0.045-0.813-0.071
	c-0.045-0.008-0.091-0.012-0.137-0.012c-2.794-0.281-5.608-0.298-8.405-0.053c-0.046-0.001-0.092,0.002-0.138,0.01
	c-2.334,0.216-4.634,0.706-6.853,1.461c-0.015,0.007-0.031,0.009-0.045,0.017c-0.5,0.176-1,0.356-1.485,0.56
	c-3.139,1.396-5.881,3.549-7.981,6.268l-7.884,9.93c-0.007,0.008-0.008,0.018-0.014,0.027c-3.656,4.963-5.505,12.067-5.505,21.19
	v8.606c-0.047,4.413,0.463,8.815,1.518,13.1c-1.531,0.75-2.802,1.94-3.651,3.418c-2.594-2.058-6.365-1.623-8.422,0.971
	c-2.058,2.594-1.623,6.365,0.971,8.422c0.15,0.119,0.306,0.231,0.467,0.335c-0.355,0.773-0.54,1.613-0.542,2.463
	c0.004,3.319,2.693,6.008,6.012,6.012c1.538,0.005,3.017-0.588,4.125-1.655c1.132,3.114,4.574,4.721,7.689,3.59
	c2.362-0.858,3.938-3.098,3.95-5.611c0.942,0.577,2.025,0.882,3.13,0.882c0.072,0,0.142-0.008,0.214-0.011
	c0.02,0.02,0.042,0.039,0.064,0.057c5.086,2.793,10.696,4.503,16.475,5.02c1.84,0.209,3.691,0.315,5.543,0.32
	c0.812,0,1.6-0.034,2.375-0.079c0.021,0,0.039,0.012,0.06,0.012c0.028-0.004,0.056-0.01,0.084-0.017
	c6.482-0.4,11.758-2.359,15.731-5.878c1.275-1.139,2.397-2.438,3.34-3.865c0.014-0.016,0.035-0.023,0.047-0.041l4.188-5.849
	c5.039-6.937,7.778-15.277,7.833-23.851V53.084z M221.883,20.584l-6.475,8.022c-3.56-1.418-7.287-2.373-11.09-2.841l5.286-8.092
	c0.149,0.015,0.292,0.022,0.442,0.039C214.105,18.118,218.089,19.085,221.883,20.584L221.883,20.584z M207.223,56.241l-1.372-5.7
	l3.5,3.99L207.223,56.241z M204.064,49.527l1.729,7.183l-6.422-0.67L204.064,49.527z M213.676,65.983l-5.121-0.628l2.121-1.81
	l4.639,0.445L213.676,65.983z M214.744,67.047l2.623-3.191c0.031-0.051,0.055-0.106,0.072-0.163V69.3
	c0.024,2.272-0.149,4.541-0.518,6.783c-0.315,1.701-1.065,3.291-2.178,4.615L214.744,67.047z M217.444,63.04
	c-0.112-0.225-0.33-0.379-0.58-0.407l-6.357-0.611c-0.203-0.021-0.405,0.042-0.559,0.176l-2.423,2.069v-6.34l2.16-1.735V60.5
	c0,0.414,0.336,0.75,0.75,0.75s0.75-0.336,0.75-0.75l0,0v-5.872c0-0.076-0.013-0.152-0.036-0.224c0-0.015-0.013-0.028-0.019-0.042
	c-0.027-0.07-0.064-0.135-0.111-0.194c-0.008-0.011-0.01-0.024-0.019-0.034l-6.02-6.866c-0.006-0.007-0.015-0.009-0.021-0.016
	c-0.06-0.065-0.13-0.119-0.209-0.159c-0.014-0.007-0.028-0.009-0.042-0.015c-0.047-0.022-0.097-0.04-0.148-0.052
	c-0.021,0-0.042,0-0.064,0s-0.045,0-0.068,0c-0.075-0.002-0.151,0.007-0.223,0.028c-0.012,0-0.024,0-0.036,0.009
	c-0.086,0.03-0.165,0.075-0.234,0.134l-0.015,0.008c-0.011,0.01-0.015,0.023-0.026,0.034c-0.032,0.028-0.061,0.059-0.088,0.092
	l-6.4,8.889c-0.012,0.024-0.023,0.048-0.033,0.073c-0.048,0.118-0.084,0.24-0.108,0.365v2.089l-2.174-0.141
	c-0.16-0.012-0.319,0.029-0.453,0.116l-4.671,2.978c-0.019,0.012-0.029,0.032-0.047,0.045s-0.036,0.016-0.051,0.03
	c-0.049,0.067-0.097,0.133-0.146,0.2c-0.043,0.115-0.077,0.234-0.1,0.355v12.442l-0.073-0.238c-0.465-2.84-0.752-5.706-0.86-8.581
	v-8.607c-0.057-2.788,0.237-5.572,0.875-8.286c0.419-1.787,1.245-3.454,2.414-4.87c-0.073,1.762-0.165,4.675-0.165,8.319
	c0,0.414,0.336,0.75,0.75,0.75s0.75-0.336,0.75-0.75c0-4.96,0.17-8.559,0.231-9.7c0.339-0.23,0.694-0.434,1.063-0.612
	c-0.225,1.825-0.334,3.662-0.324,5.5v8.606c0,0.414,0.336,0.75,0.75,0.75s0.75-0.336,0.75-0.75V47.7
	c-0.016-2.041,0.128-4.081,0.43-6.1c0.094-0.026,0.18-0.063,0.276-0.086c2.134-0.453,4.331-0.535,6.493-0.243
	c2.27,0.208,4.491,0.78,6.579,1.694c1.739,0.792,3.26,1.993,4.435,3.5c1.259,1.705,2.143,3.657,2.595,5.728
	c0.611,2.791,0.896,5.643,0.849,8.5L217.444,63.04z M197.26,60.24v2.033l-4.67-0.473l2.641-1.692L197.26,60.24z M196.423,36.8
	c-0.158,1.422-0.963,2.692-2.181,3.443c-0.78,0.393-1.703,0.381-2.473-0.032c-2.222-1.082-3.622-4.585-3.057-7.647
	c0.158-1.423,0.964-2.693,2.184-3.443c0.363-0.186,0.766-0.283,1.174-0.284c0.452,0.005,0.896,0.114,1.3,0.317
	c2.217,1.085,3.614,4.586,3.049,7.646L196.423,36.8z M210.985,41.609c-2.222-1.082-3.622-4.585-3.057-7.647
	c0.158-1.423,0.964-2.693,2.184-3.443c0.363-0.186,0.766-0.283,1.174-0.284c0.452,0.005,0.896,0.114,1.3,0.317
	c2.222,1.081,3.619,4.582,3.054,7.645c-0.158,1.422-0.963,2.692-2.181,3.443c-0.781,0.396-1.706,0.385-2.478-0.028L210.985,41.609z
	 M209.379,29.069c-1.677,0.975-2.805,2.675-3.051,4.6c-0.441,2.425,0.042,4.926,1.355,7.012c-1.481-0.435-2.997-0.736-4.532-0.9
	c-2.069-0.258-4.165-0.214-6.222,0.13c0.549-0.854,0.921-1.809,1.094-2.809c0.711-3.85-1.022-7.98-3.943-9.4
	c-0.675-0.336-1.423-0.498-2.177-0.472c3.662-0.535,7.38-0.576,11.053-0.123c2.681,0.287,5.334,0.8,7.929,1.533
	c-0.526,0.047-1.038,0.194-1.51,0.432L209.379,29.069z M194.643,18.869c1.506-0.49,3.053-0.849,4.621-1.073l-5.492,7.68
	c-1.68,0.156-3.344,0.447-4.977,0.869L194.643,18.869z M207.913,17.527l-5.255,8.043c-2.306-0.247-4.626-0.324-6.943-0.233
	l5.562-7.779c2.206-0.184,4.424-0.195,6.632-0.032L207.913,17.527z M185.533,25.336c1.702-2.189,3.846-3.995,6.292-5.3l-5.55,7.1
	c-1.188,0.439-2.337,0.974-3.438,1.6L185.533,25.336z M182.485,92.62c-0.242-0.336-0.711-0.412-1.047-0.17
	c-0.284,0.204-0.389,0.577-0.253,0.899c0.257,0.573,0.391,1.195,0.392,1.823c0.001,2.485-2.012,4.501-4.497,4.503
	c-2.376,0.001-4.343-1.844-4.493-4.216c-0.023-0.414-0.376-0.73-0.79-0.708c-0.254,0.014-0.484,0.156-0.61,0.377
	c-0.796,1.391-2.276,2.249-3.878,2.248c-2.479,0.012-4.499-1.987-4.511-4.467c-0.004-0.851,0.233-1.685,0.685-2.406
	c0.218-0.353,0.108-0.816-0.245-1.033c-0.022-0.013-0.044-0.026-0.067-0.037c-2.248-1.059-3.212-3.74-2.153-5.989
	s3.74-3.212,5.989-2.153c0.566,0.266,1.069,0.648,1.479,1.12c0.274,0.31,0.747,0.34,1.057,0.066
	c0.085-0.075,0.152-0.169,0.196-0.274c1.507-3.609,5.654-5.312,9.263-3.805c2.636,1.101,4.352,3.678,4.352,6.534
	c0,0.053,0,0.1-0.008,0.157l-0.008,0.138c-0.019,0.414,0.302,0.764,0.715,0.783c0.116,0.005,0.231-0.016,0.337-0.063
	c0.571-0.255,1.189-0.387,1.814-0.388c2.492-0.002,4.514,2.016,4.516,4.508c0.002,2.492-2.016,4.514-4.508,4.516
	C184.721,94.584,183.326,93.85,182.485,92.62L182.485,92.62z M225.756,94.384c-3.562,3.155-8.275,4.979-14.07,5.457V89.93
	c0-0.414-0.336-0.75-0.75-0.75s-0.75,0.336-0.75,0.75v10c-1.674,0.065-3.35,0.035-5.021-0.09v-5.576c0-0.414-0.336-0.75-0.75-0.75
	s-0.75,0.336-0.75,0.75v5.443c-0.182-0.018-0.359-0.031-0.543-0.051c-5.042-0.473-9.957-1.857-14.505-4.085
	c3.04-1.332,4.424-4.875,3.093-7.915c-0.958-2.188-3.121-3.6-5.51-3.598c-0.464,0-0.927,0.055-1.379,0.163
	c-0.383-4.714-4.514-8.226-9.229-7.843c-0.58,0.047-1.153,0.153-1.711,0.316c-0.992-4.105-1.472-8.316-1.429-12.539v-8.606
	c0-10.792,2.636-18.589,7.834-23.174c2.988-2.554,6.606-4.262,10.477-4.946c-0.206,0.066-0.407,0.148-0.6,0.245
	c-1.677,0.975-2.805,2.676-3.051,4.6c-0.711,3.849,1.022,7.98,3.946,9.4c0.319,0.156,0.654,0.277,1,0.36
	c-0.354,0.283-0.689,0.59-1,0.92c-1.437,1.636-2.446,3.602-2.938,5.723c-0.671,2.839-0.982,5.752-0.925,8.669v8.606
	c0.105,2.988,0.405,5.966,0.9,8.914c0.434,1.527,0.978,3.021,1.626,4.47c0.201,0.362,0.657,0.493,1.02,0.292
	c0.238-0.132,0.386-0.383,0.386-0.655V63.164l6.134,0.619V83.91c0,0.414,0.336,0.75,0.75,0.75s0.75-0.336,0.75-0.75V57.484
	l7.265,0.759v23.066c0,0.414,0.336,0.75,0.75,0.75s0.75-0.336,0.75-0.75V66.741l5.724,0.7v15.072c0,0.414,0.336,0.75,0.75,0.75
	c0.189,0,0.371-0.071,0.509-0.199l0.405-0.374c1.818-1.682,3.043-3.909,3.49-6.345c0.384-2.329,0.565-4.687,0.541-7.047v-8.605
	c0.047-2.974-0.252-5.944-0.891-8.849c-0.501-2.277-1.478-4.422-2.867-6.294c-0.602-0.771-1.288-1.472-2.046-2.09
	c0.365-0.075,0.718-0.198,1.051-0.365c1.676-0.976,2.802-2.676,3.047-4.6c0.631-3.183-0.435-6.466-2.817-8.67
	c4.3,1.631,8.161,4.242,11.274,7.628c2.174,2.445,3.89,5.262,5.066,8.316H227.2v-3.19c0-0.414-0.336-0.75-0.75-0.75
	s-0.75,0.336-0.75,0.75v3.192h-2.6c-0.414,0-0.75,0.336-0.75,0.75s0.336,0.75,0.75,0.75h2.6v2.981c0,0.414,0.336,0.75,0.75,0.75
	h2.313v2.581c0,0.414,0.336,0.75,0.75,0.75h3.473c0.389,2.697,0.579,5.418,0.57,8.143v8.605c0,0.31-0.01,0.609-0.014,0.915
	c-0.264-0.134-0.549-0.221-0.843-0.256c-0.846-0.051-1.684,0.192-2.372,0.688c-0.309-0.291-0.696-0.485-1.114-0.559
	c-1.081-0.057-2.141,0.315-2.948,1.036c-0.314,0.27-0.349,0.744-0.079,1.058c0.27,0.314,0.744,0.349,1.058,0.079l0,0
	c0.471-0.425,1.075-0.672,1.709-0.7c0.267,0.06,0.487,0.247,0.59,0.5c0.204,0.361,0.662,0.488,1.023,0.284
	c0.053-0.03,0.102-0.066,0.146-0.107c0.488-0.477,1.134-0.758,1.816-0.788c0.391,0.068,0.729,0.311,0.919,0.659
	c0.009,0.014,0.026,0.019,0.036,0.032c-0.423,9.404-3.015,16.284-7.732,20.46L225.756,94.384z M230.266,51h2.1
	c0.137,0.6,0.262,1.21,0.377,1.831h-2.479L230.266,51z M227.2,49.5v-2.229h4.107c0.248,0.726,0.48,1.466,0.687,2.231L227.2,49.5z
	 M240.649,61.9c-0.054,8.118-2.609,16.022-7.317,22.636c1.218-4.38,1.799-8.912,1.724-13.457v-8.603
	c0.011-2.924-0.205-5.844-0.645-8.735c0.017-0.051,0.027-0.104,0.032-0.158c-0.003-0.134-0.044-0.265-0.117-0.378
	c-0.165-0.983-0.358-1.94-0.579-2.871c0.007-0.027,0.013-0.054,0.017-0.082c-0.004-0.146-0.051-0.287-0.136-0.406
	c-0.303-1.211-0.653-2.377-1.051-3.5c-0.012-0.059-0.032-0.116-0.058-0.17c-1.252-3.585-3.194-6.89-5.716-9.729
	c-2.796-3.062-6.188-5.521-9.969-7.224l6.475-8.021c3.592,1.618,6.817,3.952,9.475,6.86c5.22,5.777,7.867,14.2,7.867,25.021
	L240.649,61.9z"/>
<path class="st0" d="M194.189,66.3c-0.414,0-0.75,0.336-0.75,0.75v1.55c0,0.414,0.336,0.75,0.75,0.75s0.75-0.336,0.75-0.75v-1.546
	c0.002-0.414-0.332-0.752-0.746-0.754C194.192,66.3,194.19,66.3,194.189,66.3z"/>
<path class="st0" d="M194.189,70.927c-0.414,0-0.75,0.336-0.75,0.75v1.541c0,0.414,0.336,0.75,0.75,0.75s0.75-0.336,0.75-0.75
	v-1.541C194.939,71.263,194.603,70.927,194.189,70.927z"/>
<path class="st0" d="M194.189,75.55c-0.414,0-0.75,0.336-0.75,0.75v1.541c0,0.414,0.336,0.75,0.75,0.75s0.75-0.336,0.75-0.75V76.3
	C194.939,75.886,194.603,75.55,194.189,75.55z"/>
<path class="st0" d="M202.388,63.951c0.414,0,0.75-0.336,0.75-0.75V61.66c0-0.414-0.336-0.75-0.75-0.75s-0.75,0.336-0.75,0.75v1.54
	c-0.001,0.414,0.335,0.75,0.749,0.751C202.387,63.951,202.388,63.951,202.388,63.951z"/>
<path class="st0" d="M202.388,68.575c0.414,0,0.75-0.336,0.75-0.75v-1.541c0-0.414-0.336-0.75-0.75-0.75s-0.75,0.336-0.75,0.75
	v1.541C201.638,68.239,201.974,68.575,202.388,68.575z"/>
<path class="st0" d="M202.388,73.2c0.414,0,0.75-0.336,0.75-0.75v-1.543c0-0.414-0.336-0.75-0.75-0.75s-0.75,0.336-0.75,0.75v1.541
	c-0.001,0.414,0.334,0.751,0.748,0.752C202.387,73.2,202.387,73.2,202.388,73.2z"/>
<path class="st0" d="M210.431,70.494c-0.414,0-0.75,0.336-0.75,0.75v1.541c0,0.414,0.336,0.75,0.75,0.75s0.75-0.336,0.75-0.75
	v-1.541C211.181,70.83,210.845,70.494,210.431,70.494z"/>
<path class="st0" d="M210.431,75.117c-0.414,0-0.75,0.336-0.75,0.75v1.542c0,0.414,0.336,0.75,0.75,0.75s0.75-0.336,0.75-0.75
	v-1.542C211.181,75.453,210.845,75.117,210.431,75.117z"/>
<path class="st0" d="M202.388,77.821c0.414,0,0.75-0.336,0.75-0.75V75.53c0-0.414-0.336-0.75-0.75-0.75s-0.75,0.336-0.75,0.75v1.541
	C201.638,77.485,201.974,77.821,202.388,77.821z"/>
<path class="st0" d="M183.937,40.847c-0.774-0.05-1.543,0.149-2.195,0.568c-0.491-0.45-1.145-0.677-1.809-0.628
	c-0.746,0.119-1.402,0.563-1.788,1.213c-0.217,0.353-0.106,0.815,0.247,1.032c0.353,0.217,0.815,0.106,1.032-0.247
	c0.005-0.009,0.011-0.018,0.016-0.027c0.149-0.236,0.381-0.408,0.651-0.48c0.412,0.047,0.784,0.268,1.023,0.606
	c0.272,0.295,0.727,0.326,1.036,0.07c0.458-0.385,1.033-0.602,1.631-0.616c0.323,0.046,0.611,0.228,0.792,0.5
	c0.252,0.329,0.723,0.391,1.051,0.139c0.329-0.252,0.391-0.723,0.139-1.051C185.332,41.327,184.67,40.935,183.937,40.847z"/>
<path class="st0" d="M43.773,64.069c0.834,0.412,1.781,0.536,2.693,0.352c1.877-0.488,3.42-1.822,4.174-3.609
	c1.72-3.517,1.16-7.962-1.272-10.112c-1.011-0.942-2.412-1.343-3.768-1.078c-1.878,0.486-3.421,1.821-4.174,3.608
	c-1.72,3.518-1.161,7.962,1.273,10.117C43.022,63.636,43.384,63.879,43.773,64.069z M42.89,53.943
	c0.536-1.327,1.653-2.333,3.029-2.727c0.563-0.115,1.149-0.039,1.664,0.217c0.257,0.127,0.495,0.289,0.709,0.479
	c1.849,1.639,2.256,5.389,0.888,8.186c-0.536,1.328-1.654,2.335-3.03,2.729c-0.858,0.164-1.742-0.097-2.373-0.7
	C41.929,60.491,41.522,56.741,42.89,53.943z"/>
<path class="st0" d="M48.785,58.851c0.757-1.792,0.315-3.866-1.108-5.192c-0.081-0.072-0.167-0.12-0.25-0.182l-1.335,2.73
	l-0.7-3.263c-0.757,0.17-1.388,0.69-1.7,1.4c-0.757,1.792-0.315,3.866,1.108,5.192c0.893,0.979,2.411,1.049,3.391,0.156
	C48.447,59.458,48.65,59.171,48.785,58.851z"/>
<path class="st0" d="M139.269,95.37c-0.011-0.363-0.314-0.649-0.677-0.639c-0.03,0.001-0.06,0.004-0.089,0.009
	c-0.412,0.076-0.709,0.44-0.7,0.859c0.008,0.191,0.229,4.715,3.375,6.849c0.132,0.088,0.292,0.126,0.45,0.107
	c0.236-0.03,0.448-0.16,0.582-0.356c0.251-0.318,0.197-0.78-0.122-1.031c-0.003-0.002-0.006-0.005-0.009-0.007
	C139.477,99.4,139.271,95.41,139.269,95.37z"/>
<path class="st0" d="M133.484,89.991c-0.418-0.042-0.802,0.235-0.892,0.646c-0.168,0.742-0.27,1.497-0.307,2.257
	c-0.199-2.245-0.17-4.505,0.086-6.744c0.061-0.358-0.18-0.697-0.538-0.758c-0.033-0.006-0.066-0.009-0.099-0.009
	c-0.421,0.008-0.771,0.324-0.822,0.742c-0.048,0.388-1.137,9.54,1.848,12.573c0.143,0.143,0.345,0.212,0.546,0.186
	c0.113-0.013,0.221-0.051,0.318-0.11c0.292-0.174,0.452-0.505,0.407-0.842c-0.375-2.349-0.379-4.742-0.012-7.092
	c0.105-0.353-0.096-0.724-0.449-0.829C133.542,90.002,133.513,89.996,133.484,89.991z"/>
<path class="st0" d="M133.5,88.478c0.055,0.007,0.111,0.007,0.166,0c0.354-0.049,0.639-0.313,0.716-0.662l0.535-2.424
	c0.098-0.354-0.109-0.72-0.463-0.819c-0.029-0.008-0.059-0.014-0.088-0.018c-0.419-0.033-0.797,0.25-0.882,0.661l-0.535,2.425
	c-0.098,0.354,0.109,0.72,0.463,0.819C133.441,88.468,133.47,88.474,133.5,88.478z"/>
<path class="st0" d="M127.522,81.625c-0.419-0.029-0.794,0.257-0.877,0.668l-0.475,2.236c-0.096,0.354,0.113,0.719,0.467,0.815
	c0.03,0.008,0.061,0.014,0.091,0.018c0.053,0.006,0.107,0.006,0.16,0c0.356-0.049,0.643-0.317,0.717-0.668l0.475-2.236
	c0.096-0.354-0.113-0.719-0.467-0.815C127.583,81.635,127.553,81.629,127.522,81.625z"/>
<path class="st0" d="M126.322,53.511c0.076-1.479-0.565-2.905-1.722-3.83c-1.067-0.737-2.427-0.902-3.639-0.443
	c-2.964,1.192-4.918,4.052-4.951,7.247c-0.076,1.479,0.565,2.905,1.722,3.83c0.633,0.456,1.396,0.697,2.176,0.689
	c0.498-0.003,0.992-0.086,1.463-0.246C124.335,59.566,126.289,56.706,126.322,53.511z M118.5,59.252
	c-0.811-0.682-1.248-1.709-1.176-2.766c0.038-2.627,1.627-4.982,4.049-6c0.337-0.115,0.69-0.175,1.046-0.178
	c0.506-0.008,1.002,0.147,1.415,0.44c0.812,0.681,1.25,1.709,1.179,2.767c-0.038,2.627-1.627,4.982-4.049,6
	C120.149,59.837,119.228,59.739,118.5,59.252z"/>
<path class="st0" d="M121.165,51.978c-0.094,0.031-0.183,0.077-0.274,0.115v2.453l-1.857-1.046
	c-0.498,0.588-0.788,1.324-0.823,2.093c0,1.458,1.323,2.2,2.954,1.663c1.614-0.514,2.772-1.932,2.954-3.616
	C124.119,52.184,122.8,51.439,121.165,51.978z"/>
<path class="st0" d="M114.113,34.4c0.179,0,0.351-0.064,0.487-0.18c0.142-0.123,3.534-2.96,6.6-0.028
	c0.299,0.286,0.774,0.276,1.061-0.023s0.276-0.774-0.023-1.061c-3.228-3.09-7.045-1.368-8.612-0.028
	c-0.315,0.269-0.352,0.743-0.083,1.057C113.685,34.304,113.894,34.4,114.113,34.4z"/>
<path class="st0" d="M42.6,14.042c0.111-0.1,2.768-2.54,7,0.095c0.348,0.225,0.812,0.125,1.037-0.223s0.125-0.812-0.223-1.037
	c-0.007-0.005-0.014-0.009-0.021-0.013c-5.253-3.27-8.8,0.063-8.831,0.1c-0.278,0.307-0.255,0.781,0.052,1.059
	C41.892,14.275,42.313,14.283,42.6,14.042z"/>
<path class="st0" d="M167.071,87.157c-0.414,0-0.75,0.336-0.75,0.75s0.336,0.75,0.75,0.75c2.491,0.003,4.509,2.021,4.512,4.512
	c0,0.414,0.336,0.75,0.75,0.75s0.75-0.336,0.75-0.75C173.079,89.85,170.39,87.161,167.071,87.157z"/>
<path class="st0" d="M179.547,87.606c-0.059-1.196,0.363-2.365,1.171-3.248c0.278-0.307,0.254-0.782-0.053-1.059
	c-0.306-0.276-0.777-0.254-1.056,0.049c-2.234,2.456-2.055,6.257,0.4,8.492c0.305,0.28,0.78,0.259,1.06-0.046
	c0.28-0.305,0.259-0.78-0.046-1.06c-0.001-0.001-0.003-0.002-0.004-0.004C180.131,89.928,179.601,88.802,179.547,87.606z"/>
<path class="st0" d="M250.366,41.526v20.607c0,0.414,0.336,0.75,0.75,0.75s0.75-0.336,0.75-0.75V41.526
	c0-0.414-0.336-0.75-0.75-0.75S250.366,41.112,250.366,41.526z"/>
<path class="st0" d="M261.273,70.958c0-2.258-1.83-4.088-4.088-4.088c-2.258,0-4.088,1.83-4.088,4.088
	c0,2.258,1.83,4.088,4.088,4.088c0,0,0.001,0,0.001,0C259.442,75.043,261.271,73.214,261.273,70.958z M254.598,70.958
	c0-1.429,1.159-2.588,2.588-2.588c1.429,0,2.588,1.159,2.588,2.588s-1.159,2.588-2.588,2.588l0,0
	c-1.428-0.003-2.584-1.16-2.586-2.588H254.598z"/>
<path class="st0" d="M422.416,21.1c-0.031-0.065-0.071-0.125-0.119-0.179c-0.005-0.006-0.007-0.013-0.013-0.019
	c-0.022-0.016-0.044-0.031-0.068-0.045c-0.045-0.039-0.095-0.073-0.148-0.1c-0.039-0.017-0.08-0.03-0.121-0.039
	c-0.033-0.013-0.066-0.023-0.1-0.031l-70.769-9.117c-0.23-0.029-0.461,0.049-0.626,0.213l-10,10
	c-0.037,0.043-0.068,0.09-0.094,0.141c-0.023,0.03-0.044,0.061-0.062,0.094c-0.042,0.094-0.064,0.197-0.064,0.3v10.549l-1.632,1.142
	c-0.03,0.027-0.058,0.056-0.083,0.087c-0.018,0.017-0.043,0.023-0.06,0.042s-0.011,0.029-0.02,0.041
	c-0.056,0.075-0.097,0.159-0.121,0.249c-0.005,0.019-0.017,0.034-0.02,0.053c-0.02,0.11-0.015,0.224,0.015,0.332
	c0,0.009,0,0.018,0,0.027l2.064,6.824c-0.09,0.121-0.14,0.267-0.144,0.418v44.556c0,0.377,0.28,0.695,0.654,0.744l13.724,1.769
	c0.033,0.004,0.067,0.006,0.1,0.006c0.011,0,0.021-0.005,0.032-0.006l1.414,4.675c0.085,0.283,0.329,0.489,0.622,0.527l19.086,2.459
	c0.033,0.004,0.067,0.006,0.1,0.006c0.122,0.004,0.242-0.029,0.345-0.095c0.029-0.012,0.056-0.026,0.083-0.041h0.007l0,0
	l5.758-4.031c0.081,0.046,0.169,0.076,0.261,0.089l29.242,3.76c0.033,0.004,0.067,0.006,0.1,0.006
	c0.123,0.008,0.244-0.027,0.343-0.1c0.054-0.024,0.105-0.055,0.152-0.091c0.006-0.005,0.008-0.014,0.014-0.019
	s0.015-0.008,0.021-0.014l10-10c0.141-0.14,0.22-0.331,0.22-0.53V21.436c0-0.094-0.018-0.188-0.053-0.275
	C422.443,21.14,422.426,21.123,422.416,21.1z M367.684,78.468l-1.1,4.4c-0.419-1.646-0.829-3.3-1.228-4.933
	c-0.658-2.691-1.373-5.444-2.125-8.187L354,36.75l8.7-6.088l9.084,32.49c0.032,0.105,0.086,0.201,0.16,0.282l-2.186,7.336
	C369,73.4,368.3,75.994,367.684,78.468z M349.226,28.4l4.257,0.548c0.134,0.122,0.309,0.191,0.491,0.193
	c0.116-0.002,0.23-0.032,0.333-0.087l6.813,0.878l-8.176,5.723l-11.894-1.528L349.226,28.4z M366.121,37.323l-2.262-8.089
	c-0.021-0.077-0.055-0.151-0.1-0.217v-0.011c-0.007-0.01-0.019-0.015-0.027-0.025c-0.045-0.058-0.098-0.109-0.158-0.151
	c-0.022-0.016-0.045-0.03-0.068-0.043c-0.058-0.032-0.12-0.056-0.184-0.071c-0.021-0.005-0.041-0.014-0.062-0.018
	s-0.013,0-0.019-0.005l-8.508-1.1v-2.748l11.4,1.468L366.121,37.323z M346.655,17.711l10.359,1.465l-3.505,4L342.6,21.77
	L346.655,17.711z M355.301,23.411l3.488-3.98l24.3,3.438l-3.305,3.7L355.301,23.411z M384.877,23.122l3.242,0.459
	c0.035,0.005,0.071,0.007,0.106,0.007c0.414-0.001,0.749-0.338,0.748-0.752c-0.001-0.374-0.277-0.69-0.648-0.741l-15.3-2.165
	l3.23-3.6l43.89,5.654l-8.66,8.66l-29.9-3.851L384.877,23.122z M421,43.907l-3.5,3.024V39.6l3.5-3.253V43.907z M416,48.227
	l-3.5,3.024v-7.007l3.5-3.253V48.227z M411,61.067c-2.018-0.254-4.339-0.547-6.4-0.811v-7.417l6.4,0.721V61.067z M412.5,53.234
	l8.5-7.344v7.785l-8.5,6.7V53.234z M421,34.3l-8.5,7.9V31.746l8.5-8.5V34.3z M351.256,13.11l23.192,2.99l-3.212,3.575l-23.254-3.29
	L351.256,13.11z M341.736,23.172l11.488,1.48v2.756l-4.095-0.528c-0.185-0.027-0.373,0.02-0.525,0.129l-6.868,4.808V23.172z
	 M351.424,78.172l-9.688-0.979V46.148L351.424,78.172z M341.736,78.7l6.916,0.7v7.47l-6.916-0.891V78.7z M350.152,87.058v-7.503
	l1.742,0.176l2.378,7.862L350.152,87.058z M340.088,35.516l12.46,1.6l6.5,23.244c-0.642-1.1-1.584-1.995-2.716-2.579
	c-1.227-0.634-2.683-0.643-3.917-0.024c-1.677,0.975-2.805,2.675-3.051,4.6c-0.711,3.849,1.022,7.98,3.946,9.4
	c0.624,0.311,1.311,0.476,2.009,0.481c0.663,0,1.317-0.157,1.908-0.459c1.676-0.976,2.802-2.676,3.047-4.6
	c0.112-0.623,0.163-1.256,0.152-1.889l1.356,4.851c0.748,2.726,1.46,5.466,2.114,8.143c0.631,2.593,1.293,5.221,1.97,7.812
	c0.086,0.33,0.385,0.561,0.726,0.561l0,0c0.342-0.002,0.64-0.235,0.724-0.567l0.692-2.763c0.379,0.129,0.777,0.192,1.177,0.187
	c1.481,0,3.875-0.731,7.551-3.578c0.232,0.694,0.237,1.444,0.014,2.141c-0.112,0.398,0.119,0.812,0.517,0.924
	c0.001,0,0.001,0,0.002,0.001c0.065,0.019,0.132,0.028,0.2,0.028c0.336,0,0.631-0.223,0.722-0.547
	c0.756-2.315-0.386-4.823-2.628-5.772c-0.383-0.158-0.821,0.023-0.98,0.406c-0.158,0.382,0.023,0.82,0.404,0.979
	c0.329,0.152,0.633,0.355,0.9,0.6c-4.541,3.538-6.832,3.538-7.517,3.169l0.761-3.038c0.613-2.458,1.307-5.03,2.059-7.641l9.088-30.5
	l12.569,1.62L383.9,69.523c0.178-3.459-1.478-6.883-4.083-8.151c-1.227-0.634-2.683-0.643-3.917-0.024
	c-1.677,0.975-2.805,2.676-3.051,4.6c-0.711,3.849,1.022,7.98,3.946,9.4c0.624,0.311,1.311,0.476,2.009,0.481
	c0.663,0,1.317-0.157,1.908-0.459c0.705-0.369,1.313-0.9,1.774-1.548l-7.047,21.422l-17.99-2.317L340.088,35.516z M358.674,66.891
	c-0.158,1.422-0.962,2.693-2.181,3.443c-0.78,0.393-1.703,0.381-2.473-0.032c-2.222-1.082-3.622-4.585-3.057-7.647
	c0.158-1.423,0.964-2.693,2.184-3.443c0.364-0.186,0.766-0.284,1.175-0.284c0.452,0.005,0.896,0.114,1.3,0.317
	C357.842,60.326,359.239,63.827,358.674,66.891z M377.374,94.161l17.107-52l7.948-5.564l-17.108,52L377.374,94.161z M393.659,40.9
	l-11.895-1.532l8.176-5.723l11.894,1.533L393.659,40.9z M382.159,70.473c-0.158,1.422-0.963,2.692-2.181,3.443
	c-0.78,0.393-1.703,0.381-2.473-0.032c-2.222-1.082-3.622-4.585-3.057-7.647c0.158-1.423,0.964-2.693,2.184-3.443
	c0.364-0.186,0.766-0.284,1.175-0.284c0.452,0.005,0.896,0.114,1.3,0.317c2.224,1.086,3.621,4.588,3.056,7.651L382.159,70.473z
	 M386.387,89.673c0.133-0.093,0.232-0.226,0.283-0.38l17.89-54.382c0.005-0.016,0-0.034,0-0.05c0.014-0.062,0.02-0.125,0.018-0.188
	c0.003-0.039,0.003-0.078,0-0.117c-0.033-0.093-0.067-0.186-0.1-0.279c0-0.005-0.01-0.008-0.013-0.013s0-0.012-0.008-0.017
	c-0.053-0.073-0.118-0.135-0.193-0.184c-0.007-0.005-0.012-0.014-0.02-0.019c-0.089-0.056-0.188-0.092-0.292-0.106l-0.015-0.005
	l-14.1-1.817c-0.185-0.025-0.373,0.021-0.525,0.129l-10,7c-0.021,0.015-0.032,0.038-0.052,0.054c-0.05,0.04-0.094,0.086-0.132,0.138
	c-0.021,0.034-0.039,0.069-0.054,0.106c-0.02,0.032-0.037,0.065-0.052,0.1l-6.324,21.223L367.5,42.255
	c0.076-0.115,0.119-0.248,0.122-0.386v-6.336l10.6,1.3c0.031,0.003,0.061,0.005,0.092,0.005c0.414,0.002,0.752-0.332,0.754-0.746
	c0.002-0.382-0.284-0.705-0.664-0.749l-10.777-1.317v-7.52L411,32.1v19.95l-7.07-0.8c-0.412-0.044-0.782,0.254-0.826,0.666
	c-0.003,0.028-0.004,0.056-0.004,0.084v8.063c-2.189-0.282-3.845-0.5-4.078-0.543c-0.404-0.093-0.806,0.158-0.9,0.562
	c-0.09,0.388,0.139,0.778,0.522,0.889c0.274,0.079,6.723,0.9,12.36,1.607V94.9l-27.087-3.49L386.387,89.673z M412.5,93.945V62.28
	l8.5-6.7v29.865L412.5,93.945z"/>
<path class="st0" d="M400.82,68.29c-2.693,0-4.884,2.582-4.884,5.755c-0.036,1.771,0.705,3.469,2.027,4.648v8.453
	c0,0.395,0.306,0.722,0.7,0.748l4.433,0.283h0.048c0.414-0.001,0.749-0.336,0.75-0.75v-8.913c1.181-1.185,1.832-2.797,1.807-4.47
	C405.7,70.872,403.513,68.29,400.82,68.29z M402.669,77.601c-0.172,0.142-0.272,0.354-0.272,0.578v8.451l-2.933-0.187v-8.114
	c0-0.241-0.116-0.467-0.311-0.608c-1.118-0.888-1.754-2.249-1.717-3.676c0-2.346,1.518-4.255,3.384-4.255s3.38,1.91,3.38,4.254
	C404.236,75.397,403.677,76.697,402.669,77.601L402.669,77.601z"/>
<path class="st0" d="M376.1,90.253c0-0.007,0-0.013,0-0.019c0-0.036,0.01-0.069,0.01-0.1c-0.088-2.567-1.94-4.731-4.462-5.214
	c-1.185-0.226-2.41,0.087-3.341,0.854c-0.855,0.741-1.348,1.814-1.355,2.945v0.009c0,0.007,0,0.013,0,0.02
	c0,0.036-0.01,0.068-0.01,0.1c0.088,2.567,1.94,4.731,4.462,5.214l0,0c0.254,0.042,0.511,0.064,0.768,0.064
	c2.128,0.04,3.886-1.652,3.926-3.78c0.001-0.028,0.001-0.056,0.001-0.084L376.1,90.253z M371.4,86.4
	c1.473,0.288,2.659,1.38,3.067,2.824l-5.958-1c0.104-0.509,0.373-0.97,0.766-1.31C369.872,86.435,370.65,86.247,371.4,86.4z
	 M371.646,92.587c-1.473-0.288-2.66-1.38-3.068-2.825l5.959,1c-0.104,0.51-0.374,0.971-0.768,1.311
	c-0.596,0.476-1.372,0.662-2.119,0.51L371.646,92.587z"/>
<path class="st0" d="M383.793,53.574c0.254,0.042,0.512,0.064,0.77,0.064c2.141,0.036,3.906-1.671,3.941-3.811
	c0.001-0.063,0.001-0.126-0.001-0.189c-0.088-2.566-1.94-4.73-4.462-5.213c-0.037-0.006-0.073,0-0.11-0.007h-0.014h-0.007
	c-1.144-0.189-2.313,0.125-3.208,0.862c-0.893,0.77-1.395,1.9-1.369,3.079C379.42,50.925,381.271,53.09,383.793,53.574z M387,49.641
	c0.023,0.738-0.285,1.447-0.839,1.935c-0.423,0.35-0.951,0.546-1.5,0.557v-5.945C386.036,46.798,386.944,48.138,387,49.641z
	 M381.668,46.426c0.423-0.349,0.952-0.544,1.5-0.553v5.94c-1.373-0.611-2.279-1.95-2.335-3.452
	c-0.024-0.738,0.284-1.448,0.838-1.936L381.668,46.426z"/>
<path class="st0" d="M352.2,44.376v-0.01c0-0.007,0-0.013,0-0.019c0-0.036,0.01-0.068,0.01-0.1c-0.088-2.566-1.939-4.73-4.461-5.214
	c-1.185-0.229-2.411,0.085-3.341,0.854c-0.855,0.741-1.349,1.815-1.356,2.946v0.009c0,0.007,0,0.013,0,0.019
	c0,0.036-0.01,0.068-0.01,0.1c0.088,2.566,1.94,4.73,4.462,5.213c0.254,0.043,0.512,0.065,0.77,0.065
	c2.128,0.04,3.885-1.652,3.925-3.779C352.2,44.431,352.2,44.403,352.2,44.376L352.2,44.376z M346.99,40.465
	c0.173,0,0.345,0.014,0.515,0.043c1.473,0.288,2.66,1.38,3.068,2.825l-5.959-1c0.104-0.51,0.374-0.971,0.768-1.311
	c0.453-0.373,1.025-0.57,1.611-0.557H346.99z M347.753,46.695L347.753,46.695c-1.474-0.288-2.66-1.38-3.068-2.825l5.959,1
	c-0.104,0.51-0.374,0.971-0.768,1.311c-0.595,0.479-1.371,0.669-2.12,0.519L347.753,46.695z"/>
<path class="st0" d="M357.933,72.74c-0.038-0.006-0.073,0-0.111-0.007h-0.012h-0.01c-1.144-0.188-2.314,0.127-3.21,0.863
	c-0.893,0.77-1.395,1.899-1.369,3.078c0.087,2.567,1.939,4.732,4.462,5.215c0.254,0.042,0.511,0.064,0.768,0.064
	c2.141,0.036,3.907-1.671,3.942-3.813c0.001-0.062,0.001-0.125-0.001-0.187C362.304,75.388,360.454,73.224,357.933,72.74z
	 M354.725,76.673c-0.023-0.738,0.285-1.447,0.839-1.934c0.423-0.349,0.952-0.544,1.5-0.554v5.94
	C355.689,79.515,354.782,78.175,354.725,76.673L354.725,76.673z M360.057,79.889c-0.423,0.349-0.952,0.544-1.5,0.556V74.5
	c1.374,0.61,2.28,1.95,2.336,3.452C360.917,78.69,360.61,79.4,360.057,79.889L360.057,79.889z"/>
<path class="st0" d="M192.954,30.9l-0.552,2.988l-1.548-2.956c-0.682,0.366-1.15,1.034-1.261,1.8
	c-0.246,1.928,0.737,3.805,2.463,4.7c1.125,0.701,2.605,0.358,3.306-0.766c0.182-0.292,0.299-0.619,0.344-0.961
	c0.246-1.928-0.737-3.805-2.463-4.7C193.146,30.959,193.051,30.935,192.954,30.9z"/>
<path class="st0" d="M214.922,37.107c0.246-1.928-0.737-3.805-2.463-4.7c-0.1-0.047-0.193-0.071-0.289-0.108l-0.552,2.988
	l-1.548-2.956c-0.682,0.366-1.15,1.034-1.261,1.8c-0.246,1.928,0.737,3.805,2.463,4.7c1.125,0.702,2.605,0.359,3.307-0.766
	C214.76,37.774,214.877,37.447,214.922,37.107z"/>
<path class="st0" d="M208.4,89.336c-4.963,2.609-11.21-0.706-11.273-0.738c-0.369-0.188-0.821-0.04-1.008,0.329
	c-0.18,0.355-0.052,0.79,0.293,0.989c2.364,1.208,4.969,1.869,7.623,1.933c1.759,0.024,3.497-0.383,5.063-1.185
	c0.367-0.193,0.507-0.647,0.314-1.014c-0.193-0.367-0.647-0.507-1.014-0.314H208.4z"/>
<path class="st0" d="M186.679,7.241c0.179,0,0.351-0.064,0.487-0.18c0.142-0.123,3.535-2.961,6.6-0.028
	c0.285,0.301,0.76,0.314,1.06,0.029s0.314-0.76,0.029-1.06c-0.017-0.018-0.036-0.036-0.055-0.053
	c-3.228-3.09-7.045-1.368-8.612-0.028c-0.315,0.269-0.352,0.743-0.083,1.057c0.143,0.167,0.351,0.263,0.571,0.263H186.679z"/>
<path class="st0" d="M209.231,9.1c0.179,0,0.351-0.064,0.487-0.18c0.143-0.123,3.537-2.96,6.6-0.028
	c0.299,0.286,0.774,0.276,1.061-0.023s0.276-0.774-0.023-1.061l0,0c-3.227-3.088-7.044-1.37-8.611-0.028
	c-0.315,0.269-0.352,0.743-0.083,1.057c0.143,0.167,0.351,0.263,0.571,0.263H209.231z"/>
<path class="st0" d="M292.935,49.2h0.1c1.266-0.015,2.474-0.535,3.355-1.444c1.438-1.518,2.213-3.545,2.155-5.635
	c0-3.947-2.5-7.211-5.574-7.276c-1.296,0.006-2.537,0.525-3.451,1.443c-1.438,1.518-2.213,3.545-2.155,5.635
	C287.36,45.876,289.862,49.139,292.935,49.2z M290.653,37.452c0.581-0.61,1.38-0.963,2.222-0.981h0.06
	c2.193,0.046,3.981,2.581,3.981,5.65c0.049,1.651-0.549,3.257-1.667,4.473c-0.58,0.61-1.38,0.962-2.222,0.979h-0.06
	c-2.193-0.046-3.981-2.581-3.981-5.65c-0.048-1.649,0.55-3.252,1.666-4.467L290.653,37.452z"/>
<path class="st0" d="M296.088,41.622c0.027-1.777-1.362-3.254-3.137-3.335c-0.1,0-0.194,0.017-0.291,0.025v3.038l-1.972-2.1
	c-1.242,1.356-1.149,3.462,0.206,4.703c0.565,0.518,1.292,0.824,2.057,0.869c1.726,0.007,3.131-1.388,3.138-3.114
	C296.089,41.679,296.089,41.651,296.088,41.622z"/>
<path class="st0" d="M326.071,44.651h0.1c1.266-0.015,2.474-0.535,3.355-1.444c1.437-1.518,2.212-3.545,2.155-5.634
	c0-3.947-2.5-7.211-5.574-7.276c-1.296,0.006-2.537,0.525-3.451,1.443c-1.437,1.518-2.213,3.545-2.155,5.635
	C320.5,41.323,323,44.586,326.071,44.651z M323.789,32.9c0.581-0.61,1.38-0.963,2.222-0.981h0.06
	c2.193,0.046,3.981,2.581,3.981,5.65c0.049,1.651-0.549,3.257-1.667,4.473c-0.58,0.61-1.38,0.962-2.222,0.979h-0.06
	c-2.193-0.046-3.981-2.581-3.981-5.65C322.073,35.72,322.671,34.116,323.789,32.9z"/>
<path class="st0" d="M329.224,37.068c0.028-1.777-1.362-3.254-3.137-3.335c-0.1,0-0.194,0.017-0.291,0.025V36.8l-1.972-2.1
	c-1.242,1.356-1.149,3.462,0.206,4.703c0.565,0.518,1.292,0.824,2.057,0.869c1.726,0.007,3.131-1.388,3.138-3.114
	C329.225,37.128,329.225,37.098,329.224,37.068z"/>
<path class="st0" d="M312.547,50.939c-3.325,4.248-7.606,1.108-7.787,0.972c-0.331-0.25-0.803-0.184-1.053,0.147
	c-0.25,0.331-0.184,0.803,0.147,1.053c1.321,0.984,2.918,1.529,4.565,1.558c2.117-0.025,4.093-1.067,5.31-2.8
	c0.255-0.326,0.198-0.798-0.129-1.054c-0.326-0.255-0.798-0.198-1.053,0.129V50.939z"/>
<path class="st0" d="M287.98,9.682c0.143-0.122,3.552-2.947,6.6-0.029c0.299,0.286,0.774,0.276,1.06-0.024
	c0.286-0.299,0.276-0.774-0.023-1.06c-3.229-3.091-7.046-1.369-8.611-0.028c-0.315,0.269-0.352,0.742-0.083,1.057
	C287.191,9.914,287.665,9.951,287.98,9.682L287.98,9.682z"/>
<path class="st0" d="M321.966,5.5c0.143-0.122,3.554-2.947,6.6-0.029c0.28,0.306,0.754,0.327,1.06,0.047
	c0.306-0.28,0.327-0.754,0.047-1.06c-0.023-0.025-0.047-0.048-0.073-0.07c-3.228-3.089-7.045-1.369-8.611-0.028
	c-0.315,0.269-0.352,0.742-0.083,1.057c0.269,0.315,0.742,0.352,1.057,0.084l0,0L321.966,5.5z"/>
<path class="st0" d="M378.7,64.573l-0.552,2.988l-1.548-2.956c-0.682,0.366-1.15,1.034-1.261,1.8
	c-0.246,1.928,0.737,3.805,2.463,4.7c1.125,0.701,2.605,0.358,3.306-0.767c0.182-0.292,0.299-0.62,0.344-0.961
	c0.247-1.928-0.737-3.805-2.463-4.7C378.891,64.634,378.795,64.61,378.7,64.573z"/>
<path class="st0" d="M355.209,60.986l-0.552,2.988l-1.548-2.956c-0.682,0.366-1.15,1.034-1.261,1.8
	c-0.246,1.928,0.737,3.805,2.463,4.7c1.125,0.701,2.605,0.358,3.306-0.766c0.182-0.292,0.299-0.619,0.344-0.961
	c0.246-1.928-0.737-3.805-2.463-4.7C355.4,61.046,355.306,61.023,355.209,60.986z"/>
<path class="st0" d="M351.589,8.918c0.143-0.122,3.551-2.946,6.6-0.029c0.299,0.286,0.774,0.276,1.06-0.024
	c0.286-0.299,0.276-0.774-0.023-1.06c-3.229-3.091-7.046-1.369-8.611-0.028c-0.315,0.269-0.352,0.742-0.083,1.057
	C350.8,9.15,351.274,9.187,351.589,8.918L351.589,8.918z"/>
<path class="st0" d="M393.37,14.235c0.143-0.122,3.555-2.948,6.6-0.029c0.299,0.286,0.774,0.276,1.06-0.024
	c0.286-0.299,0.276-0.774-0.023-1.06c-3.227-3.089-7.045-1.369-8.611-0.028c-0.315,0.269-0.352,0.742-0.083,1.057
	C392.581,14.467,393.055,14.504,393.37,14.235L393.37,14.235z"/>
<path class="st0" d="M490.846,88.282c0.002-0.048-0.001-0.096-0.009-0.143l-2.478-10.431c-0.05-0.217-0.195-0.401-0.395-0.5l-6-3
	c-0.056-0.023-0.115-0.039-0.175-0.047c-0.033-0.012-0.066-0.021-0.1-0.028c-0.097-0.007-0.194,0.004-0.286,0.034h-0.013
	c-3.523,1.2-6.988,2.341-10.323,3.4c0.019-0.231-0.071-0.458-0.244-0.612c-2.514-2.184-4.946-3.146-7.224-2.87
	c-1.55,0.205-2.972,0.969-4,2.147c-1.723-0.099-3.43,0.369-4.861,1.334c-1.358,0.993-2.344,2.412-2.8,4.031
	c-0.049,0-0.1,0-0.152-0.006c-0.2-0.015-0.381-0.05-0.575-0.071c-0.528-0.663-0.96-1.397-1.282-2.181
	c-0.733-1.834-1.324-3.722-1.767-5.647l-0.279-1.19l3.7-0.351c1.664-0.159,3.314-0.432,4.94-0.818l30.386-7.217
	c0.402-0.094,0.652-0.497,0.557-0.899c0,0,0-0.001,0-0.001l-1.1-4.626c-0.96-4.166-2.403-8.205-4.3-12.036
	c0.07-0.043,0.133-0.097,0.185-0.161c0.142-0.208,0.167-0.474,0.068-0.706l5.334-1.115c0.407-0.077,0.674-0.47,0.596-0.877
	c-0.078-0.407-0.47-0.674-0.877-0.596c-0.009,0.002-0.018,0.004-0.026,0.006l-5.946,1.238v-4.871c0-0.414-0.336-0.75-0.75-0.75
	s-0.75,0.336-0.75,0.75v3.481c-2.324-3.192-5.287-5.866-8.7-7.852c-1.854-1.123-3.782-2.116-5.773-2.973l0,0
	c-2.082-1.081-4.312-1.846-6.619-2.271c-4.451-0.705-9.001-0.47-13.356,0.689c-9,2.138-15.3,6.33-18.729,12.46
	c-3.416,6.109-3.935,14.315-1.541,24.392l0.867,3.647c1,4.577,2.6,9.002,4.76,13.16c1.718,3.295,4.26,6.089,7.379,8.109
	c1.753,1.078,3.663,1.876,5.661,2.365c-0.005,0.256,0.123,0.497,0.339,0.635c1.429,0.883,2.966,1.576,4.573,2.063v7.271
	c0,0.275,0.151,0.528,0.393,0.659l3.807,2.063c0.369,0.188,0.821,0.04,1.008-0.329c0.18-0.355,0.052-0.79-0.293-0.989l-3.414-1.85
	v-6.42c1.474,0.34,2.976,0.548,4.487,0.622c0.548,0.028,1.11,0.042,1.685,0.042c0.671,0,1.381-0.039,2.089-0.077v4.4
	c0,0.378,0.281,0.696,0.655,0.744l2.931,0.375c0.033,0.004,0.067,0.006,0.1,0.006c0.414,0,0.75-0.336,0.749-0.751
	c0-0.377-0.281-0.696-0.655-0.743l-2.275-0.291v-3.85c2.989-0.277,5.953-0.771,8.87-1.478c4.413-1.007,8.744-2.347,12.954-4.009
	c3.609-1.476,6.5-2.751,8.6-3.791c0.013-0.006,0.021-0.017,0.033-0.024s0.033-0.025,0.051-0.037c0.1-0.066,0.183-0.156,0.241-0.262
	c0-0.006,0.01-0.008,0.013-0.014v-0.008c0.061-0.109,0.084-0.235,0.066-0.358L490.846,88.282z M489.007,86.924l-4.251-2.124
	l-2.026-8.53l4.251,2.125L489.007,86.924z M455.612,78.779c1.765-1.074,3.893-1.376,5.887-0.834
	c0.406,0.082,0.802-0.181,0.883-0.587c0.082-0.406-0.181-0.802-0.587-0.883c-0.005-0.001-0.009-0.002-0.014-0.003
	c-0.063-0.012-0.122-0.018-0.184-0.029c0.647-0.473,1.404-0.773,2.2-0.873c1.792-0.218,3.788,0.6,5.913,2.418
	c-3.275,1.017-6.41,1.886-9.316,2.576c-2.257,0.573-4.564,0.925-6.889,1.05C453.904,80.477,454.638,79.488,455.612,78.779
	L455.612,78.779z M480.585,46.919l0.052,0.1c1.893,3.786,3.327,7.784,4.272,11.91l0.925,3.9l-29.655,7.044
	c-1.559,0.369-3.142,0.631-4.737,0.783l-4.56,0.433c-0.413,0.04-0.715,0.407-0.675,0.82c0.003,0.033,0.009,0.066,0.016,0.098
	l0.477,2.028c0.461,2.002,1.075,3.965,1.838,5.872c0.179,0.42,0.383,0.829,0.612,1.224c-0.862-0.232-1.678-0.611-2.411-1.12
	c-1.265-0.934-2.24-2.207-2.812-3.672c-0.733-1.833-1.323-3.719-1.766-5.643l-0.417-1.831l1.77,0.056
	c2.664,0.081,5.326-0.188,7.92-0.8l29.478-7c0.402-0.094,0.652-0.497,0.557-0.899c0,0,0-0.001,0-0.001l-1.1-4.626
	c-0.974-4.243-2.451-8.354-4.4-12.247c-1.087-2.152-2.435-4.162-4.013-5.985C475.588,39.774,478.555,43.06,480.585,46.919
	L480.585,46.919z M432.12,83.479c-2.096-4.04-3.649-8.339-4.62-12.785l-0.867-3.647c-2.3-9.7-1.836-17.543,1.391-23.313
	c3.215-5.749,9.192-9.7,17.767-11.734c2.73-0.677,5.53-1.035,8.343-1.066c1.472-0.007,2.941,0.124,4.388,0.392
	c3.454,0.609,6.701,2.072,9.446,4.254c2.79,2.314,5.061,5.191,6.665,8.442c1.893,3.786,3.327,7.784,4.272,11.91l0.925,3.9
	l-2.2,0.522c-0.635-3.248-1.441-6.461-2.414-9.624c-0.239-0.818-0.465-1.593-0.5-1.782c-0.016-0.414-0.364-0.737-0.779-0.722
	s-0.737,0.364-0.721,0.778l0,0c0.117,0.731,0.303,1.45,0.558,2.145c0.968,3.139,1.767,6.327,2.393,9.551l-2.963,0.7l-1.339-6.092
	c-0.086-0.405-0.484-0.664-0.89-0.578s-0.664,0.484-0.578,0.89c0.001,0.003,0.001,0.007,0.002,0.01l1.344,6.117l-20.666,4.909
	c-2.464,0.587-4.995,0.844-7.527,0.764l-2.739-0.085c-0.229,0.003-0.447,0.102-0.6,0.273c-0.148,0.179-0.204,0.417-0.152,0.643
	l0.634,2.783c0.461,2.002,1.075,3.965,1.838,5.872c0.677,1.724,1.828,3.221,3.321,4.318c1.415,0.951,3.04,1.544,4.735,1.726
	c0.07,0.026,0.143,0.042,0.217,0.047c0.021,0,0.042-0.009,0.063-0.011c0.267,0.033,0.52,0.08,0.8,0.1
	c3.06,0.094,6.117-0.264,9.072-1.062c3.123-0.741,6.5-1.681,10.031-2.791c3.324-1.045,6.79-2.18,10.314-3.376l2.148,9.045
	c-2.013,0.975-4.687,2.145-7.964,3.484c-3.353,1.333-6.79,2.445-10.289,3.327c-7.929,0.938-10.911-2.036-10.97-2.1
	c-0.282-0.304-0.756-0.322-1.06-0.04c-0.304,0.282-0.322,0.756-0.04,1.06l0,0c0.1,0.1,1.743,1.828,5.742,2.5
	c-1.065,0.19-2.094,0.343-3.1,0.466c-10.064,0.81-13.95-7.921-14.111-8.295c-0.163-0.381-0.604-0.557-0.985-0.394
	c-0.381,0.163-0.557,0.604-0.394,0.985c1.702,3.479,4.529,6.281,8.023,7.951c-0.319-0.025-0.636-0.053-0.948-0.089
	c-0.028-0.012-0.056-0.023-0.085-0.031c-10.309-1.52-14.32-17.249-14.359-17.407c-0.099-0.402-0.506-0.648-0.908-0.549
	c-0.402,0.099-0.648,0.506-0.549,0.908c0.122,0.493,2.272,8.931,7.636,14.293C436.021,89.089,433.697,86.51,432.12,83.479z
	 M447.439,95.3c0.43,0.043,0.864,0.08,1.306,0.1h0.013v0.392C448.308,95.644,447.868,95.48,447.439,95.3z M481.275,91.386
	c-4.139,1.633-8.395,2.949-12.733,3.938c-4.478,1.158-9.096,1.69-13.72,1.58c-1.54-0.076-3.068-0.301-4.564-0.672V95.44
	c0.058,0,0.113,0,0.172,0c1.716-0.014,3.43-0.128,5.133-0.343c0.077-0.006,0.149,0,0.226-0.01c0.024-0.006,0.048-0.013,0.071-0.021
	c2.364-0.302,4.71-0.732,7.028-1.288c4.413-1.007,8.744-2.347,12.954-4.009c3.424-1.4,6.195-2.617,8.26-3.627l4.3,2.151
	C486.507,89.189,484.119,90.224,481.275,91.386z"/>
<path class="st0" d="M440.511,64.272c-1.166,0.435-2.116,1.31-2.646,2.436c-0.392,1.121-0.261,2.358,0.359,3.371
	c0.13,0.246,0.386,0.4,0.664,0.4c0.122,0,0.242-0.03,0.349-0.087c0.366-0.193,0.506-0.646,0.314-1.012c0,0,0-0.001-0.001-0.001
	c-0.403-0.63-0.51-1.405-0.291-2.12c0.369-0.725,0.996-1.286,1.757-1.574c0.39-0.14,0.593-0.569,0.453-0.96
	c-0.14-0.39-0.569-0.593-0.96-0.453l0,0H440.511z"/>
<path class="st0" d="M448.244,47.468l-0.552,2.988l-1.547-2.956c-0.682,0.366-1.15,1.034-1.261,1.8
	c-0.246,1.928,0.737,3.805,2.463,4.7c1.123,0.703,2.604,0.363,3.308-0.761c0.183-0.292,0.3-0.619,0.345-0.96
	c0.246-1.928-0.737-3.805-2.463-4.7C448.437,47.529,448.341,47.5,448.244,47.468z"/>
<path class="st0" d="M443.309,38.583c0.165,0,0.326-0.054,0.457-0.155c0.03-0.022,3-2.26,5.86-0.763
	c0.367,0.193,0.821,0.053,1.014-0.314c0.193-0.367,0.053-0.821-0.314-1.014l0,0c-3.719-1.951-7.323,0.787-7.475,0.9
	c-0.327,0.254-0.386,0.726-0.132,1.052c0.142,0.183,0.36,0.289,0.592,0.29L443.309,38.583z"/>
<path class="st0" d="M477.384,62.771l-14.667,3.5c-0.403,0.097-0.65,0.503-0.553,0.905c0.081,0.335,0.381,0.572,0.726,0.574
	c0.059,0,0.118-0.007,0.175-0.021l14.667-3.5c0.402-0.1,0.647-0.507,0.547-0.909c-0.099-0.396-0.496-0.641-0.895-0.55V62.771z"/>
<path class="st0" d="M504.142,17.3c0-0.414-0.336-0.75-0.75-0.75s-0.75,0.336-0.75,0.75v7c0,0.414,0.336,0.75,0.75,0.75
	s0.75-0.336,0.75-0.75v-0.948c0.038-0.002,0.076-0.007,0.114-0.015l6.752-1.845c0.401-0.106,0.64-0.516,0.534-0.916
	c-0.106-0.401-0.516-0.64-0.916-0.534c-0.004,0.001-0.008,0.002-0.013,0.003l-6.472,1.769L504.142,17.3z"/>
<path class="st0" d="M515.817,84.023c0,0.414,0.336,0.75,0.75,0.75s0.75-0.336,0.75-0.75v-6.572L519,78.632
	c0.339,0.238,0.807,0.155,1.045-0.184c0.238-0.339,0.155-0.807-0.184-1.045L517,75.4c-0.338-0.238-0.806-0.156-1.044,0.182
	c0,0.001-0.001,0.001-0.001,0.002c-0.198,0.288-0.167,0.675,0.073,0.929c-0.133,0.138-0.208,0.322-0.209,0.514L515.817,84.023z"/>
<path class="st0" d="M502.642,66.725c0,0.414,0.336,0.75,0.75,0.75s0.75-0.336,0.75-0.75v-7c0-0.414-0.336-0.75-0.75-0.75
	s-0.75,0.336-0.75,0.75V66.725z"/>
<path class="st0" d="M502.642,73.326c-0.014,1.152,0.035,2.304,0.146,3.451c0.041,0.39,0.119,0.774,0.234,1.149
	c0.099,0.311,0.388,0.522,0.715,0.522c0.077,0,0.154-0.012,0.228-0.035c0.395-0.126,0.613-0.547,0.487-0.942
	c-0.086-0.281-0.144-0.57-0.174-0.862c-0.104-1.091-0.15-2.187-0.137-3.283v-2.6c0-0.414-0.336-0.75-0.75-0.75
	s-0.75,0.336-0.75,0.75L502.642,73.326z"/>
<path class="st0" d="M510.641,26.56c-0.11-0.399-0.521-0.634-0.921-0.526l-5.944,1.625c-0.356-0.212-0.816-0.094-1.028,0.262
	c-0.069,0.116-0.105,0.248-0.105,0.383v0.237c0,0.019,0.011,0.036,0.013,0.055c0.007,0.184,0.09,0.357,0.23,0.478
	c0.02,0.019,0.03,0.046,0.052,0.063l0.017,0.009l0.009,0.009l5.734,4.014c0.333,0.246,0.803,0.176,1.049-0.157
	s0.176-0.803-0.157-1.049c-0.011-0.008-0.022-0.016-0.033-0.023l-4.425-3.1l4.983-1.362
	C510.513,27.369,510.748,26.959,510.641,26.56z"/>
<path class="st0" d="M510.849,78.748c0.623-0.184,1.219-0.382,1.813-0.58c0.043,0.372,0.356,0.654,0.731,0.657
	c0.414,0,0.75-0.336,0.75-0.75v-0.436c0.347-0.2,0.466-0.643,0.266-0.99c-0.064-0.11-0.155-0.202-0.266-0.266v-5.308
	c0-0.414-0.336-0.75-0.75-0.75s-0.75,0.336-0.75,0.75V76.6c-0.718,0.246-1.458,0.484-2.22,0.708
	c-0.791,0.235-1.529,0.445-2.212,0.63c-0.481,0.132-0.919,0.236-1.31,0.312c-0.406,0.08-0.671,0.474-0.592,0.88
	c0.069,0.35,0.375,0.604,0.732,0.606c0.048,0,0.095-0.005,0.142-0.014c0.426-0.081,0.901-0.194,1.424-0.337
	C509.299,79.195,510.046,78.983,510.849,78.748z"/>
<path class="st0" d="M503.392,56.475c0.414,0,0.75-0.336,0.75-0.75v-7c0-0.414-0.336-0.75-0.75-0.75s-0.75,0.336-0.75,0.75v7
	C502.642,56.139,502.978,56.475,503.392,56.475z"/>
<path class="st0" d="M490.557,32.791l5.482,3.837c0.335,0.244,0.804,0.17,1.048-0.165c0.244-0.335,0.17-0.804-0.165-1.048
	c-0.007-0.005-0.015-0.01-0.022-0.015l-5.414-3.79v-6.444c0-0.414-0.336-0.75-0.75-0.75s-0.75,0.336-0.75,0.75v6.415
	c-0.256,0.324-0.2,0.795,0.124,1.051c0.128,0.101,0.286,0.157,0.449,0.16L490.557,32.791z"/>
<path class="st0" d="M490.734,68.8c0.414,0,0.75-0.336,0.75-0.75v-7c0-0.414-0.336-0.75-0.75-0.75s-0.75,0.336-0.75,0.75v7
	C489.984,68.464,490.32,68.8,490.734,68.8z"/>
<path class="st0" d="M489.984,77c0,0.721,0.014,1.413,0.042,2.078c0.016,0.402,0.346,0.719,0.748,0.719h0.032
	c0.413-0.017,0.735-0.365,0.718-0.779c0,0,0-0.001,0-0.001c-0.027-0.645-0.04-1.317-0.04-2.016v-4.956c0-0.414-0.336-0.75-0.75-0.75
	s-0.75,0.336-0.75,0.75L489.984,77z"/>
<path class="st0" d="M480.654,36.221c0.186-0.002,0.364-0.073,0.5-0.2l4.8,3.362c0.333,0.246,0.803,0.176,1.049-0.157
	s0.176-0.803-0.157-1.049c-0.011-0.008-0.022-0.016-0.033-0.023l-4.425-3.1l4.52-1.235c0.401-0.106,0.64-0.516,0.534-0.916
	c-0.105-0.401-0.516-0.64-0.916-0.534c-0.004,0.001-0.009,0.002-0.013,0.004l-6.062,1.657c-0.046,0.016-0.089,0.036-0.131,0.06
	c-0.028,0.011-0.056,0.024-0.082,0.038c-0.075,0.049-0.141,0.112-0.194,0.185l-0.01,0.01c-0.011,0.016-0.012,0.034-0.022,0.05
	c-0.036,0.058-0.064,0.121-0.082,0.187c-0.011,0.064-0.021,0.129-0.032,0.193v0.716c-0.002,0.414,0.333,0.751,0.747,0.753
	C480.648,36.221,480.651,36.221,480.654,36.221z"/>
<path class="st0" d="M496.869,15.6c0.068,0,0.135-0.008,0.2-0.026l5.943-1.624c0.116,0.067,0.249,0.102,0.383,0.1
	c0.027-0.004,0.054-0.009,0.08-0.016l5.225,3.657c0.333,0.246,0.803,0.176,1.049-0.157s0.176-0.803-0.157-1.049
	c-0.011-0.008-0.022-0.016-0.033-0.023l-5.734-4.014c-0.085-0.059-0.181-0.1-0.283-0.12c-0.009,0-0.018,0-0.027,0
	c-0.096-0.016-0.194-0.012-0.288,0.01c-0.009,0-0.019,0-0.028,0l-6.523,1.783c-0.4,0.108-0.636,0.52-0.528,0.92
	c0.089,0.329,0.388,0.556,0.728,0.554L496.869,15.6z"/>
<path class="st0" d="M490.734,21.916c0.414,0,0.75-0.336,0.75-0.75v-3.2l4.555,3.188c0.333,0.246,0.803,0.176,1.049-0.157
	s0.176-0.803-0.157-1.049c-0.011-0.008-0.022-0.016-0.033-0.023l-4.425-3.1l0.734-0.2c0.401-0.106,0.64-0.516,0.534-0.916
	c-0.106-0.401-0.516-0.64-0.916-0.534c-0.004,0.001-0.008,0.002-0.013,0.003l-2.276,0.622c-0.071,0.033-0.141,0.067-0.212,0.1
	c-0.075,0.05-0.141,0.113-0.194,0.186l-0.01,0.01c-0.011,0.016-0.012,0.034-0.022,0.05c-0.036,0.058-0.064,0.121-0.082,0.187
	c-0.011,0.064-0.021,0.129-0.032,0.193v4.64C489.984,21.58,490.32,21.916,490.734,21.916L490.734,21.916z"/>
<path class="st0" d="M489.9,42.145v3.239c0,0.414,0.336,0.75,0.75,0.75s0.75-0.336,0.75-0.75v-0.158l5.231,3.438
	c0.346,0.228,0.811,0.131,1.039-0.215c0.228-0.346,0.131-0.811-0.215-1.039l-5.851-3.845c-0.064-0.038-0.133-0.066-0.205-0.083
	v-1.154l2.7-0.738c0.401-0.106,0.64-0.516,0.534-0.916c-0.105-0.401-0.516-0.64-0.916-0.534c-0.004,0.001-0.009,0.002-0.013,0.004
	l-2.913,0.8l-0.7-0.49c-0.333-0.246-0.803-0.176-1.049,0.157s-0.176,0.803,0.157,1.049c0.011,0.008,0.022,0.016,0.033,0.023
	L489.9,42.145z"/>
<path class="st0" d="M501.164,22.912l-0.988-0.692c-0.333-0.246-0.803-0.176-1.049,0.157s-0.176,0.803,0.157,1.049
	c0.011,0.008,0.022,0.016,0.033,0.023l0.7,0.488c-0.014,0.047-0.024,0.094-0.029,0.143v7c0,0.414,0.336,0.75,0.75,0.75
	s0.75-0.336,0.75-0.75v-7c0-0.101-0.021-0.202-0.061-0.295C501.551,23.468,501.442,23.108,501.164,22.912z"/>
<path class="st0" d="M512.963,20.681c0.032,0.018,0.065,0.034,0.1,0.047c-0.253,0.124-0.414,0.381-0.416,0.663v7
	c0,0.414,0.336,0.75,0.75,0.75s0.75-0.336,0.75-0.75v-2.01l1.675-0.458v3.123c0,0.414,0.336,0.75,0.75,0.75s0.75-0.336,0.75-0.75
	V26.38l4.555,3.188c0.333,0.246,0.803,0.176,1.049-0.157c0.246-0.333,0.176-0.803-0.157-1.049c-0.011-0.008-0.022-0.016-0.033-0.023
	L517,24.326c-0.084-0.059-0.18-0.1-0.281-0.12c-0.012,0-0.024,0-0.036,0c-0.093-0.015-0.188-0.011-0.28,0.01c-0.01,0-0.02,0-0.03,0
	l-2.227,0.609v-3.434c-0.002-0.278-0.16-0.532-0.408-0.657c0.368-0.188,0.514-0.639,0.326-1.008
	c-0.056-0.109-0.138-0.203-0.238-0.273l-0.988-0.692c-0.333-0.246-0.803-0.176-1.049,0.157s-0.176,0.803,0.157,1.049
	c0.011,0.008,0.022,0.016,0.033,0.023L512.963,20.681z"/>
<path class="st0" d="M512.963,36.155c0.037,0.022,0.075,0.041,0.115,0.057c0.094,0.057,0.203,0.084,0.313,0.079l0,0
	c0.068,0,0.135-0.008,0.2-0.026l2.228-0.609v0.172l-2.963,0.81c-0.4,0.108-0.636,0.52-0.528,0.92
	c0.089,0.329,0.388,0.556,0.728,0.554c0.068,0,0.135-0.008,0.2-0.026l3.177-0.868l3.807,2.665c0.333,0.246,0.803,0.176,1.049-0.157
	c0.246-0.333,0.176-0.803-0.157-1.049c-0.011-0.008-0.022-0.016-0.033-0.023l-3.775-2.643v-0.768c0.392-0.114,0.62-0.52,0.513-0.914
	c-0.071-0.247-0.265-0.44-0.513-0.508v-0.775c0-0.414-0.336-0.75-0.75-0.75s-0.75,0.336-0.75,0.75V34.1l-1.675,0.458v-2.167
	c0-0.414-0.336-0.75-0.75-0.75s-0.75,0.336-0.75,0.75v1.76c-0.312-0.113-0.661-0.003-0.853,0.268
	c-0.237,0.339-0.154,0.807,0.185,1.044L512.963,36.155z"/>
<path class="st0" d="M512.963,47.615c0.333,0.246,0.803,0.176,1.049-0.157c0.246-0.333,0.176-0.803-0.157-1.049
	c-0.011-0.008-0.022-0.016-0.033-0.023l-1.422-1c-0.333-0.246-0.803-0.176-1.049,0.157s-0.176,0.803,0.157,1.049
	c0.011,0.008,0.022,0.016,0.033,0.023L512.963,47.615z"/>
<path class="st0" d="M527.24,82.71c-0.008-0.025-0.017-0.05-0.028-0.074c-0.053-0.093-0.125-0.174-0.212-0.236l-2.867-2.007
	c-0.346-0.228-0.811-0.132-1.039,0.213c-0.219,0.333-0.14,0.779,0.18,1.016l1.708,1.2c-0.061,0.02-0.107,0.039-0.171,0.059
	c-0.645,0.213-1.341,0.446-2.094,0.7c-0.552,0.189-1.119,0.373-1.7,0.552c-0.396,0.122-0.618,0.542-0.497,0.937
	c0.122,0.396,0.542,0.618,0.938,0.497l0,0c0.594-0.183,1.174-0.371,1.741-0.566c0.746-0.257,1.437-0.49,2.074-0.7
	c0.193-0.063,0.373-0.124,0.542-0.184v0.258c0,0.414,0.336,0.75,0.75,0.75s0.75-0.336,0.75-0.75V83.01
	c0-0.018-0.012-0.033-0.013-0.051C527.296,82.873,527.275,82.789,527.24,82.71z"/>
<path class="st0" d="M519.864,87.121L518.12,85.9c0.005-0.048,0.005-0.095,0-0.143c-0.088-0.404-0.486-0.661-0.891-0.573
	c0,0-0.001,0-0.001,0c-0.038,0.008-0.066,0.011-0.1,0.018L517,85.114c-0.337-0.238-0.803-0.157-1.041,0.181
	c-0.001,0.001-0.002,0.003-0.003,0.004c-0.012,0.024-0.023,0.049-0.032,0.075c-0.073,0-0.164,0.018-0.23,0.018
	c-0.346,0.043-0.693-0.081-0.934-0.333c-0.292-0.429-0.457-0.931-0.478-1.45c-0.05-0.438-0.085-0.959-0.108-1.562
	c-0.005-0.404-0.337-0.728-0.742-0.722c-0.012,0-0.024,0.001-0.035,0.001c-0.413,0.015-0.736,0.361-0.721,0.774
	c0,0.001,0,0.002,0,0.003c0.023,0.645,0.062,1.203,0.116,1.673c0.042,0.821,0.332,1.609,0.832,2.262
	c0.089,0.096,0.185,0.185,0.289,0.265c-0.572,0.295-1.191,0.6-1.884,0.93c-0.941,0.446-2,0.9-3.143,1.354
	c-0.325,0.129-0.652,0.252-0.979,0.369c-0.39,0.14-0.593,0.569-0.453,0.959c0.107,0.298,0.389,0.497,0.706,0.497
	c0.086,0,0.172-0.015,0.253-0.044c0.343-0.123,0.684-0.252,1.024-0.387c1.175-0.464,2.263-0.933,3.232-1.392
	c0.828-0.391,1.571-0.76,2.23-1.106c0.232-0.125,0.38-0.364,0.388-0.627c0.135,0.02,0.271,0.031,0.408,0.035
	c0.361-0.009,0.722-0.044,1.078-0.105L519,88.349c0.346,0.228,0.811,0.132,1.039-0.213c0.219-0.333,0.14-0.779-0.18-1.016
	L519.864,87.121z"/>
<path class="st0" d="M507.157,48.633l0.092-0.02c1.296-0.349,2.437-1.124,3.24-2.2c1.356-1.752,2.088-3.907,2.081-6.122
	c0-3.947-2.415-6.645-5.382-6.016c-1.327,0.349-2.5,1.131-3.331,2.223c-1.356,1.752-2.088,3.907-2.081,6.122
	C501.775,46.565,504.19,49.263,507.157,48.633z M503.345,42.25c-0.01-1.749,0.555-3.453,1.609-4.849
	c0.529-0.72,1.284-1.242,2.145-1.483l0.058-0.012c2.118-0.45,3.843,1.681,3.843,4.75c0.01,1.749-0.555,3.453-1.609,4.849
	c-0.529,0.72-1.284,1.242-2.145,1.482l-0.058,0.014c-2.118,0.45-3.844-1.681-3.844-4.751H503.345z"/>
<path class="st0" d="M510.2,40.338c0.12-1.361-0.886-2.562-2.247-2.682c-0.262-0.023-0.526-0.004-0.782,0.056
	c-0.1,0.021-0.187,0.061-0.281,0.09v3.038l-1.9-1.65c-0.534,0.701-0.83,1.554-0.844,2.435c-0.12,1.361,0.886,2.562,2.247,2.682
	c0.262,0.023,0.526,0.004,0.782-0.056C508.944,43.768,510.178,42.171,510.2,40.338z"/>
<path class="st0" d="M501.658,8.155c0.143-0.122,3.554-2.947,6.6-0.029c0.299,0.288,0.775,0.278,1.063-0.021
	c0.288-0.299,0.278-0.775-0.021-1.063l0,0c-3.227-3.089-7.045-1.37-8.611-0.028c-0.315,0.269-0.352,0.742-0.083,1.057
	c0.269,0.315,0.742,0.352,1.057,0.083H501.658z"/>
</svg>
