<svg id="Layer_1" data-name="Layer 1" xmlns="http://www.w3.org/2000/svg" viewBox="0 0 47.928 56.303"><defs><style>.cls-1{fill:#3d3d3d;}</style></defs><title>envelope</title><path class="cls-1" d="M36.871,56.3a.25.25,0,0,1-.171-.067L.079,22.075a.249.249,0,0,1-.053-.294L10.832.138a.25.25,0,0,1,.395-.071L47.849,34.229a.249.249,0,0,1,.053.294L37.1,56.165a.25.25,0,0,1-.18.134A.267.267,0,0,1,36.871,56.3ZM.557,21.837l36.24,33.8L47.371,34.466,11.13.661Z"/><path class="cls-1" d="M45.269,35.777a1.756,1.756,0,0,1-.843-.183L26.562,26.36a6.64,6.64,0,0,1-2.424-2.251c-3.913-5.89-10.671-16.07-11.971-18.068C10.45,3.4,10.525,2.313,10.538,2.2l.27-1.982a.25.25,0,0,1,.5.067l-.27,1.979s-.065,1.019,1.553,3.506c1.3,2,8.055,12.175,11.967,18.064a6.139,6.139,0,0,0,2.238,2.083l17.875,9.24c.052.03,1.11.588,2.846-.933a.25.25,0,1,1,.33.376A3.97,3.97,0,0,1,45.269,35.777Z"/><path class="cls-1" d="M.25,22.142a.247.247,0,0,1-.093-.018.25.25,0,0,1-.14-.325c.034-.085.854-2.094,2.472-2.371,1.486-.254,16.105-2.1,16.727-2.174a.245.245,0,0,1,.279.217.25.25,0,0,1-.217.279c-.152.019-15.229,1.919-16.705,2.171C1.234,20.15.49,21.967.483,21.985A.251.251,0,0,1,.25,22.142Z"/><path class="cls-1" d="M36.871,56.3a.241.241,0,0,1-.063-.008.25.25,0,0,1-.179-.305,11.57,11.57,0,0,0,.2-4.725c-.514-2.08-3.32-16.1-3.349-16.246a.249.249,0,0,1,.2-.294.246.246,0,0,1,.294.2c.028.141,2.833,14.154,3.345,16.224a11.9,11.9,0,0,1-.2,4.972A.251.251,0,0,1,36.871,56.3Z"/><path class="cls-1" d="M5.285,22.187a.249.249,0,0,1-.222-.135l-.257-.493A.244.244,0,0,1,4.7,21.6l-.637.1a.25.25,0,1,1-.076-.494l.509-.079.1-.2a.271.271,0,0,1,.224-.138.25.25,0,0,1,.222.135l.117.224,0-.022a.25.25,0,0,1,.211-.208l3.594-.531a.25.25,0,1,1,.072.494l-3.412.5-.094.588a.25.25,0,0,1-.207.207A.229.229,0,0,1,5.285,22.187Z"/><path class="cls-1" d="M25.49,24.268a.248.248,0,0,1-.206-.109l-1.3-1.9a.25.25,0,1,1,.412-.282l1.3,1.9a.25.25,0,0,1-.206.391Z"/><path class="cls-1" d="M26.629,24.64a.248.248,0,0,1-.2-.1l-.471-.632a.25.25,0,1,1,.4-.3l.471.632a.25.25,0,0,1-.2.4Z"/><path class="cls-1" d="M44.552,35.628a.25.25,0,0,1-.1-.02L27.4,28.465A.25.25,0,1,1,27.592,28l6.644,2.782L26.593,27.18a.25.25,0,1,1,.213-.452l17.853,8.424a.25.25,0,0,1-.106.476Z"/><path class="cls-1" d="M9.5,4.85a.242.242,0,0,1-.111-.026.25.25,0,0,1-.112-.335l.783-1.568a.25.25,0,0,1,.469.064l.156.8a.25.25,0,1,1-.49.1L10.183,3.8l-.455.912A.25.25,0,0,1,9.5,4.85Z"/></svg>