<?xml version="1.0" encoding="utf-8"?>
<!-- Generator: Adobe Illustrator 20.1.0, SVG Export Plug-In . SVG Version: 6.00 Build 0)  -->
<svg version="1.1" id="Layer_1" xmlns="http://www.w3.org/2000/svg" xmlns:xlink="http://www.w3.org/1999/xlink" x="0px" y="0px"
	 viewBox="0 0 629 629" enable-background="new 0 0 629 629" xml:space="preserve">
<path fill="#FFFFFF" d="M314.5,0C140.806,0,0,140.806,0,314.5S140.806,629,314.5,629S629,488.194,629,314.5S488.194,0,314.5,0z
	 M399.133,212.204c0,3.524-2.856,6.384-6.381,6.384l-27.349,0.01c-18.855,0-22.304,7.348-22.304,21.822v30.115h47.745
	c1.694,0,3.322,0.674,4.518,1.873c1.195,1.199,1.87,2.821,1.87,4.514l-0.02,51.471c0,3.527-2.856,6.384-6.384,6.384h-47.729v129.879
	c0,3.524-2.856,6.384-6.384,6.384h-53.259c-3.527,0-6.384-2.856-6.384-6.384V334.777h-40.821c-3.524,0-6.384-2.856-6.384-6.384
	v-51.471c0-3.527,2.856-6.387,6.384-6.387h40.821V235.01c0-46.807,29.476-77.049,75.088-77.049l40.599,0.065
	c3.521,0.007,6.374,2.863,6.374,6.384V212.204z"/>
</svg>
