<svg id="Layer_1" data-name="Layer 1" xmlns="http://www.w3.org/2000/svg" viewBox="0 0 51.875 63.09"><defs><style>.cls-1{fill:#fff;}</style></defs><title>female-statue</title><path class="cls-1" d="M35.27,24.67a.247.247,0,0,0-.277.217.25.25,0,0,0,.217.279,1.074,1.074,0,0,0,.115,0A1.9,1.9,0,0,0,37.2,23.378a1.573,1.573,0,0,0-.183-1.079l-1.024-1.757c-.007-.016-.718-1.539-1.317-2.7a1.977,1.977,0,0,1,.187-1.985.25.25,0,0,0-.4-.3,2.481,2.481,0,0,0-.229,2.515c.594,1.148,1.3,2.663,1.318,2.7l1.035,1.777a1.071,1.071,0,0,1,.122.736C36.429,24.757,35.391,24.68,35.27,24.67Z"/><path class="cls-1" d="M26.9,20.237l-.005,0H26.88a16.1,16.1,0,0,1-1.969-.275.244.244,0,0,0-.3.194.251.251,0,0,0,.194.3c.068.014.279.056.564.1a1,1,0,0,1-.37.384.25.25,0,0,0,.229.445,1.641,1.641,0,0,0,.666-.749c.215.03.442.057.674.078a.942.942,0,0,1-.437.522.25.25,0,0,0,.121.469.246.246,0,0,0,.121-.031,1.473,1.473,0,0,0,.71-.929c.063,0,.129.006.19.006a3.944,3.944,0,0,0,.469-.026,1.455,1.455,0,0,1-.13.441.25.25,0,0,0,.283.412c.231-.158.332-.644.378-1,.068-.029.135-.057.207-.09l.1.563a.25.25,0,0,0,.246.205.289.289,0,0,0,.045,0,.251.251,0,0,0,.2-.291l-.128-.7.2-.1a1.177,1.177,0,0,0,.726.379.484.484,0,0,0,.109-.012.25.25,0,0,0-.105-.488c-.051.011-.151-.046-.261-.132.308-.171.535-.3.557-.317a.25.25,0,0,0-.256-.43,18.3,18.3,0,0,1-1.964,1.013A2.852,2.852,0,0,1,26.9,20.237Z"/><path class="cls-1" d="M29.4,16.436a.248.248,0,0,0,.133.038.25.25,0,0,0,.133-.462l-1.033-.646a.25.25,0,0,0-.266.424Z"/><path class="cls-1" d="M26.847,15.907l1.708.584a.249.249,0,0,0,.317-.155.249.249,0,0,0-.155-.317l-1.708-.584a.25.25,0,1,0-.162.473Z"/><path class="cls-1" d="M24.237,16.673a.249.249,0,0,0,.089-.017,5.955,5.955,0,0,1,2.07-.343h.013a.25.25,0,0,0,.013-.5,6.244,6.244,0,0,0-2.273.375.25.25,0,0,0,.089.483Z"/><path class="cls-1" d="M37.941,17.645a1.733,1.733,0,0,1-.174-.254l.005,0a.25.25,0,1,0-.354-.354.846.846,0,0,1-.444.168h0l-.006,0a5.174,5.174,0,0,1-1.473-.041.25.25,0,0,0-.082.493l.1.016-.154.539a.249.249,0,0,0,.172.309.236.236,0,0,0,.068.01.25.25,0,0,0,.24-.182l.177-.62.155.009-.091.445a.251.251,0,0,0,.2.3.246.246,0,0,0,.05,0,.251.251,0,0,0,.245-.2l.112-.547.072,0a1.028,1.028,0,0,0,.39.708.25.25,0,1,0,.277-.416.585.585,0,0,1-.176-.37c.029-.008.054-.019.082-.027.26.437.406.485.477.5a.233.233,0,0,0,.041,0,.25.25,0,0,0,.1-.481Z"/><path class="cls-1" d="M30.442,28.734a.25.25,0,0,0,.2.29,5.753,5.753,0,0,0,.886.094,1.12,1.12,0,0,0,.307-.033,6.615,6.615,0,0,0,1.487-.842c.782-.522,1.754-1.173,2.237-.967a.253.253,0,0,0,.277-.056.85.85,0,0,1,1.073-.127.25.25,0,1,0,.27-.421,1.332,1.332,0,0,0-1.581.092c-.719-.169-1.65.457-2.555,1.063a6.432,6.432,0,0,1-1.354.779,3.658,3.658,0,0,1-.96-.075A.251.251,0,0,0,30.442,28.734Z"/><path class="cls-1" d="M36.926,28.047a3.545,3.545,0,0,1-4.034.823.25.25,0,0,0-.2.458,4.953,4.953,0,0,0,1.781.337,3.567,3.567,0,0,0,2.837-1.3.25.25,0,0,0-.383-.321Z"/><path class="cls-1" d="M35.6,15.5a.25.25,0,0,0,.231-.155l.309-.75a.25.25,0,0,0-.463-.19l-.309.75a.25.25,0,0,0,.137.326A.236.236,0,0,0,35.6,15.5Z"/><path class="cls-1" d="M29.784,29.031a.251.251,0,0,0,.245.2.246.246,0,0,0,.05,0,.25.25,0,0,0,.2-.295.519.519,0,0,1,.331-.566.25.25,0,0,0-.189-.463A1.011,1.011,0,0,0,29.784,29.031Z"/><path class="cls-1" d="M21.137,15.248c-.12-9.75,7.382-10.052,7.7-10.06a.251.251,0,0,0,.244-.256.254.254,0,0,0-.256-.244,8.636,8.636,0,0,0-4.15,1.4c-1.879,1.232-4.105,3.822-4.039,9.165A9.05,9.05,0,0,1,15.213,24.1,15.8,15.8,0,0,1,9.627,25.57a.25.25,0,0,0,.01.5h.01C9.763,26.065,21.264,25.5,21.137,15.248Z"/><path class="cls-1" d="M13.41,26.539a.25.25,0,0,0-.295-.4,8.868,8.868,0,0,0-3.289,7.537.25.25,0,0,0,.249.227H10.1a.25.25,0,0,0,.226-.272A8.351,8.351,0,0,1,13.41,26.539Z"/><path class="cls-1" d="M41.179,33.572a.248.248,0,0,0,.318-.152c2-5.675,1.046-9,1-9.139a.25.25,0,1,0-.479.145c.01.032.954,3.306-1,8.829A.249.249,0,0,0,41.179,33.572Z"/><path class="cls-1" d="M6.364,37.3c.014-.126.022-.214.022-.256a.25.25,0,0,0-.5,0c0,.033-.009.1-.02.2-.085.772-.345,3.123.857,4.423a.25.25,0,0,0,.367-.34C6.043,40.2,6.285,38.02,6.364,37.3Z"/><path class="cls-1" d="M17.068,14.933C19.305,5.412,23.551,3.815,23.594,3.8a.25.25,0,0,0-.163-.473c-.185.063-4.541,1.664-6.85,11.492-.825,3.512-2.276,5.922-4.313,7.162a5.961,5.961,0,0,1-4.2.8.25.25,0,0,0-.123.484,4.96,4.96,0,0,0,1.142.116,6.585,6.585,0,0,0,3.426-.969C14.678,21.1,16.209,18.587,17.068,14.933Z"/><path class="cls-1" d="M9.609,20.094h.028a.249.249,0,0,0,.248-.222c1.1-9.8,10.557-16.976,10.651-17.047a.25.25,0,0,0-.3-.4C20.14,2.5,10.513,9.8,9.389,19.818A.25.25,0,0,0,9.609,20.094Z"/><path class="cls-1" d="M33.912,5.747a3.433,3.433,0,0,1,2.646.7c.859.762,1.237,2.078,1.122,3.91-.361,5.8,4.068,7.693,4.112,7.711a.244.244,0,0,0,.1.019.25.25,0,0,0,.1-.481c-.042-.017-4.144-1.772-3.8-7.218.124-1.994-.31-3.445-1.29-4.315a3.914,3.914,0,0,0-3.067-.822.25.25,0,1,0,.09.492Z"/><path class="cls-1" d="M25.743,43.478a.251.251,0,0,0,.2-.095c.965-1.223.379-7.387.31-8.086a.244.244,0,0,0-.274-.224.251.251,0,0,0-.224.274c.267,2.663.433,6.919-.2,7.725a.25.25,0,0,0,.2.405Z"/><path class="cls-1" d="M13.853,42.15c-2.086-.422-2.348-3.833-2.351-3.868a.244.244,0,0,0-.267-.231.249.249,0,0,0-.231.267c.011.155.29,3.825,2.749,4.323a.287.287,0,0,0,.05,0,.25.25,0,0,0,.05-.5Z"/><path class="cls-1" d="M50.225,43.782,30.143,62.538.5,47.707V42.266l29.575,14.8a.251.251,0,0,0,.283-.041L50.567,38.148a.25.25,0,0,0-.1-.422L43.026,35.5a40.024,40.024,0,0,0,.77-12.991,8.034,8.034,0,0,0,4.14,1.235h.079a.25.25,0,0,0,0-.5.373.373,0,0,1-.074,0,7.714,7.714,0,0,1-4.228-1.4,43.919,43.919,0,0,0-1.55-7.52c-.643-2.142-1.329-4.111-2.041-5.854a13.019,13.019,0,0,0-5.265-6.247,10.017,10.017,0,0,1,3.8,2.221.25.25,0,1,0,.32-.383c-2.089-1.752-3.809-2.553-5.128-2.412q-.489-.252-.974-.459a.244.244,0,0,0-.18-.082h-.005A14.087,14.087,0,0,0,27.447,0a11.843,11.843,0,0,0-4.365,1.075C22.3.686,18.044-1,12.509,5.527,6.59,12.5,4.476,30.394,4.39,31.144a78.079,78.079,0,0,0-.853,8.731L.135,41.64c-.016.008-.024.024-.037.035a.214.214,0,0,0-.033.031A.243.243,0,0,0,0,41.858l0,0v6a.25.25,0,0,0,.138.224L30.075,63.064a.251.251,0,0,0,.283-.041L50.567,44.148a.25.25,0,0,0-.342-.365ZM3.55,40.431a4.052,4.052,0,0,0,.166,1.144.259.259,0,0,0,.072.1,11.5,11.5,0,0,0,6.922,2.145A15.962,15.962,0,0,0,18.5,41.63a.25.25,0,1,0-.242-.437q-.423.235-.836.438c-.008-.023,0-.049-.018-.069a13.513,13.513,0,0,1-2.278-11.128.631.631,0,0,0,.016-.1.263.263,0,0,0-.25-.264.238.238,0,0,0-.25.236,14.037,14.037,0,0,0,2.343,11.526,13.8,13.8,0,0,1-9.016,1.2,10.249,10.249,0,0,1-3.8-1.7c-.447-1.41.366-7.755.724-10.126.021-.184,2.184-18.5,8-25.359C18.6-.885,22.772,1.468,22.947,1.571a.24.24,0,0,0,.03.009c.006,0,.007.01.013.012,2.145.773,7.458,3.065,7.827,4.86A5.774,5.774,0,0,0,26,6.961c-2.479,1.563-3.821,5.222-3.988,10.864a11.354,11.354,0,0,1-7.9,9.246.25.25,0,0,0,.083.486.247.247,0,0,0,.083-.014,13.759,13.759,0,0,0,3.031-1.507.236.236,0,0,0,.176.206,1.2,1.2,0,0,0,.228.02,1.083,1.083,0,0,0,.714-.243,1.284,1.284,0,0,0,.359-1.109,11.53,11.53,0,0,0,3.722-7.062c.162-5.47,1.425-8.989,3.751-10.461a5.436,5.436,0,0,1,4.711-.344.25.25,0,0,0,.348-.191c.348-2.262-5.57-4.74-7.581-5.513A11.119,11.119,0,0,1,27.46.5a12.5,12.5,0,0,1,3.993.669,10.021,10.021,0,0,0-4.134,1.246.25.25,0,0,0,.135.46.253.253,0,0,0,.135-.039,10.275,10.275,0,0,1,5.045-1.228c.163.069.327.146.491.223A3.552,3.552,0,0,0,31.388,4.6a.25.25,0,0,0,.227.272h.022a.25.25,0,0,0,.249-.227c0-.019.184-1.849,1.473-2.38a1.9,1.9,0,0,1,.416-.109,12.647,12.647,0,0,1,5.881,6.5c.706,1.728,1.388,3.683,2.025,5.809a43.476,43.476,0,0,1,1.472,6.985A14.651,14.651,0,0,1,40.035,18.2a.25.25,0,0,0-.42.272,14.549,14.549,0,0,0,3.634,3.684,39.571,39.571,0,0,1-.755,13.457,29.852,29.852,0,0,1-.843,2.949,2.671,2.671,0,0,1-1.456,1.623,5.223,5.223,0,0,1-2.682.286.236.236,0,0,0-.057-.13c-2.472-2.39,2.078-8.012,2.124-8.068a.25.25,0,1,0-.387-.316C39,32.2,34.68,37.555,36.84,40.374a12.153,12.153,0,0,1-2.091-.584c-.027-.011-.053,0-.08,0a9.609,9.609,0,0,1-.133-5.178,7.015,7.015,0,0,0,2.781-.986c.049-.033,1.192-.833,1.271-3.294l0-.082c.023-.74.048-1.5.144-2.247a36.011,36.011,0,0,0,.276-6.58.231.231,0,0,0-.266-.233.249.249,0,0,0-.232.266,35.56,35.56,0,0,1-.274,6.483c-.1.766-.123,1.543-.147,2.295l0,.083c-.069,2.182-1.042,2.89-1.057,2.9s-2.5,1.738-7.683.77A13.083,13.083,0,0,1,21.6,29.621l-1.437-2.172A.249.249,0,0,0,20,27.342a.261.261,0,0,0-.19.042c-1.455,1.033-3.316-.267-3.335-.281a.25.25,0,0,0-.291.407,4.051,4.051,0,0,0,3.117.661.237.237,0,0,0-.034.139,40.592,40.592,0,0,1,.344,5.961c-3.633-2.239-3.065-4.91-3.039-5.024a.25.25,0,0,0-.486-.116c-.03.128-.708,3.168,3.34,5.615a.177.177,0,0,0,.176.024,35.149,35.149,0,0,1-.607,5.891.25.25,0,0,0,.2.293.265.265,0,0,0,.048,0,.25.25,0,0,0,.245-.2,41.177,41.177,0,0,0,.276-12.524.234.234,0,0,0-.172-.181,2.466,2.466,0,0,0,.293-.121l1.308,1.976a13.324,13.324,0,0,0,8.072,4.57,17.244,17.244,0,0,0,3.151.308,12.672,12.672,0,0,0,1.59-.1,10.225,10.225,0,0,0,1.1,7.378.251.251,0,0,0,.218.127.255.255,0,0,0,.123-.032.251.251,0,0,0,.095-.341,9.875,9.875,0,0,1-.669-1.445c.9.32,3.606,1.148,5.534.279a3.153,3.153,0,0,0,1.725-1.914c.278-.8.543-1.728.79-2.743l6.993,2.091L30.143,56.538.8,41.858ZM18.263,25.344a.556.556,0,0,1-.157.294.567.567,0,0,1-.38.121C17.914,25.624,18.089,25.485,18.263,25.344Z"/><path class="cls-1" d="M51.625,38.509a.25.25,0,0,0-.25.25v3.285a.25.25,0,0,0,.5,0V38.759A.25.25,0,0,0,51.625,38.509Z"/><path class="cls-1" d="M41.713,54.247l-6.933,6.688a.25.25,0,0,0,.348.359l6.933-6.687a.25.25,0,0,0-.348-.359Z"/><path class="cls-1" d="M24.167,51.486a.25.25,0,1,0-.229.445l5.477,2.812a.25.25,0,0,0,.229-.445Z"/><path class="cls-1" d="M35.316,50.083a.25.25,0,0,0,.174-.07L45.3,40.527a.25.25,0,1,0-.348-.359l-9.809,9.486a.25.25,0,0,0,.174.43Z"/><path class="cls-1" d="M1.625,44.593v2.529a.25.25,0,0,0,.5,0V44.593a.25.25,0,0,0-.5,0Z"/><path class="cls-1" d="M27.2,57.771v2.08a.25.25,0,1,0,.5,0v-2.08a.25.25,0,0,0-.5,0Z"/><path class="cls-1" d="M28.762,57.756l-.18,3.1a.252.252,0,0,0,.235.265h.015a.25.25,0,0,0,.25-.235l.18-3.1a.252.252,0,0,0-.235-.265A.255.255,0,0,0,28.762,57.756Z"/></svg>