<?xml version="1.0" encoding="utf-8"?>
<!-- Generator: Adobe Illustrator 20.1.0, SVG Export Plug-In . SVG Version: 6.00 Build 0)  -->
<svg version="1.1" id="Layer_1" xmlns="http://www.w3.org/2000/svg" xmlns:xlink="http://www.w3.org/1999/xlink" x="0px" y="0px"
	 viewBox="0 0 629 629" enable-background="new 0 0 629 629" xml:space="preserve">
<g>
	<path fill="#FFFFFF" d="M314.5,0C140.806,0,0,140.806,0,314.5S140.806,629,314.5,629S629,488.194,629,314.5S488.194,0,314.5,0z
		 M233.97,455.476h-63.232V265.229h63.232V455.476z M202.324,239.3h-0.381c-21.232,0-34.978-14.668-34.978-32.876
		c0-18.713,14.164-32.901,35.789-32.901c21.676,0,34.942,14.188,35.372,32.901C238.125,224.633,224.429,239.3,202.324,239.3z
		 M462.036,455.477h-63.269V353.665c0-25.598-9.122-42.995-32.015-42.995c-17.508,0-27.835,11.778-32.445,23.114
		c-1.66,4.082-2.164,9.799-2.164,15.442v106.238h-63.206c0,0,0.849-172.371,0-190.223h63.219v26.962
		c8.446-12.958,23.409-31.425,57.01-31.425c41.704,0.001,72.871,27.184,72.871,85.633V455.477z"/>
	<path fill="#FFFFFF" d="M332.155,292.855v-0.652c-0.086,0.222-0.27,0.405-0.357,0.652H332.155z"/>
</g>
</svg>
