<svg id="Layer_1" data-name="Layer 1" xmlns="http://www.w3.org/2000/svg" viewBox="0 0 56 56"><defs><style>.cls-1{fill:#007bb5;}.cls-2{fill:#fff;}</style></defs><title>linkedin-box-hover</title><rect class="cls-1" width="56" height="56"/><rect class="cls-2" x="17.76" y="22.211" width="4.512" height="13.549"/><path class="cls-2" d="M37.078,23.449a4.856,4.856,0,0,0-3.76-1.552,5.433,5.433,0,0,0-1.565.211,3.57,3.57,0,0,0-1.19.595,5.876,5.876,0,0,0-.773.711,5.751,5.751,0,0,0-.533.723V22.211h-4.5l.014.656q.014.656.013,4.047T24.76,35.76h4.5V28.2a3.31,3.31,0,0,1,.15-1.107,2.907,2.907,0,0,1,.868-1.169,2.213,2.213,0,0,1,1.442-.472,1.945,1.945,0,0,1,1.73.813A3.959,3.959,0,0,1,34,28.514V35.76h4.5V27.995a6.507,6.507,0,0,0-1.422-4.545Zm0,0"/><path class="cls-2" d="M20.043,15.69a2.576,2.576,0,0,0-1.84.663,2.2,2.2,0,0,0-.7,1.675,2.242,2.242,0,0,0,.683,1.668,2.468,2.468,0,0,0,1.805.669h.027a2.575,2.575,0,0,0,1.853-.669,2.165,2.165,0,0,0,.691-1.668,2.281,2.281,0,0,0-.7-1.675,2.5,2.5,0,0,0-1.818-.663Zm0,0"/></svg>