<?xml version="1.0" encoding="utf-8"?>
<!-- Generator: Adobe Illustrator 20.1.0, SVG Export Plug-In . SVG Version: 6.00 Build 0)  -->
<svg version="1.1" id="Layer_1" xmlns="http://www.w3.org/2000/svg" xmlns:xlink="http://www.w3.org/1999/xlink" x="0px" y="0px"
	 viewBox="0 0 124.742 36.999" enable-background="new 0 0 124.742 36.999" xml:space="preserve">
<g>
	<path fill="#FFFFFF" d="M82.319,6.312h-3.438c-4.23,0-7.667,3.014-7.667,7.219v2.01l4.988-2.123c0.06-1.582,1.302-2.81,2.679-2.81
		h3.438c0.131,0,0.259,0.023,0.39,0.044l5.151-2.191C86.461,7.114,84.497,6.312,82.319,6.312z"/>
</g>
<g>
	<g>
		<path fill="#FFFFFF" d="M63.666,18.75l-4.979,2.129V8.428l4.979-2.115V18.75z"/>
		<polygon fill="#FFFFFF" points="58.687,0 58.687,4.503 63.622,2.407 63.622,0 		"/>
	</g>
</g>
<path fill="#FFFFFF" d="M7.714,29.43c-5.177,0-7.713-3.127-7.713-3.127L0,22c0,0,2.577,3.13,7.714,3.13
	c1.499,0,2.69-0.973,2.69-2.522c0-1.549-1.809-1.995-3.041-2.522c-3.395-1.506-7.317-2.524-7.317-6.909
	c0-4.294,3.481-6.864,7.668-6.864c4.178,0,6.702,2.214,6.702,2.214v4.296c0,0-2.456-2.212-6.702-2.212
	c-1.542,0-2.688,0.973-2.688,2.523c0,1.551,1.762,1.992,2.999,2.523c3.438,1.419,7.361,2.524,7.361,6.907
	C15.386,26.861,11.859,29.43,7.714,29.43z"/>
<path fill="#FFFFFF" d="M29.999,29.348h-4.302v5.554l-4.939,2.098v-23.46c-0.042-4.295,3.44-7.35,7.627-7.35h1.573
	c5.684-0.045,10.005,5.003,10.005,11.554C39.963,24.342,35.642,29.348,29.999,29.348z M29.999,10.525h-1.573
	c-1.407,0.048-2.73,1.332-2.73,3.014v11.38h4.261c2.556,0,5.068-2.525,5.068-7.176C35.025,13.096,32.514,10.525,29.999,10.525z"/>
<path fill="#FFFFFF" d="M107.6,29.339h-2.998c-4.319,0.308-7.757-3.118-7.757-7.33V4.656l5.025-2.14v3.774h5.729v4.34h-5.729v11.363
	c0,1.641,1.279,2.973,2.689,2.973h3.04V29.339z"/>
<path fill="#FFFFFF" d="M124.742,29.339h-2.998c-4.319,0.308-7.757-3.133-7.757-7.345V4.656l5.025-2.14v3.774h5.729v4.34h-5.729
	v11.363c0,1.641,1.279,2.973,2.689,2.973h3.04V29.339z"/>
<polygon fill="#FFFFFF" points="46.205,0 46.205,26.176 51.142,24.076 51.142,0 "/>
<polygon fill="#FFFFFF" points="63.666,18.76 63.666,29.339 58.687,29.339 58.687,20.879 "/>
<polygon fill="#FFFFFF" points="51.142,29.339 51.142,24.076 46.205,26.176 46.205,29.339 "/>
<path fill="#FFFFFF" d="M71.215,29.339h4.977V13.531c0-0.039,0.012-0.074,0.012-0.113l-4.988,2.123V29.339z"/>
<path fill="#FFFFFF" d="M82.709,10.652c1.248,0.211,2.301,1.394,2.301,2.879v15.808h4.989V13.531c0-2.042-0.818-3.798-2.139-5.07
	L82.709,10.652z"/>
</svg>
