<svg id="Layer_1" data-name="Layer 1" xmlns="http://www.w3.org/2000/svg" viewBox="0 0 51.375 70.821"><defs><style>.cls-1{fill:#fff;}</style></defs><title>male-statue</title><path class="cls-1" d="M17.937,16.809a.25.25,0,0,0,.213-.119l.062-.062a12.823,12.823,0,0,0,3.6-10.346c-.125-1.148-.2-4.256.958-4.844a.25.25,0,0,0-.227-.445c-1.667.848-1.279,4.886-1.229,5.337a12.328,12.328,0,0,1-3.456,9.946c-.123.123-.219.22-.153.379A.253.253,0,0,0,17.937,16.809Z"/><path class="cls-1" d="M21.062,15.34a.25.25,0,0,0,.212-.118c.142-.229,3.478-5.668,2.659-10.7a.25.25,0,1,0-.493.08c.788,4.848-2.557,10.3-2.591,10.359a.25.25,0,0,0,.212.382Z"/><path class="cls-1" d="M25.905,1.375a.25.25,0,0,0-.342.087c-.688,1.161-.658,3.831-.657,3.943a.25.25,0,0,0,.25.247h0a.25.25,0,0,0,.247-.253,9.894,9.894,0,0,1,.586-3.682A.249.249,0,0,0,25.905,1.375Z"/><path class="cls-1" d="M24.471,12.152a.25.25,0,0,0,.341-.095c.1-.179,2.474-4.419,2.125-7.526a.25.25,0,1,0-.5.056c.331,2.946-2.039,7.182-2.063,7.224A.25.25,0,0,0,24.471,12.152Z"/><path class="cls-1" d="M28.187,4.809a.25.25,0,0,0,.25-.25A6.782,6.782,0,0,1,29.3,1.353a.25.25,0,0,0-.418-.275,7.18,7.18,0,0,0-.947,3.481A.25.25,0,0,0,28.187,4.809Z"/><path class="cls-1" d="M30.588,1.391a.25.25,0,0,0-.35.049A6.151,6.151,0,0,0,29.156,5.23a14,14,0,0,1-1.2,5.009.25.25,0,0,0,.457.2A14.2,14.2,0,0,0,29.656,5.2a5.738,5.738,0,0,1,.981-3.459A.251.251,0,0,0,30.588,1.391Z"/><path class="cls-1" d="M15.209,16.653a.25.25,0,0,0,.331.375,11.789,11.789,0,0,0,3.428-9.265c-.322-5.44,1.365-5.924,1.376-5.927a.25.25,0,1,0-.1-.491c-.219.043-2.126.586-1.779,6.448A11.5,11.5,0,0,1,15.209,16.653Z"/><path class="cls-1" d="M17.69,1.969a.249.249,0,0,0-.342.087c-.25.421-2.421,4.158-1.7,5.731a4.7,4.7,0,0,1,.3,2.8.25.25,0,0,0,.484.124A5.12,5.12,0,0,0,16.1,7.58c-.519-1.132,1.034-4.187,1.675-5.269A.249.249,0,0,0,17.69,1.969Z"/><path class="cls-1" d="M11.364,15.8a.238.238,0,0,0,.073.011.249.249,0,0,0,.239-.176c.058-.187,1.4-4.6.16-6.551A5.761,5.761,0,0,1,11.335,5a.25.25,0,0,0-.482-.131,6.171,6.171,0,0,0,.561,4.481c1.112,1.756-.2,6.093-.215,6.136A.25.25,0,0,0,11.364,15.8Z"/><path class="cls-1" d="M9.254,7.376a.251.251,0,0,0-.343.084c-1.679,2.776.853,7.693.961,7.9a.25.25,0,0,0,.222.134.253.253,0,0,0,.116-.028.25.25,0,0,0,.106-.337c-.025-.048-2.511-4.874-.977-7.411A.25.25,0,0,0,9.254,7.376Z"/><path class="cls-1" d="M32.589,1.809a.251.251,0,0,0-.339.1,5.359,5.359,0,0,0-.5,3.06c.206,1.556-1.516,4.706-1.533,4.737a.25.25,0,0,0,.1.339.242.242,0,0,0,.12.031.249.249,0,0,0,.219-.129c.074-.135,1.818-3.326,1.592-5.044a4.936,4.936,0,0,1,.44-2.753A.251.251,0,0,0,32.589,1.809Z"/><path class="cls-1" d="M32.6,9.74a.24.24,0,0,0,.059.007.25.25,0,0,0,.243-.192c.554-2.309,1.823-6.056,2.872-6.282a.25.25,0,0,0-.105-.489c-1.7.367-3.1,6.013-3.253,6.655A.25.25,0,0,0,32.6,9.74Z"/><path class="cls-1" d="M34.392,9.461a.25.25,0,0,0,.292-.2c.225-1.207,1.127-4.36,2.582-4.453a.25.25,0,0,0-.031-.5c-2.139.136-3.007,4.667-3.043,4.86A.25.25,0,0,0,34.392,9.461Z"/><path class="cls-1" d="M36.375,9.465a.251.251,0,0,0,.219-.128c.481-.861,2.027-3.041,3.3-2.829a.245.245,0,0,0,.288-.2.25.25,0,0,0-.2-.289c-1.893-.312-3.745,2.939-3.823,3.078a.25.25,0,0,0,.219.372Z"/><path class="cls-1" d="M41,8.333,37.184,9.38a.25.25,0,0,0,.066.491.264.264,0,0,0,.066-.009l3.813-1.047A.25.25,0,1,0,41,8.333Z"/><path class="cls-1" d="M36.709,10a.25.25,0,0,0-.105.488c1.2.26,4.37,1.242,4.651,2.648a.25.25,0,0,0,.245.2.243.243,0,0,0,.049,0,.249.249,0,0,0,.2-.294C41.343,11.029,36.9,10.043,36.709,10Z"/><path class="cls-1" d="M34.313,10.627a.25.25,0,0,0,.224.274c.154.016,3.775.424,3.775,3.376a.25.25,0,1,0,.5,0c0-3.405-4.183-3.87-4.225-3.874A.241.241,0,0,0,34.313,10.627Z"/><path class="cls-1" d="M32.83,10.723a.251.251,0,0,0,.052.35c.024.018,2.4,1.8,2.552,3.217a.981.981,0,0,1-.246.792.25.25,0,0,0,.022.353.247.247,0,0,0,.165.063.251.251,0,0,0,.188-.084,1.473,1.473,0,0,0,.368-1.175c-.172-1.636-2.646-3.488-2.75-3.566A.253.253,0,0,0,32.83,10.723Z"/><path class="cls-1" d="M40.27,13.676a.25.25,0,0,0-.123.331c.608,1.328,2.139,5.052,1.919,6.322a.25.25,0,0,0,.2.289.22.22,0,0,0,.043,0,.249.249,0,0,0,.246-.208C42.85,18.732,40.694,14,40.6,13.8A.25.25,0,0,0,40.27,13.676Z"/><path class="cls-1" d="M30.844,11.2a.25.25,0,0,0-.25.434c.018.01,1.757,1.029,1.813,2.4a.25.25,0,0,0,.25.24h.01a.25.25,0,0,0,.24-.26C32.839,12.368,30.925,11.248,30.844,11.2Z"/><path class="cls-1" d="M21.106,16.313a.251.251,0,0,0-.29.2c-.008.046-.768,4.59,2.847,7.276a7.4,7.4,0,0,1,3.244,5.817.25.25,0,0,0,.236.263h.013a.251.251,0,0,0,.25-.236,7.75,7.75,0,0,0-3.445-6.246c-3.362-2.5-2.66-6.745-2.652-6.787A.25.25,0,0,0,21.106,16.313Z"/><path class="cls-1" d="M27.937,28.465a.25.25,0,0,0-.25.25v2.031a.25.25,0,0,0,.5,0V28.715A.25.25,0,0,0,27.937,28.465Z"/><path class="cls-1" d="M29.344,29.731V28.371a.25.25,0,1,0-.5,0v1.359a.25.25,0,0,0,.5,0Z"/><path class="cls-1" d="M30.281,28.4a.25.25,0,0,0,.249-.228l.156-1.719a.25.25,0,0,0-.227-.271.239.239,0,0,0-.271.227l-.156,1.719a.25.25,0,0,0,.227.271Z"/><path class="cls-1" d="M29.272,12a.251.251,0,0,0-.207.287L29.6,15.6a.25.25,0,0,0,.247.21l.04,0a.251.251,0,0,0,.207-.287l-.531-3.312A.246.246,0,0,0,29.272,12Z"/><path class="cls-1" d="M27.021,15.35a.25.25,0,0,0-.073.346l1.03,1.578a.25.25,0,0,0,.458-.162l-.406-4.047a.242.242,0,0,0-.274-.224.25.25,0,0,0-.224.273l.3,3.026-.469-.719A.25.25,0,0,0,27.021,15.35Z"/><path class="cls-1" d="M25.857,13.666a.252.252,0,0,0-.316.157c-.038.111-.9,2.742.267,4.146a.25.25,0,0,0,.384-.32c-.991-1.189-.185-3.642-.177-3.667A.25.25,0,0,0,25.857,13.666Z"/><path class="cls-1" d="M31.692,14.394a.25.25,0,1,0-.479.142,14.151,14.151,0,0,1,.6,4.486.249.249,0,0,0,.21.284l.037,0a.25.25,0,0,0,.247-.213A14.25,14.25,0,0,0,31.692,14.394Z"/><path class="cls-1" d="M34.676,18.858c.483-1.511-.214-4.747-.244-4.884a.246.246,0,0,0-.3-.191.25.25,0,0,0-.19.3c.007.032.7,3.242.256,4.625a.25.25,0,0,0,.162.314.258.258,0,0,0,.076.012A.251.251,0,0,0,34.676,18.858Z"/><path class="cls-1" d="M23.127,15.005a.252.252,0,0,0-.306.176c-.037.134-.866,3.311,1.063,5.542a.25.25,0,1,0,.378-.327c-1.753-2.027-.966-5.054-.958-5.084A.249.249,0,0,0,23.127,15.005Z"/><path class="cls-1" d="M25.176,19.425A7.779,7.779,0,0,1,28.1,24.932a.25.25,0,0,0,.248.221h.029a.25.25,0,0,0,.219-.277,8.126,8.126,0,0,0-3.144-5.869.25.25,0,0,0-.272.419Z"/><path class="cls-1" d="M25.612,22.088a.25.25,0,0,0-.327.379,6.292,6.292,0,0,1,1.872,3.852.251.251,0,0,0,.249.226h.024a.25.25,0,0,0,.225-.273A6.686,6.686,0,0,0,25.612,22.088Z"/><path class="cls-1" d="M28.037,18.83a.248.248,0,0,0-.327.128.251.251,0,0,0,.126.33c.054.024,1.306.618,1.493,3.01a.249.249,0,0,0,.249.23h.02a.25.25,0,0,0,.229-.269C29.615,19.546,28.1,18.858,28.037,18.83Z"/><path class="cls-1" d="M29.76,17.167a.25.25,0,0,0-.151.319l.875,2.469a.25.25,0,0,0,.235.167.257.257,0,0,0,.084-.014.25.25,0,0,0,.151-.319l-.875-2.469A.247.247,0,0,0,29.76,17.167Z"/><path class="cls-1" d="M31.865,22.377l-.655,2.781a.249.249,0,0,0,.186.3.238.238,0,0,0,.058.007.25.25,0,0,0,.243-.193l.655-2.781a.249.249,0,0,0-.186-.3A.246.246,0,0,0,31.865,22.377Z"/><path class="cls-1" d="M34.04,24.074h.022a.25.25,0,0,0,.249-.228,21.858,21.858,0,0,0,0-3.5.245.245,0,0,0-.271-.227.25.25,0,0,0-.227.271,21.722,21.722,0,0,1,0,3.408A.25.25,0,0,0,34.04,24.074Z"/><path class="cls-1" d="M36.894,19.136l.4-1.234.5-1.25a.251.251,0,0,0-.14-.325.253.253,0,0,0-.325.139l-.482,1.208-.035-.844a.25.25,0,0,0-.25-.239h-.011a.25.25,0,0,0-.239.261l.094,2.219a.25.25,0,0,0,.216.237l.034,0A.249.249,0,0,0,36.894,19.136Z"/><path class="cls-1" d="M39.432,20.119l.037,0a.25.25,0,0,0,.247-.213,11.962,11.962,0,0,0-.539-4.047.253.253,0,0,0-.312-.167.25.25,0,0,0-.167.312,11.708,11.708,0,0,1,.523,3.828A.249.249,0,0,0,39.432,20.119Z"/><path class="cls-1" d="M36.375,21.121a.25.25,0,0,0-.25.25v1.5a.25.25,0,0,0,.5,0v-1.5A.25.25,0,0,0,36.375,21.121Z"/><path class="cls-1" d="M40.219,24.4a.253.253,0,0,0,.163-.06c.741-.636.194-2.646.076-3.042a.247.247,0,0,0-.311-.169.25.25,0,0,0-.169.311c.254.857.444,2.206.077,2.521a.25.25,0,0,0,.163.44Z"/><path class="cls-1" d="M32.45,31.966a.25.25,0,0,0,.019.5h.018a1.2,1.2,0,0,0,.832-.411.822.822,0,0,0,.111-.712,1.377,1.377,0,0,1,.121-1.049.25.25,0,0,0-.413-.282,1.869,1.869,0,0,0-.192,1.452.327.327,0,0,1-.03.3A.727.727,0,0,1,32.45,31.966Z"/><path class="cls-1" d="M37.243,26.309a2.986,2.986,0,0,0-2.283.969c-.878.771-1.281,1.457-1.2,2.041a1.068,1.068,0,0,0,.569.78.247.247,0,0,0,.105.023.25.25,0,0,0,.105-.477.56.56,0,0,1-.286-.4c-.032-.229.059-.739,1.033-1.594a2.612,2.612,0,0,1,1.87-.852.92.92,0,0,1,.628.359.25.25,0,0,0,.424-.266A1.424,1.424,0,0,0,37.243,26.309Z"/><path class="cls-1" d="M35.409,33.254a.25.25,0,0,0,.06.493.267.267,0,0,0,.059-.007c.091-.022,2.22-.575,3.059-3.948a.25.25,0,1,0-.484-.121C37.342,32.724,35.5,33.231,35.409,33.254Z"/><path class="cls-1" d="M33.64,32.359a.248.248,0,0,0,.349.06.973.973,0,0,1,.99.018.716.716,0,0,0,.337.083c.793,0,1.624-1.235,1.8-1.514a.25.25,0,0,0-.422-.269c-.407.639-1.152,1.433-1.486,1.256a1.48,1.48,0,0,0-1.51.018A.25.25,0,0,0,33.64,32.359Z"/><path class="cls-1" d="M35.021,28.824a.25.25,0,1,0,.207.455.472.472,0,0,1,.38-.011c.106.072.158.288.143.591a.25.25,0,0,0,.237.262H36a.25.25,0,0,0,.25-.237,1.1,1.1,0,0,0-.361-1.03A.942.942,0,0,0,35.021,28.824Z"/><path class="cls-1" d="M39.667,25.654a.247.247,0,0,0,.083.014.25.25,0,0,0,.083-.486c-.691-.243-1.3-.647-1.248-.832a13.558,13.558,0,0,0-.182-3.016.25.25,0,1,0-.494.073,13.106,13.106,0,0,1,.193,2.813C37.9,24.973,39.25,25.508,39.667,25.654Z"/><path class="cls-1" d="M40.511,27.09a.25.25,0,0,0,.21-.114,11.428,11.428,0,0,0,1.685-4.086.249.249,0,0,0-.229-.268.234.234,0,0,0-.269.23A11.194,11.194,0,0,1,40.3,26.7a.25.25,0,0,0,.21.386Z"/><path class="cls-1" d="M43.812,14.528h.011a.251.251,0,0,0,.239-.261,5.333,5.333,0,0,0-1.74-3.035.25.25,0,1,0-.332.373,4.92,4.92,0,0,1,1.572,2.684A.251.251,0,0,0,43.812,14.528Z"/><path class="cls-1" d="M42.3,14.535a.251.251,0,0,0-.01.353,3.652,3.652,0,0,1,.744,2.259.25.25,0,0,0,.25.241h.01a.251.251,0,0,0,.24-.259,4.059,4.059,0,0,0-.882-2.586A.251.251,0,0,0,42.3,14.535Z"/><path class="cls-1" d="M10.654,32.373a.253.253,0,0,0-.277.22.25.25,0,0,0,.219.277c.584.068,1.386.32,1.373.615a.249.249,0,0,0,.238.261h.011a.25.25,0,0,0,.25-.239C12.508,32.632,10.964,32.409,10.654,32.373Z"/><path class="cls-1" d="M19.157,28.153a.25.25,0,0,0,.047-.5l-.276-.054a16.206,16.206,0,0,0-6.251-1.527.22.22,0,0,0-.135-.008c-.647-.034-1.072-.026-1.126-.025a.25.25,0,0,0-.189.406l.8,1a.25.25,0,1,0,.391-.312l-.47-.589c.155,0,.341.011.552.023l.716.88a.25.25,0,1,0,.388-.315l-.42-.516c.215.019.451.045.692.074,0,.006,0,.014.007.02l.953,1.017a.25.25,0,1,0,.365-.342l-.547-.584c.287.046.581.1.883.165a.235.235,0,0,0,.042.26l.875.852a.25.25,0,0,0,.349-.358l-.618-.6q.487.124.973.287a.235.235,0,0,0,.054.254l.813.73a.25.25,0,1,0,.334-.372l-.3-.267c.226.1.453.194.669.308a.256.256,0,0,0,.069.025l.313.061A.232.232,0,0,0,19.157,28.153Z"/><path class="cls-1" d="M18.187,30.465a.25.25,0,0,0,.25-.25v-.349c.049,0,.092,0,.143,0h0a.25.25,0,0,0,0-.5c-3.417-.047-3.99-1.073-4-1.1a.25.25,0,0,0-.459.2.739.739,0,0,0,.062.111.982.982,0,0,1-.63.158.25.25,0,0,0-.109.488,1,1,0,0,0,.214.023,1.69,1.69,0,0,0,.884-.3c.03.023.064.046.1.069a.831.831,0,0,1-.655.358h-.013a.25.25,0,1,0-.009.5h.022a1.341,1.341,0,0,0,1.092-.612c.063.03.128.059.2.088-.007.019-.025.03-.027.05a.65.65,0,0,1-.5.513.25.25,0,0,0,.064.492.246.246,0,0,0,.064-.008,1.147,1.147,0,0,0,.862-.888c.1.031.217.061.336.09,0,.012-.013.021-.013.034,0,.146-.04.492-.206.565a.25.25,0,0,0,.2.457,1.056,1.056,0,0,0,.5-.955c.181.032.374.06.582.084.015.164,0,.376-.084.428a.25.25,0,0,0,.128.464.246.246,0,0,0,.128-.036.866.866,0,0,0,.332-.81c.1.007.188.016.29.021v.366A.25.25,0,0,0,18.187,30.465Z"/><path class="cls-1" d="M25.778,44.049a.254.254,0,0,0,.1-.021,16.157,16.157,0,0,0,2.8-1.408.261.261,0,0,0-.035-.36.241.241,0,0,0-.344.035,28.47,28.47,0,0,1-2.623,1.276.25.25,0,0,0,.1.479Z"/><path class="cls-1" d="M29.354,42.132a.239.239,0,0,0,.116-.029l.791-.417a.249.249,0,0,0-.232-.441l-.791.417a.25.25,0,0,0,.116.471Z"/><path class="cls-1" d="M37.111,34.725a.247.247,0,0,0-.31.171,19.316,19.316,0,0,0-.484,8.017.25.25,0,0,0,.245.2.308.308,0,0,0,.051,0,.251.251,0,0,0,.194-.3,19.185,19.185,0,0,1,.475-7.776A.25.25,0,0,0,37.111,34.725Z"/><path class="cls-1" d="M14.7,36.888a.25.25,0,0,0,.036-.352l-.748-.917a.25.25,0,0,0-.388.316l.748.917a.25.25,0,0,0,.352.035Z"/><path class="cls-1" d="M51.372,49.208a.241.241,0,0,0-.062-.148.214.214,0,0,0-.03-.029c-.012-.01-.019-.025-.033-.032-.049-.027-4.886-2.756-9.07-4.92a7.662,7.662,0,0,1-4.366-5.662,15.382,15.382,0,0,1,.618-4.45,19.156,19.156,0,0,1,3.418-6.246c.52-.617,1.922-5.478,2.085-6.047.006-.03.632-3.017,1.034-6.271a8.844,8.844,0,0,0-1.431-5.9c-.142-.247-.271-.472-.375-.679a34.214,34.214,0,0,0-3.793-4.589c-2.239-1.663-3.549-2.469-3.884-2.388A26.636,26.636,0,0,1,31.649.683a4.841,4.841,0,0,0-2.94-.6,30.186,30.186,0,0,1-5.47.042,14.019,14.019,0,0,0-6.475.907A.235.235,0,0,0,16.506,1a4.888,4.888,0,0,0-.613.43A8.751,8.751,0,0,0,14.2,2.512,8.765,8.765,0,0,0,9.324,5.007c-1.964,1.954-2.9,3.984-2.8,6.033A6.945,6.945,0,0,0,8.1,14.95c-.019.024-.047.038-.056.069-.063.212-1.512,5.124-1.394,6.991a1.98,1.98,0,0,0-.534,1.349,1.349,1.349,0,0,0,.633,1c.208.146.412.295.607.444a1.107,1.107,0,0,1-.448.247.25.25,0,0,0,0,.5,1.589,1.589,0,0,0,.846-.426c.075.064.145.129.214.194a1.228,1.228,0,0,1-.641.383.25.25,0,0,0,.049.5.246.246,0,0,0,.05,0,1.715,1.715,0,0,0,.89-.515c.034.041.062.081.093.122-.012.015-.032.018-.041.036-.037.073-.147.21-.225.212a.25.25,0,0,0,0,.5h0a.7.7,0,0,0,.526-.291,1.141,1.141,0,0,1,.068.252c-.19.469-1.5,3.67-2.469,5.653a2.96,2.96,0,0,0-.33,2.265,1.565,1.565,0,0,0,.682.843,2.127,2.127,0,0,0,1.8.436.236.236,0,0,0-.082.111A4.958,4.958,0,0,0,8.164,37.4a1.433,1.433,0,0,0,.943,1.02,2.091,2.091,0,0,0,.641-.06,3.367,3.367,0,0,1,.358-.053,20.212,20.212,0,0,1,3.923,1.026c-.792.593-2.819,1.875-4.576,1a.64.64,0,0,1-.245-.4,1.158,1.158,0,0,1,.038-.73,11.27,11.27,0,0,0,3.24.67.25.25,0,1,0-.032-.5,13.28,13.28,0,0,1-3.247-.712.25.25,0,0,0-.29.1,1.623,1.623,0,0,0-.191,1.3,1.094,1.094,0,0,0,.49.7.237.237,0,0,0-.063.211,4.381,4.381,0,0,1,0,1.832,2.155,2.155,0,0,0,.3,1.757c.043.094,1.087,2.291,4.807,2.355H14.4a16.4,16.4,0,0,0,3.191-.4c.176.634,1.413,5.187,1.078,6.805a.25.25,0,0,0,.194.3.3.3,0,0,0,.051,0,.25.25,0,0,0,.244-.2c.358-1.73-.867-6.253-1.079-7.014a56.293,56.293,0,0,0,6.673-2.033.25.25,0,1,0-.178-.467c-.068.025-6.816,2.567-10.3,2.5-3.387-.059-4.323-1.981-4.387-2.108a1.7,1.7,0,0,1-.252-1.363,4.731,4.731,0,0,0,.017-2.02,3.484,3.484,0,0,0,1.109.2,6.818,6.818,0,0,0,3.945-1.7.25.25,0,0,0-.084-.421,23.981,23.981,0,0,0-4.518-1.2,2.3,2.3,0,0,0-.452.062,1.75,1.75,0,0,1-.467.057c-.206-.033-.472-.39-.538-.648a4.794,4.794,0,0,1,.184-1.346.25.25,0,0,0-.183-.3c-.006,0-.012,0-.018,0,.064-.022.125-.035.191-.065.934-.429,2.07.486,2.081.5a.253.253,0,0,0,.145.056c.009,0,.053,0,.122,0a2.308,2.308,0,0,0,1.7-.605,1.294,1.294,0,0,0,.187-1.211.25.25,0,0,0-.482.13.819.819,0,0,1-.091.765,1.837,1.837,0,0,1-1.328.422,2.7,2.7,0,0,0-2.537-.511,1.593,1.593,0,0,1-1.677-.239.265.265,0,0,0-.062-.042,1.041,1.041,0,0,1-.459-.575,2.534,2.534,0,0,1,.308-1.878c1.054-2.148,2.493-5.708,2.507-5.744a.25.25,0,0,0,.017-.113,1.737,1.737,0,0,0-.236-.719.246.246,0,0,0,.08-.171,4.86,4.86,0,0,0-1.943-3.661c-.1-1.553,1.025-5.611,1.307-6.591a7.387,7.387,0,0,0,.692.679,8.848,8.848,0,0,0,3.367,1.633,10.48,10.48,0,0,0,8.431-1.627,43.315,43.315,0,0,0,3.66-2.608c2.343-1.827,2.831-2.208,11.271-3.386a.251.251,0,0,0,.214-.282.244.244,0,0,0-.282-.213c-8.574,1.2-9.138,1.636-11.51,3.487a42.908,42.908,0,0,1-3.622,2.582,9.961,9.961,0,0,1-8.015,1.57,8.528,8.528,0,0,1-3.194-1.539,7.151,7.151,0,0,1-2.442-4.669c-.1-1.9.792-3.8,2.661-5.66a8.449,8.449,0,0,1,4.666-2.355.249.249,0,0,0,.127-.062s.041-.036.1-.082a6.96,6.96,0,0,0-.757,6.107c1.48,5.166-.529,6.75-.563,6.776a.25.25,0,0,0,.293.405c.1-.069,2.343-1.76.75-7.319-1.108-3.867.7-6.022,1.763-6.9A13.24,13.24,0,0,1,23.2.621c.186.012,4.558.269,5.651-.062a4.6,4.6,0,0,1,2.593.579,22.013,22.013,0,0,0,4.1,1.2,21.437,21.437,0,0,1,3.486,2.269,35.221,35.221,0,0,1,3.676,4.439c.107.215.242.448.39.7a8.3,8.3,0,0,1,1.367,5.59c-.4,3.232-1.021,6.2-1.023,6.212A41.431,41.431,0,0,1,41.465,27.4,22.379,22.379,0,0,0,38.7,31.784c.941-2.165,1.135-3.879.558-5.087a2.474,2.474,0,0,0-1.473-1.335,3.266,3.266,0,0,0-3.391.729,2.86,2.86,0,0,1-2.852.706.25.25,0,0,0-.187.464,3.34,3.34,0,0,0,3.368-.794,2.79,2.79,0,0,1,2.9-.633,2,2,0,0,1,1.189,1.091c.528,1.123.276,2.862-.732,5.037a6.5,6.5,0,0,1-3.423,3.146c-2.214.855-2.458.552-3.046-.182l-.172-.212a.25.25,0,1,0-.385.318l.166.206a1.737,1.737,0,0,0,1.471.884,6.432,6.432,0,0,0,2.146-.547A6.926,6.926,0,0,0,38.48,32.29a11.707,11.707,0,0,0-.535,1.55,15.443,15.443,0,0,0-.632,4.613,8.008,8.008,0,0,0,4.634,6.068c3.475,1.8,7.4,3.984,8.65,4.686l-29.241,15.1L.745,44.409A71.5,71.5,0,0,0,8.963,41.9a.25.25,0,0,0-.232-.443C7.259,42.224.259,44.018.188,44.036a.249.249,0,0,0-.114.065v0a.252.252,0,0,0-.064.11.242.242,0,0,0,0,.044c0,.008-.009.013-.009.021v6.688a.249.249,0,0,0,.08.183L21.142,70.754c.005,0,.013,0,.018.007s.014.018.024.024a.244.244,0,0,0,.129.036.25.25,0,0,0,.117-.029L41.18,60.33a.25.25,0,1,0-.234-.441L21.562,70.157V64.765l29.313-15.14v5L46.98,56.691a.25.25,0,1,0,.234.441L51.242,55a.248.248,0,0,0,.133-.221V49.215ZM7.99,23.651a4.113,4.113,0,0,1,.376.719c-.007.023-.026.039-.026.064v.547c-.1-.1-.214-.2-.331-.293a.238.238,0,0,0,.053-.129v-.734A.249.249,0,0,0,7.99,23.651Zm0,0a.25.25,0,0,0-.426.177v.508l-.2-.148c0-.012.013-.019.013-.032V23.09a.25.25,0,0,0-.5,0v.7a.782.782,0,0,1-.262-.475,1.337,1.337,0,0,1,.327-.867A5.8,5.8,0,0,1,7.988,23.647ZM.5,44.867,21.062,64.72V70L.5,50.857Z"/><path class="cls-1" d="M15.189,39.851a.258.258,0,0,0,.1.021.251.251,0,0,0,.229-.15.968.968,0,0,0,.017-.773,1.721,1.721,0,0,0-.906-.8.25.25,0,1,0-.182.465,1.284,1.284,0,0,1,.626.529.468.468,0,0,1-.015.382A.251.251,0,0,0,15.189,39.851Z"/><path class="cls-1" d="M42.984,51.89a.254.254,0,0,0,.105-.023l5.224-2.425a.25.25,0,0,0-.211-.453l-5.224,2.425a.25.25,0,0,0,.105.477Z"/><path class="cls-1" d="M50.208,54.306V51.14a.25.25,0,0,0-.5,0v3.166a.25.25,0,0,0,.5,0Z"/><path class="cls-1" d="M48.458,53.382V52.223a.25.25,0,0,0-.5,0v1.159a.25.25,0,0,0,.5,0Z"/><path class="cls-1" d="M20.5,60.745a.25.25,0,1,0-.406.291l1.016,1.416a.25.25,0,0,0,.2.1.254.254,0,0,0,.112-.026l5.845-2.916a.25.25,0,1,0-.223-.447l-5.655,2.821Z"/><path class="cls-1" d="M31.453,53.632a.25.25,0,0,0,.2-.4C30.373,51.472,30,47.327,30,47.285a.232.232,0,0,0-.271-.228.25.25,0,0,0-.228.271c.015.176.386,4.326,1.75,6.2A.251.251,0,0,0,31.453,53.632Z"/><path class="cls-1" d="M16.112,48.17a.25.25,0,0,0-.306-.4,3.528,3.528,0,0,1-2.015.531.25.25,0,0,0,0,.5A3.935,3.935,0,0,0,16.112,48.17Z"/><path class="cls-1" d="M8.079,55.076l-.97-1.333a.249.249,0,0,0-.315-.075l-.1.051.433-.8a.249.249,0,0,0-.054-.306.253.253,0,0,0-.311-.018l-.648.46L1.965,49.036a.25.25,0,1,0-.348.359l4.3,4.167a.247.247,0,0,0,.265.053l-.311.572a.25.25,0,0,0,.333.342l.627-.319.845,1.161a.25.25,0,0,0,.4-.295Z"/><path class="cls-1" d="M19.86,10.074h.015a.25.25,0,0,0,.25-.235,28.7,28.7,0,0,0,0-3.95.25.25,0,0,0-.494.073,29.054,29.054,0,0,1,0,3.847A.25.25,0,0,0,19.86,10.074Z"/><path class="cls-1" d="M23.221,65.223V67.89a.25.25,0,0,0,.5,0V65.223a.25.25,0,0,0-.5,0Z"/><path class="cls-1" d="M48.994,57.2l-8.6,4.549a.25.25,0,1,0,.234.441l8.6-4.549a.25.25,0,0,0-.234-.441Z"/></svg>