<svg id="Layer_1" data-name="Layer 1" xmlns="http://www.w3.org/2000/svg" viewBox="0 0 39.903 59.345"><defs><style>.cls-1{fill:#3d3d3d;}</style></defs><title>smartphone</title><path class="cls-1" d="M39.782,57.42a1.58,1.58,0,0,0-.058-1.334C39.106,54.4,23.1,17.8,22.429,16.261c-.058-.18-1.46-4.413-4.3-6.271C15.321,8.159,3.371.379,3.371.379A.288.288,0,0,0,3.337.361,1.44,1.44,0,0,0,2.584.244c0-.014.011-.025.008-.039A.248.248,0,0,0,2.3,0,3.408,3.408,0,0,0,.223,1.224,1.608,1.608,0,0,0,.093,2.59C.654,4.379,17.243,43.7,17.944,45.353A10.819,10.819,0,0,0,22.5,50.614l14.475,8.629a2.74,2.74,0,0,0,.75.1,2.207,2.207,0,0,0,1.1-.27,2.162,2.162,0,0,0,1-1.458A.243.243,0,0,0,39.782,57.42Zm-.446-.208c-.1.107-.323.085-.425.064-.7-.418-12.323-7.338-14.843-8.866A10.731,10.731,0,0,1,20.3,43.78l-.6-1.414L37.986,53.25c.713,1.66,1.176,2.755,1.269,3.009C39.5,56.932,39.394,57.15,39.336,57.212ZM37.65,52.467,19.376,41.588C16.418,34.572,7.185,12.657,3.872,4.661L21.779,15.944c.115.3.178.482.183.495C22.1,16.753,33.376,42.54,37.65,52.467ZM3.116.81c.514.335,11.994,7.809,14.734,9.6a11.349,11.349,0,0,1,3.589,4.73L3.542,3.863C3.077,2.736,2.776,2,2.7,1.773,2.41.988,2.552.8,2.584.773,2.675.688,2.946.739,3.116.81ZM38.578,58.638a1.742,1.742,0,0,1-.865.208,2.253,2.253,0,0,1-.537-.057l-14.419-8.6a10.516,10.516,0,0,1-4.347-5.01C18.238,44.765,1.124,4.207.57,2.441a1.116,1.116,0,0,1,.081-.958A2.605,2.605,0,0,1,2.143.557a1.676,1.676,0,0,0,.082,1.387c.7,1.918,16.924,40.394,17.612,42.025a11.046,11.046,0,0,0,3.972,4.87c2.588,1.568,14.756,8.813,14.879,8.887a.248.248,0,0,0,.06.026,1.334,1.334,0,0,0,.333.043,1.251,1.251,0,0,0,.169-.025A1.563,1.563,0,0,1,38.578,58.638Z"/><path class="cls-1" d="M13.193,8.878a.25.25,0,0,0,.275-.417L10.92,6.774a.25.25,0,0,0-.275.417Z"/><path class="cls-1" d="M3.578,8.354a.251.251,0,0,0-.136.327L6.014,14.9a.251.251,0,0,0,.231.154.244.244,0,0,0,.1-.019.251.251,0,0,0,.136-.327L3.905,8.49A.25.25,0,0,0,3.578,8.354Z"/><path class="cls-1" d="M23.314,49.327a7.4,7.4,0,0,1-3.051-2.993.25.25,0,0,0-.465.184,7.7,7.7,0,0,0,3.256,3.236c2.5,1.527,3.7,2.327,3.714,2.335a.248.248,0,0,0,.139.042.25.25,0,0,0,.139-.458C27.033,51.665,25.828,50.86,23.314,49.327Z"/><path class="cls-1" d="M29.876,48.665c-.577-.414-.9-.347-1.067-.219a.524.524,0,0,0-.2.362,3.675,3.675,0,0,0,.949,2.148,5.792,5.792,0,0,0,1.154,1.169,1.4,1.4,0,0,0,.76.319.494.494,0,0,0,.308-.1c.58-.443-.2-1.786-.754-2.51A5.776,5.776,0,0,0,29.876,48.665Zm.083,1.987c-.761-1-.91-1.7-.856-1.8a.078.078,0,0,1,.022,0c.169,0,.785.345,1.509,1.292.741.971.9,1.666.845,1.806C31.347,51.969,30.7,51.622,29.959,50.652Z"/></svg>