<?xml version="1.0" encoding="utf-8"?>
<!-- Generator: Adobe Illustrator 20.1.0, SVG Export Plug-In . SVG Version: 6.00 Build 0)  -->
<svg version="1.1" id="GREAT_BRITAIN" xmlns="http://www.w3.org/2000/svg" xmlns:xlink="http://www.w3.org/1999/xlink" x="0px"
	 y="0px" viewBox="0 0 23.974 15" enable-background="new 0 0 23.974 15" xml:space="preserve">
<g>
	<rect fill="#194093" width="23.974" height="15"/>
	<path fill="#FFFFFF" d="M23.974,0h-3l-6.246,3.902c0-1.649,0-3.902,0-3.902h-5.5c0,0,0,2.404,0,4.063L2.626,0H0v2.028l4.735,2.928
		c-2.382,0-4.735,0-4.735,0v5.197c0,0,2.328,0,4.696,0L0,13.102V15h3.107l6.121-3.838c0,1.622,0,3.838,0,3.838h5.5
		c0,0,0-2.279,0-3.906L21.053,15h2.921v-1.877l-4.812-2.97c2.409,0,4.812,0,4.812,0V4.956c0,0-2.386,0-4.788,0l4.788-3V0z"/>
	<g>
		<path fill="#E30613" d="M7.718,4.956L0,0v1.308l5.766,3.648C6.464,4.956,7.135,4.956,7.718,4.956z"/>
		<path fill="#E30613" d="M16.267,10.153L23.974,15l0,0v-1.217l-5.755-3.63C17.521,10.153,16.85,10.153,16.267,10.153z"/>
		<path fill="#E30613" d="M9.228,10.153c-0.356,0-0.916,0-1.587,0L0,15l0,0h1.83l7.398-4.609
			C9.228,10.307,9.228,10.227,9.228,10.153z"/>
		<path fill="#E30613" d="M14.729,4.956c0.335,0,0.854,0,1.478,0l7.767-4.835V0h-1.748l-7.497,4.65
			C14.729,4.759,14.729,4.862,14.729,4.956z"/>
	</g>
	<polygon fill="#E30613" points="23.974,6.059 13.55,6.059 13.55,0 10.407,0 10.407,6.059 0,6.059 0,9.05 10.407,9.05 10.407,15 
		13.55,15 13.55,9.05 23.974,9.05 	"/>
</g>
</svg>
