<svg id="Isolation_Mode" data-name="Isolation Mode" xmlns="http://www.w3.org/2000/svg" viewBox="0 0 891.624 472.116"><defs><style>.cls-1{fill:#f2f2f2;}.cls-1,.cls-2,.cls-3,.cls-4{opacity:0.08;}.cls-2{fill:#fafafa;}.cls-3{fill:#f2f2f1;}.cls-4{fill:#fefffd;}</style></defs><title>werken-bij-pattern</title><polygon class="cls-1" points="391.005 0 391.005 73.322 478.277 36.66 391.005 0"/><path class="cls-2" d="M478.276,109.953l.006,0-.006,0Zm0-.005,87.267-36.656L478.276,36.633v73.314Z"/><polygon class="cls-3" points="130.892 80.79 130.892 154.109 43.619 117.449 130.892 80.79"/><polygon class="cls-2" points="130.892 80.786 130.892 80.691 130.892 7.468 43.619 44.128 130.892 80.786"/><polygon class="cls-4" points="130.892 80.795 130.892 154.117 218.161 117.455 130.892 80.795"/><path class="cls-1" d="M891.624,154.116V80.823l-87.238,36.645Zm0-73.293V80.8l-.031.015Z"/><polygon class="cls-1" points="450.895 393.276 450.895 319.956 363.624 356.616 450.895 393.276"/><polygon class="cls-2" points="363.624 356.616 363.624 356.616 450.895 319.955 363.624 283.295 363.624 356.616"/><polygon class="cls-1" points="776.436 292.936 776.436 219.616 689.165 256.276 776.436 292.936"/><polygon class="cls-2" points="776.617 366.258 776.617 366.258 863.887 329.596 776.617 292.936 776.617 366.258"/><path class="cls-1" d="M0,398.8v73.293l87.238-36.645Zm0,73.293v.027l.031-.015Z"/></svg>