<?xml version="1.0" encoding="iso-8859-1"?>
<!-- Generator: Adobe Illustrator 19.2.1, SVG Export Plug-In . SVG Version: 6.00 Build 0)  -->
<svg version="1.1" id="Layer_1" xmlns="http://www.w3.org/2000/svg" xmlns:xlink="http://www.w3.org/1999/xlink" x="0px" y="0px"
	 viewBox="0 0 237.631 239.018" style="enable-background:new 0 0 237.631 239.018;" xml:space="preserve">
<path style="fill:#FFFFFF;" d="M225.631,107.509H40.971l87.023-87.023c4.686-4.687,4.686-12.284,0-16.971
	c-4.687-4.687-12.284-4.687-16.971,0L3.515,111.024c-0.007,0.007-0.013,0.016-0.021,0.023c-0.271,0.273-0.529,0.558-0.774,0.856
	c-0.114,0.139-0.213,0.285-0.32,0.428c-0.128,0.171-0.26,0.338-0.379,0.516c-0.113,0.169-0.211,0.345-0.315,0.518
	c-0.097,0.162-0.199,0.321-0.289,0.489c-0.094,0.176-0.174,0.358-0.259,0.538c-0.083,0.175-0.17,0.347-0.245,0.527
	c-0.072,0.175-0.13,0.353-0.194,0.53c-0.069,0.192-0.143,0.381-0.202,0.578c-0.054,0.177-0.093,0.357-0.138,0.536
	c-0.051,0.201-0.107,0.399-0.147,0.604c-0.04,0.204-0.064,0.409-0.094,0.615c-0.026,0.182-0.061,0.361-0.079,0.546
	c-0.037,0.378-0.056,0.758-0.057,1.138c0,0.015-0.002,0.03-0.002,0.045s0.002,0.03,0.002,0.045c0.001,0.38,0.02,0.759,0.057,1.138
	c0.018,0.185,0.052,0.364,0.079,0.546c0.03,0.205,0.053,0.411,0.094,0.615c0.041,0.205,0.097,0.403,0.147,0.604
	c0.045,0.179,0.084,0.359,0.138,0.536c0.06,0.197,0.133,0.386,0.202,0.579c0.063,0.177,0.122,0.355,0.194,0.529
	c0.075,0.18,0.162,0.353,0.245,0.528c0.085,0.18,0.164,0.361,0.259,0.537c0.09,0.167,0.192,0.326,0.289,0.489
	c0.104,0.174,0.202,0.349,0.315,0.518c0.119,0.178,0.251,0.345,0.379,0.516c0.107,0.143,0.206,0.289,0.32,0.428
	c0.244,0.298,0.502,0.583,0.774,0.856c0.007,0.007,0.013,0.016,0.021,0.023l107.509,107.509c2.343,2.343,5.414,3.515,8.485,3.515
	s6.142-1.172,8.485-3.515c4.686-4.687,4.686-12.284,0-16.971l-87.023-87.023h184.661c6.627,0,12-5.373,12-12
	S232.258,107.509,225.631,107.509z"/>
</svg>
