<?xml version="1.0" encoding="utf-8"?>
<!-- Generator: Adobe Illustrator 19.2.1, SVG Export Plug-In . SVG Version: 6.00 Build 0)  -->
<svg version="1.1" id="Laag_1" xmlns="http://www.w3.org/2000/svg" xmlns:xlink="http://www.w3.org/1999/xlink" x="0px" y="0px"
	 viewBox="0 0 90.319 101.987" style="enable-background:new 0 0 90.319 101.987;" xml:space="preserve">
<style type="text/css">
	.st0{fill:#fff;}
</style>
<g>
	<path class="st0" d="M23.864,52.258c0-2.75-1.91-4.389-5.273-4.389c-1.372,0-2.305,0.131-2.792,0.269v8.816
		c0.576,0.133,1.289,0.176,2.26,0.176C21.647,57.13,23.864,55.314,23.864,52.258L23.864,52.258z M23.864,52.258"/>
	<path class="st0" d="M44.691,47.957c-1.509,0-2.481,0.136-3.057,0.269v19.538c0.576,0.136,1.51,0.136,2.348,0.136
		c6.113,0.039,10.101-3.325,10.101-10.457C54.128,51.237,50.495,47.957,44.691,47.957L44.691,47.957z M44.691,47.957"/>
	<path class="st0" d="M84.601,36.48h-2.446V24.664c0-0.072-0.014-0.151-0.024-0.224c-0.005-0.469-0.151-0.927-0.474-1.294
		L61.993,0.684c-0.005-0.005-0.01-0.01-0.015-0.015c-0.118-0.131-0.254-0.239-0.396-0.331c-0.044-0.03-0.088-0.054-0.131-0.079
		c-0.128-0.069-0.259-0.128-0.395-0.166c-0.04-0.01-0.069-0.024-0.107-0.034C60.801,0.025,60.645,0,60.488,0H12.166
		C9.96,0,8.163,1.797,8.163,3.998V36.48H5.717C2.558,36.48,0,39.037,0,42.196v29.722c0,3.158,2.558,5.717,5.717,5.717h2.446v20.348
		c0,2.207,1.797,4.004,4.003,4.004h65.986c2.207,0,4.003-1.797,4.003-4.004V77.64h2.446c3.16,0,5.718-2.563,5.718-5.717V42.196
		C90.319,39.037,87.761,36.48,84.601,36.48L84.601,36.48z M12.166,3.998h46.322v20.466c0,1.104,0.899,1.997,2.001,1.997h17.664
		V36.48H12.166V3.998z M61.261,57.218c0,5.717-2.085,9.657-4.965,12.098c-3.145,2.612-7.929,3.852-13.777,3.852
		c-3.496,0-5.982-0.22-7.665-0.44V43.397c2.48-0.401,5.717-0.62,9.129-0.62c5.669,0,9.345,1.015,12.226,3.187
		C59.312,48.269,61.261,51.946,61.261,57.218L61.261,57.218z M9.11,72.86V43.397c2.08-0.356,5.004-0.62,9.125-0.62
		c4.164,0,7.138,0.795,9.13,2.392c1.903,1.504,3.187,3.988,3.187,6.913c0,2.925-0.971,5.404-2.748,7.089
		c-2.305,2.167-5.712,3.143-9.701,3.143c-0.889,0-1.683-0.044-2.303-0.131V72.86H9.11z M78.152,96.904H12.166V77.64h65.986V96.904z
		 M83.947,48.533H72.474v6.825h10.721v5.493H72.474V72.86h-6.776V42.996h18.25V48.533z M83.947,48.533"/>
</g>
</svg>
